<?xml version="1.0" encoding="UTF-8"?><svg id="_レイヤー_2" xmlns="http://www.w3.org/2000/svg" viewBox="0 0 155.45 21.33"><defs><style>.cls-1{fill:#fff;stroke-width:0px;}</style></defs><g id="_レイヤー_1-2"><path class="cls-1" d="M28.69,6.53h1.93v9.32h5.59v1.67h-7.52V6.53Z"/><path class="cls-1" d="M38.15,6.53h1.93v10.99h-1.93V6.53Z"/><path class="cls-1" d="M42.94,6.53h2.03l5.02,8.1h.03V6.53h1.83v10.99h-2.03l-5.01-8.08h-.05v8.08h-1.83V6.53Z"/><path class="cls-1" d="M54.72,6.53h7.92v1.67h-5.99v2.87h5.54v1.57h-5.54v3.22h6.1v1.67h-8.03V6.53Z"/><path class="cls-1" d="M68.26,6.69c.14-.29.21-.55.29-.91.5.14,1.01.31,1.39.49.15.07.21.14.21.24,0,.08-.03.14-.13.21-.14.1-.22.24-.32.43-1.06,2.17-2.39,3.84-4.12,5.15-.15.13-.25.2-.32.2-.08,0-.14-.1-.27-.31-.24-.39-.53-.74-.78-.91,1.85-1.13,3.25-2.84,4.05-4.59ZM72.89,12.61c.08-.04.13-.07.17-.07.03,0,.06.03.11.08,1.13,1.4,2.02,2.76,2.98,4.48.07.13.07.15-.13.27l-1.05.6c-.07.04-.13.07-.17.07-.06,0-.08-.03-.13-.11-.21-.43-.43-.85-.66-1.27-2.35.35-4.9.63-7.36.84-.28.03-.42.08-.53.15-.1.07-.15.1-.24.1-.1,0-.17-.08-.21-.22-.13-.39-.24-.9-.34-1.48.53.01,1.04,0,1.6-.03.13,0,.27-.01.39-.01.76-1.65,1.43-3.32,1.81-4.54.18-.56.31-.99.38-1.47.55.13,1.02.22,1.5.36.15.06.27.13.27.24,0,.1-.03.15-.11.25-.13.14-.21.29-.36.67-.5,1.34-1.12,2.9-1.79,4.35,1.43-.11,2.93-.25,4.31-.41-.45-.7-.91-1.39-1.43-2.07-.08-.11-.07-.14.11-.25l.88-.53ZM72.63,5.8c.18-.08.21-.07.28.07.92,2.17,2.65,4.07,4.55,5.18-.27.21-.56.64-.78,1.05-.11.21-.18.31-.27.31-.07,0-.15-.07-.29-.18-2.04-1.55-3.6-3.58-4.56-5.78-.06-.15-.03-.17.14-.25l.94-.39Z"/><path class="cls-1" d="M81.16,9.43c-1.27,0-1.71.03-1.79.03-.14,0-.14-.01-.14-.17v-1.11c0-.15,0-.17.14-.17.08,0,.52.03,1.79.03h5.03c0-.18-.01-.38-.01-.57,0-.94-.03-1.34-.11-2,.5.01,1.05.03,1.53.08.14.01.22.08.22.17,0,.11-.06.21-.08.29-.07.2-.08.48-.07,1.41v.62h1.72c1.27,0,1.71-.03,1.79-.03.14,0,.15.01.15.17v1.11c0,.15-.01.17-.15.17-.08,0-.52-.03-1.79-.03h-1.67c.1,1.82.32,3.4.8,4.79.41,1.26.84,2.07,1.26,2.07.38,0,.55-.77.63-2.04.21.21.6.46.91.63q.41.22.35.66c-.28,1.79-.87,2.55-1.69,2.53-1.06-.01-2.04-1.01-2.74-3.08-.53-1.53-.83-3.47-.97-5.56h-5.1ZM83.43,12.54v2.74c.92-.22,1.89-.49,2.73-.78-.03.25-.04.6-.04.88q0,.46-.42.59c-1.4.46-3.5,1.04-5.01,1.36-.35.08-.5.15-.59.21-.1.06-.17.1-.25.1s-.15-.06-.2-.18c-.11-.34-.25-.92-.36-1.41.48-.01.84-.07,1.34-.17l1.34-.25v-3.08h-.48c-1.19,0-1.58.03-1.67.03-.14,0-.15-.01-.15-.14v-1.05c0-.15.01-.17.15-.17.08,0,.48.03,1.67.03h2.48c1.18,0,1.57-.03,1.65-.03.15,0,.17.01.17.17v1.05c0,.13-.01.14-.17.14-.08,0-.48-.03-1.65-.03h-.55ZM89.07,5.71c.08-.06.13-.08.17-.08s.08.03.14.08c.43.35.87.81,1.2,1.29.08.11.07.17-.1.28l-.66.45c-.08.06-.14.08-.18.08s-.08-.04-.13-.11c-.31-.52-.73-.99-1.09-1.33-.11-.11-.08-.15.06-.25l.59-.41Z"/><path class="cls-1" d="M96.77,8.52c-.8,0-1.65.06-2.48.11-.17.01-.22-.08-.25-.21-.11-.39-.2-1.09-.25-1.51.95.07,1.72.1,2.84.1h6.01c.59,0,.83-.03.97-.08.07-.03.2-.1.27-.1.11,0,.22.08.32.2.31.27.57.56.84.88.07.08.11.17.11.25,0,.11-.07.21-.2.29-.15.11-.27.25-.38.41-.66.99-1.53,1.96-2.46,2.7-.08.08-.18.13-.29.13s-.24-.06-.34-.14c-.35-.28-.7-.43-1.16-.57,1.12-.84,1.81-1.44,2.51-2.45h-6.05ZM97.55,13.98c.53-.99.69-1.95.69-3.3,0-.52-.03-.84-.14-1.32.69.07,1.41.17,1.81.27.18.04.24.14.24.27,0,.08-.03.17-.07.25-.1.2-.11.34-.13.57-.04,1.36-.18,2.6-.83,3.85-.55,1.05-1.39,2.04-2.55,2.79-.13.08-.25.14-.39.14-.1,0-.2-.04-.28-.13-.34-.29-.74-.52-1.27-.71,1.53-.8,2.32-1.55,2.93-2.67Z"/><path class="cls-1" d="M111.64,8.95c.06-.69.08-1.13.1-1.89,0-.36-.01-.66-.1-1.11.74.07,1.37.17,1.82.29.18.06.24.17.24.29,0,.08-.03.18-.07.27-.13.21-.15.35-.18.66-.04.45-.06.78-.13,1.47h2.13c.64,0,1.3-.03,1.95-.03.22,0,.29.04.29.2,0,.18-.03.74-.06,1.48-.06,1.72-.25,3.67-.52,4.61-.28,1.08-.76,1.67-1.65,1.89-.32.08-.83.15-1.41.15-.17,0-.28-.1-.34-.28-.18-.52-.41-.9-.81-1.27,1.04.04,1.55-.01,1.9-.13.38-.13.56-.35.73-.98.25-1.06.38-2.25.42-4.2h-2.83c-.28,1.69-.66,2.95-1.25,3.88-.64,1.05-1.68,2.1-2.97,2.88-.11.07-.22.11-.32.11-.08,0-.18-.04-.27-.14-.28-.31-.7-.6-1.18-.81,1.61-.81,2.53-1.69,3.29-2.86.43-.7.78-1.65,1.01-3.02h-1.26c-.69,0-1.36.03-2.02.07-.14.01-.2-.07-.21-.24-.06-.34-.08-.84-.11-1.36.88.06,1.51.06,2.32.06h1.47Z"/><path class="cls-1" d="M128.55,8.17c.66,0,.87-.04,1.05-.15.06-.04.13-.07.2-.07.11,0,.22.06.31.14.28.21.69.57.94.87.07.07.1.14.1.21,0,.11-.06.21-.14.31-.18.18-.24.45-.31.69-.43,1.44-.94,2.86-1.76,4.12-.81,1.26-2.2,2.59-3.61,3.43-.08.06-.15.08-.22.08-.1,0-.18-.06-.29-.14-.43-.29-.84-.46-1.4-.63,1.97-1.09,3.07-2.06,4-3.49.78-1.19,1.27-2.41,1.62-3.91h-6.09v1.18c0,.56.03,1.13.04,1.69,0,.22-.04.27-.22.27-.42.03-.87.03-1.29,0-.18,0-.22-.04-.22-.21.01-.71.03-1.18.03-1.74v-1.13c0-.45,0-.95-.03-1.36-.01-.13.07-.18.2-.18.66.03,1.43.04,2.13.04h1.43v-.55c0-.74,0-1.32-.14-1.86.69.06,1.34.13,1.74.21.28.06.36.21.25.43-.07.2-.17.49-.17,1.08v.67h1.88Z"/><path class="cls-1" d="M135.06,7.29c.06-.07.13-.11.2-.11.06,0,.11.03.18.07.71.38,1.88,1.23,2.67,1.99.08.08.13.14.13.2s-.03.11-.08.18c-.21.28-.67.84-.87,1.05-.07.07-.11.11-.17.11s-.11-.04-.18-.11c-.84-.87-1.85-1.67-2.86-2.28.31-.38.71-.81.98-1.09ZM136.28,14.67c1.71-.88,2.62-1.47,4.03-2.6,1.71-1.39,2.65-2.28,3.84-3.81.08.7.21,1.18.39,1.64.04.1.07.18.07.27,0,.13-.07.24-.22.42-.74.87-1.95,1.99-3.22,2.97-1.16.91-2.34,1.69-4.23,2.74-.63.38-.81.52-.94.64-.08.08-.17.14-.25.14-.07,0-.15-.06-.24-.15-.35-.39-.78-.97-1.12-1.55.71-.2,1.15-.32,1.89-.7Z"/><path class="cls-1" d="M150.81,9.91c1.71.53,3.07,1.08,4.45,1.9.15.08.22.18.15.36-.18.46-.41.9-.6,1.22-.06.1-.11.15-.18.15-.04,0-.1-.01-.15-.07-1.29-.83-2.55-1.44-3.68-1.79v3.09c0,.91.03,1.74.06,2.74.01.17-.06.21-.25.21-.41.03-.84.03-1.25,0-.2,0-.27-.04-.27-.21.04-1.04.06-1.86.06-2.76v-6.89c0-1.05-.04-1.51-.14-2.07.64.04,1.34.11,1.75.22.2.04.27.13.27.24,0,.08-.04.2-.11.32-.1.18-.1.53-.1,1.32v2Z"/><path class="cls-1" d="M22.38,9.08C22.38,4.07,17.36,0,11.19,0S0,4.07,0,9.08c0,4.49,3.98,8.25,9.36,8.96.36.08.86.24.99.55.11.28.07.73.04,1.01,0,0-.13.79-.16.96-.05.28-.23,1.11.97.6,1.19-.5,6.45-3.8,8.79-6.5h0c1.62-1.78,2.4-3.58,2.4-5.59ZM7.24,11.76c0,.12-.1.22-.22.22h-3.14c-.06,0-.11-.02-.15-.06,0,0,0,0,0,0,0,0,0,0,0,0-.04-.04-.06-.09-.06-.15v-4.88c0-.12.1-.22.22-.22h.79c.12,0,.22.1.22.22v3.87h2.13c.12,0,.22.1.22.22v.78ZM9.14,11.76c0,.12-.1.22-.22.22h-.79c-.12,0-.22-.1-.22-.22v-4.88c0-.12.1-.22.22-.22h.79c.12,0,.22.1.22.22v4.88ZM14.54,11.76c0,.12-.1.22-.22.22h-.79s-.04,0-.06,0h0s0,0-.01,0c0,0,0,0,0,0,0,0,0,0-.01,0,0,0,0,0-.01,0,0,0,0,0,0,0,0,0,0,0-.01,0,0,0,0,0,0,0-.02-.01-.04-.03-.06-.05l-2.24-3.02v2.9c0,.12-.1.22-.22.22h-.79c-.12,0-.22-.1-.22-.22v-4.88c0-.12.1-.22.22-.22h.79s0,0,0,0c0,0,0,0,.01,0,0,0,0,0,.01,0,0,0,0,0,0,0,0,0,0,0,.01,0,0,0,0,0,0,0,0,0,0,0,.01,0,0,0,0,0,0,0,0,0,0,0,.01,0,0,0,0,0,0,0,0,0,0,0,.01,0,0,0,0,0,0,0,0,0,0,0,.01,0,0,0,0,0,0,0,0,0,0,0,.01,0,0,0,0,0,0,0,0,0,0,0,.01.01,0,0,0,0,0,0,0,0,.01.01.02.02l2.24,3.02v-2.9c0-.12.1-.22.22-.22h.79c.12,0,.22.1.22.22v4.88ZM18.88,7.67c0,.12-.1.22-.22.22h-2.13v.82h2.13c.12,0,.22.1.22.22v.78c0,.12-.1.22-.22.22h-2.13v.82h2.13c.12,0,.22.1.22.22v.78c0,.12-.1.22-.22.22h-3.14c-.06,0-.11-.02-.15-.06,0,0,0,0,0,0,0,0,0,0,0,0-.04-.04-.06-.09-.06-.15v-4.88c0-.06.02-.11.06-.15,0,0,0,0,0,0,0,0,0,0,0,0,.04-.04.09-.06.15-.06h3.14c.12,0,.22.1.22.22v.79Z"/></g></svg>