<?xml version="1.0" encoding="UTF-8"?><svg id="_レイヤー_2" xmlns="http://www.w3.org/2000/svg" viewBox="0 0 86.9 21.33"><defs><style>.cls-1{fill:#fff;stroke-width:0px;}</style></defs><g id="_レイヤー_1-2"><path class="cls-1" d="M40.56,6.27l-2.17,10.86h-2.32l-.94-5.06c-.1-.56-.31-1.92-.6-4.07h-.2c-.26,1.92-.46,3.26-.6,4.02l-.88,5.11h-2.32l-2.11-10.86h1.92l.78,4.96c.22,1.46.4,2.81.55,4.03h.2c.05-.31.11-.76.18-1.35.16-1.19.29-2.07.39-2.64l.88-5h2.42l.91,5.16c.22,1.3.4,2.57.53,3.83h.2c.05-.31.14-1.02.29-2.13.1-.7.18-1.3.26-1.78l.83-5.08h1.81Z"/><path class="cls-1" d="M48.81,13.67h-5.2c0,.8.2,1.42.56,1.85.33.39.79.58,1.37.58.83,0,1.37-.49,1.62-1.46l1.6.46c-.48,1.49-1.56,2.23-3.24,2.23-1.23,0-2.16-.4-2.8-1.19-.56-.69-.84-1.63-.84-2.8,0-1.33.36-2.37,1.09-3.1.62-.64,1.42-.96,2.39-.96,1.08,0,1.94.39,2.57,1.18.57.72.86,1.67.86,2.85v.36ZM47.09,12.51c-.09-1.34-.65-2.02-1.68-2.02-.56,0-1,.21-1.31.62-.26.35-.42.82-.46,1.4h3.45Z"/><path class="cls-1" d="M52.99,6.07v4.48c.26-.42.59-.75,1-.98.35-.19.72-.29,1.11-.29.93,0,1.66.38,2.18,1.13.49.7.73,1.65.73,2.84,0,1.35-.34,2.4-1.01,3.16-.54.61-1.21.92-2,.92-.98,0-1.7-.46-2.15-1.39l-.36,1.19h-1.26V6.07h1.75ZM52.99,11.98v2.7c.37.86.89,1.29,1.55,1.29.53,0,.94-.25,1.24-.74.29-.47.43-1.12.43-1.95,0-.93-.17-1.62-.51-2.07-.27-.36-.62-.55-1.05-.55-.71,0-1.26.44-1.65,1.32Z"/><path class="cls-1" d="M59.54,16.67c1.83-.9,3.24-2.23,4.23-3.98.84-1.5,1.31-3.19,1.39-5.08h-1.74l-1.39.03c-.08,0-.13,0-.15-.03-.01-.02-.02-.06-.02-.12v-1.18c0-.07.01-.12.03-.13.02-.01.06-.02.14-.02l1.39.03h1.79l1.4-.03c.12,0,.18.05.18.16,0,.13-.01.25-.01.36,0,.29.03.69.1,1.2.44,3.84,2.26,6.73,5.45,8.65-.35.33-.63.68-.83,1.06-.11.21-.19.32-.25.32-.05,0-.15-.06-.32-.18-2.5-1.84-4.1-4.15-4.8-6.94-.41,1.54-1.1,2.94-2.09,4.2-.86,1.11-1.88,2.03-3.06,2.76-.19.11-.3.17-.32.17-.05,0-.15-.11-.29-.33-.22-.36-.49-.67-.83-.92Z"/><path class="cls-1" d="M86.9,10.05c-.24.3-.44.65-.6,1.05-.09.23-.17.35-.24.35-.05,0-.16-.04-.32-.11-1.02-.45-1.91-.95-2.67-1.48v1.04c0,.07,0,.12-.03.13s-.06.02-.12.02l-1.59-.03h-2.15l-1.59.03c-.07,0-.12,0-.13-.03s-.02-.06-.02-.12v-1.07c-.77.56-1.61,1.06-2.54,1.51-.17.09-.28.13-.33.13-.06,0-.15-.12-.25-.35-.18-.38-.39-.69-.63-.93,2.36-.93,4.15-2.29,5.37-4.07.21-.31.38-.61.49-.91.57.07,1.07.17,1.51.29.17.04.25.1.25.19,0,.1-.05.18-.14.23-.06.03-.12.07-.2.12,1.48,1.81,3.45,3.14,5.92,4.01ZM76.54,13.62l-1.85.03c-.08,0-.12,0-.14-.03-.01-.02-.02-.06-.02-.12v-1.05c0-.07,0-.12.03-.13s.06-.02.14-.02l1.85.03h7.46l1.85-.03c.08,0,.12,0,.14.03.01.02.02.06.02.12v1.05c0,.07,0,.11-.02.13-.02.02-.06.02-.14.02l-1.85-.03h-4.32c-.35.85-.76,1.73-1.25,2.63,1.46-.08,2.9-.2,4.31-.35-.43-.52-.77-.92-1.02-1.19-.04-.05-.06-.08-.06-.12,0-.05.05-.09.14-.14l.9-.46c.06-.04.11-.05.15-.05.04,0,.09.03.14.08.88.93,1.75,2.01,2.6,3.25.03.05.05.08.05.12,0,.05-.04.09-.12.14l-.97.64c-.08.05-.14.08-.16.08-.04,0-.08-.03-.12-.1-.19-.31-.42-.68-.7-1.09-1.81.23-4.33.46-7.56.71-.21.01-.38.06-.51.13-.07.05-.15.08-.24.08-.1,0-.16-.07-.19-.2-.09-.31-.18-.79-.29-1.44.21.02.44.03.68.03s.51,0,.85-.03h.45c.5-.96.91-1.86,1.23-2.73h-1.46ZM77.63,9.68c.16.02.68.03,1.54.03h2.15c.8,0,1.31,0,1.51-.03-1.01-.73-1.89-1.58-2.65-2.56-.74.98-1.59,1.83-2.56,2.56Z"/><polygon class="cls-1" points="17.59 19.73 1.6 19.73 1.6 7.75 7.75 7.75 7.75 1.6 17.59 1.6 17.59 3.18 19.19 1.64 19.19 0 7.75 0 1.6 6.16 0 7.75 0 21.33 19.19 21.33 19.19 11.91 17.59 13.58 17.59 19.73"/><path class="cls-1" d="M23.91,4.21l-2.41-2.41c-.21-.21-.56-.21-.77,0l-10.19,9.78c-.06.06-.11.14-.14.23l-1.23,4.05c-.13.42.26.81.68.68l4.18-1.27,9.88-10.28c.21-.21.21-.56,0-.77ZM11.47,15.05l-.79-.87.55-1.81,1.37.74.74,1.37-1.86.57ZM22.38,3.83l-8.68,8.73-.55-.55L21.88,3.33l.5.5s0,0,0,0Z"/></g></svg>