<?xml version="1.0" encoding="UTF-8"?><svg id="_レイヤー_2" xmlns="http://www.w3.org/2000/svg" viewBox="0 0 140 60"><defs><style>.cls-1{fill:#f7b62d;}.cls-1,.cls-2,.cls-3{stroke-width:0px;}.cls-2{fill:none;}.cls-3{fill:#888;}</style></defs><g id="_レイヤー_2-2"><g id="_背景2"><rect class="cls-2" width="140" height="60"/></g><path class="cls-3" d="M67.24,21.96l-1.84,1.82c-1.17-1.23-2.53-1.85-4.08-1.85-1.35,0-2.49.45-3.4,1.35-.91.9-1.37,1.99-1.37,3.27s.47,2.45,1.42,3.38c.95.92,2.12,1.38,3.51,1.38.9,0,1.67-.19,2.29-.57.62-.38,1.12-.98,1.5-1.79h-3.98v-2.46h6.92l.02.58c0,1.2-.31,2.34-.94,3.42-.62,1.08-1.43,1.9-2.42,2.47-.99.57-2.15.85-3.49.85-1.43,0-2.7-.31-3.82-.93-1.12-.62-2-1.5-2.66-2.65-.65-1.15-.98-2.38-.98-3.71,0-1.82.6-3.4,1.8-4.75,1.43-1.6,3.29-2.4,5.57-2.4,1.2,0,2.32.22,3.36.66.88.37,1.74,1.02,2.58,1.93Z"/><path class="cls-3" d="M76.54,19.71h2.66l5.29,13.76h-2.72l-1.08-2.83h-5.61l-1.12,2.83h-2.72l5.3-13.76ZM77.89,23.36l-1.85,4.72h3.68l-1.83-4.72Z"/><path class="cls-3" d="M88.66,19.71h6.83v2.55h-4.23v2.5h4.23v2.52h-4.23v6.19h-2.6v-13.76Z"/><path class="cls-3" d="M101.65,19.71h2.6v13.76h-2.6v-13.76Z"/><path class="cls-3" d="M109.86,19.71h7.6v2.58h-2.51v11.17h-2.66v-11.17h-2.44v-2.58Z"/><path class="cls-3" d="M55.12,36.8h2.04v.4h-1.64v1.28h1.64v.4h-1.64v2h-.41v-4.08Z"/><path class="cls-3" d="M58.67,36.94c0,.18-.15.32-.32.32s-.32-.15-.32-.32.15-.32.32-.32.32.14.32.32ZM58.16,37.86h.39v3.01h-.39v-3.01Z"/><path class="cls-3" d="M60.2,36.74h.39v1.12h.62v.34h-.62v2.67h-.39v-2.67h-.53v-.34h.53v-1.12Z"/><path class="cls-3" d="M62.56,38.4c.31-.41.69-.62,1.13-.62.66,0,1.12.45,1.12,1.4v1.69h-.39v-1.64c0-.71-.22-1.1-.81-1.1-.32,0-.59.14-.8.41-.23.3-.26.59-.26,1.07v1.27h-.39v-3.01h.39v.54Z"/><path class="cls-3" d="M66.18,39.4c.02.69.49,1.2,1.14,1.2s.93-.36,1.15-.72l.32.17c-.31.6-.78.9-1.44.9-1,0-1.57-.77-1.57-1.57s.61-1.6,1.55-1.6c.86,0,1.55.62,1.56,1.62h-2.71ZM68.47,39.06c-.16-.62-.61-.9-1.13-.9s-.94.29-1.12.9h2.25Z"/><path class="cls-3" d="M69.86,40.25c.19.22.4.34.63.34.3,0,.56-.22.56-.5,0-.18-.1-.34-.25-.42-.69-.39-1.04-.55-1.04-1.08,0-.48.37-.8.83-.8.33,0,.58.16.83.41l-.25.26c-.18-.18-.36-.29-.61-.29s-.45.18-.45.4c0,.15.1.32.23.4.69.4,1.08.56,1.08,1.1,0,.47-.36.89-.91.89-.34,0-.68-.15-.89-.43l.24-.28Z"/><path class="cls-3" d="M72.35,40.25c.19.22.4.34.63.34.3,0,.56-.22.56-.5,0-.18-.1-.34-.25-.42-.69-.39-1.04-.55-1.04-1.08,0-.48.37-.8.83-.8.33,0,.58.16.83.41l-.25.26c-.18-.18-.36-.29-.61-.29s-.45.18-.45.4c0,.15.1.32.23.4.69.4,1.08.56,1.08,1.1,0,.47-.36.89-.91.89-.34,0-.68-.15-.89-.43l.24-.28Z"/><path class="cls-3" d="M80.97,38.92c0,1.29-.83,2.06-2.05,2.06-1.41,0-2.3-1.01-2.3-2.13s.9-2.14,2.24-2.14c.75,0,1.32.27,1.87.79l-.31.3c-.46-.45-1.02-.69-1.54-.69-.98,0-1.82.75-1.82,1.73s.79,1.77,1.89,1.77c.77,0,1.46-.46,1.58-1.28h-1.3v-.4h1.76Z"/><path class="cls-3" d="M81.64,37.86h.41l1.04,2.32,1-2.32h.41l-1.8,4.12h-.41l.58-1.33-1.24-2.79Z"/><path class="cls-3" d="M87.73,40.88h-.39v-1.54c0-.23-.02-.43-.03-.56-.02-.33-.28-.61-.68-.61-.27,0-.53.13-.7.35-.22.28-.26.64-.26,1.09v1.28h-.39v-3.01h.39v.52c.27-.39.6-.6,1.03-.6.46,0,.79.24.95.73.27-.48.66-.73,1.11-.73.62,0,1.03.45,1.03,1.31v1.79h-.39v-1.65c0-.22-.03-.4-.03-.51-.02-.27-.27-.56-.68-.56-.37,0-.7.23-.86.61-.1.24-.11.51-.11.79v1.32Z"/><path class="cls-3" d="M93.87,40.97c-.68,0-1.04-.44-1.04-.94,0-.54.39-.92.98-1.39-.32-.39-.52-.65-.52-.96,0-.43.4-.73.9-.73.53,0,.89.32.89.74,0,.35-.26.65-.7,1.03.68.73,1.03,1.06,1.04,1.07.18-.15.36-.3.49-.43l.27.3c-.14.12-.3.27-.48.41.27.28.54.53.77.81h-.57c-.28-.3-.46-.47-.53-.55-.48.36-.89.64-1.52.64ZM93.23,40.01c0,.29.27.59.68.59.37,0,.75-.23,1.2-.55-.29-.3-.65-.64-1.04-1.09-.52.39-.85.69-.85,1.05ZM94.68,37.69c0-.2-.22-.36-.51-.36-.24,0-.49.14-.49.36,0,.16.15.4.44.72.36-.28.56-.54.56-.73Z"/><path class="cls-3" d="M100.83,37.62c-.22-.29-.41-.5-.75-.5-.35,0-.55.25-.55.52,0,.22.13.45.36.63.77.57,1.33.96,1.33,1.62,0,.57-.48,1.1-1.15,1.1-.56,0-.93-.31-1.23-.86l.35-.21c.24.45.54.68.85.68.43,0,.76-.31.76-.69,0-.45-.42-.7-1.35-1.45-.19-.15-.35-.48-.35-.78,0-.56.44-.95.99-.95.5,0,.8.3,1.07.66l-.33.26Z"/><path class="cls-3" d="M102.66,36.74h.39v1.12h.62v.34h-.62v2.67h-.39v-2.67h-.53v-.34h.53v-1.12Z"/><path class="cls-3" d="M106.71,37.86h.41v1.56c0,1.02-.46,1.53-1.32,1.53s-1.33-.51-1.33-1.53v-1.56h.41v1.47c0,.32,0,.58.09.76.14.31.45.48.83.48.28,0,.52-.1.68-.27.24-.26.23-.55.23-.98v-1.47Z"/><path class="cls-3" d="M110.77,40.36c-.33.4-.74.59-1.22.59-.88,0-1.54-.73-1.54-1.59s.68-1.58,1.56-1.58c.49,0,.9.21,1.2.63v-1.71h.39v4.18h-.39v-.52ZM108.41,39.37c0,.65.51,1.23,1.19,1.23.62,0,1.2-.47,1.2-1.22,0-.7-.52-1.23-1.19-1.23s-1.19.57-1.19,1.22Z"/><path class="cls-3" d="M112.89,36.94c0,.18-.15.32-.32.32s-.32-.15-.32-.32.15-.32.32-.32.32.14.32.32ZM112.38,37.86h.39v3.01h-.39v-3.01Z"/><path class="cls-3" d="M116.97,39.38c0,.86-.66,1.58-1.57,1.58s-1.57-.72-1.57-1.58.67-1.6,1.57-1.6,1.57.73,1.57,1.6ZM114.22,39.38c0,.66.49,1.2,1.18,1.2s1.18-.54,1.18-1.2-.53-1.23-1.18-1.23-1.18.56-1.18,1.23Z"/><path class="cls-3" d="M32.15,19.76h6.69c-1.19-1.27-2.98-2.07-5.66-2.07h-7.74c-1.71,0-2.91.71-2.91,3v13.99c0,2.28,1.2,3,2.91,3h.56c-1.79-1.79-2.34-4.62-2.34-7.92,0-5.71,1.63-9.99,8.48-9.99Z"/><path class="cls-1" d="M42.15,29.97v6.78c0,2.28-1.2,3-2.91,3h-7.08c-1.34,0-2.47-.17-3.44-.47,1.25,1.88,3.39,3.02,6.92,3.02h7.08c1.71,0,2.91-.71,2.91-3v-9.34h-3.48Z"/><path class="cls-1" d="M33.92,36.75h3.03c.32,0,.56-.02.76-.08.17-.1.33-.21.48-.33.14-.22.19-.55.19-1.02v-2.94h-2.81v-2.47h5.4c.07-.74.09-1.49.09-2.23,0-1.68-.13-3.4-.58-4.93h-6.56c-4.85,0-6.37,1.57-6.37,6.99s1.51,7,6.37,7Z"/></g></svg>