<?xml version="1.0" encoding="UTF-8"?><svg id="_レイヤー_2" xmlns="http://www.w3.org/2000/svg" viewBox="0 0 155.76 40.38"><defs><style>.cls-1{fill:#fff;stroke-width:0px;}</style></defs><g id="_レイヤー_1-2"><path class="cls-1" d="M73.35,6.99l-3.03,2.99c-1.91-2.03-4.15-3.04-6.7-3.04-2.22,0-4.08.74-5.58,2.21-1.5,1.47-2.25,3.26-2.25,5.37s.78,4.03,2.33,5.54c1.56,1.51,3.48,2.27,5.76,2.27,1.48,0,2.74-.31,3.76-.94,1.02-.62,1.84-1.6,2.47-2.93h-6.54v-4.04h11.36l.03.95c0,1.97-.51,3.85-1.53,5.62-1.02,1.77-2.35,3.12-3.97,4.05-1.63.93-3.53,1.4-5.72,1.4-2.34,0-4.43-.51-6.27-1.53-1.84-1.02-3.29-2.47-4.36-4.35-1.07-1.88-1.6-3.91-1.6-6.09,0-2.99.99-5.59,2.96-7.79,2.34-2.63,5.39-3.94,9.15-3.94,1.96,0,3.8.36,5.51,1.09,1.44.61,2.85,1.67,4.23,3.16Z"/><path class="cls-1" d="M88.62,3.31h4.36l8.68,22.57h-4.47l-1.77-4.65h-9.21l-1.84,4.65h-4.47l8.7-22.57ZM90.83,9.29l-3.03,7.75h6.04l-3.01-7.75Z"/><path class="cls-1" d="M108.5,3.31h11.2v4.19h-6.94v4.1h6.94v4.13h-6.94v10.16h-4.27V3.31Z"/><path class="cls-1" d="M129.82,3.31h4.27v22.57h-4.27V3.31Z"/><path class="cls-1" d="M143.29,3.31h12.48v4.24h-4.11v18.34h-4.36V7.54h-4.01V3.31Z"/><path class="cls-1" d="M53.46,31.35h3.35v.65h-2.68v2.1h2.68v.65h-2.68v3.29h-.67v-6.69Z"/><path class="cls-1" d="M59.29,31.58c0,.29-.24.53-.53.53s-.52-.24-.52-.53.24-.52.52-.52.53.23.53.52ZM58.45,33.09h.63v4.95h-.63v-4.95Z"/><path class="cls-1" d="M61.8,31.25h.63v1.84h1.02v.56h-1.02v4.39h-.63v-4.39h-.88v-.56h.88v-1.84Z"/><path class="cls-1" d="M65.68,33.98c.51-.67,1.13-1.02,1.85-1.02,1.08,0,1.84.75,1.84,2.3v2.78h-.63v-2.69c0-1.16-.36-1.81-1.32-1.81-.53,0-.97.23-1.3.67-.37.48-.43.97-.43,1.75v2.08h-.63v-4.95h.63v.89Z"/><path class="cls-1" d="M71.61,35.62c.03,1.14.8,1.97,1.86,1.97s1.53-.59,1.89-1.18l.53.28c-.5.99-1.28,1.48-2.36,1.48-1.64,0-2.58-1.26-2.58-2.58s1-2.62,2.54-2.62c1.41,0,2.54,1.02,2.56,2.66h-4.45ZM75.37,35.06c-.26-1.02-1-1.48-1.85-1.48s-1.55.48-1.84,1.48h3.69Z"/><path class="cls-1" d="M77.65,37.01c.32.35.66.55,1.03.55.48,0,.91-.35.91-.82,0-.29-.17-.56-.41-.69-1.14-.63-1.71-.9-1.71-1.77,0-.78.61-1.31,1.36-1.31.54,0,.95.26,1.37.67l-.41.42c-.3-.29-.6-.48-1-.48s-.75.29-.75.66c0,.25.16.53.38.66,1.14.66,1.77.91,1.77,1.81,0,.77-.6,1.46-1.49,1.46-.55,0-1.11-.25-1.46-.71l.4-.46Z"/><path class="cls-1" d="M81.73,37.01c.32.35.66.55,1.03.55.48,0,.91-.35.91-.82,0-.29-.17-.56-.41-.69-1.14-.63-1.71-.9-1.71-1.77,0-.78.61-1.31,1.36-1.31.54,0,.95.26,1.37.67l-.41.42c-.3-.29-.6-.48-1-.48s-.75.29-.75.66c0,.25.16.53.38.66,1.14.66,1.77.91,1.77,1.81,0,.77-.6,1.46-1.49,1.46-.55,0-1.11-.25-1.46-.71l.4-.46Z"/><path class="cls-1" d="M95.89,34.83c0,2.12-1.36,3.37-3.36,3.37-2.32,0-3.77-1.66-3.77-3.5s1.47-3.51,3.67-3.51c1.23,0,2.17.45,3.07,1.3l-.51.48c-.75-.74-1.67-1.13-2.53-1.13-1.6,0-2.99,1.23-2.99,2.84s1.3,2.91,3.09,2.91c1.27,0,2.4-.75,2.59-2.11h-2.13v-.65h2.89Z"/><path class="cls-1" d="M96.99,33.09h.67l1.71,3.81,1.65-3.81h.68l-2.95,6.76h-.67l.95-2.18-2.03-4.57Z"/><path class="cls-1" d="M106.97,38.04h-.63v-2.53c0-.38-.04-.7-.05-.92-.03-.54-.47-1.01-1.12-1.01-.44,0-.88.21-1.16.58-.35.46-.42,1.04-.42,1.79v2.1h-.63v-4.95h.63v.85c.44-.63.99-.98,1.7-.98.75,0,1.3.39,1.57,1.19.44-.79,1.09-1.19,1.82-1.19,1.03,0,1.69.74,1.69,2.14v2.93h-.63v-2.7c0-.36-.05-.65-.06-.84-.03-.44-.45-.92-1.12-.92-.62,0-1.16.37-1.41,1.01-.16.4-.18.84-.18,1.3v2.16Z"/><path class="cls-1" d="M117.06,38.2c-1.11,0-1.71-.72-1.71-1.55,0-.89.64-1.51,1.6-2.27-.53-.63-.86-1.06-.86-1.57,0-.71.66-1.2,1.48-1.2.87,0,1.46.52,1.46,1.21,0,.57-.43,1.07-1.16,1.69,1.12,1.19,1.7,1.74,1.71,1.76.3-.25.59-.49.81-.7l.45.48c-.23.2-.49.44-.78.67.44.47.89.88,1.27,1.32h-.93c-.46-.49-.75-.77-.87-.89-.78.59-1.45,1.05-2.49,1.05ZM116,36.62c0,.48.45.97,1.12.97.61,0,1.23-.37,1.98-.9-.48-.48-1.06-1.05-1.71-1.79-.85.64-1.39,1.14-1.39,1.72ZM118.39,32.8c0-.33-.35-.59-.83-.59-.4,0-.81.22-.81.6,0,.26.25.65.73,1.18.6-.47.91-.88.91-1.19Z"/><path class="cls-1" d="M128.47,32.69c-.36-.48-.68-.82-1.23-.82-.58,0-.9.41-.9.85,0,.36.21.75.6,1.03,1.26.93,2.18,1.57,2.18,2.66,0,.94-.79,1.8-1.88,1.8-.92,0-1.53-.51-2.02-1.42l.57-.35c.4.74.88,1.11,1.4,1.11.7,0,1.24-.51,1.24-1.14,0-.74-.69-1.16-2.21-2.39-.32-.25-.57-.78-.57-1.29,0-.92.72-1.57,1.62-1.57.82,0,1.31.49,1.75,1.09l-.54.42Z"/><path class="cls-1" d="M131.47,31.25h.63v1.84h1.02v.56h-1.02v4.39h-.63v-4.39h-.88v-.56h.88v-1.84Z"/><path class="cls-1" d="M138.12,33.09h.67v2.56c0,1.67-.75,2.51-2.17,2.51s-2.18-.84-2.18-2.51v-2.56h.67v2.41c0,.52,0,.95.14,1.25.23.5.75.79,1.37.79.46,0,.86-.17,1.12-.44.39-.42.38-.89.38-1.6v-2.41Z"/><path class="cls-1" d="M144.78,37.19c-.54.65-1.22.97-1.99.97-1.44,0-2.53-1.2-2.53-2.61s1.12-2.59,2.55-2.59c.8,0,1.48.34,1.98,1.03v-2.81h.63v6.86h-.63v-.85ZM140.91,35.57c0,1.07.84,2.01,1.95,2.01,1.02,0,1.97-.76,1.97-1.99,0-1.15-.85-2.01-1.96-2.01s-1.96.93-1.96,1.99Z"/><path class="cls-1" d="M148.26,31.58c0,.29-.24.53-.53.53s-.52-.24-.52-.53.24-.52.52-.52.53.23.53.52ZM147.42,33.09h.63v4.95h-.63v-4.95Z"/><path class="cls-1" d="M154.95,35.58c0,1.41-1.09,2.59-2.58,2.59s-2.58-1.18-2.58-2.59,1.1-2.62,2.58-2.62,2.58,1.2,2.58,2.62ZM150.44,35.59c0,1.08.81,1.97,1.93,1.97s1.93-.89,1.93-1.97-.88-2.01-1.93-2.01-1.93.91-1.93,2.01Z"/><path class="cls-1" d="M15.78,3.4h10.98c-1.95-2.08-4.89-3.4-9.28-3.4H4.78C1.97,0,0,1.17,0,4.92v22.96c0,3.75,1.97,4.92,4.78,4.92h.92c-2.93-2.95-3.83-7.58-3.83-13C1.86,10.42,4.53,3.4,15.78,3.4Z"/><path class="cls-1" d="M32.18,20.14v11.13c0,3.75-1.97,4.92-4.78,4.92h-11.62c-2.19,0-4.06-.27-5.64-.77,2.05,3.09,5.56,4.96,11.36,4.96h11.62c2.81,0,4.78-1.17,4.78-4.92v-15.32h-5.71Z"/><path class="cls-1" d="M18.68,31.27h4.97c.52,0,.92-.04,1.25-.13.27-.17.54-.35.78-.54.23-.36.31-.89.31-1.67v-4.83h-4.6v-4.05h8.87c.11-1.21.15-2.44.15-3.66,0-2.76-.22-5.58-.96-8.08h-10.76c-7.97,0-10.45,2.58-10.45,11.48s2.48,11.48,10.45,11.48Z"/></g></svg>