<?xml version="1.0" encoding="UTF-8"?><svg id="_レイヤー_2" xmlns="http://www.w3.org/2000/svg" viewBox="0 0 338.03 559.16"><defs><style>.cls-1{fill:#ff407f;}.cls-1,.cls-2,.cls-3{stroke-width:0px;}.cls-2{fill:#fff100;}.cls-3{fill:#fff;}.cls-4{fill:none;stroke:#fff100;stroke-miterlimit:10;stroke-width:2px;}</style></defs><g id="_レイヤー_1-2"><path class="cls-3" d="M114.3,297.18v-1.44h-3.31v-2.33h2.01l-2.88-7.32h3.07l2.49,7.22,2.76-7.22h3.09l-3.17,7.32h2.02v2.33h-3.31v1.44h3.31v2.33h-3.31v3.14h-2.78v-3.14h-3.31v-2.33h3.31Z"/><path class="cls-3" d="M132.53,302.65h-5.03v-24.48l-4.29,2.95v-5.07l4.59-3.29h4.72v29.89Z"/><path class="cls-3" d="M147.25,302.65h-5.03v-24.48l-4.29,2.95v-5.07l4.59-3.29h4.72v29.89Z"/><path class="cls-3" d="M157.26,304.9l-5.11,4.38v-12.61h5.11v8.23Z"/><path class="cls-3" d="M170.47,303.04c-4.98,0-9.4-2.95-9.4-9.14v-12.35c0-6.37,4.42-9.18,9.4-9.18s9.4,2.82,9.4,9.14v12.39c0,6.19-4.42,9.14-9.4,9.14ZM170.47,276.74c-2.73,0-4.42,1.86-4.42,5.07v11.78c0,3.21,1.69,5.07,4.42,5.07s4.38-1.86,4.38-5.07v-11.78c0-3.21-1.69-5.07-4.38-5.07Z"/><path class="cls-3" d="M193.3,303.04c-4.98,0-9.4-2.95-9.4-9.14v-12.35c0-6.37,4.42-9.18,9.4-9.18s9.4,2.82,9.4,9.14v12.39c0,6.19-4.42,9.14-9.4,9.14ZM193.3,276.74c-2.73,0-4.42,1.86-4.42,5.07v11.78c0,3.21,1.69,5.07,4.42,5.07s4.38-1.86,4.38-5.07v-11.78c0-3.21-1.69-5.07-4.38-5.07Z"/><path class="cls-3" d="M216.12,303.04c-4.98,0-9.4-2.95-9.4-9.14v-12.35c0-6.37,4.42-9.18,9.4-9.18s9.4,2.82,9.4,9.14v12.39c0,6.19-4.42,9.14-9.4,9.14ZM216.12,276.74c-2.73,0-4.42,1.86-4.42,5.07v11.78c0,3.21,1.69,5.07,4.42,5.07s4.38-1.86,4.38-5.07v-11.78c0-3.21-1.69-5.07-4.38-5.07Z"/><path class="cls-3" d="M116.11,373.28v-1.44h-3.31v-2.33h2.01l-2.88-7.32h3.07l2.49,7.22,2.76-7.22h3.09l-3.17,7.32h2.02v2.33h-3.31v1.44h3.31v2.33h-3.31v3.14h-2.78v-3.14h-3.31v-2.33h3.31Z"/><path class="cls-3" d="M129.39,363.24c-2.38-1.21-4.07-3.73-4.07-6.54,0-5.15,4.42-8.23,9.23-8.23s9.23,3.08,9.23,8.23c0,2.82-1.69,5.33-4.07,6.54,2.43,1.04,4.5,3.77,4.5,7.15,0,5.46-4.5,8.75-9.66,8.75s-9.66-3.29-9.66-8.75c0-3.38,2.17-6.11,4.5-7.15ZM134.54,374.81c2.6,0,4.68-2.12,4.68-4.72,0-2.9-2.47-4.68-4.68-4.68s-4.64,1.78-4.64,4.68c0,2.6,1.95,4.72,4.64,4.72ZM134.54,361.33c2.34,0,4.25-1.91,4.25-4.29s-1.91-4.2-4.25-4.2-4.25,1.86-4.25,4.2,1.86,4.29,4.25,4.29Z"/><path class="cls-3" d="M153.05,381l-5.11,4.38v-12.61h5.11v8.23Z"/><path class="cls-3" d="M161.25,363.24c-2.38-1.21-4.07-3.73-4.07-6.54,0-5.15,4.42-8.23,9.23-8.23s9.23,3.08,9.23,8.23c0,2.82-1.69,5.33-4.07,6.54,2.43,1.04,4.5,3.77,4.5,7.15,0,5.46-4.5,8.75-9.66,8.75s-9.66-3.29-9.66-8.75c0-3.38,2.17-6.11,4.5-7.15ZM166.4,374.81c2.6,0,4.68-2.12,4.68-4.72,0-2.9-2.47-4.68-4.68-4.68s-4.64,1.78-4.64,4.68c0,2.6,1.95,4.72,4.64,4.72ZM166.4,361.33c2.34,0,4.25-1.91,4.25-4.29s-1.91-4.2-4.25-4.2-4.25,1.86-4.25,4.2,1.86,4.29,4.25,4.29Z"/><path class="cls-3" d="M188.87,379.14c-4.98,0-9.4-2.95-9.4-9.14v-12.35c0-6.37,4.42-9.18,9.4-9.18s9.4,2.82,9.4,9.14v12.39c0,6.19-4.42,9.14-9.4,9.14ZM188.87,352.84c-2.73,0-4.42,1.86-4.42,5.07v11.78c0,3.21,1.69,5.07,4.42,5.07s4.38-1.86,4.38-5.07v-11.78c0-3.21-1.69-5.07-4.38-5.07Z"/><path class="cls-3" d="M211.7,379.14c-4.98,0-9.4-2.95-9.4-9.14v-12.35c0-6.37,4.42-9.18,9.4-9.18s9.4,2.82,9.4,9.14v12.39c0,6.19-4.42,9.14-9.4,9.14ZM211.7,352.84c-2.73,0-4.42,1.86-4.42,5.07v11.78c0,3.21,1.69,5.07,4.42,5.07s4.38-1.86,4.38-5.07v-11.78c0-3.21-1.69-5.07-4.38-5.07Z"/><path class="cls-2" d="M186.76,457.69v-1.67h-3.85v-2.71h2.34l-3.35-8.51h3.57l2.9,8.4,3.21-8.4h3.6l-3.68,8.51h2.34v2.71h-3.85v1.67h3.85v2.71h-3.85v3.65h-3.24v-3.65h-3.85v-2.71h3.85Z"/><path class="cls-2" d="M206.25,444.06c1.01-.5,2.22-.65,3.33-.65,5.44,0,9.37,4.38,9.37,10.28,0,7-4.68,10.83-10.93,10.83s-10.98-3.78-10.98-10.73c0-2.57,1.26-5.69,2.82-9.12l7.1-15.36h6.35l-7.05,14.76ZM208.01,459.42c3.17,0,5.09-2.22,5.09-5.59s-1.91-5.59-5.09-5.59-5.14,2.27-5.14,5.59,1.91,5.59,5.14,5.59Z"/><path class="cls-2" d="M229.25,466.67l-5.94,5.09v-14.66h5.94v9.57Z"/><path class="cls-2" d="M242.77,444.06c1.01-.5,2.22-.65,3.32-.65,5.44,0,9.37,4.38,9.37,10.28,0,7-4.68,10.83-10.93,10.83s-10.98-3.78-10.98-10.73c0-2.57,1.26-5.69,2.82-9.12l7.1-15.36h6.35l-7.05,14.76ZM244.53,459.42c3.17,0,5.09-2.22,5.09-5.59s-1.91-5.59-5.09-5.59-5.14,2.27-5.14,5.59,1.91,5.59,5.14,5.59Z"/><path class="cls-2" d="M270.38,464.51c-5.79,0-10.93-3.42-10.93-10.63v-14.35c0-7.4,5.14-10.68,10.93-10.68s10.93,3.27,10.93,10.63v14.41c0,7.2-5.14,10.63-10.93,10.63ZM270.38,433.93c-3.17,0-5.14,2.17-5.14,5.89v13.7c0,3.73,1.96,5.89,5.14,5.89s5.09-2.17,5.09-5.89v-13.7c0-3.73-1.96-5.89-5.09-5.89Z"/><path class="cls-2" d="M296.82,464.51c-5.79,0-10.93-3.42-10.93-10.63v-14.35c0-7.4,5.14-10.68,10.93-10.68s10.93,3.27,10.93,10.63v14.41c0,7.2-5.14,10.63-10.93,10.63ZM296.82,433.93c-3.17,0-5.14,2.17-5.14,5.89v13.7c0,3.73,1.96,5.89,5.14,5.89s5.09-2.17,5.09-5.89v-13.7c0-3.73-1.96-5.89-5.09-5.89Z"/><path class="cls-2" d="M6.35,12.27c2.71-3.84,6.06-6.85,10.04-9.01,3.98-2.17,8.21-3.25,12.69-3.25,5.66,0,10.18,1.32,13.57,3.96,3.39,2.64,5.58,6.34,6.57,11.1h-3.68c-.8-3.72-2.64-6.68-5.51-8.87-2.88-2.19-6.69-3.29-11.45-3.29-3.82,0-7.44.91-10.85,2.72-3.42,1.81-6.33,4.43-8.73,7.85-2.4,3.42-4.01,7.39-4.81,11.91-.28,1.74-.42,3.39-.42,4.95,0,3.58.71,6.68,2.12,9.3,1.41,2.62,3.39,4.62,5.94,6.01,2.54,1.39,5.49,2.09,8.84,2.09,4.76,0,8.97-1.1,12.62-3.29,3.65-2.19,6.54-5.15,8.66-8.87h3.61c-2.59,4.76-6.06,8.46-10.39,11.1-4.34,2.64-9.33,3.96-14.99,3.96-3.91,0-7.36-.84-10.36-2.51-2.99-1.67-5.3-4.02-6.93-7.03-1.63-3.02-2.44-6.48-2.44-10.39,0-1.84.16-3.61.5-5.3.89-4.9,2.7-9.27,5.41-13.11Z"/><path class="cls-2" d="M79.75,37.4h-23.54l-7,12.73h-3.46L72.54,1.63h3.53l9.61,48.5h-3.46l-2.47-12.73ZM79.25,34.78l-5.66-29.06-15.98,29.06h21.63Z"/><path class="cls-2" d="M146.69,1.56l-8.62,48.57h-3.18l7.49-41.99-26.16,41.99h-2.55l-11.31-41.71-7.42,41.71h-3.18L100.39,1.56h3.32l12.02,44.33L143.37,1.56h3.32Z"/><path class="cls-2" d="M179.97,24.71c-3.18,2.43-7.46,3.64-12.83,3.64h-10.53l-3.89,21.77h-3.18L158.37.5h13.71c4.76,0,8.29.95,10.6,2.86,2.31,1.91,3.46,4.56,3.46,7.95,0,1.13-.09,2.19-.28,3.18-.75,4.38-2.72,7.79-5.9,10.22ZM182.62,14.49c.19-.94.28-1.96.28-3.04,0-5.47-3.77-8.2-11.31-8.2h-10.53l-3.96,22.34h10.53c8.77,0,13.76-3.7,14.99-11.1Z"/><path class="cls-2" d="M213.65,37.4h-23.54l-7,12.73h-3.46L206.44,1.63h3.53l9.62,48.5h-3.46l-2.47-12.73ZM213.15,34.78l-5.66-29.06-15.98,29.06h21.63Z"/><path class="cls-2" d="M237.68.5l-8.84,49.63h-3.18L234.5.5h3.18Z"/><path class="cls-2" d="M247.19,12.27c2.76-3.84,6.16-6.83,10.22-8.98,4.05-2.14,8.37-3.22,12.94-3.22,5.33,0,9.7,1.33,13.11,3.99,3.42,2.66,5.62,6.35,6.61,11.06h-3.68c-.8-3.72-2.65-6.69-5.55-8.91-2.9-2.21-6.56-3.32-10.99-3.32-3.91,0-7.61.92-11.1,2.76-3.49,1.84-6.45,4.45-8.87,7.85-2.43,3.39-4.04,7.35-4.84,11.88-.28,1.7-.42,3.35-.42,4.95,0,3.58.73,6.68,2.19,9.3s3.5,4.63,6.12,6.04c2.62,1.41,5.62,2.12,9.01,2.12,3.77,0,7.34-.85,10.71-2.54,3.37-1.7,6.24-4.11,8.62-7.25,2.38-3.13,4.04-6.82,4.98-11.06h-22.13l.5-2.62h25.38l-.42,2.12c-.94,4.62-2.77,8.76-5.48,12.41-2.71,3.65-6.04,6.53-10,8.62-3.96,2.1-8.18,3.15-12.65,3.15-4.01,0-7.53-.82-10.57-2.47-3.04-1.65-5.4-3.99-7.07-7.03-1.67-3.04-2.51-6.54-2.51-10.5,0-1.79.16-3.53.49-5.23.85-4.9,2.65-9.27,5.41-13.11Z"/><path class="cls-2" d="M329.26,50.12h-3.18l-21.28-44.4-7.85,44.4h-3.18L302.54.57h3.18l21.35,44.26,7.78-44.26h3.18l-8.77,49.56Z"/><path class="cls-3" d="M205.01,307.48c-1.32,1.09-1.79,2.25-1.79,3.65s.47,2.56,1.79,3.65l-.21.25c-1.53-1.12-2.16-2.33-2.16-3.9s.63-2.79,2.16-3.9l.21.25Z"/><path class="cls-3" d="M206.62,308.89q-.25.05-.35-.19c-.07-.17-.15-.3-.26-.43.78-.12,1.44-.31,1.91-.52.14-.06.22-.11.33-.18.18.16.33.32.48.48.05.06.06.08.06.14,0,.06-.06.1-.14.1-.07,0-.16.04-.26.08-.16.06-.33.12-.5.18v1.16c.54,0,.72-.02.77-.02.08,0,.09,0,.09.09v.55c0,.09,0,.1-.09.1-.05,0-.21,0-.65-.02.25.53.53.92.89,1.24-.1.14-.21.37-.28.58-.02.09-.06.13-.09.13s-.07-.05-.13-.13c-.21-.32-.38-.61-.53-1.01,0,1.97.05,3.36.05,3.5,0,.07,0,.08-.09.08h-.63c-.09,0-.1,0-.1-.08,0-.14.05-1.44.06-3.16-.21.61-.5,1.14-.81,1.6-.06.08-.1.12-.14.12-.03,0-.06-.04-.1-.13-.09-.22-.21-.44-.32-.57.46-.53.94-1.22,1.24-2.18h-.19c-.58,0-.77.02-.82.02-.07,0-.08,0-.08-.1v-.55c0-.08,0-.09.08-.09.06,0,.24.02.82.02h.28v-.93l-.5.12ZM211.06,309.04c.17-.37.3-.7.41-1.04.03-.13.07-.29.09-.5.28.06.6.13.79.2.06.02.1.06.1.11,0,.06-.02.09-.07.14-.06.06-.1.14-.14.25-.11.23-.22.5-.4.85.57,0,.79-.02.84-.02.08,0,.09,0,.09.1,0,.05-.02.23-.02.69v.97c0,.45.02.65.02.69,0,.08,0,.09-.09.09-.05,0-.29-.02-.92-.02v2.09c0,.14.02.22.08.26.04.03.14.06.27.06.19,0,.27-.03.33-.1.06-.08.09-.27.1-.91.14.1.35.2.49.23q.21.06.19.27c-.03.66-.14.94-.3,1.07-.18.14-.51.19-.89.19-.42,0-.67-.04-.8-.13-.14-.1-.23-.26-.23-.64v-2.4h-.49c-.04,1.74-.51,2.6-1.5,3.18-.1.06-.16.09-.2.09-.05,0-.08-.05-.17-.17-.13-.17-.29-.33-.42-.42,1.05-.45,1.52-1.15,1.54-2.68-.45,0-.62.02-.65.02-.09,0-.1,0-.1-.09,0-.06.02-.25.02-.69v-.97c0-.45-.02-.64-.02-.69,0-.09,0-.1.1-.1.04,0,.29.02.98.02h.98ZM209.79,307.56c.1-.05.11-.05.16.02.21.29.42.68.57,1.04.02.08.02.1-.09.14l-.49.22c-.1.05-.11.05-.14-.04-.13-.36-.3-.72-.53-1.05-.04-.07-.03-.09.07-.14l.45-.2ZM211.97,309.76h-2.19v1.05h2.19v-1.05Z"/><path class="cls-3" d="M216.34,313.02c.17.33.33.53.65.66.28.11.78.16,1.48.16,1.03,0,2.24-.06,3.43-.18-.11.17-.18.38-.22.62q-.04.26-.29.27c-1.01.06-1.96.08-2.79.08s-1.48-.07-1.87-.23c-.37-.15-.58-.38-.78-.71-.25.24-.53.48-.82.7-.08.06-.13.11-.16.16-.04.06-.07.08-.12.08-.03,0-.08-.04-.11-.1-.11-.21-.21-.46-.33-.75.21-.1.32-.15.47-.25.23-.14.46-.33.67-.51v-1.76h-.39c-.43,0-.54.02-.58.02-.09,0-.1,0-.1-.1v-.61c0-.08,0-.09.1-.09.04,0,.15.02.58.02h.51c.42,0,.55-.02.6-.02.08,0,.09,0,.09.09,0,.05-.02.27-.02.76v1.69ZM215.84,309.45c-.06.04-.08.06-.1.06s-.04-.02-.06-.06c-.29-.48-.62-.91-.98-1.24-.06-.06-.05-.08.04-.14l.45-.3c.09-.06.1-.06.17,0,.37.34.71.73,1,1.19.05.07.05.09-.04.15l-.46.34ZM218.67,307.92c.37,0,.62-.02.73-.02.06,0,.08.04.08.09,0,.18,0,.63.1,1.17.23,1.32,1.01,2.59,2.24,3.37-.14.15-.31.39-.42.62-.06.12-.1.18-.14.18-.04,0-.1-.03-.18-.1-.97-.78-1.63-1.83-1.94-3.03-.3,1.21-.89,2.16-1.82,2.97-.09.07-.14.11-.18.11s-.08-.05-.17-.15c-.17-.22-.33-.37-.49-.47,1.28-.89,1.99-2.14,2.18-3.96h-.69c-.49,0-.64.02-.69.02-.09,0-.1,0-.1-.1v-.62c0-.08,0-.09.1-.09.05,0,.19.02.69.02h.71Z"/><path class="cls-3" d="M223.03,307.24c1.53,1.12,2.16,2.33,2.16,3.9s-.63,2.78-2.16,3.9l-.21-.25c1.33-1.09,1.8-2.25,1.8-3.65s-.47-2.56-1.8-3.65l.21-.25Z"/><path class="cls-2" d="M270.37,292.87v-3.36h-7.73v-5.44h4.71l-6.72-17.09h7.17l5.83,16.87,6.44-16.87h7.23l-7.4,17.09h4.71v5.44h-7.73v3.36h7.73v5.44h-7.73v7.34h-6.5v-7.34h-7.73v-5.44h7.73Z"/><path class="cls-2" d="M311.21,306.46c-10.35,0-19.53-6.12-19.53-18.99v-25.65c0-13.23,9.18-19.08,19.53-19.08s19.53,5.85,19.53,18.99v25.74c0,12.87-9.18,18.99-19.53,18.99ZM311.21,251.83c-5.67,0-9.18,3.87-9.18,10.53v24.48c0,6.66,3.51,10.53,9.18,10.53s9.09-3.87,9.09-10.53v-24.48c0-6.66-3.51-10.53-9.09-10.53Z"/><path class="cls-3" d="M23.47,276.65c0,5.94.78,10.53,2.33,13.77,1.55,3.24,4.03,5.46,7.42,6.66v4.89c-3.02-.87-5.56-2.37-7.62-4.49-1.86-1.92-3.34-4.31-4.44-7.2-1.23,3.02-3.01,5.51-5.32,7.5-2.31,1.98-5.12,3.38-8.42,4.2v-4.89c3.45-.99,6.18-2.74,8.19-5.25,2.01-2.51,3.23-5.82,3.67-9.91l-.06-.85h-8.71v-4.41h12.94Z"/><path class="cls-3" d="M47.53,276.25h5.55c.85,1.4,2.18,2.58,3.98,3.53s3.85,1.56,6.14,1.82v4.47c-.49-.08-.86-.14-1.11-.19-.25-.05-.57-.12-.97-.21v2.48h-21.56v-2.5l-2.16.43v-4.47c2.31-.28,4.37-.9,6.16-1.83,1.79-.94,3.12-2.11,3.97-3.51ZM63.2,290.47v3.78h-16.53l-1.51,3.21c2.2,0,4.15-.07,5.85-.2,1.7-.13,3.27-.35,4.71-.65l-1.08-2.33h4.98l3.58,7.68h-5.01l-.77-1.65c-1.76.59-3.74.96-5.92,1.12-2.18.16-5.57.24-10.16.24h-3.95v-4.18h2.39l1.51-3.24h-3.9v-3.78h25.8ZM43.63,284.38h13.31c-2.75-1.12-4.96-2.64-6.63-4.55-.83.93-1.82,1.78-2.96,2.56-1.14.78-2.38,1.44-3.73,1.99Z"/><path class="cls-3" d="M74.61,276.96v-.71h4.3v.71h2.79v-.71h4.29v.71h6.51v5.52h-6.51v1.05h7.2v2.93c0,.55-.2.96-.6,1.22-.4.27-1.08.4-2.05.4h-3.33v-1.48h1.14c.34,0,.51-.14.51-.43v-.43h-2.87v2.42h-4.29v-2.42h-3.47c-.55,1.29-1.61,2.3-3.19,3.04h17.5v11.49h-1.14l1.79,1.68h-5.21l-1.73-1.68h-11.32c-.53.66-1.1,1.22-1.71,1.68h-5.83c.81-.51,1.54-1.07,2.19-1.68h-1.48v-10.13l-.71.03v-3.3c1.63,0,2.9-.08,3.81-.26s1.64-.46,2.19-.88h-5.32v-5.49h6.54v-.97h-7.22v-2.33h7.22ZM72.22,283.53h2.28l.11-1.05h-2.39v1.05ZM72.73,291.92h15.16v-1.02h-15.16v1.02ZM72.73,295.02h15.16v-.97h-15.16v.97ZM72.73,298.18h15.16v-1h-15.16v1ZM81.69,282.48h-2.79l-.08,1.05h2.87v-1.05ZM78.9,280.26h2.79v-.97h-2.79v.97ZM85.99,280.26h2.42v-.97h-2.42v.97Z"/><path class="cls-3" d="M32.1,357.68v21.34c0,1.06-.37,1.99-1.1,2.79s-1.62,1.19-2.66,1.19h-6.23v-4.15h4.75c.47,0,.71-.24.71-.71v-2.79h-13.94c-.44,1.69-1.14,3.18-2.12,4.47-.98,1.29-2.24,2.35-3.8,3.19v-6.09c1.27-1.08,1.91-3.13,1.91-6.14v-13.09h22.47ZM14.15,364.7h13.43v-3.19h-13.43v3.19ZM14.15,371.02v.51h13.43v-3.04h-13.43v2.53Z"/><path class="cls-3" d="M47.23,357.28h5.55c.85,1.4,2.18,2.58,3.98,3.53s3.85,1.56,6.14,1.82v4.47c-.49-.08-.86-.14-1.11-.19-.25-.05-.57-.12-.97-.21v2.48h-21.56v-2.5l-2.16.43v-4.47c2.31-.28,4.37-.9,6.16-1.83,1.79-.94,3.12-2.11,3.97-3.51ZM62.91,371.5v3.78h-16.53l-1.51,3.21c2.2,0,4.15-.07,5.85-.2,1.7-.13,3.27-.35,4.71-.65l-1.08-2.33h4.98l3.58,7.68h-5.01l-.77-1.65c-1.76.59-3.74.96-5.92,1.12-2.18.16-5.57.24-10.16.24h-3.95v-4.18h2.39l1.51-3.24h-3.9v-3.78h25.8ZM43.34,365.42h13.31c-2.75-1.12-4.96-2.64-6.63-4.55-.83.93-1.82,1.78-2.96,2.56-1.14.78-2.38,1.44-3.73,1.99Z"/><path class="cls-3" d="M74.31,357.99v-.71h4.3v.71h2.79v-.71h4.29v.71h6.51v5.52h-6.51v1.05h7.2v2.93c0,.55-.2.96-.6,1.22-.4.27-1.08.4-2.05.4h-3.33v-1.48h1.14c.34,0,.51-.14.51-.43v-.43h-2.87v2.42h-4.29v-2.42h-3.47c-.55,1.29-1.61,2.3-3.19,3.04h17.5v11.49h-1.14l1.79,1.68h-5.21l-1.73-1.68h-11.32c-.53.66-1.1,1.22-1.71,1.68h-5.83c.81-.51,1.54-1.07,2.19-1.68h-1.48v-10.13l-.71.03v-3.3c1.63,0,2.9-.08,3.81-.26s1.64-.46,2.19-.88h-5.32v-5.49h6.54v-.97h-7.22v-2.33h7.22ZM71.92,364.56h2.28l.11-1.05h-2.39v1.05ZM72.43,372.95h15.16v-1.02h-15.16v1.02ZM72.43,376.05h15.16v-.97h-15.16v.97ZM72.43,379.21h15.16v-1h-15.16v1ZM81.4,363.51h-2.79l-.08,1.05h2.87v-1.05ZM78.61,361.29h2.79v-.97h-2.79v.97ZM85.69,361.29h2.42v-.97h-2.42v.97Z"/><path class="cls-2" d="M265.71,346.27c-.16.77-.44,1.55-.84,2.32h24.31v4.96h-1.52v5.28h2.48v4.96h-2.48v5.24h1.52v4.96h-34.34v-4.96h1.52v-5.24h-2.48v-4.96h2.48v-2.48c-.4.19-.78.33-1.14.42-.36.09-.81.19-1.34.3v-5.8c1.39-.29,2.61-.95,3.68-1.96.99-.91,1.62-1.92,1.92-3.04h6.24ZM262.47,375.65c-.19,1.12-.49,2.34-.92,3.66-.43,1.32-.84,2.35-1.24,3.1h-6.44c.56-.75,1.1-1.79,1.62-3.12.52-1.33.87-2.54,1.06-3.64h5.92ZM265.03,353.54h-3.36v5.28h3.36v-5.28ZM261.67,369.01h3.36v-5.24h-3.36v5.24ZM270.54,375.65l1.2,6.76h-5.84l-1.16-6.76h5.8ZM273.62,353.54h-3.2v5.28h3.2v-5.28ZM270.42,369.01h3.2v-5.24h-3.2v5.24ZM279.42,375.65l1.56,6.76h-5.92l-1.4-6.76h5.76ZM282.34,353.54h-3.32v5.28h3.32v-5.28ZM279.02,369.01h3.32v-5.24h-3.32v5.24ZM288.33,375.65l1.8,6.76h-5.84l-1.68-6.76h5.72Z"/><path class="cls-2" d="M307.36,346.27v11.83h5.8v5.8h-5.8v1l5.8,4.8v7.36l-5.8-5.6v10.95h-5.72v-8c-.85,1.15-1.73,2.15-2.64,3.02-.91.87-1.96,1.66-3.16,2.38v-7.52c1.28-.85,2.43-2.05,3.46-3.58,1.03-1.53,1.7-3.14,2.02-4.82h-5.48v-5.8h5.8v-11.83h5.72ZM299.72,347.43c.67,3.12,1,6.2,1,9.23h-3.92c0-1.57-.08-3.12-.24-4.64-.16-1.52-.4-3.05-.72-4.6h3.88ZM313.44,347.43l-1.28,9.23h-3.92l1.12-9.23h4.08ZM323.83,369.57v-23.31h6.36v22.31l1.96-.28v6.12l-1.96.32v7.68h-6.36v-6.64l-9.43,1.52v-6.36l9.43-1.36ZM321.99,350.94v6.12l-6.8-3.52v-5.88l6.8,3.28ZM321.99,361.38v6.2l-6.8-3.6v-5.88l6.8,3.28Z"/><path class="cls-3" d="M120.5,328.46l3.28,1.26v2.31l-3.28-1.36v-2.21ZM120.5,333.7h3.28v4.89c.05.35.19.61.41.79.23.18.56.27,1.01.27h8.74v2.03h-9c-.68,0-1.19-.08-1.51-.24-.33-.16-.62-.43-.87-.79l-2.06,1.2v-2.45l1.13-.67v-2.8h-1.13v-2.24ZM124.56,328.66h9.02v1.39l-1.36,1.24h1.36v6.59c0,.43-.12.76-.35.98s-.53.33-.9.33h-1.66v-1.25h.53c.19,0,.28-.1.28-.31v-.4h-1.48v1.96h-1.88v-1.96h-1.47v1.96h-2.1v-7.9h1.75l-.47-.68h2.3l.46.68h1.01l1.13-1.05h-6.17v-1.59ZM126.66,333.59h1.47v-.92h-1.47v.92ZM126.66,335.89h1.47v-.95h-1.47v.95ZM130.01,333.59h1.48v-.92h-1.48v.92ZM130.01,335.89h1.48v-.95h-1.48v.95Z"/><path class="cls-3" d="M139.42,328.45c.11.19.2.38.27.56.07.19.14.4.19.62h1.65v-1.19h2.4v1.19h1.76l.4-1.19h2.47l-.49,1.19h1.3v3.32h-1.16v3.19h-4.37v.68h5.25v3.16c0,.53-.15.95-.44,1.25-.3.3-.73.45-1.29.45h-2.13v-1.91h1.32c.07,0,.14-.03.2-.08.06-.05.1-.12.1-.2v-.8h-2.99v3.16h-2.27v-3.16h-2.96v2.99h-2.25v-4.86h5.22v-.68h-4.37v-3.19h-1.16v-3.32h1.44c-.1-.43-.24-.83-.43-1.19h2.36ZM138.34,332.12h8.76v-.61h-8.76v.61ZM139.45,334.58h6.54v-.9h-6.54v.9Z"/><rect class="cls-1" x="0" y="237.58" width="100.63" height="25.71" rx="12.86" ry="12.86"/><path class="cls-3" d="M28.58,245.07l-.04,1.68h.48v-1.86h1.88v1.86h.86v1.61h2.39v-1.07h-2.03v-1.75h2.03v-.65h2.05v.65h2.07v1.75h-2.07v1.07h2.38v1.75h-.65v1.01h.65v1.74h-.65v2.18c0,.59-.16,1.01-.49,1.27-.28.21-.69.31-1.23.31h-1.56v-1.96h.96c.21,0,.31-.1.31-.3v-1.51h-4.16v.13c-.14.07-.29.14-.45.2s-.3.11-.41.15v3.29h-1.88v-2.74c-.57.12-1.02.21-1.33.27-.32.06-.61.09-.89.09v-2.07c.32,0,.66-.03,1.02-.08.36-.06.76-.14,1.2-.25v-3.13h-.61c0,.25-.01.46-.03.62-.02.16-.09.47-.21.91h-1.48c.15-.69.25-1.42.32-2.18s.1-1.76.1-3.01h1.48ZM30.9,251.26c.32-.11.61-.24.86-.39v.25h4.16v-1.01h-4.16v-1.39h-.86v2.55ZM33.83,253.45l.49,2.56h-1.78l-.48-2.56h1.77Z"/><path class="cls-3" d="M43.94,245.85v-.96h1.92v.96h1.06v-.96h1.91v.96h3.03v7.29h.42v1.78h-1.18l1.18,1.71h-2.35l-1.12-1.71h-4.66c-.34.68-.71,1.25-1.12,1.71h-2.53c.5-.5.95-1.07,1.35-1.71h-1.35v-1.78h.43v-7.29h3.01ZM42.87,249.47h1.1v-1.83h-1.1v1.83ZM42.87,253.13h1.1v-1.91h-1.1v1.91ZM45.86,249.47h1.06v-1.83h-1.06v1.83ZM45.86,253.13h1.06v-1.91h-1.06v1.91ZM48.8,249.47h1.1v-1.83h-1.1v1.83ZM48.8,253.13h1.1v-1.91h-1.1v1.91Z"/><path class="cls-3" d="M63.21,251.37c0,1.5-.32,2.61-.96,3.34-.67.75-1.72,1.13-3.16,1.13h-.86c-1.43,0-2.47-.37-3.13-1.12-.66-.74-.99-1.86-.99-3.35v-1.9c0-1.5.35-2.62,1.05-3.36.7-.74,1.72-1.12,3.07-1.12h.86c1.34,0,2.36.37,3.06,1.12s1.05,1.87,1.05,3.36v1.9ZM60.92,251.37v-1.9c0-.81-.17-1.39-.51-1.74-.29-.3-.74-.45-1.32-.45h-.86c-.6,0-1.03.15-1.31.44-.34.35-.51.93-.51,1.75v1.9c0,.76.15,1.32.45,1.67.3.35.76.53,1.36.53h.86c.6,0,1.05-.18,1.36-.53.31-.35.47-.91.47-1.67Z"/><path class="cls-3" d="M71.47,255.74h-2.29v-8.29l-4.08.9v-2.31l4.21-.96h2.16v10.66Z"/><path class="cls-2" d="M76.15,77.35l-1.38,1.7c-.08-.1-.21-.25-.41-.46-.19-.21-.34-.37-.44-.48v3.13h-2.34v-2.76c-.55.74-1.12,1.35-1.72,1.85-.53-.74-1.05-1.31-1.56-1.72,1.09-.71,2.03-1.68,2.82-2.9h-2.3v-2.01h2.76v-1.01h-2.81v-1.96h1.35c-.05-.43-.19-.93-.42-1.49l.89-.21h-1.62v-1.95h2.61v-1.41h2.34v1.41h2.61v1.95h-1.35l.71.13c-.08.16-.19.43-.35.79-.16.37-.27.63-.35.78h1.43v1.96h-2.71v1.01h2.55v2.01h-2.55v.02c.17.12.41.29.72.51s.62.45.94.69c.32.24.51.38.56.42ZM73.72,69.03h-2.06c.26.62.41,1.12.45,1.51l-.73.19h2.84l-1.01-.19c.25-.67.42-1.17.5-1.51ZM79.36,68.93v1.98h4.98v2.24h-1.41v8.03h-2.34v-8.03h-1.23c-.08,3.69-.92,6.4-2.53,8.13-.14-.26-.39-.56-.76-.91s-.69-.59-.97-.73c.43-.48.79-1.01,1.07-1.61.28-.59.48-1.22.61-1.88.12-.66.21-1.25.24-1.78.04-.53.06-1.13.06-1.8v-5.81l1.31.37c1.77-.48,3.12-.97,4.04-1.48l1.91,1.74c-1.2.55-2.86,1.07-4.98,1.54Z"/><path class="cls-2" d="M93.19,77.01l-1.62,1.74c-.36-.59-.82-1.3-1.4-2.11-.51,1.89-1.39,3.36-2.64,4.41-.16-.26-.41-.56-.75-.92-.34-.35-.64-.62-.91-.82,1.42-1.03,2.24-2.81,2.47-5.35h-2.16v-2.17h2.24v-1.75h-2.01v-2.11h2.01v-2.27h2.25v2.27h1.95v2.11h-1.95v1.75h2.16v2.17h-2.24l-.02.11c.39.38,1.26,1.36,2.61,2.94ZM99.41,78.86h.29c.05,0,.1-.02.13-.06.03-.04.06-.12.09-.26.03-.13.05-.32.06-.57.02-.24.03-.58.04-1,.4.36,1.05.65,1.96.88-.1,1.19-.29,2-.59,2.42s-.78.64-1.44.64h-.97c-.81,0-1.35-.18-1.61-.55-.26-.37-.4-1.04-.4-2.03v-2.51h-.5c-.08.66-.18,1.23-.32,1.72-.14.49-.34.97-.62,1.46-.28.49-.67.92-1.18,1.3-.5.38-1.12.71-1.84.99-.11-.27-.29-.58-.55-.94-.26-.36-.51-.64-.75-.86.46-.15.86-.33,1.2-.54.33-.21.61-.41.81-.62.21-.21.38-.46.52-.75.14-.29.24-.57.3-.83.06-.26.11-.57.15-.92h-.89v-9.8h7.56v9.8h-1.65v2.48c0,.25.01.4.03.46.02.06.08.09.16.09ZM95.53,68.15v.58h3.02v-.58h-3.02ZM95.53,70.63v.6h3.02v-.6h-3.02ZM95.53,73.1v.6h3.02v-.6h-3.02Z"/><path class="cls-2" d="M106.99,66.37h6.03c0,5.99,2.14,10.23,6.42,12.72-.27.22-.61.55-1.01.99s-.72.82-.93,1.14c-2.79-1.68-4.75-4.24-5.87-7.7-1.3,3.55-3.26,6.12-5.89,7.74-.23-.26-.57-.6-1.04-1.01-.47-.42-.85-.74-1.17-.97,3.2-1.58,5.24-4.59,6.13-9.03l1.2.23c-.09-.49-.16-1.03-.21-1.64h-3.67v-2.45Z"/><path class="cls-2" d="M124.62,72.63v-1.23c-.88.61-1.78,1.12-2.71,1.56-.33-.7-.82-1.38-1.44-2.03,1.36-.57,2.65-1.37,3.86-2.38,1.21-1.02,2.14-2.02,2.77-3.02h2.56c1.78,2.44,4.09,4.13,6.91,5.04-.43.44-.96,1.18-1.57,2.21-.87-.4-1.75-.9-2.66-1.51v1.36h-7.72ZM135.44,75.86h-3.44c.7.64,1.37,1.32,2.01,2.05.64.73,1.14,1.39,1.49,1.99l-2.25,1.36c-.04-.1-.24-.42-.6-.97-3.37.18-6.93.36-10.67.54l-.32-2.37c.4-.01,1.25-.04,2.55-.08.36-.75.68-1.58.97-2.51h-3.57v-2.24h13.83v2.24ZM125.94,70.42h5.21c-1.14-.87-2.02-1.73-2.66-2.6-.65.87-1.5,1.73-2.55,2.6ZM131.39,75.86h-3.23c-.1.18-.23.44-.4.78-.17.34-.32.64-.46.91-.14.27-.28.52-.41.75.58-.02,1.94-.07,4.05-.15-.44-.49-.88-.94-1.31-1.36l1.75-.92Z"/><path class="cls-2" d="M138.41,71.62v-2.48h3.81l-.15-2.21h2.6l.16,2.21h4.44v2.48h-4.28l.15,2.17h4.14v2.55h-3.94l.29,4.18h-2.61l-.29-4.18h-4.31v-2.55h4.14l-.15-2.17h-3.99Z"/><path class="cls-2" d="M151.37,73.37v-2.14l1.44-.06-.24-2.11h2.12l.24,2.04,5.77-.18v2.14c-.21.9-.55,1.67-1.04,2.31-.49.64-.97,1.15-1.45,1.52s-1.07.73-1.78,1.09v-2.35c.35-.18.65-.39.9-.63.25-.24.48-.5.69-.79s.38-.65.52-1.08l-3.36.11.89,7.36h-2.11l-.91-7.31-1.7.08Z"/><path class="cls-2" d="M162.64,70.2v-2.53h5.06v2.53h-5.06ZM173.42,70.39c-.54,1.98-1.27,3.59-2.17,4.83-.91,1.24-1.85,2.2-2.83,2.88-.98.68-1.9,1.15-2.78,1.44s-1.59.45-2.15.49c-.56.05-.84.07-.85.06v-2.64s.23,0,.67-.02c.43-.03.99-.14,1.66-.33.68-.19,1.39-.57,2.13-1.12.75-.55,1.43-1.25,2.07-2.1.63-.85,1.19-2.01,1.68-3.48h2.58Z"/><path class="cls-2" d="M175.16,72.9c.43-.74.8-1.36,1.1-1.88s.6-1.02.89-1.51c.29-.49.52-.86.68-1.12.21-.31.42-.54.64-.67.22-.13.41-.22.58-.24.16-.03.24-.04.24-.02.32.02.59.09.8.19s.4.29.58.55c.13.19.39.58.77,1.17.38.58.83,1.25,1.33,2.01.5.76.99,1.5,1.46,2.21.47.72,1.03,1.57,1.68,2.54v4.69c-4.1-6.29-6.19-9.51-6.28-9.67-.11-.17-.19-.27-.25-.3s-.09-.04-.09-.02c0-.01-.02,0-.07.03-.04.03-.12.13-.23.29-.1.13-.29.42-.58.88s-.61.99-.97,1.61c-.36.61-.84,1.41-1.42,2.39-.58.98-.88,1.48-.88,1.49v-4.62ZM183.39,67.94c.35-.35.77-.52,1.26-.52s.92.18,1.27.53c.35.35.53.78.53,1.27s-.18.92-.53,1.26c-.35.35-.78.52-1.27.52s-.92-.17-1.26-.52c-.35-.35-.52-.77-.52-1.26s.17-.92.52-1.28ZM185.46,69.22c0-.24-.08-.43-.24-.58-.16-.15-.35-.23-.58-.23s-.42.08-.57.23-.23.35-.23.58.08.42.23.57c.15.15.34.23.57.23s.42-.08.58-.23c.16-.15.24-.34.24-.57Z"/><path class="cls-2" d="M187.81,74.85v-2.55h7.49v2.55h-7.49Z"/><path class="cls-2" d="M196.59,70.2v-2.53h5.06v2.53h-5.06ZM207.38,70.39c-.54,1.98-1.27,3.59-2.17,4.83-.91,1.24-1.85,2.2-2.83,2.88-.98.68-1.91,1.15-2.78,1.44s-1.59.45-2.15.49-.84.07-.85.06v-2.64s.23,0,.67-.02c.43-.03.99-.14,1.66-.33.68-.19,1.39-.57,2.13-1.12.75-.55,1.43-1.25,2.07-2.1.63-.85,1.19-2.01,1.68-3.48h2.58Z"/><path class="cls-2" d="M224.15,77.31h-5.09c1.15,1.05,2.92,1.68,5.34,1.88-.56.56-1.03,1.26-1.41,2.11-1.52-.24-2.78-.63-3.78-1.17-.99-.54-1.82-1.28-2.48-2.22-1.15,1.5-3.17,2.62-6.07,3.34-.35-.68-.84-1.33-1.49-1.95,2.33-.46,4-1.13,4.98-2h-4.57v-2.08h5.79c.04-.15.08-.41.1-.76h-4.04v-1.91h4.05v-.71h-4.31v-1.23h-1.52v-3.78h5.9v-1.31h2.5v1.31h5.94v3.78h-1.38v1.23h-4.67v.71h4.28v1.91h-4.3c0,.1-.03.35-.08.76h6.33v2.08ZM212.02,69.92h3.45v-.7h2.45v.7h3.55v-.99h-9.46v.99Z"/><path class="cls-2" d="M237.24,79.25h2.17c.31,0,.53-.1.64-.31.11-.21.19-.65.24-1.35.55.38,1.19.65,1.93.81-.12,1.08-.36,1.82-.74,2.23-.37.41-.99.61-1.86.61h-2.64c-1.08,0-1.81-.19-2.18-.58s-.56-1.13-.56-2.22v-2.68l-.5.24-.62-1.46c-.03,2.02-.08,3.44-.15,4.24-.07.81-.18,1.33-.36,1.58-.27.43-.66.7-1.15.79-.28.08-.84.11-1.69.11-.04-.77-.23-1.48-.57-2.12.28.03.62.05,1.01.05.21,0,.36-.09.47-.26.15-.26.25-1.96.29-5.11h-.88c-.28,3.32-1,5.79-2.17,7.41-.2-.3-.45-.61-.78-.93-.33-.32-.63-.58-.92-.77.71-1.02,1.18-2.26,1.39-3.72.22-1.46.34-3.35.37-5.67h-1.49v-2.22h2.37v-2.42h2.32v2.42h2.42v1.2c.68-.99,1.17-2.22,1.46-3.67l2.38.49c-.09.35-.24.85-.45,1.52h4.85v2.19h-5.76c-.18.37-.48.84-.89,1.43h1.17v1.35l.52-.24v-2.25h2v1.35l.75-.36.13-.08.36-.23,1.49.5-.08.31c0,2.37-.02,3.82-.05,4.35-.01.64-.24,1.06-.7,1.28-.32.17-.81.26-1.44.26-.06-.73-.2-1.31-.41-1.74.09.01.21.02.37.02.12,0,.18-.06.19-.19.01-.08.02-.77.02-2.08l-.63.29v4.48h-2v-3.55l-.52.24v3.65c0,.37.05.59.15.68.1.09.34.13.73.13ZM233.14,73.91l1.1-.52v-1.65c-.65-.7-1.17-1.2-1.57-1.49l.1-.1h-2.5c-.01.17-.02.42-.03.75s-.02.57-.02.75h2.94v.89l-.02,1.38Z"/><path class="cls-2" d="M252.41,68.33h5.74v8.63h-2.55v-.78h-3.2v5.08h-2.56v-5.08h-3.2v.86h-2.42v-8.71h5.61v-2.85h2.56v2.85ZM246.65,73.81h3.2v-3.11h-3.2v3.11ZM252.41,73.81h3.2v-3.11h-3.2v3.11Z"/><path class="cls-3" d="M242.55,530.62c-1.45-1.77-2.46-3.51-2.46-5.64,0-3.44,2.75-5.68,6.55-5.68,4.52,0,6.44,2.5,6.44,4.96,0,2.79-2.64,4.7-5.28,6.62l5.57,6.15c.51-1.19.76-2.6.76-4.09h3.91c0,2.53-.65,5.03-1.95,7.09l4.16,4.56h-5.03l-1.66-1.81c-1.77,1.34-4.09,2.13-6.95,2.13-5.5,0-8.32-3.44-8.32-6.98,0-3.33,1.99-5.54,4.27-7.31ZM251.02,540.03l-6.22-6.87c-1.45,1.27-2.46,2.64-2.46,4.34,0,2.32,1.77,3.76,4.38,3.76,1.77,0,3.18-.47,4.3-1.23ZM245.7,528.45c1.88-1.27,3.44-2.46,3.44-3.94,0-.94-.8-1.99-2.46-1.99-1.48,0-2.5.87-2.5,2.46,0,1.23.72,2.42,1.52,3.47Z"/><path class="cls-3" d="M138.2,140.34h5.34c8.01,0,12.34-4.35,12.34-11.78,0-5.72-4.34-10.41-10.9-10.41s-10.34,4.23-10.9,9.72h-11.79c.33-12.7,10.79-21.05,23.13-21.05,13.45,0,23.24,9.5,23.24,21.39,0,8.58-4.89,14.53-10.9,17.62,7,3.2,12.01,9.38,12.01,19.11,0,12.47-8.67,22.88-23.46,22.88-15.57,0-24.35-9.15-25.02-21.62h11.79c.89,5.72,4.78,10.07,12.68,10.07,6.67,0,11.23-5.03,11.23-11.67,0-8.01-4.56-12.81-13.45-12.81h-5.34v-11.44Z"/><path class="cls-3" d="M202.23,187.82c-12.79,0-24.13-7.78-24.13-24.14v-32.61c0-16.82,11.34-24.25,24.13-24.25s24.13,7.44,24.13,24.14v32.72c0,16.36-11.34,24.14-24.13,24.14ZM202.23,118.37c-7,0-11.34,4.92-11.34,13.39v31.12c0,8.47,4.34,13.39,11.34,13.39s11.23-4.92,11.23-13.39v-31.12c0-8.47-4.34-13.39-11.23-13.39Z"/><path class="cls-3" d="M259.92,187.82c-12.79,0-24.13-7.78-24.13-24.14v-32.61c0-16.82,11.34-24.25,24.13-24.25s24.13,7.44,24.13,24.14v32.72c0,16.36-11.34,24.14-24.13,24.14ZM259.92,118.37c-7,0-11.34,4.92-11.34,13.39v31.12c0,8.47,4.34,13.39,11.34,13.39s11.23-4.92,11.23-13.39v-31.12c0-8.47-4.34-13.39-11.23-13.39Z"/><path class="cls-3" d="M16.54,143.74l-.22,3.76h7.88v-4.46h9.18v4.46h17.43v7.36h-17.43v7.61h18.73v7.36h-13.66v8.67c0,1.14.54,1.7,1.62,1.7h5.94c1.15,0,2.23-.14,3.24-.43,1.01-.28,1.96-.76,2.86-1.43v7.71c-.86.53-1.82.95-2.86,1.25-1.04.3-2.09.45-3.13.45h-9.07c-2.52,0-4.35-.55-5.48-1.65-1.13-1.1-1.7-2.89-1.7-5.36v-10.92h-5.51c-.68,5.34-2.74,9.69-6.15,13.03-3.78,3.64-8.8,5.46-15.06,5.46v-8.17c3.89-.5,6.8-1.56,8.74-3.18,1.94-1.62,3.15-4,3.62-7.14H3.16v-7.36h21.05v-7.61h-9.45c-.32.97-.58,1.64-.76,2-.5,1.14-1.06,2.17-1.67,3.11H2.94c1.62-2.47,2.88-5.08,3.78-7.84.9-2.76,1.35-5.55,1.35-8.39h8.47Z"/><path class="cls-3" d="M72.46,143.13l1.3,2.35h15.6l.97-2.35h8.58l-1.03,2.35h7.88v4.76h-20.19v2.2h18.89v4.76h-18.89v2.15h20.19v4.81h-31.31c-.18.37-.32.69-.4.95-.09.27-.28.63-.57,1.1h30.98v21.34h-42.91v-10.37c-1.51.63-3.1,1.12-4.75,1.45v-8.92c4.25-.67,7.2-2.52,8.85-5.56h-8.85v-4.81h20.19v-2.15h-18.89v-4.76h18.89v-2.2h-20.19v-4.76h8.8l-1.35-2.35h8.2ZM69.92,171.24v.8h26.18v-2.1h-25.05l-1.13,1.3ZM69.92,177.85h26.18v-2.1h-26.18v2.1ZM69.92,183.66h26.18v-2.05h-26.18v2.05Z"/><path class="cls-3" d="M332.12,176.71v8.47c-4.49-1.11-8.54-3.08-12.16-5.9-3.62-2.82-6.44-6.24-8.45-10.26-2.17,3.89-5.13,7.24-8.89,10.05-3.76,2.81-7.96,4.85-12.6,6.11v-8.47c5.14-1.6,9.22-4.28,12.25-8.01,3.16-3.92,4.73-8.44,4.73-13.57v-11.81h7.89v11.02c0,5.22,1.58,9.89,4.76,14.01,3.17,4.12,7.33,6.91,12.46,8.36Z"/><path class="cls-2" d="M7.07,118.94c-2.67-1.32-4.56-4.06-4.56-7.13,0-5.62,4.95-8.97,10.34-8.97s10.34,3.35,10.34,8.97c0,3.07-1.89,5.81-4.56,7.13,2.72,1.13,5.05,4.11,5.05,7.79,0,5.95-5.05,9.54-10.82,9.54s-10.82-3.59-10.82-9.54c0-3.68,2.43-6.66,5.05-7.79ZM12.84,131.55c2.91,0,5.24-2.31,5.24-5.15,0-3.16-2.77-5.1-5.24-5.1s-5.19,1.94-5.19,5.1c0,2.83,2.18,5.15,5.19,5.15ZM12.84,116.86c2.62,0,4.76-2.08,4.76-4.68s-2.14-4.58-4.76-4.58-4.76,2.03-4.76,4.58,2.09,4.68,4.76,4.68Z"/><path class="cls-2" d="M51.82,117.97v-2.04h3.47v2.04h7.97v3.11h-7.97v2.59h6.94v3.11h-5.14c.57.96,1.41,1.84,2.52,2.63,1.11.79,2.33,1.39,3.65,1.79v3.59c-1.51-.33-2.98-1.01-4.4-2.03-1.42-1.02-2.61-2.23-3.57-3.62v5.65h-3.47v-5.69c-.97,1.4-2.16,2.62-3.58,3.65-1.41,1.03-2.89,1.71-4.41,2.04v-3.59c1.34-.4,2.56-.99,3.65-1.77,1.09-.78,1.94-1.66,2.54-2.65h-5.14v-3.11h6.94v-2.59h-7.99v-3.11h7.99Z"/><path class="cls-2" d="M83.69,124.89h-4.84v2.38c.93.24,1.76.48,2.5.73.74.25,1.45.53,2.13.83v3.78c-1.26-.74-2.8-1.45-4.63-2.15-.11,1.29-.72,2.28-1.81,2.97s-2.77,1.03-5.03,1.03c-1.99,0-3.53-.34-4.63-1.02-1.17-.72-1.76-1.78-1.76-3.17,0-1.27.54-2.24,1.61-2.92,1.07-.68,2.63-1.02,4.67-1.02,1.13,0,2.28.08,3.45.25v-1.69h-10.18v-2.9h10.18v-1.81h-10.18v-2.92h10.18v-1.29h3.49v1.29h4.84v2.92h-4.84v1.81h4.84v2.9ZM75.36,129.4c-.56-.12-1.14-.23-1.76-.31-.61-.08-1.14-.12-1.59-.12-.91,0-1.59.11-2.01.33-.43.22-.64.55-.64.98,0,.46.2.78.6.97.4.19,1.09.28,2.06.28,1.23,0,2.09-.18,2.59-.54.5-.36.75-.89.75-1.59Z"/><path class="cls-2" d="M103.6,120.24h-.96c-3.31,0-6.07.79-8.27,2.38-1.9,1.39-2.85,2.86-2.85,4.4,0,1.11.44,2,1.33,2.65,1.09.83,2.81,1.25,5.16,1.25h5.21v3.53h-6.32c-3.26,0-5.71-.74-7.37-2.21-1.37-1.24-2.06-2.82-2.06-4.76,0-1.38.5-2.72,1.51-4.02s2.41-2.37,4.21-3.22h-7.78v-3.36h13.84v2.94h4.35v.42ZM102.04,119.05h-1.86v-3.46h1.86v3.46ZM104.89,119.05h-1.86v-3.46h1.86v3.46Z"/><line class="cls-4" x1="28.56" y1="134.22" x2="38.3" y2="114.95"/><rect class="cls-3" x="242.65" y="286.93" width="1.39" height="15.33" transform="translate(207.11 674.98) rotate(-135)"/><rect class="cls-3" x="242.65" y="277.07" width="1.39" height="15.33" transform="translate(616.76 314) rotate(135)"/><rect class="cls-3" x="237.21" y="279.77" width="1.39" height="19.8" transform="translate(527.57 51.76) rotate(90)"/><path class="cls-3" d="M197.9,383.41c-1.32,1.09-1.8,2.25-1.8,3.65s.47,2.56,1.8,3.65l-.21.25c-1.53-1.12-2.16-2.33-2.16-3.9s.63-2.79,2.16-3.9l.21.25Z"/><path class="cls-3" d="M199.51,384.82q-.25.05-.35-.19c-.07-.17-.15-.3-.26-.43.78-.12,1.44-.31,1.91-.52.14-.06.22-.11.34-.18.18.16.33.32.48.48.05.06.06.08.06.14,0,.06-.06.1-.13.1-.07,0-.16.04-.26.08-.16.06-.33.12-.5.18v1.16c.53,0,.72-.02.77-.02.08,0,.09,0,.09.09v.55c0,.09,0,.1-.09.1-.05,0-.21,0-.65-.02.26.53.53.92.89,1.24-.1.14-.21.37-.28.58-.02.09-.06.13-.09.13s-.07-.05-.13-.13c-.22-.32-.38-.61-.54-1.01,0,1.97.05,3.36.05,3.5,0,.07,0,.08-.09.08h-.63c-.09,0-.1,0-.1-.08,0-.14.05-1.44.06-3.16-.21.61-.5,1.14-.81,1.6-.06.08-.1.12-.14.12-.03,0-.06-.04-.1-.13-.09-.22-.21-.44-.32-.57.46-.53.94-1.22,1.24-2.18h-.19c-.58,0-.77.02-.82.02-.07,0-.08,0-.08-.1v-.55c0-.08,0-.09.08-.09.06,0,.24.02.82.02h.28v-.93l-.5.12ZM203.95,384.97c.17-.37.29-.7.41-1.04.03-.13.07-.29.09-.5.28.06.6.13.79.2.06.02.1.06.1.11,0,.06-.02.09-.07.14-.06.06-.1.14-.14.25-.11.23-.22.5-.4.85.57,0,.79-.02.84-.02.08,0,.09,0,.09.1,0,.05-.02.23-.02.69v.97c0,.45.02.65.02.69,0,.08,0,.09-.09.09-.05,0-.29-.02-.92-.02v2.09c0,.14.02.22.08.26.04.03.14.06.27.06.19,0,.27-.03.33-.1.06-.08.09-.27.1-.91.14.1.35.2.49.23q.21.06.19.27c-.03.66-.14.94-.3,1.07-.18.14-.51.19-.89.19-.42,0-.67-.04-.8-.13-.14-.1-.23-.26-.23-.64v-2.4h-.49c-.04,1.74-.51,2.6-1.5,3.18-.1.06-.16.09-.2.09-.05,0-.08-.05-.17-.17-.13-.17-.29-.33-.42-.42,1.05-.45,1.52-1.15,1.54-2.68-.45,0-.62.02-.65.02-.09,0-.1,0-.1-.09,0-.06.02-.25.02-.69v-.97c0-.45-.02-.64-.02-.69,0-.09,0-.1.1-.1.04,0,.29.02.98.02h.98ZM202.68,383.49c.1-.05.11-.05.16.02.21.29.42.68.57,1.04.02.08.02.1-.09.14l-.49.22c-.1.05-.11.05-.14-.04-.13-.36-.3-.72-.53-1.05-.04-.07-.03-.09.07-.14l.45-.2ZM204.86,385.69h-2.19v1.05h2.19v-1.05Z"/><path class="cls-3" d="M209.23,388.95c.17.33.33.53.65.66.28.11.78.16,1.48.16,1.03,0,2.24-.06,3.43-.18-.11.17-.18.38-.21.62q-.04.26-.29.27c-1.01.06-1.96.08-2.79.08s-1.48-.07-1.87-.23c-.37-.15-.58-.38-.78-.71-.25.24-.53.48-.82.7-.08.06-.13.11-.16.16-.04.06-.07.08-.12.08-.03,0-.08-.04-.11-.1-.11-.21-.22-.46-.33-.75.21-.1.32-.15.47-.25.23-.14.46-.33.67-.51v-1.76h-.39c-.43,0-.54.02-.58.02-.09,0-.1,0-.1-.1v-.61c0-.08,0-.09.1-.09.04,0,.15.02.58.02h.51c.42,0,.55-.02.6-.02.08,0,.09,0,.09.09,0,.05-.02.27-.02.76v1.69ZM208.73,385.38c-.06.04-.08.06-.1.06s-.04-.02-.06-.06c-.29-.48-.62-.91-.98-1.24-.06-.06-.05-.08.04-.14l.45-.3c.09-.06.1-.06.17,0,.37.34.71.73,1,1.19.05.07.05.09-.04.15l-.46.34ZM211.56,383.84c.37,0,.62-.02.73-.02.06,0,.08.04.08.09,0,.18,0,.63.1,1.17.23,1.32,1.01,2.59,2.24,3.37-.14.15-.31.39-.42.62-.06.12-.1.18-.14.18-.04,0-.1-.03-.17-.1-.97-.78-1.63-1.83-1.94-3.03-.3,1.21-.89,2.16-1.82,2.97-.09.07-.14.11-.18.11s-.08-.05-.17-.15c-.17-.22-.34-.37-.5-.47,1.28-.89,2-2.14,2.18-3.96h-.69c-.5,0-.64.02-.69.02-.09,0-.1,0-.1-.1v-.62c0-.08,0-.09.1-.09.05,0,.19.02.69.02h.71Z"/><path class="cls-3" d="M215.92,383.17c1.53,1.12,2.16,2.33,2.16,3.9s-.63,2.78-2.16,3.9l-.21-.25c1.32-1.09,1.79-2.25,1.79-3.65s-.47-2.56-1.79-3.65l.21-.25Z"/><rect class="cls-1" x="0" y="320.69" width="100.63" height="25.71" rx="12.86" ry="12.86"/><path class="cls-3" d="M28.52,328.17l-.04,1.68h.48v-1.86h1.88v1.86h.86v1.61h2.39v-1.07h-2.03v-1.75h2.03v-.65h2.05v.65h2.07v1.75h-2.07v1.07h2.38v1.75h-.65v1.01h.65v1.74h-.65v2.18c0,.59-.16,1.01-.49,1.27-.28.21-.69.31-1.23.31h-1.56v-1.96h.96c.21,0,.31-.1.31-.3v-1.51h-4.16v.13c-.14.07-.29.14-.45.2s-.3.11-.41.15v3.29h-1.88v-2.74c-.57.12-1.02.21-1.33.27-.32.06-.61.09-.89.09v-2.07c.32,0,.66-.03,1.02-.08.36-.06.76-.14,1.2-.25v-3.13h-.61c0,.25-.01.46-.03.62-.02.16-.09.47-.21.91h-1.48c.15-.69.25-1.42.32-2.18s.1-1.76.1-3.01h1.48ZM30.84,334.37c.32-.11.61-.24.86-.39v.25h4.16v-1.01h-4.16v-1.39h-.86v2.55ZM33.77,336.55l.49,2.56h-1.78l-.48-2.56h1.77Z"/><path class="cls-3" d="M43.88,328.95v-.96h1.92v.96h1.06v-.96h1.91v.96h3.03v7.29h.42v1.78h-1.18l1.18,1.71h-2.35l-1.12-1.71h-4.66c-.34.68-.71,1.25-1.12,1.71h-2.53c.5-.5.95-1.07,1.35-1.71h-1.35v-1.78h.43v-7.29h3.01ZM42.81,332.57h1.1v-1.83h-1.1v1.83ZM42.81,336.24h1.1v-1.91h-1.1v1.91ZM45.8,332.57h1.06v-1.83h-1.06v1.83ZM45.8,336.24h1.06v-1.91h-1.06v1.91ZM48.74,332.57h1.1v-1.83h-1.1v1.83ZM48.74,336.24h1.1v-1.91h-1.1v1.91Z"/><path class="cls-3" d="M63.15,334.47c0,1.5-.32,2.61-.96,3.34-.67.75-1.72,1.13-3.16,1.13h-.86c-1.43,0-2.47-.37-3.13-1.12-.66-.74-.99-1.86-.99-3.35v-1.9c0-1.5.35-2.62,1.05-3.36.7-.74,1.72-1.12,3.07-1.12h.86c1.34,0,2.36.37,3.06,1.12s1.05,1.87,1.05,3.36v1.9ZM60.86,334.47v-1.9c0-.81-.17-1.39-.51-1.74-.29-.3-.74-.45-1.32-.45h-.86c-.6,0-1.03.15-1.31.44-.34.35-.51.93-.51,1.75v1.9c0,.76.15,1.32.45,1.67.3.35.76.53,1.36.53h.86c.6,0,1.05-.18,1.36-.53.31-.35.47-.91.47-1.67Z"/><path class="cls-3" d="M74.04,331.74c0,.83-.25,1.48-.74,1.95-.42.4-1.13.75-2.16,1.05-1.08.35-1.9.67-2.47.95-.56.28-.95.57-1.16.88h6.49v2.27h-9v-1.29c0-1.43.56-2.51,1.69-3.25.44-.29,1.48-.71,3.12-1.26,1.13-.38,1.7-.84,1.7-1.39v-.18c0-.29-.1-.53-.29-.7-.23-.21-.57-.31-1.04-.31h-1.12c-.51,0-.92.15-1.23.45-.31.3-.46.67-.46,1.11v.44h-2.4v-.68c0-1.11.32-1.99.95-2.64.64-.65,1.54-.97,2.72-.97h1.64c1.25,0,2.19.29,2.83.87.61.54.91,1.27.91,2.19v.49Z"/><path class="cls-3" d="M275.96,336.22c0,1.26-.3,2.18-.92,2.77-.61.59-1.54.89-2.77.89h-2.2c-1.17,0-2.03-.29-2.6-.86-.51-.52-.77-1.26-.77-2.21v-.35h2.35v.12c0,.36.12.62.34.78.23.16.61.25,1.14.25h1.42c.59,0,1.01-.13,1.27-.4.25-.26.38-.65.38-1.16v-.81c-.54.29-1.15.43-1.84.43h-1.88c-1.15,0-1.98-.22-2.49-.66-.51-.44-.77-1.12-.77-2.04v-.96c0-.91.29-1.63.88-2.17.58-.54,1.45-.81,2.59-.81h2.17c1.23,0,2.16.29,2.8.86.6.54.9,1.3.9,2.3v4.03ZM273.61,332.73v-.35c0-.71-.45-1.06-1.35-1.06h-1.92c-.5,0-.86.09-1.08.28-.22.19-.33.46-.33.81v.36c0,.69.46,1.04,1.39,1.04h1.93c.43,0,.77-.09,1.01-.27.24-.18.36-.45.36-.81Z"/><path class="cls-3" d="M288.84,329.12v9.74c0,.49-.17.91-.5,1.27s-.74.55-1.21.55h-2.84v-1.9h2.17c.22,0,.33-.11.33-.32v-1.27h-6.36c-.2.77-.52,1.45-.97,2.04s-1.02,1.07-1.73,1.45v-2.78c.58-.49.87-1.43.87-2.81v-5.97h10.26ZM280.65,332.33h6.13v-1.45h-6.13v1.45ZM280.65,335.21v.23h6.13v-1.39h-6.13v1.16Z"/><path class="cls-3" d="M296.3,328.95c-.17.83-.53,1.63-1.06,2.39-.53.76-1.18,1.4-1.93,1.92h7.44c-.74-.51-1.38-1.15-1.92-1.93-.54-.77-.9-1.57-1.06-2.38h2.27c.15.7.49,1.33,1.01,1.9.53.56,1.15.94,1.87,1.14v2.2c-.28-.06-.58-.15-.92-.26v4.21c0,.76-.2,1.38-.61,1.84-.41.47-.96.7-1.67.7h-2.47v-2.04h2.12c.18,0,.33-.07.45-.2s.18-.31.18-.51v-2.74h-3.44c-.26,1.45-.82,2.67-1.68,3.66-.93,1.06-2.08,1.68-3.43,1.83v-2.05c.85-.22,1.53-.63,2.03-1.22.51-.59.83-1.33.98-2.22h-2.55v-1.21c-.19.06-.35.11-.47.14-.04,0-.15.03-.31.06v-2.2c.71-.2,1.33-.58,1.86-1.14.53-.56.87-1.19,1.02-1.9h2.27Z"/><path class="cls-3" d="M313.19,336.75c0,1.41-.27,2.39-.8,2.94-.53.55-1.45.82-2.76.82h-1.14v-2.25h1.13c.51,0,.86-.1,1.05-.3s.29-.6.29-1.19v-2.75c0-.68-.11-1.11-.32-1.32-.21-.2-.7-.31-1.46-.31h-.55c-.21,1.45-.46,2.9-.77,4.34-.3,1.44-.6,2.58-.9,3.44h-2.23c.31-.81.62-1.92.93-3.34s.58-2.9.79-4.44h-1.48v-2.13h1.73l.09-1.29h2.2l-.09,1.29h.58c1.29,0,2.17.18,2.65.53.7.52,1.05,1.57,1.05,3.14v2.82ZM314.96,330.74h-1.16v-2.18h1.16v2.18ZM316.61,337.91h-2.14c0-2.84-.22-4.98-.65-6.43h2.14c.22.84.38,1.77.49,2.79s.16,2.23.16,3.64ZM316.65,330.74h-1.12v-2.18h1.12v2.18Z"/><rect class="cls-3" x="237.3" y="363.03" width="1.39" height="15.33" transform="translate(144.16 801.11) rotate(-135)"/><rect class="cls-3" x="237.3" y="353.17" width="1.39" height="15.33" transform="translate(661.44 447.71) rotate(135)"/><rect class="cls-3" x="231.86" y="355.87" width="1.39" height="19.8" transform="translate(598.32 133.22) rotate(90)"/><path class="cls-3" d="M30.76,436.81v21.34c0,1.06-.37,1.99-1.1,2.79s-1.62,1.19-2.66,1.19h-6.23v-4.15h4.75c.47,0,.71-.24.71-.71v-2.79h-13.94c-.44,1.69-1.14,3.18-2.12,4.47-.98,1.29-2.24,2.35-3.8,3.19v-6.09c1.27-1.08,1.91-3.13,1.91-6.14v-13.09h22.47ZM12.81,443.84h13.43v-3.19h-13.43v3.19ZM12.81,450.15v.51h13.43v-3.04h-13.43v2.53Z"/><path class="cls-3" d="M45.9,436.41h5.55c.85,1.4,2.18,2.58,3.98,3.53s3.85,1.56,6.14,1.82v4.47c-.49-.08-.86-.14-1.11-.19-.25-.05-.57-.12-.97-.21v2.48h-21.56v-2.5l-2.16.43v-4.47c2.31-.28,4.37-.9,6.16-1.83,1.79-.94,3.12-2.11,3.97-3.51ZM61.58,450.64v3.78h-16.53l-1.51,3.21c2.2,0,4.15-.07,5.85-.2,1.7-.13,3.27-.35,4.71-.65l-1.08-2.33h4.98l3.58,7.68h-5.01l-.77-1.65c-1.76.59-3.74.96-5.92,1.12-2.18.16-5.57.24-10.16.24h-3.95v-4.18h2.39l1.51-3.24h-3.9v-3.78h25.8ZM42,444.55h13.31c-2.75-1.12-4.96-2.64-6.63-4.55-.83.93-1.82,1.78-2.96,2.56-1.14.78-2.38,1.44-3.73,1.99Z"/><path class="cls-3" d="M72.98,437.13v-.71h4.3v.71h2.79v-.71h4.29v.71h6.51v5.52h-6.51v1.05h7.2v2.93c0,.55-.2.96-.6,1.22-.4.27-1.08.4-2.05.4h-3.33v-1.48h1.14c.34,0,.51-.14.51-.43v-.43h-2.87v2.42h-4.29v-2.42h-3.47c-.55,1.29-1.61,2.3-3.19,3.04h17.5v11.49h-1.14l1.79,1.68h-5.21l-1.73-1.68h-11.32c-.53.66-1.1,1.22-1.71,1.68h-5.83c.81-.51,1.54-1.07,2.19-1.68h-1.48v-10.13l-.71.03v-3.3c1.63,0,2.9-.08,3.81-.26s1.64-.46,2.19-.88h-5.32v-5.49h6.54v-.97h-7.22v-2.33h7.22ZM70.59,443.7h2.28l.11-1.05h-2.39v1.05ZM71.1,452.09h15.16v-1.02h-15.16v1.02ZM71.1,455.19h15.16v-.97h-15.16v.97ZM71.1,458.35h15.16v-1h-15.16v1ZM80.06,442.64h-2.79l-.08,1.05h2.87v-1.05ZM77.28,440.43h2.79v-.97h-2.79v.97ZM84.36,440.43h2.42v-.97h-2.42v.97Z"/><path class="cls-3" d="M126.75,447.49h-2.1v-7.59l-3.74.82v-2.12l3.86-.88h1.98v9.77Z"/><path class="cls-3" d="M137.98,443.48c0,1.37-.29,2.39-.88,3.06-.61.69-1.58,1.04-2.89,1.04h-.79c-1.31,0-2.27-.34-2.87-1.02-.6-.68-.9-1.71-.9-3.07v-1.74c0-1.37.32-2.4.96-3.08.64-.68,1.58-1.02,2.82-1.02h.79c1.23,0,2.17.34,2.81,1.02.64.68.96,1.71.96,3.08v1.74ZM135.88,443.48v-1.74c0-.75-.15-1.28-.46-1.6-.27-.28-.67-.42-1.21-.42h-.79c-.55,0-.95.14-1.2.4-.31.32-.46.85-.46,1.61v1.74c0,.7.14,1.21.42,1.53s.69.48,1.25.48h.79c.55,0,.96-.16,1.25-.48s.43-.83.43-1.53Z"/><path class="cls-3" d="M149.77,437.71v8.93c0,.44-.15.83-.46,1.17-.31.33-.68.5-1.11.5h-2.61v-1.74h1.99c.2,0,.3-.1.3-.3v-1.17h-5.83c-.18.71-.48,1.33-.89,1.87-.41.54-.94.98-1.59,1.33v-2.55c.53-.45.8-1.31.8-2.57v-5.48h9.4ZM142.26,440.65h5.62v-1.33h-5.62v1.33ZM142.26,443.29v.21h5.62v-1.27h-5.62v1.06Z"/><path class="cls-3" d="M159.47,444.67c0,1.3-.24,2.2-.73,2.7-.48.5-1.33.74-2.54.74h-1.05v-2.06h1.02c.48,0,.8-.09.97-.28.17-.19.26-.55.26-1.09v-2.51c0-.62-.1-1.02-.29-1.21-.19-.19-.64-.28-1.34-.28h-.45c-.19,1.35-.42,2.69-.7,4.01s-.55,2.38-.82,3.17h-2.05c.28-.73.56-1.76.85-3.08.29-1.32.54-2.69.74-4.1h-1.4v-1.96h1.62l.07-1.11h2.01l-.08,1.11h.5c1.17,0,1.99.17,2.44.5.64.48.96,1.43.96,2.87v2.58ZM162.62,445.59h-1.96c0-1.32-.08-2.72-.25-4.21-.17-1.49-.35-2.59-.54-3.3h1.95c.21.84.39,1.96.55,3.37s.24,2.79.24,4.14Z"/><path class="cls-3" d="M174.55,444.41c0,1.25-.42,2.17-1.26,2.76-.97.67-2.62,1-4.95,1h-2.61v-1.95h2.48c1.63,0,2.77-.15,3.39-.46.56-.28.85-.75.85-1.4,0-.87-.63-1.31-1.91-1.31-.98,0-1.82.13-2.51.4-.69.27-1.31.7-1.85,1.29h-1.9v-6.94h1.95v4.68c.62-.44,1.25-.77,1.89-.99.74-.25,1.55-.38,2.44-.38,1.32,0,2.31.27,2.98.82.67.54,1.01,1.38,1.01,2.49ZM173.92,439.7h-4.2c-.44,0-.89-.02-1.33-.06-.44-.04-.8-.09-1.07-.15v-1.89c.25.07.61.13,1.05.17.45.04.9.06,1.36.06h4.18v1.88Z"/><path class="cls-3" d="M134.16,458.81c0,.94-.26,1.64-.79,2.09-.52.45-1.3.67-2.33.67h-2.2c-1.11,0-1.91-.24-2.41-.73-.5-.48-.74-1.29-.74-2.4h2.12c0,.39.11.67.34.85.23.17.6.26,1.11.26h1.26c.54,0,.92-.1,1.15-.29s.35-.48.35-.86v-.38c0-.4-.12-.7-.35-.89s-.62-.29-1.15-.29h-1.36c-.37,0-.65.07-.87.21-.17.1-.3.26-.38.46h-2.14v-5.8h8.09v2.04h-5.99v1.58c.48-.22,1.01-.33,1.6-.33h1.52c1.01,0,1.79.23,2.34.68.55.45.83,1.12.83,2.01v1.12Z"/><path class="cls-3" d="M144.83,456.6h-1.25v1.04c0,1.47-.43,2.6-1.29,3.38-.94.86-2.4,1.29-4.36,1.29h-1.26v-1.67h1.26c1.44,0,2.47-.27,3.09-.82.56-.48.83-1.2.83-2.18v-1.04h-3.7c-.28.4-.61.75-1.01,1.07-.39.31-.84.59-1.33.83v-1.96c.44-.24.8-.57,1.1-1,.34-.51.51-1.08.51-1.7h1.74c-.02.17-.05.35-.09.54s-.08.37-.12.55h5.87v1.68Z"/><path class="cls-3" d="M156.41,451.71v8.93c0,.44-.15.83-.46,1.17-.31.33-.68.5-1.11.5h-2.61v-1.74h1.99c.2,0,.3-.1.3-.3v-1.17h-5.83c-.18.71-.48,1.33-.89,1.87-.41.54-.94.98-1.59,1.33v-2.55c.53-.45.8-1.31.8-2.57v-5.48h9.4ZM148.9,454.65h5.62v-1.33h-5.62v1.33ZM148.9,457.29v.21h5.62v-1.27h-5.62v1.06Z"/><path class="cls-3" d="M163.61,451.71v5.04h-2.99v5.56h-1.83v-10.59h4.82ZM160.62,453.72h1.31v-.67h-1.31v.67ZM160.62,455.44h1.31v-.69h-1.31v.69ZM166.27,457.37v4.57h-4.74v-4.57h4.74ZM163.17,459.19h1.46v-.61h-1.46v.61ZM163.17,460.75h1.46v-.63h-1.46v.63ZM169.01,451.71v9.13c0,.44-.14.8-.41,1.07s-.63.4-1.08.4h-1.18v-1.76h.58c.17,0,.25-.08.25-.25v-3.55h-2.98v-5.04h4.81ZM165.89,453.72h1.29v-.67h-1.29v.67ZM165.89,455.44h1.29v-.69h-1.29v.69Z"/><path class="cls-3" d="M312.33,457.37c-1.32,1.09-1.79,2.25-1.79,3.65s.47,2.56,1.79,3.65l-.21.25c-1.53-1.12-2.16-2.33-2.16-3.9s.63-2.79,2.16-3.9l.21.25Z"/><path class="cls-3" d="M313.94,458.77q-.25.05-.35-.19c-.07-.17-.15-.3-.26-.43.78-.12,1.44-.31,1.91-.52.14-.06.22-.11.33-.18.18.16.33.32.48.48.05.06.06.08.06.14,0,.06-.06.1-.14.1-.07,0-.16.04-.26.08-.16.06-.33.12-.5.18v1.16c.54,0,.72-.02.77-.02.08,0,.09,0,.09.09v.55c0,.09,0,.1-.09.1-.05,0-.21,0-.65-.02.25.53.53.92.89,1.24-.1.14-.21.37-.28.58-.02.09-.06.13-.09.13s-.07-.05-.13-.13c-.21-.32-.38-.61-.53-1.01,0,1.97.05,3.36.05,3.5,0,.07,0,.08-.09.08h-.63c-.09,0-.1,0-.1-.08,0-.14.05-1.44.06-3.16-.21.61-.5,1.14-.81,1.6-.06.08-.1.12-.14.12-.03,0-.06-.04-.1-.13-.09-.22-.21-.44-.32-.57.46-.53.94-1.22,1.24-2.18h-.19c-.58,0-.77.02-.82.02-.07,0-.08,0-.08-.1v-.55c0-.08,0-.09.08-.09.06,0,.24.02.82.02h.28v-.93l-.5.12ZM318.38,458.92c.17-.37.3-.7.41-1.04.03-.13.07-.29.09-.5.28.06.6.13.79.2.06.02.1.06.1.11,0,.06-.02.09-.07.14-.06.06-.1.14-.14.25-.11.23-.22.5-.4.85.57,0,.79-.02.84-.02.08,0,.09,0,.09.1,0,.05-.02.23-.02.69v.97c0,.45.02.65.02.69,0,.08,0,.09-.09.09-.05,0-.29-.02-.92-.02v2.09c0,.14.02.22.08.26.04.03.14.06.27.06.19,0,.27-.03.33-.1.06-.08.09-.27.1-.91.14.1.35.2.49.23q.21.06.19.27c-.03.66-.14.94-.3,1.07-.18.14-.51.19-.89.19-.42,0-.67-.04-.8-.13-.14-.1-.23-.26-.23-.64v-2.4h-.49c-.04,1.74-.51,2.6-1.5,3.18-.1.06-.16.09-.2.09-.05,0-.08-.05-.17-.17-.13-.17-.29-.33-.42-.42,1.05-.45,1.52-1.15,1.54-2.68-.45,0-.62.02-.65.02-.09,0-.1,0-.1-.09,0-.06.02-.25.02-.69v-.97c0-.45-.02-.64-.02-.69,0-.09,0-.1.1-.1.04,0,.29.02.98.02h.98ZM317.11,457.45c.1-.05.11-.05.16.02.21.29.42.68.57,1.04.02.08.02.1-.09.14l-.49.22c-.1.05-.11.05-.14-.04-.13-.36-.3-.72-.53-1.05-.04-.07-.03-.09.07-.14l.45-.2ZM319.29,459.64h-2.19v1.05h2.19v-1.05Z"/><path class="cls-3" d="M323.66,462.91c.17.33.33.53.65.66.28.11.78.16,1.48.16,1.03,0,2.24-.06,3.43-.18-.11.17-.18.38-.22.62q-.04.26-.29.27c-1.01.06-1.96.08-2.79.08s-1.48-.07-1.87-.23c-.37-.15-.58-.38-.78-.71-.25.24-.53.48-.82.7-.08.06-.13.11-.16.16-.04.06-.07.08-.12.08-.03,0-.08-.04-.11-.1-.11-.21-.21-.46-.33-.75.21-.1.32-.15.47-.25.23-.14.46-.33.67-.51v-1.76h-.39c-.43,0-.54.02-.58.02-.09,0-.1,0-.1-.1v-.61c0-.08,0-.09.1-.09.04,0,.15.02.58.02h.51c.42,0,.55-.02.6-.02.08,0,.09,0,.09.09,0,.05-.02.27-.02.76v1.69ZM323.16,459.33c-.06.04-.08.06-.1.06s-.04-.02-.06-.06c-.29-.48-.62-.91-.98-1.24-.06-.06-.05-.08.04-.14l.45-.3c.09-.06.1-.06.17,0,.37.34.71.73,1,1.19.05.07.05.09-.04.15l-.46.34ZM325.99,457.8c.37,0,.62-.02.73-.02.06,0,.08.04.08.09,0,.18,0,.63.1,1.17.23,1.32,1.01,2.59,2.24,3.37-.14.15-.31.39-.42.62-.06.12-.1.18-.14.18-.04,0-.1-.03-.18-.1-.97-.78-1.63-1.83-1.94-3.03-.3,1.21-.89,2.16-1.82,2.97-.09.07-.14.11-.18.11s-.08-.05-.17-.15c-.17-.22-.33-.37-.49-.47,1.28-.89,1.99-2.14,2.18-3.96h-.69c-.49,0-.64.02-.69.02-.09,0-.1,0-.1-.1v-.62c0-.08,0-.09.1-.09.05,0,.19.02.69.02h.71Z"/><path class="cls-3" d="M330.35,457.12c1.53,1.12,2.16,2.33,2.16,3.9s-.63,2.78-2.16,3.9l-.21-.25c1.33-1.09,1.8-2.25,1.8-3.65s-.47-2.56-1.8-3.65l.21-.25Z"/><rect class="cls-1" x="0" y="398.71" width="100.63" height="25.71" rx="12.86" ry="12.86"/><path class="cls-3" d="M28.48,406.19l-.04,1.68h.48v-1.86h1.88v1.86h.86v1.61h2.39v-1.07h-2.03v-1.75h2.03v-.65h2.05v.65h2.07v1.75h-2.07v1.07h2.38v1.75h-.65v1.01h.65v1.74h-.65v2.18c0,.59-.16,1.01-.49,1.27-.28.21-.69.31-1.23.31h-1.56v-1.96h.96c.21,0,.31-.1.31-.3v-1.51h-4.16v.13c-.14.07-.29.14-.45.2s-.3.11-.41.15v3.29h-1.88v-2.74c-.57.12-1.02.21-1.33.27-.32.06-.61.09-.89.09v-2.07c.32,0,.66-.03,1.02-.08.36-.06.76-.14,1.2-.25v-3.13h-.61c0,.25-.01.46-.03.62-.02.16-.09.47-.21.91h-1.48c.15-.69.25-1.42.32-2.18s.1-1.76.1-3.01h1.48ZM30.81,412.39c.32-.11.61-.24.86-.39v.25h4.16v-1.01h-4.16v-1.39h-.86v2.55ZM33.74,414.57l.49,2.56h-1.78l-.48-2.56h1.77Z"/><path class="cls-3" d="M43.85,406.97v-.96h1.92v.96h1.06v-.96h1.91v.96h3.03v7.29h.42v1.78h-1.18l1.18,1.71h-2.35l-1.12-1.71h-4.66c-.34.68-.71,1.25-1.12,1.71h-2.53c.5-.5.95-1.07,1.35-1.71h-1.35v-1.78h.43v-7.29h3.01ZM42.78,410.6h1.1v-1.83h-1.1v1.83ZM42.78,414.26h1.1v-1.91h-1.1v1.91ZM45.77,410.6h1.06v-1.83h-1.06v1.83ZM45.77,414.26h1.06v-1.91h-1.06v1.91ZM48.7,410.6h1.1v-1.83h-1.1v1.83ZM48.7,414.26h1.1v-1.91h-1.1v1.91Z"/><path class="cls-3" d="M63.11,412.49c0,1.5-.32,2.61-.96,3.34-.67.75-1.72,1.13-3.16,1.13h-.86c-1.43,0-2.47-.37-3.13-1.12-.66-.74-.99-1.86-.99-3.35v-1.9c0-1.5.35-2.62,1.05-3.36.7-.74,1.72-1.12,3.07-1.12h.86c1.34,0,2.36.37,3.06,1.12s1.05,1.87,1.05,3.36v1.9ZM60.83,412.49v-1.9c0-.81-.17-1.39-.51-1.74-.29-.3-.74-.45-1.32-.45h-.86c-.6,0-1.03.15-1.31.44-.34.35-.51.93-.51,1.75v1.9c0,.76.15,1.32.45,1.67.3.35.76.53,1.36.53h.86c.6,0,1.05-.18,1.36-.53.31-.35.47-.91.47-1.67Z"/><path class="cls-3" d="M74.2,414.08c0,.99-.33,1.71-.99,2.18-.66.47-1.64.7-2.95.7h-1.86c-1.16,0-2.04-.3-2.64-.9-.6-.6-.9-1.41-.9-2.42v-.6h2.3v.42c0,.4.13.7.4.92.27.21.68.32,1.25.32h1.19c.52,0,.9-.09,1.16-.27.25-.18.38-.41.38-.69v-.34c0-.3-.11-.53-.32-.69-.27-.2-.69-.3-1.26-.3h-1.61v-1.87h1.6c.52,0,.9-.08,1.14-.24s.36-.38.36-.66v-.31c0-.62-.47-.94-1.4-.94h-1.3c-.52,0-.9.12-1.15.34-.25.23-.37.55-.37.95v.34h-2.31v-.47c0-1,.32-1.83.97-2.47s1.52-.97,2.63-.97h1.78c1.16,0,2.08.25,2.75.76.67.51,1.01,1.24,1.01,2.2v.42c0,.91-.42,1.58-1.26,2,.48.23.83.53,1.07.88.23.35.35.76.35,1.21v.49Z"/><path class="cls-2" d="M122.6,543.41h-17.65v-3.47l10.03-11.77c1.9-2.2,2.96-4.11,2.96-6.14,0-2.67-1.99-4.02-4.15-4.02-2.29,0-4.02,1.4-4.15,4.02h-4.49c0-4.95,3.98-8.21,8.8-8.21s8.85,3.39,8.85,8.3c0,3.68-2.54,6.56-4.4,8.8l-6.9,8.25h11.09v4.23Z"/><path class="cls-3" d="M1.65,522.15h8.95v4.63c0,3.26-.8,6.27-2.39,9.05-1.59,2.78-3.78,4.86-6.56,6.25v-5.62c1.32-.81,2.39-2.02,3.22-3.64.9-1.77,1.36-3.78,1.36-6.04H1.65v-4.63ZM16.75,517.16v20.92c0,3.07-1.4,4.6-4.21,4.6h-4.43v-4.43h2.99c.68,0,1.02-.34,1.02-1.02v-20.08h4.63ZM22.26,520.86c0,.38,0,.73.01,1.07,0,.34.05.98.13,1.92l4.86-4.63v5.68l-4.12,3.87c.4,1.73.95,3.25,1.65,4.55.71,1.3,1.53,2.3,2.47,2.99v6.07c-3.12-1.77-5.47-4.56-7.03-8.36-1.49-3.61-2.23-8-2.23-13.16h4.26Z"/><path class="cls-3" d="M46.42,517.16v.82h10.59v2.85h-10.59v1.13h9.91v2.88h-9.91v1.16h10.59v2.85h-15.25l-3.05,2.12h4.12l1.98-1.44h5.68l-6.72,5.2h2.57c2.07,0,3.74-.22,5-.65l-.99-3.11h4.35l2.34,7.51h-4.26l-.4-1.16c-1.41.64-3.42.96-6.01.96v4.4h-4.66v-4.4h-10.31v-3.56h6.41l1.67-1.21h-6.52v-2.43l3.25-2.23h-4.8v-2.85h10.59v-1.16h-9.91v-2.88h9.91v-1.13h-10.59v-2.85h10.59v-.82h4.43ZM38.69,539.01c-.3.77-.61,1.45-.93,2.03-.38.73-.75,1.28-1.13,1.64h-5.14c.38-.32.8-.88,1.27-1.67s.79-1.46.96-2h4.97ZM54.73,539.01l2.29,3.67h-4.91l-2.2-3.67h4.83Z"/><path class="cls-3" d="M61.17,522.15h8.95v4.63c0,3.26-.8,6.27-2.39,9.05-1.59,2.78-3.78,4.86-6.56,6.25v-5.62c1.32-.81,2.39-2.02,3.22-3.64.9-1.77,1.36-3.78,1.36-6.04h-4.57v-4.63ZM76.28,517.16v20.92c0,3.07-1.4,4.6-4.21,4.6h-4.43v-4.43h2.99c.68,0,1.02-.34,1.02-1.02v-20.08h4.63ZM81.79,520.86c0,.38,0,.73.01,1.07,0,.34.05.98.13,1.92l4.86-4.63v5.68l-4.12,3.87c.4,1.73.95,3.25,1.65,4.55.71,1.3,1.53,2.3,2.47,2.99v6.07c-3.12-1.77-5.47-4.56-7.03-8.36-1.49-3.61-2.23-8-2.23-13.16h4.26Z"/><path class="cls-3" d="M265.4,519.06h3.6v1.86c0,1.31-.32,2.52-.96,3.64-.64,1.12-1.52,1.95-2.64,2.51v-2.26c.53-.33.96-.81,1.29-1.46.36-.71.54-1.52.54-2.43h-1.84v-1.86ZM271.47,517.05v8.41c0,1.23-.56,1.85-1.69,1.85h-1.78v-1.78h1.2c.27,0,.41-.14.41-.41v-8.07h1.86ZM273.68,518.54c0,.15,0,.29,0,.43s.02.39.05.77l1.95-1.86v2.28l-1.66,1.55c.16.7.38,1.3.66,1.83.28.52.61.92.99,1.2v2.44c-1.25-.71-2.2-1.83-2.82-3.36-.6-1.45-.9-3.21-.9-5.29h1.71Z"/><path class="cls-3" d="M283.49,517.05v.33h4.25v1.15h-4.25v.45h3.98v1.16h-3.98v.46h4.25v1.15h-6.13l-1.23.85h1.66l.79-.58h2.28l-2.7,2.09h1.03c.83,0,1.5-.09,2.01-.26l-.4-1.25h1.75l.94,3.02h-1.71l-.16-.47c-.57.26-1.37.39-2.42.39v1.77h-1.87v-1.77h-4.14v-1.43h2.58l.67-.49h-2.62v-.98l1.3-.9h-1.93v-1.15h4.25v-.46h-3.98v-1.16h3.98v-.45h-4.25v-1.15h4.25v-.33h1.78ZM280.38,525.83c-.12.31-.25.58-.37.82-.15.29-.3.51-.45.66h-2.06c.15-.13.32-.35.51-.67.19-.32.32-.59.39-.81h2ZM286.82,525.83l.92,1.48h-1.97l-.88-1.48h1.94Z"/><path class="cls-3" d="M289.5,519.06h3.6v1.86c0,1.31-.32,2.52-.96,3.64-.64,1.12-1.52,1.95-2.64,2.51v-2.26c.53-.33.96-.81,1.29-1.46.36-.71.54-1.52.54-2.43h-1.84v-1.86ZM295.57,517.05v8.41c0,1.23-.56,1.85-1.69,1.85h-1.78v-1.78h1.2c.27,0,.41-.14.41-.41v-8.07h1.86ZM297.79,518.54c0,.15,0,.29,0,.43s.02.39.05.77l1.95-1.86v2.28l-1.66,1.55c.16.7.38,1.3.66,1.83.28.52.61.92.99,1.2v2.44c-1.25-.71-2.2-1.83-2.82-3.36-.6-1.45-.9-3.21-.9-5.29h1.71Z"/><path class="cls-3" d="M311.56,520.13h-4.03v7.01h-1.93v-7.01h-4.1v-1.94h4.1v-1.12h1.93v1.12h1.38v1.02h2.64v.92ZM304.37,521.24c0,.73-.08,1.67-.25,2.8-.17,1.13-.39,2.11-.66,2.93h-1.94c.29-.85.53-1.88.73-3.06s.3-2.08.3-2.67h1.83ZM311.59,526.98h-1.83c0-.6-.1-1.48-.31-2.63s-.45-2.19-.73-3.1h1.94c.24.77.46,1.8.66,3.07.17,1.13.26,2.02.26,2.65ZM310.38,518.73h-.99v-1.84h.99v1.84ZM311.88,518.73h-.99v-1.84h.99v1.84Z"/><path class="cls-3" d="M322.51,523.6c-1.32,0-2.59-.11-3.82-.34-1.23-.23-2.24-.53-3.02-.9v4.79h-1.94v-10.06h1.94v3.19c.8.43,1.89.77,3.27,1.02,1.23.22,2.42.33,3.57.33v1.97Z"/><path class="cls-3" d="M326.51,522.59c0,1.11-.06,2.06-.19,2.85-.13.79-.28,1.35-.45,1.69h-1.94c.19-.37.35-.94.47-1.7s.19-1.69.19-2.79v-5.38h1.93v5.32ZM333.81,521.93c0,1.72-.33,3.02-1,3.87s-1.68,1.29-3.05,1.29h-2.02v-9.84h1.94v7.91h.48c.51,0,.92-.27,1.21-.81.33-.6.5-1.5.5-2.69v-2.69h1.94v2.95Z"/><path class="cls-2" d="M277.82,536.78c0,2.6-.74,4.56-2.23,5.87-1.49,1.31-3.69,1.96-6.61,1.96h-2.62v-2.4h2.66c2.26,0,3.9-.45,4.92-1.36.98-.86,1.47-2.19,1.47-3.99v-1.82h-9.55v-2.4h9.06c-.03.08-.06.18-.08.32-.03.14-.04.28-.04.42,0,.62.22,1.13.65,1.53.43.4.93.59,1.48.59.34,0,.64-.08.9-.23v1.5ZM278.46,533.36c0,.42-.15.78-.46,1.08-.31.3-.67.45-1.1.45s-.8-.15-1.1-.44-.45-.65-.45-1.09.15-.8.46-1.11c.31-.31.67-.46,1.1-.46s.8.15,1.1.45c.3.3.45.67.45,1.12ZM277.54,533.36c0-.17-.06-.32-.19-.45s-.28-.19-.45-.19-.32.06-.45.19-.19.28-.19.45c0,.16.06.3.19.43.13.13.28.19.45.19s.32-.06.45-.19c.13-.13.19-.27.19-.43Z"/><path class="cls-2" d="M292.73,535.21c0,3.07-.9,5.44-2.7,7.11-1.68,1.55-3.94,2.33-6.78,2.33h-2.53v-12.24h2.42v9.71h.58c1.86,0,3.36-.53,4.52-1.58,1.34-1.22,2.01-2.98,2.01-5.29v-.28h2.49v.24Z"/><path class="cls-2" d="M307.1,536.44c0,1.28-.46,2.29-1.39,3.04-.92.74-2.12,1.12-3.59,1.12h-.31v-2.49h.28c.85,0,1.45-.13,1.81-.4.36-.26.54-.65.54-1.16v-.18h-5.85v3.72c0,.81.19,1.37.57,1.69.38.32,1.03.47,1.94.47h5.74v2.39h-5.92c-1.55,0-2.72-.37-3.53-1.12s-1.21-1.85-1.21-3.31v-3.84h-1.41v-2.4h1.41v-1.58h2.4v1.58h5.3v.98h3.21v1.5ZM305.73,534.35h-1.24v-2.35h1.24v2.35ZM307.59,534.35h-1.23v-2.35h1.23v2.35Z"/><path class="cls-2" d="M321.78,536.12c0,1.52-.2,2.83-.61,3.94-.51,1.41-1.34,2.5-2.49,3.27-1.35.89-3.13,1.33-5.36,1.33h-3.84v-2.42h3.96c2.12,0,3.67-.56,4.64-1.67.86-.98,1.29-2.42,1.29-4.32v-3.29h2.42v3.17ZM316.05,536.39c-.9-.37-1.94-.68-3.1-.94-1.16-.26-2.26-.39-3.3-.39v-2.44c1.13,0,2.31.11,3.55.34,1.23.23,2.19.5,2.85.83v2.6Z"/><path class="cls-2" d="M335.19,540.24c-1.64,0-3.23-.14-4.76-.42-1.53-.28-2.79-.65-3.77-1.12v5.96h-2.42v-12.54h2.42v3.97c1,.54,2.36.96,4.07,1.27,1.54.27,3.02.41,4.45.41v2.46Z"/><path class="cls-2" d="M147.47,530.38h-2.82v2.34c0,3.32-.97,5.86-2.91,7.64-2.13,1.94-5.42,2.91-9.85,2.91h-2.85v-3.77h2.85c3.25,0,5.58-.62,6.99-1.86,1.25-1.08,1.88-2.72,1.88-4.92v-2.34h-8.37c-.63.9-1.39,1.7-2.27,2.41-.89.71-1.89,1.33-3,1.87v-4.44c.99-.54,1.81-1.29,2.48-2.26.77-1.15,1.16-2.43,1.16-3.85h3.93c-.05.39-.12.8-.2,1.22-.08.42-.17.84-.28,1.25h13.26v3.79Z"/><path class="cls-2" d="M173.47,519.32v20.18c0,1-.35,1.88-1.04,2.64-.69.75-1.53,1.13-2.52,1.13h-5.89v-3.93h4.49c.45,0,.67-.22.67-.67v-2.64h-13.18c-.41,1.6-1.08,3-2,4.22-.92,1.22-2.12,2.22-3.59,3.01v-5.76c1.2-1.02,1.8-2.96,1.8-5.81v-12.38h21.25ZM156.5,525.96h12.7v-3.01h-12.7v3.01ZM156.5,531.94v.48h12.7v-2.88h-12.7v2.39Z"/><path class="cls-2" d="M186.13,518.94c-.11.52-.3,1.04-.57,1.56h16.36v3.34h-1.02v3.55h1.67v3.34h-1.67v3.52h1.02v3.34h-23.11v-3.34h1.02v-3.52h-1.67v-3.34h1.67v-1.67c-.27.13-.52.22-.77.28-.24.06-.54.13-.9.2v-3.9c.93-.2,1.76-.64,2.47-1.32.66-.61,1.09-1.29,1.29-2.04h4.2ZM183.95,538.72c-.13.75-.33,1.57-.62,2.46-.29.89-.57,1.58-.83,2.08h-4.33c.38-.5.74-1.2,1.09-2.1.35-.9.59-1.71.71-2.45h3.98ZM185.67,523.84h-2.26v3.55h2.26v-3.55ZM183.41,534.25h2.26v-3.52h-2.26v3.52ZM189.39,538.72l.81,4.55h-3.93l-.78-4.55h3.9ZM191.46,523.84h-2.15v3.55h2.15v-3.55ZM189.3,534.25h2.15v-3.52h-2.15v3.52ZM195.36,538.72l1.05,4.55h-3.98l-.94-4.55h3.87ZM197.32,523.84h-2.23v3.55h2.23v-3.55ZM195.09,534.25h2.23v-3.52h-2.23v3.52ZM201.36,538.72l1.21,4.55h-3.93l-1.13-4.55h3.85Z"/><path class="cls-2" d="M214.28,518.94v7.96h3.9v3.9h-3.9v.67l3.9,3.23v4.95l-3.9-3.77v7.37h-3.85v-5.38c-.57.77-1.17,1.45-1.78,2.03-.61.58-1.32,1.12-2.12,1.6v-5.06c.86-.57,1.64-1.38,2.33-2.41.69-1.03,1.14-2.11,1.36-3.24h-3.69v-3.9h3.9v-7.96h3.85ZM209.14,519.72c.45,2.1.67,4.17.67,6.21h-2.64c0-1.06-.05-2.1-.16-3.12-.11-1.02-.27-2.05-.48-3.09h2.61ZM218.37,519.72l-.86,6.21h-2.64l.75-6.21h2.74ZM225.37,534.63v-15.68h4.28v15.01l1.32-.19v4.12l-1.32.21v5.17h-4.28v-4.47l-6.35,1.02v-4.28l6.35-.91ZM224.13,522.09v4.12l-4.57-2.37v-3.95l4.57,2.21ZM224.13,529.11v4.17l-4.57-2.42v-3.95l4.57,2.21Z"/><rect class="cls-1" y="478.63" width="100.63" height="25.71" rx="12.86" ry="12.86"/><path class="cls-3" d="M28.49,486.11l-.04,1.68h.48v-1.86h1.88v1.86h.86v1.61h2.39v-1.07h-2.03v-1.75h2.03v-.65h2.05v.65h2.07v1.75h-2.07v1.07h2.38v1.75h-.65v1.01h.65v1.74h-.65v2.18c0,.59-.16,1.01-.49,1.27-.28.21-.69.31-1.23.31h-1.56v-1.96h.96c.21,0,.31-.1.31-.3v-1.51h-4.16v.13c-.14.07-.29.14-.45.2s-.3.11-.41.15v3.29h-1.88v-2.74c-.57.12-1.02.21-1.33.27-.32.06-.61.09-.89.09v-2.07c.32,0,.66-.03,1.02-.08.36-.06.76-.14,1.2-.25v-3.13h-.61c0,.25-.01.46-.03.62-.02.16-.09.47-.21.91h-1.48c.15-.69.25-1.42.32-2.18s.1-1.76.1-3.01h1.48ZM30.81,492.31c.32-.11.61-.24.86-.39v.25h4.16v-1.01h-4.16v-1.39h-.86v2.55ZM33.75,494.49l.49,2.56h-1.78l-.48-2.56h1.77Z"/><path class="cls-3" d="M43.85,486.89v-.96h1.92v.96h1.06v-.96h1.91v.96h3.03v7.29h.42v1.78h-1.18l1.18,1.71h-2.35l-1.12-1.71h-4.66c-.34.68-.71,1.25-1.12,1.71h-2.53c.5-.5.95-1.07,1.35-1.71h-1.35v-1.78h.43v-7.29h3.01ZM42.79,490.51h1.1v-1.83h-1.1v1.83ZM42.79,494.18h1.1v-1.91h-1.1v1.91ZM45.77,490.51h1.06v-1.83h-1.06v1.83ZM45.77,494.18h1.06v-1.91h-1.06v1.91ZM48.71,490.51h1.1v-1.83h-1.1v1.83ZM48.71,494.18h1.1v-1.91h-1.1v1.91Z"/><path class="cls-3" d="M63.12,492.41c0,1.5-.32,2.61-.96,3.34-.67.75-1.72,1.13-3.16,1.13h-.86c-1.43,0-2.47-.37-3.13-1.12-.66-.74-.99-1.86-.99-3.35v-1.9c0-1.5.35-2.62,1.05-3.36.7-.74,1.72-1.12,3.07-1.12h.86c1.34,0,2.36.37,3.06,1.12s1.05,1.87,1.05,3.36v1.9ZM60.83,492.41v-1.9c0-.81-.17-1.39-.51-1.74-.29-.3-.74-.45-1.32-.45h-.86c-.6,0-1.03.15-1.31.44-.34.35-.51.93-.51,1.75v1.9c0,.76.15,1.32.45,1.67.3.35.76.53,1.36.53h.86c.6,0,1.05-.18,1.36-.53.31-.35.47-.91.47-1.67Z"/><path class="cls-3" d="M74.17,495.5h-1.05v1.29h-2.29v-1.29h-5.95v-2.42l4.34-6.96h3.9v7.1h1.05v2.27ZM70.83,493.23v-5.38l-3.34,5.38h3.34Z"/><path class="cls-3" d="M64.91,205.57v-2.6h9.94v2.38c-.02,1.59-.27,2.96-.75,4.1-.48,1.15-1.04,2.09-1.7,2.83-.66.74-1.36,1.32-2.09,1.73-.74.41-1.43.72-2.09.93s-1.2.35-1.61.41c-.42.06-.63.08-.64.07v-2.6c.87-.13,1.62-.32,2.25-.56.64-.24,1.27-.63,1.91-1.16.63-.53,1.15-1.24,1.55-2.13.4-.89.63-2.03.68-3.41h-7.44Z"/><path class="cls-3" d="M85.85,204.73c-.38.8-.85,1.55-1.4,2.26-.56.71-1.07,1.32-1.53,1.84v7.25h-2.17v-5.56c-.7.56-1.38,1.01-2.04,1.35-.65.34-1.37.65-2.15.92v-2.22c.92-.38,1.74-.78,2.45-1.22.71-.43,1.46-1.03,2.23-1.79.77-.76,1.48-1.71,2.13-2.83h2.48Z"/><path class="cls-3" d="M89.44,204.81l.97,5.56h-1.7l-.94-5.56h1.67ZM88.81,215.74v-2.27c1.14-.19,2.07-.61,2.81-1.23.74-.63,1.3-1.36,1.67-2.19.37-.83.66-1.64.85-2.43.19-.79.32-1.45.39-1.97.06-.52.09-.8.08-.82h2.17c-.08.96-.19,1.82-.34,2.59-.15.76-.39,1.58-.72,2.46-.33.88-.8,1.73-1.41,2.55s-1.36,1.53-2.25,2.12c-.89.59-1.98.99-3.25,1.18ZM92.15,204.81l1.01,5.56h-1.74l-.94-5.56h1.67Z"/><path class="cls-3" d="M99.25,215.9v-13.59h2.56v4.38h6.81v2.55h-6.81v6.67h-2.56Z"/><path class="cls-3" d="M111.06,206.53v-2.5h3.76v-1.78h2.56v1.78h4.07c-.14.58-.41,1.23-.81,1.95-.4.71-.85,1.35-1.34,1.91-.49.56-.92,1.02-1.27,1.38.61.48,1.18.86,1.71,1.16s.97.51,1.3.65c.33.14.51.2.53.19v2.84s-.24-.08-.67-.23c-.42-.16-.96-.42-1.63-.8-.67-.38-1.32-.82-1.95-1.31v4.15h-2.43v-3.92c-.71.5-1.41.91-2.1,1.22-.69.32-1.24.55-1.67.69-.43.14-.65.21-.67.21v-2.58s.27-.09.75-.28c.48-.18,1.09-.48,1.82-.88s1.47-.92,2.21-1.55c.74-.63,1.42-1.4,2.04-2.29h-6.21Z"/><path class="cls-3" d="M124.29,205.54v-2.61h9.33c-.23,1.25-.58,2.42-1.05,3.49-.47,1.07-.99,2.04-1.55,2.9.49.64.97,1.22,1.45,1.75.48.53.9.94,1.25,1.22.35.29.53.44.54.45v3.1c-.58-.42-1.11-.83-1.59-1.23-.48-.4-.98-.88-1.52-1.45-.54-.57-1.06-1.19-1.57-1.87-.66.81-1.33,1.52-2.02,2.12-.69.6-1.32,1.08-1.91,1.45-.58.37-1.05.64-1.41.8-.36.17-.54.25-.55.25v-2.9c.94-.48,1.79-1.06,2.54-1.75.75-.69,1.46-1.48,2.12-2.35.66-.88,1.27-2,1.82-3.36h-5.87Z"/><path class="cls-3" d="M136.47,205.39v-2.55h4.75v2.55h-4.75ZM147.25,205.76c-.54,1.98-1.27,3.59-2.17,4.83-.91,1.24-1.85,2.2-2.83,2.88-.98.68-1.91,1.15-2.78,1.44-.88.28-1.59.45-2.15.49-.56.05-.84.07-.85.06v-2.64s.23,0,.66-.02c.43-.03.99-.14,1.66-.33.68-.19,1.39-.57,2.13-1.12.75-.55,1.44-1.25,2.07-2.1.63-.85,1.19-2.01,1.68-3.48h2.58ZM136.47,209.33v-2.55h4.75v2.55h-4.75ZM144.53,205.13v-2.34h1.12v2.34h-1.12ZM146.28,205.13v-2.34h1.12v2.34h-1.12Z"/><path class="cls-3" d="M153.97,202.73c-.37,1.82-.74,3.44-1.13,4.86s-.73,2.58-1.03,3.48c-.3.9-.5,1.46-.6,1.69h5.16c-.15-.75-.37-1.58-.66-2.49s-.65-1.88-1.07-2.9h2.66c.53,1.3.99,2.62,1.37,3.96.38,1.34.68,2.67.88,3.97h-11.29v-2.42c.44-1.11.83-2.15,1.17-3.1.33-.95.68-2.03,1.02-3.24.35-1.21.65-2.48.91-3.81h2.61Z"/><path class="cls-3" d="M164.91,208v-1.23c-.88.61-1.78,1.12-2.71,1.56-.33-.7-.82-1.38-1.44-2.03,1.36-.57,2.65-1.37,3.86-2.38,1.21-1.02,2.14-2.02,2.77-3.02h2.56c1.78,2.44,4.09,4.13,6.91,5.04-.43.44-.96,1.18-1.57,2.21-.87-.4-1.75-.9-2.66-1.51v1.36h-7.72ZM175.73,211.23h-3.44c.7.64,1.37,1.32,2.01,2.05s1.14,1.39,1.49,1.99l-2.25,1.36c-.04-.1-.24-.42-.6-.97-3.37.18-6.93.36-10.67.54l-.32-2.37c.4-.01,1.25-.04,2.55-.08.36-.75.68-1.58.97-2.51h-3.57v-2.24h13.83v2.24ZM166.23,205.8h5.21c-1.14-.87-2.02-1.73-2.66-2.6-.65.87-1.5,1.73-2.55,2.6ZM171.68,211.23h-3.23c-.1.18-.23.44-.4.78-.17.34-.32.64-.46.91-.14.27-.28.52-.41.75.58-.02,1.94-.07,4.05-.15-.44-.49-.88-.94-1.31-1.36l1.75-.92Z"/><path class="cls-3" d="M192.04,213.68h-2.08c1.41.43,2.7.87,3.88,1.3l-2.16,1.69c-1.49-.67-3.3-1.3-5.42-1.9l1.52-1.09h-4.18l1.36.97c-1.46.83-3.18,1.49-5.17,1.98-.54-.59-1.15-1.17-1.83-1.72,1.19-.23,2.47-.64,3.84-1.23h-2.21v-7.53h12.44v7.53ZM191.47,201.32v4.41h-11.09v-4.41h11.09ZM182,207.76v.44h7.51v-.44h-7.51ZM182,209.69v.44h7.51v-.44h-7.51ZM182,211.62v.45h7.51v-.45h-7.51ZM188.89,203.88v-.71h-6.08v.71h6.08Z"/><path class="cls-3" d="M198.9,201.74h6.03c0,5.99,2.14,10.23,6.42,12.72-.27.22-.61.55-1.01.99-.41.44-.72.82-.93,1.14-2.79-1.68-4.75-4.24-5.87-7.7-1.3,3.55-3.26,6.12-5.89,7.74-.23-.26-.57-.6-1.04-1.01-.46-.42-.85-.74-1.17-.97,3.2-1.58,5.24-4.59,6.13-9.03l1.2.23c-.09-.49-.16-1.03-.21-1.64h-3.67v-2.45Z"/><path class="cls-3" d="M216.54,208v-1.23c-.88.61-1.78,1.12-2.71,1.56-.34-.7-.82-1.38-1.44-2.03,1.36-.57,2.65-1.37,3.86-2.38,1.21-1.02,2.14-2.02,2.77-3.02h2.56c1.78,2.44,4.09,4.13,6.91,5.04-.43.44-.96,1.18-1.57,2.21-.87-.4-1.75-.9-2.66-1.51v1.36h-7.72ZM227.35,211.23h-3.44c.7.64,1.37,1.32,2.01,2.05s1.14,1.39,1.49,1.99l-2.25,1.36c-.04-.1-.24-.42-.6-.97-3.37.18-6.93.36-10.67.54l-.32-2.37c.4-.01,1.25-.04,2.55-.08.36-.75.68-1.58.97-2.51h-3.57v-2.24h13.83v2.24ZM217.85,205.8h5.21c-1.14-.87-2.02-1.73-2.66-2.6-.65.87-1.5,1.73-2.55,2.6ZM223.3,211.23h-3.23c-.1.18-.23.44-.4.78-.17.34-.32.64-.46.91-.14.27-.28.52-.41.75.58-.02,1.94-.07,4.05-.15-.44-.49-.88-.94-1.31-1.36l1.75-.92Z"/><path class="cls-3" d="M245.89,207.58h-1.7v1.23h1.51v2.21h-1.51v3.02c0,.61-.07,1.07-.2,1.4-.14.32-.38.58-.74.76-.54.27-1.54.41-2.98.41-.09-.75-.32-1.54-.71-2.38.48.02,1.11.03,1.9.03.13,0,.22-.02.27-.06.05-.04.07-.11.07-.22v-2.95h-2.81c.83.93,1.38,1.64,1.65,2.12l-1.9,1.25c-.29-.64-.9-1.49-1.82-2.56l1.3-.81h-1.72v-.83l-1.3.41v6.03h-2.21v-5.4c-1.24.37-2.03.59-2.35.68l-.55-2.3c.38-.08,1.35-.31,2.9-.7v-2.76h-.88c-.17.78-.36,1.42-.55,1.93-.58-.45-1.15-.82-1.69-1.1.42-1.12.7-2.88.84-5.27l1.99.32c-.05.62-.12,1.23-.19,1.83h.47v-3.02h2.21v3.02h1.2v1.49h3.49v-1.04h-2.79v-2.17h2.79v-1.31h2.38v1.31h2.9v2.17h-2.9v1.04h3.62v2.22ZM241.79,208.81v-1.23h-5.69v-1.43h-.89v2.16l1.31-.34.13.84h5.14Z"/><path class="cls-3" d="M263.27,210.55v2.29h-4.27c1.7.81,3.02,1.52,3.96,2.12l-2.25,1.61c-1.31-.96-2.78-1.84-4.41-2.63l1.22-1.1h-4.43l1.52,1.04c-.66.5-1.48,1-2.45,1.51-.97.51-1.89.91-2.76,1.22-.58-.62-1.22-1.2-1.9-1.74,1.56-.48,2.99-1.15,4.3-2.03h-4.23v-2.29h1.62v-7.83h3.39v-1.93h2.24v1.93h1.13v-1.93h2.29v1.93h3.54v7.83h1.49ZM252.58,204.94h-1.07v1.69h1.07v-1.69ZM251.51,208.83v1.72h1.07v-1.72h-1.07ZM255.95,204.94h-1.13v1.69h1.13v-1.69ZM255.95,210.55v-1.72h-1.13v1.72h1.13ZM259.34,204.94h-1.1v1.69h1.1v-1.69ZM258.24,208.83v1.72h1.1v-1.72h-1.1Z"/><path class="cls-3" d="M276.52,550.98l-3.69,3.7,3.64,3.64-.68.67-3.65-3.64-3.61,3.6-.67-.66,3.61-3.61-3.67-3.68.68-.68,3.66,3.67,3.69-3.69.69.68ZM270.02,554.69c0,.28-.1.52-.3.72-.2.2-.45.3-.73.3s-.53-.1-.74-.3c-.21-.2-.31-.44-.31-.73s.1-.53.31-.74c.2-.21.45-.31.74-.31s.53.1.73.31c.2.21.3.45.3.75ZM273.24,551.49c0,.29-.1.53-.31.73s-.45.3-.74.3-.52-.1-.73-.29-.31-.44-.31-.73.1-.53.3-.74c.2-.21.45-.31.73-.31s.54.1.74.3c.2.2.3.45.3.74ZM273.24,557.82c0,.29-.1.53-.3.73-.2.2-.45.3-.74.3s-.52-.1-.73-.3c-.21-.2-.31-.44-.31-.73s.1-.53.31-.74c.21-.21.45-.31.73-.31s.54.1.74.3c.2.2.3.45.3.75ZM276.43,554.65c0,.28-.11.52-.32.74-.21.21-.46.32-.75.32s-.53-.1-.74-.31-.31-.46-.31-.74.1-.53.31-.74c.21-.21.45-.31.74-.31s.53.1.75.3.32.45.32.74Z"/><path class="cls-3" d="M280.68,550.3l-.04.75h1.45v-.89h1.69v.89h3.22v1.46h-3.22v1.51h3.45v1.46h-2.52v1.72c0,.23.1.34.3.34h1.1c.21,0,.41-.03.6-.08.19-.06.36-.15.53-.28v1.53c-.16.11-.33.19-.53.25s-.39.09-.58.09h-1.67c-.46,0-.8-.11-1.01-.33-.21-.22-.31-.57-.31-1.07v-2.17h-1.02c-.13,1.06-.51,1.92-1.14,2.59-.7.72-1.62,1.09-2.78,1.09v-1.62c.72-.1,1.25-.31,1.61-.63s.58-.79.67-1.42h-2.28v-1.46h3.88v-1.51h-1.74c-.06.19-.11.33-.14.4-.09.23-.2.43-.31.62h-1.73c.3-.49.53-1.01.7-1.56.17-.55.25-1.1.25-1.67h1.56Z"/><path class="cls-3" d="M291.76,550.18l.24.47h2.88l.18-.47h1.58l-.19.47h1.45v.95h-3.72v.44h3.49v.95h-3.49v.43h3.72v.96h-5.77c-.03.07-.06.14-.07.19-.02.05-.05.13-.1.22h5.71v4.24h-7.92v-2.06c-.28.13-.57.22-.88.29v-1.77c.78-.13,1.33-.5,1.63-1.1h-1.63v-.96h3.72v-.43h-3.48v-.95h3.48v-.44h-3.72v-.95h1.62l-.25-.47h1.51ZM291.29,555.76v.16h4.83v-.42h-4.62l-.21.26ZM291.29,557.08h4.83v-.42h-4.83v.42ZM291.29,558.23h4.83v-.41h-4.83v.41Z"/><path class="cls-3" d="M306.52,556.34c0,.76-.25,1.31-.76,1.67-.5.36-1.26.54-2.26.54h-1.42c-.89,0-1.56-.23-2.02-.69-.46-.46-.69-1.08-.69-1.86v-.46h1.76v.32c0,.31.1.54.31.7s.52.24.96.24h.92c.4,0,.69-.07.89-.2s.29-.31.29-.53v-.26c0-.23-.08-.41-.25-.53-.21-.15-.53-.23-.97-.23h-1.23v-1.43h1.22c.4,0,.69-.06.87-.18.18-.12.27-.29.27-.5v-.24c0-.48-.36-.72-1.08-.72h-.99c-.4,0-.69.09-.88.26-.19.18-.28.42-.28.73v.26h-1.77v-.36c0-.77.25-1.4.74-1.9.49-.49,1.17-.74,2.02-.74h1.36c.89,0,1.59.19,2.11.58.51.39.77.95.77,1.69v.32c0,.7-.32,1.21-.97,1.53.36.18.64.4.82.68.18.27.27.58.27.93v.38Z"/><path class="cls-3" d="M314.94,555.13c0,1.15-.25,2-.74,2.56-.51.58-1.32.87-2.42.87h-.66c-1.1,0-1.9-.29-2.4-.86s-.76-1.43-.76-2.57v-1.45c0-1.15.27-2.01.8-2.58.53-.57,1.32-.86,2.35-.86h.66c1.03,0,1.81.29,2.35.86.54.57.81,1.43.81,2.58v1.45ZM313.19,555.13v-1.45c0-.62-.13-1.07-.39-1.33-.23-.23-.56-.35-1.02-.35h-.66c-.46,0-.79.11-1.01.34-.26.27-.39.71-.39,1.34v1.45c0,.58.12,1.01.35,1.28s.58.4,1.05.4h.66c.46,0,.81-.13,1.05-.4.24-.27.36-.7.36-1.28Z"/><path class="cls-3" d="M323.42,555.13c0,1.15-.25,2-.74,2.56-.51.58-1.32.87-2.42.87h-.66c-1.1,0-1.9-.29-2.4-.86s-.76-1.43-.76-2.57v-1.45c0-1.15.27-2.01.8-2.58.53-.57,1.32-.86,2.35-.86h.66c1.03,0,1.81.29,2.35.86.54.57.81,1.43.81,2.58v1.45ZM321.67,555.13v-1.45c0-.62-.13-1.07-.39-1.33-.23-.23-.56-.35-1.02-.35h-.66c-.46,0-.79.11-1.01.34-.26.27-.39.71-.39,1.34v1.45c0,.58.12,1.01.35,1.28s.58.4,1.05.4h.66c.46,0,.81-.13,1.05-.4.24-.27.36-.7.36-1.28Z"/><path class="cls-3" d="M333.82,557.34v1.82c-.96-.24-1.83-.66-2.61-1.27-.78-.61-1.38-1.34-1.81-2.21-.46.84-1.1,1.56-1.91,2.16-.81.6-1.71,1.04-2.7,1.31v-1.82c1.1-.35,1.98-.92,2.63-1.72.68-.84,1.02-1.82,1.02-2.92v-2.54h1.69v2.37c0,1.12.34,2.13,1.02,3.01s1.57,1.49,2.67,1.8Z"/></g></svg>