<?xml version="1.0" encoding="UTF-8"?><svg id="_レイヤー_2" xmlns="http://www.w3.org/2000/svg" viewBox="0 0 1238.61 824.78"><defs><style>.cls-1{fill:none;stroke:#fff100;stroke-miterlimit:10;stroke-width:4.82px;}.cls-2{fill:#ff407f;}.cls-2,.cls-3,.cls-4{stroke-width:0px;}.cls-3{fill:#fff100;}.cls-4{fill:#fff;}</style></defs><g id="_レイヤー_1-2"><path class="cls-3" d="M289.22,21.69c4.79-6.79,10.71-12.1,17.75-15.94,7.04-3.83,14.52-5.75,22.44-5.75,10,0,18,2.33,24,7,6,4.67,9.87,11.21,11.62,19.62h-6.5c-1.42-6.58-4.67-11.81-9.75-15.69-5.08-3.88-11.83-5.81-20.25-5.81-6.75,0-13.15,1.61-19.19,4.81-6.04,3.21-11.19,7.83-15.44,13.87-4.25,6.04-7.08,13.06-8.5,21.06-.5,3.08-.75,6-.75,8.75,0,6.33,1.25,11.81,3.75,16.44,2.5,4.62,6,8.17,10.5,10.62,4.5,2.46,9.71,3.69,15.62,3.69,8.42,0,15.85-1.94,22.31-5.81,6.46-3.88,11.56-9.1,15.31-15.69h6.37c-4.58,8.42-10.71,14.96-18.37,19.62-7.67,4.67-16.5,7-26.5,7-6.92,0-13.02-1.48-18.31-4.44-5.29-2.96-9.37-7.1-12.25-12.44-2.87-5.33-4.31-11.46-4.31-18.37,0-3.25.29-6.37.88-9.37,1.58-8.67,4.77-16.39,9.56-23.19Z"/><path class="cls-3" d="M419,66.12h-41.62l-12.37,22.5h-6.12L406.25,2.87h6.25l17,85.74h-6.12l-4.37-22.5ZM418.12,61.49l-10-51.37-28.25,51.37h38.25Z"/><path class="cls-3" d="M537.35,2.75l-15.25,85.87h-5.62l13.25-74.24-46.25,74.24h-4.5l-20-73.74-13.12,73.74h-5.62l15.25-85.87h5.87l21.25,78.37L531.47,2.75h5.87Z"/><path class="cls-3" d="M596.18,43.68c-5.63,4.29-13.19,6.44-22.68,6.44h-18.62l-6.87,38.5h-5.62L557.99.88h24.25c8.42,0,14.67,1.69,18.75,5.06,4.08,3.38,6.12,8.06,6.12,14.06,0,2-.17,3.87-.5,5.62-1.33,7.75-4.81,13.77-10.44,18.06ZM600.86,25.62c.33-1.67.5-3.46.5-5.37,0-9.67-6.67-14.5-20-14.5h-18.62l-7,39.5h18.62c15.5,0,24.33-6.54,26.5-19.62Z"/><path class="cls-3" d="M655.72,66.12h-41.62l-12.37,22.5h-6.12L642.97,2.87h6.25l17,85.74h-6.12l-4.38-22.5ZM654.85,61.49l-10-51.37-28.25,51.37h38.25Z"/><path class="cls-3" d="M698.2.88l-15.62,87.74h-5.63L692.58.88h5.63Z"/><path class="cls-3" d="M715.03,21.69c4.88-6.79,10.89-12.08,18.06-15.87,7.17-3.79,14.79-5.69,22.87-5.69,9.41,0,17.14,2.35,23.19,7.06,6.04,4.71,9.94,11.23,11.69,19.56h-6.5c-1.42-6.58-4.69-11.83-9.81-15.75-5.12-3.92-11.6-5.87-19.44-5.87-6.92,0-13.46,1.62-19.62,4.87-6.17,3.25-11.4,7.87-15.69,13.87-4.29,6-7.15,13-8.56,21-.5,3-.75,5.92-.75,8.75,0,6.33,1.29,11.81,3.87,16.44s6.19,8.19,10.81,10.69c4.63,2.5,9.94,3.75,15.94,3.75,6.67,0,12.98-1.5,18.94-4.5,5.96-3,11.04-7.27,15.25-12.81,4.21-5.54,7.14-12.06,8.81-19.56h-39.12l.88-4.62h44.87l-.75,3.75c-1.67,8.17-4.9,15.48-9.69,21.94-4.79,6.46-10.69,11.54-17.68,15.25-7,3.71-14.46,5.56-22.37,5.56-7.08,0-13.31-1.46-18.69-4.37-5.37-2.92-9.54-7.06-12.5-12.44-2.96-5.37-4.44-11.56-4.44-18.56,0-3.17.29-6.25.87-9.25,1.5-8.67,4.69-16.39,9.56-23.19Z"/><path class="cls-3" d="M860.12,88.62h-5.63l-37.62-78.49-13.87,78.49h-5.63L812.88,1h5.62l37.75,78.24L870,1h5.63l-15.5,87.62Z"/><path class="cls-3" d="M412.64,136.75l-2.44,3.01c-.13-.17-.37-.44-.72-.82-.34-.37-.6-.65-.77-.85v5.53h-4.13v-4.87c-.98,1.3-1.99,2.39-3.04,3.27-.94-1.3-1.85-2.31-2.75-3.04,1.93-1.26,3.59-2.97,4.99-5.13h-4.07v-3.56h4.87v-1.78h-4.96v-3.47h2.38c-.1-.76-.34-1.64-.74-2.64l1.58-.37h-2.87v-3.44h4.62v-2.49h4.13v2.49h4.62v3.44h-2.38l1.26.23c-.13.29-.34.76-.62,1.4-.28.65-.48,1.11-.62,1.38h2.52v3.47h-4.79v1.78h4.5v3.56h-4.5v.03c.31.21.73.51,1.28.9s1.1.8,1.66,1.22c.56.42.89.67.99.75ZM408.33,122.04h-3.64c.46,1.09.73,1.98.8,2.67l-1.29.34h5.02l-1.78-.34c.44-1.19.74-2.07.89-2.67ZM418.31,121.87v3.5h8.8v3.96h-2.49v14.19h-4.13v-14.19h-2.18c-.13,6.52-1.62,11.31-4.47,14.37-.25-.46-.7-.99-1.35-1.61s-1.22-1.04-1.72-1.29c.76-.84,1.4-1.79,1.89-2.84.5-1.05.85-2.16,1.07-3.33.22-1.17.36-2.22.43-3.15.07-.94.1-2,.1-3.18v-10.27l2.32.66c3.14-.84,5.52-1.71,7.14-2.61l3.38,3.07c-2.12.98-5.06,1.88-8.8,2.72Z"/><path class="cls-3" d="M442.77,136.15l-2.87,3.07c-.63-1.05-1.45-2.29-2.47-3.73-.9,3.35-2.46,5.95-4.67,7.8-.29-.46-.73-1-1.32-1.62-.59-.62-1.13-1.1-1.61-1.45,2.5-1.82,3.96-4.97,4.36-9.46h-3.81v-3.84h3.96v-3.1h-3.56v-3.73h3.56v-4.01h3.99v4.01h3.44v3.73h-3.44v3.1h3.81v3.84h-3.96l-.03.2c.69.67,2.23,2.4,4.62,5.19ZM453.75,139.41h.52c.1,0,.17-.03.23-.1.06-.07.11-.22.16-.46.05-.24.09-.57.11-1,.03-.43.05-1.02.07-1.76.71.63,1.86,1.15,3.47,1.55-.17,2.1-.52,3.53-1.05,4.29s-1.37,1.13-2.54,1.13h-1.72c-1.43,0-2.38-.32-2.85-.97-.47-.65-.7-1.84-.7-3.58v-4.44h-.89c-.13,1.17-.32,2.18-.56,3.04-.24.86-.61,1.72-1.1,2.58-.5.86-1.19,1.62-2.08,2.29-.89.67-1.97,1.25-3.25,1.75-.19-.48-.52-1.03-.97-1.66-.46-.63-.9-1.14-1.32-1.52.82-.27,1.53-.58,2.12-.95.59-.36,1.07-.73,1.43-1.1.36-.37.67-.82.92-1.33.25-.52.42-1,.53-1.46.11-.46.2-1,.27-1.63h-1.58v-17.32h13.36v17.32h-2.92v4.39c0,.44.02.71.06.82.04.11.13.16.29.16ZM446.89,120.49v1.03h5.33v-1.03h-5.33ZM446.89,124.88v1.06h5.33v-1.06h-5.33ZM446.89,129.23v1.06h5.33v-1.06h-5.33Z"/><path class="cls-3" d="M467.16,117.34h10.67c0,10.59,3.79,18.08,11.36,22.48-.48.38-1.08.97-1.79,1.75s-1.27,1.45-1.65,2.01c-4.93-2.96-8.39-7.5-10.38-13.62-2.29,6.27-5.76,10.83-10.41,13.68-.4-.46-1.01-1.06-1.83-1.79-.82-.74-1.51-1.31-2.06-1.71,5.66-2.79,9.27-8.11,10.84-15.97l2.12.4c-.15-.86-.28-1.82-.37-2.9h-6.48v-4.33Z"/><path class="cls-3" d="M498.33,128.4v-2.18c-1.55,1.07-3.14,1.99-4.79,2.75-.59-1.24-1.44-2.44-2.55-3.58,2.41-1.01,4.68-2.42,6.82-4.21,2.14-1.8,3.78-3.57,4.9-5.33h4.53c3.15,4.32,7.23,7.29,12.22,8.92-.76.78-1.69,2.08-2.78,3.9-1.53-.71-3.1-1.6-4.7-2.67v2.41h-13.65ZM517.46,134.11h-6.08c1.24,1.13,2.43,2.34,3.56,3.63,1.13,1.29,2.01,2.46,2.64,3.51l-3.99,2.41c-.08-.17-.43-.75-1.06-1.72-5.96.32-12.25.64-18.87.95l-.57-4.19c.71-.02,2.21-.07,4.5-.14.63-1.32,1.2-2.8,1.72-4.44h-6.31v-3.96h24.46v3.96ZM500.65,124.5h9.2c-2.01-1.53-3.57-3.06-4.7-4.59-1.15,1.53-2.65,3.06-4.5,4.59ZM510.29,134.11h-5.71c-.17.33-.41.78-.7,1.38-.3.59-.57,1.13-.82,1.61-.25.48-.49.92-.72,1.32,1.03-.04,3.42-.12,7.17-.26-.78-.86-1.56-1.66-2.32-2.41l3.1-1.63Z"/><path class="cls-3" d="M522.7,126.63v-4.39h6.74l-.26-3.9h4.59l.29,3.9h7.86v4.39h-7.57l.26,3.84h7.31v4.5h-6.97l.52,7.4h-4.62l-.52-7.4h-7.63v-4.5h7.31l-.26-3.84h-7.05Z"/><path class="cls-3" d="M545.62,129.72v-3.79l2.55-.11-.43-3.73h3.76l.43,3.61,10.21-.32v3.79c-.36,1.59-.98,2.95-1.84,4.09-.86,1.14-1.72,2.03-2.57,2.68s-1.9,1.29-3.14,1.92v-4.16c.61-.32,1.14-.7,1.59-1.12.45-.42.86-.88,1.22-1.39s.67-1.14.92-1.91l-5.94.2,1.58,13.02h-3.73l-1.61-12.93-3.01.14Z"/><path class="cls-3" d="M565.54,124.1v-4.47h8.95v4.47h-8.95ZM584.61,124.45c-.96,3.5-2.24,6.35-3.84,8.55-1.61,2.2-3.27,3.9-5,5.09-1.73,1.2-3.37,2.04-4.92,2.54s-2.82.79-3.8.87c-.98.09-1.49.12-1.51.1v-4.67s.41,0,1.18-.04c.76-.05,1.74-.24,2.94-.59,1.19-.34,2.45-1,3.77-1.98,1.32-.98,2.54-2.21,3.66-3.71,1.12-1.5,2.11-3.55,2.97-6.15h4.56Z"/><path class="cls-3" d="M587.68,128.89c.76-1.3,1.41-2.41,1.95-3.33.54-.92,1.06-1.81,1.58-2.67.52-.86.92-1.52,1.21-1.98.36-.55.74-.95,1.13-1.19.39-.24.73-.38,1.02-.43.29-.05.43-.06.43-.04.57.04,1.05.15,1.42.34s.71.52,1.02.97c.23.34.68,1.03,1.36,2.06.68,1.03,1.46,2.22,2.35,3.55.89,1.34,1.75,2.64,2.58,3.91.83,1.27,1.82,2.77,2.97,4.49v8.29c-7.25-11.13-10.94-16.82-11.1-17.09-.19-.31-.34-.48-.44-.53s-.16-.06-.16-.04c0-.02-.04,0-.12.06-.08.06-.21.23-.4.52-.17.23-.51.75-1.02,1.56s-1.08,1.76-1.72,2.84c-.64,1.08-1.48,2.49-2.51,4.23-1.03,1.74-1.55,2.62-1.55,2.64v-8.17ZM602.22,120.12c.61-.61,1.36-.92,2.24-.92s1.63.31,2.25.93c.62.62.93,1.37.93,2.25s-.31,1.62-.93,2.24c-.62.61-1.37.92-2.25.92s-1.62-.31-2.24-.92c-.61-.61-.92-1.36-.92-2.24s.31-1.64.92-2.27ZM605.89,122.38c0-.42-.14-.76-.42-1.03-.28-.27-.62-.4-1.02-.4s-.74.13-1,.4-.4.61-.4,1.03.13.74.4,1c.27.27.6.4,1,.4s.74-.13,1.02-.4c.28-.27.42-.6.42-1Z"/><path class="cls-3" d="M610.05,132.33v-4.5h13.25v4.5h-13.25Z"/><path class="cls-3" d="M625.57,124.1v-4.47h8.95v4.47h-8.95ZM644.64,124.45c-.96,3.5-2.24,6.35-3.84,8.55-1.61,2.2-3.27,3.9-5,5.09-1.73,1.2-3.37,2.04-4.92,2.54s-2.82.79-3.8.87-1.49.12-1.51.1v-4.67s.41,0,1.18-.04c.76-.05,1.75-.24,2.94-.59,1.19-.34,2.45-1,3.77-1.98,1.32-.98,2.54-2.21,3.66-3.71,1.12-1.5,2.11-3.55,2.97-6.15h4.56Z"/><path class="cls-3" d="M674.29,136.69h-9c2.03,1.86,5.17,2.96,9.43,3.33-.99.99-1.83,2.24-2.49,3.73-2.7-.42-4.92-1.11-6.68-2.06-1.76-.96-3.22-2.27-4.39-3.93-2.03,2.66-5.6,4.63-10.72,5.91-.61-1.2-1.49-2.35-2.64-3.44,4.13-.82,7.06-2,8.8-3.53h-8.09v-3.67h10.24c.08-.27.13-.72.17-1.35h-7.14v-3.38h7.17v-1.26h-7.63v-2.18h-2.7v-6.68h10.44v-2.32h4.42v2.32h10.49v6.68h-2.44v2.18h-8.26v1.26h7.57v3.38h-7.6c0,.17-.05.62-.14,1.35h11.18v3.67ZM652.84,123.62h6.11v-1.23h4.33v1.23h6.28v-1.75h-16.72v1.75Z"/><path class="cls-3" d="M697.43,140.1h3.84c.55,0,.93-.18,1.13-.54.2-.36.34-1.16.42-2.38.98.67,2.11,1.15,3.41,1.43-.21,1.91-.64,3.23-1.3,3.94-.66.72-1.75,1.08-3.28,1.08h-4.67c-1.91,0-3.2-.34-3.86-1.03s-.99-2-.99-3.93v-4.73l-.89.43-1.09-2.58c-.06,3.57-.14,6.07-.26,7.5-.12,1.42-.33,2.35-.63,2.8-.48.76-1.16,1.23-2.04,1.41-.5.13-1.49.2-2.98.2-.08-1.36-.41-2.61-1-3.76.5.06,1.09.09,1.78.09.36,0,.64-.15.83-.46.27-.46.44-3.47.52-9.03h-1.55c-.5,5.87-1.78,10.24-3.84,13.1-.35-.54-.8-1.09-1.38-1.65-.57-.56-1.12-1.02-1.64-1.36,1.26-1.8,2.08-3.99,2.47-6.58.38-2.59.6-5.93.66-10.02h-2.64v-3.93h4.19v-4.27h4.1v4.27h4.27v2.12c1.2-1.76,2.06-3.92,2.58-6.48l4.22.86c-.15.61-.42,1.51-.8,2.7h8.57v3.87h-10.18c-.33.65-.85,1.49-1.58,2.52h2.06v2.38l.92-.43v-3.99h3.53v2.38l1.32-.63.23-.14.63-.4,2.64.89-.14.54c0,4.19-.03,6.75-.08,7.68-.02,1.13-.43,1.88-1.23,2.27-.57.31-1.42.46-2.55.46-.11-1.3-.35-2.32-.72-3.07.15.02.37.03.66.03.21,0,.32-.11.34-.34.02-.13.03-1.36.03-3.67l-1.12.52v7.91h-3.53v-6.28l-.92.43v6.45c0,.65.09,1.05.26,1.2.17.15.6.23,1.29.23ZM690.18,130.67l1.95-.92v-2.92c-1.15-1.24-2.07-2.12-2.78-2.64l.17-.17h-4.42c-.02.31-.04.75-.06,1.32s-.03,1.01-.03,1.32h5.19v1.58l-.03,2.44Z"/><path class="cls-3" d="M724.25,120.81h10.15v15.25h-4.5v-1.38h-5.65v8.98h-4.53v-8.98h-5.65v1.52h-4.27v-15.4h9.92v-5.05h4.53v5.05ZM714.07,130.5h5.65v-5.51h-5.65v5.51ZM724.25,130.5h5.65v-5.51h-5.65v5.51Z"/><path class="cls-4" d="M522.79,270.21h12.87c19.3,0,29.75-10.48,29.75-28.41,0-13.79-10.45-25.1-26.27-25.1s-24.93,10.2-26.27,23.44h-28.41c.8-30.61,26-50.75,55.75-50.75,32.43,0,56.02,22.89,56.02,51.57,0,20.68-11.79,35.03-26.27,42.47,16.89,7.72,28.95,22.62,28.95,46.06,0,30.06-20.9,55.16-56.55,55.16-37.53,0-58.7-22.06-60.31-52.13h28.41c2.14,13.79,11.52,24.27,30.56,24.27,16.08,0,27.07-12.14,27.07-28.13,0-19.31-10.99-30.89-32.43-30.89h-12.87v-27.58Z"/><path class="cls-4" d="M677.12,384.67c-30.82,0-58.16-18.75-58.16-58.19v-78.6c0-40.54,27.34-58.47,58.16-58.47s58.17,17.93,58.17,58.19v78.88c0,39.44-27.34,58.19-58.17,58.19ZM677.12,217.26c-16.89,0-27.34,11.86-27.34,32.27v75.02c0,20.41,10.45,32.27,27.34,32.27s27.07-11.86,27.07-32.27v-75.02c0-20.41-10.45-32.27-27.07-32.27Z"/><path class="cls-4" d="M816.21,384.67c-30.82,0-58.16-18.75-58.16-58.19v-78.6c0-40.54,27.34-58.47,58.16-58.47s58.17,17.93,58.17,58.19v78.88c0,39.44-27.34,58.19-58.17,58.19ZM816.21,217.26c-16.89,0-27.34,11.86-27.34,32.27v75.02c0,20.41,10.45,32.27,27.34,32.27s27.07-11.86,27.07-32.27v-75.02c0-20.41-10.45-32.27-27.07-32.27Z"/><path class="cls-4" d="M229.51,278.4l-.52,9.06h19v-10.75h22.12v10.75h42.03v17.75h-42.03v18.36h45.15v17.75h-32.92v20.89c0,2.74,1.3,4.11,3.9,4.11h14.31c2.78,0,5.38-.34,7.81-1.03,2.43-.68,4.73-1.83,6.9-3.44v18.6c-2.08,1.29-4.38,2.29-6.9,3.02-2.52.73-5.03,1.09-7.55,1.09h-21.86c-6.07,0-10.47-1.33-13.21-3.98-2.73-2.66-4.1-6.96-4.1-12.92v-26.33h-13.27c-1.65,12.88-6.59,23.35-14.83,31.4-9.11,8.77-21.21,13.16-36.3,13.16v-19.68c9.37-1.21,16.39-3.76,21.08-7.67,4.68-3.9,7.59-9.64,8.72-17.21h-29.8v-17.75h50.75v-18.36h-22.77c-.78,2.34-1.39,3.95-1.82,4.83-1.22,2.74-2.56,5.23-4.03,7.49h-22.64c3.9-5.96,6.94-12.26,9.11-18.9,2.17-6.64,3.25-13.38,3.25-20.23h20.43Z"/><path class="cls-4" d="M364.3,276.95l3.12,5.68h37.6l2.34-5.68h20.69l-2.47,5.68h19v11.47h-48.66v5.31h45.54v11.47h-45.54v5.19h48.66v11.59h-75.47c-.44.89-.76,1.65-.98,2.29-.22.65-.67,1.53-1.37,2.66h74.69v51.45h-103.44v-25c-3.64,1.53-7.46,2.7-11.45,3.5v-21.5c10.23-1.61,17.35-6.08,21.34-13.4h-21.34v-11.59h48.66v-5.19h-45.54v-11.47h45.54v-5.31h-48.66v-11.47h21.21l-3.25-5.68h19.78ZM358.19,344.7v1.93h63.11v-5.07h-60.37l-2.73,3.14ZM358.19,360.64h63.11v-5.07h-63.11v5.07ZM358.19,374.65h63.11v-4.95h-63.11v4.95Z"/><path class="cls-4" d="M990.24,357.88v20.43c-10.82-2.68-20.59-7.42-29.32-14.23-8.73-6.81-15.52-15.05-20.37-24.73-5.22,9.38-12.36,17.45-21.43,24.22-9.06,6.77-19.19,11.68-30.38,14.74v-20.43c12.38-3.87,22.23-10.31,29.54-19.31,7.61-9.45,11.41-20.35,11.41-32.71v-28.47h19.02v26.57c0,12.58,3.82,23.83,11.47,33.77,7.64,9.94,17.66,16.65,30.04,20.15Z"/><path class="cls-3" d="M206.67,218.63c-6.43-3.19-10.99-9.79-10.99-17.19,0-13.55,11.93-21.63,24.91-21.63s24.91,8.08,24.91,21.63c0,7.4-4.56,14-10.99,17.19,6.55,2.73,12.16,9.9,12.16,18.78,0,14.34-12.16,23-26.08,23s-26.08-8.65-26.08-23c0-8.88,5.85-16.05,12.16-18.78ZM220.59,249.03c7.02,0,12.63-5.58,12.63-12.41,0-7.63-6.67-12.29-12.63-12.29s-12.52,4.67-12.52,12.29c0,6.83,5.26,12.41,12.52,12.41ZM220.59,213.62c6.32,0,11.46-5.01,11.46-11.27s-5.15-11.04-11.46-11.04-11.46,4.9-11.46,11.04,5.03,11.27,11.46,11.27Z"/><path class="cls-3" d="M314.56,216.29v-4.93h8.37v4.93h19.22v7.49h-19.22v6.24h16.74v7.49h-12.4c1.38,2.31,3.4,4.43,6.07,6.34,2.67,1.91,5.61,3.35,8.81,4.32v8.65c-3.65-.8-7.19-2.44-10.62-4.9-3.43-2.46-6.29-5.37-8.6-8.72v13.63h-8.37v-13.73c-2.34,3.39-5.22,6.32-8.63,8.8-3.41,2.48-6.96,4.12-10.64,4.93v-8.65c3.24-.97,6.17-2.4,8.81-4.27,2.63-1.88,4.68-4.01,6.12-6.39h-12.4v-7.49h16.74v-6.24h-19.27v-7.49h19.27Z"/><path class="cls-3" d="M391.38,232.98h-11.68v5.73c2.24.57,4.24,1.16,6.02,1.76,1.77.6,3.49,1.27,5.14,2.01v9.1c-3.03-1.78-6.75-3.5-11.16-5.18-.28,3.12-1.73,5.51-4.37,7.17-2.63,1.66-6.67,2.49-12.11,2.49-4.79,0-8.51-.82-11.16-2.46-2.82-1.74-4.24-4.29-4.24-7.64,0-3.05,1.29-5.4,3.87-7.04,2.58-1.64,6.34-2.46,11.26-2.46,2.72,0,5.49.2,8.32.6v-4.07h-24.54v-6.99h24.54v-4.38h-24.54v-7.04h24.54v-3.12h8.42v3.12h11.68v7.04h-11.68v4.38h11.68v6.99ZM371.29,243.85c-1.34-.3-2.76-.55-4.24-.75-1.48-.2-2.76-.3-3.82-.3-2.2,0-3.82.27-4.86.81-1.03.54-1.55,1.32-1.55,2.36,0,1.11.48,1.89,1.45,2.34.96.45,2.62.68,4.96.68,2.96,0,5.04-.44,6.25-1.31,1.2-.87,1.81-2.14,1.81-3.82Z"/><path class="cls-3" d="M439.38,221.77h-2.32c-7.99,0-14.64,1.91-19.94,5.73-4.58,3.35-6.87,6.89-6.87,10.61,0,2.68,1.07,4.81,3.2,6.39,2.62,2.01,6.77,3.02,12.45,3.02h12.55v8.5h-15.24c-7.85,0-13.78-1.78-17.77-5.33-3.31-2.98-4.96-6.8-4.96-11.46,0-3.32,1.21-6.55,3.64-9.68,2.43-3.13,5.81-5.72,10.15-7.77h-18.75v-8.1h33.37v7.09h10.49v1.01ZM435.61,218.91h-4.49v-8.35h4.49v8.35ZM442.48,218.91h-4.49v-8.35h4.49v8.35Z"/><line class="cls-1" x1="258.48" y1="255.46" x2="281.96" y2="209"/><path class="cls-4" d="M202.09,622.4v-2.54h-5.85v-4.11h3.56l-5.09-12.93h5.43l4.41,12.76,4.88-12.76h5.47l-5.6,12.93h3.56v4.11h-5.85v2.54h5.85v4.11h-5.85v5.56h-4.92v-5.56h-5.85v-4.11h5.85Z"/><path class="cls-4" d="M234.3,632.07h-8.88v-43.27l-7.58,5.21v-8.96l8.12-5.82h8.35v52.85Z"/><path class="cls-4" d="M260.34,632.07h-8.88v-43.27l-7.58,5.21v-8.96l8.12-5.82h8.35v52.85Z"/><path class="cls-4" d="M278.03,636.05l-9.04,7.74v-22.29h9.04v14.55Z"/><path class="cls-4" d="M301.39,632.76c-8.81,0-16.62-5.21-16.62-16.16v-21.83c0-11.26,7.81-16.24,16.62-16.24s16.62,4.98,16.62,16.16v21.9c0,10.95-7.81,16.16-16.62,16.16ZM301.39,586.27c-4.83,0-7.81,3.29-7.81,8.96v20.83c0,5.67,2.99,8.96,7.81,8.96s7.73-3.29,7.73-8.96v-20.83c0-5.67-2.99-8.96-7.73-8.96Z"/><path class="cls-4" d="M341.75,632.76c-8.81,0-16.62-5.21-16.62-16.16v-21.83c0-11.26,7.81-16.24,16.62-16.24s16.62,4.98,16.62,16.16v21.9c0,10.95-7.81,16.16-16.62,16.16ZM341.75,586.27c-4.83,0-7.81,3.29-7.81,8.96v20.83c0,5.67,2.99,8.96,7.81,8.96s7.73-3.29,7.73-8.96v-20.83c0-5.67-2.99-8.96-7.73-8.96Z"/><path class="cls-4" d="M382.1,632.76c-8.81,0-16.62-5.21-16.62-16.16v-21.83c0-11.26,7.81-16.24,16.62-16.24s16.62,4.98,16.62,16.16v21.9c0,10.95-7.81,16.16-16.62,16.16ZM382.1,586.27c-4.83,0-7.81,3.29-7.81,8.96v20.83c0,5.67,2.99,8.96,7.81,8.96s7.73-3.29,7.73-8.96v-20.83c0-5.67-2.99-8.96-7.73-8.96Z"/><path class="cls-4" d="M362.45,640.62c-2.34,1.93-3.17,3.98-3.17,6.46s.83,4.53,3.17,6.46l-.37.44c-2.71-1.98-3.82-4.12-3.82-6.9s1.11-4.92,3.82-6.9l.37.44Z"/><path class="cls-4" d="M365.29,643.11q-.44.08-.62-.34c-.13-.3-.27-.54-.47-.76,1.38-.21,2.54-.55,3.37-.92.25-.1.4-.2.59-.32.32.28.59.56.85.85.08.1.11.14.11.24,0,.11-.1.18-.24.18-.13,0-.28.07-.47.14-.28.11-.58.21-.89.31v2.05c.95,0,1.27-.03,1.36-.03.14,0,.16.01.16.16v.97c0,.16-.01.17-.16.17-.08,0-.37-.01-1.14-.03.45.93.93,1.62,1.57,2.2-.17.25-.37.65-.49,1.03-.04.16-.1.23-.16.23s-.13-.08-.23-.23c-.38-.56-.68-1.07-.94-1.79,0,3.48.08,5.94.08,6.19,0,.13-.02.14-.16.14h-1.11c-.16,0-.17-.01-.17-.14,0-.24.08-2.55.11-5.59-.37,1.09-.88,2.02-1.44,2.82-.1.14-.17.21-.24.21-.06,0-.11-.07-.17-.23-.16-.38-.37-.78-.56-1,.82-.93,1.66-2.16,2.19-3.85h-.34c-1.03,0-1.35.03-1.45.03-.13,0-.14-.01-.14-.17v-.97c0-.14.01-.16.14-.16.1,0,.42.03,1.45.03h.49v-1.64l-.89.21ZM373.15,643.37c.3-.65.52-1.24.72-1.85.06-.23.13-.51.16-.88.49.1,1.06.23,1.4.35.11.04.18.11.18.2,0,.1-.04.16-.13.24-.11.1-.18.24-.25.44-.2.41-.4.89-.71,1.5,1,0,1.4-.03,1.48-.03.14,0,.16.01.16.17,0,.08-.03.41-.03,1.21v1.71c0,.79.03,1.14.03,1.23,0,.14-.01.15-.16.15-.08,0-.51-.03-1.62-.03v3.7c0,.25.03.38.14.47.07.06.24.1.48.1.34,0,.48-.06.58-.17.11-.14.16-.48.17-1.61.24.17.62.35.86.41q.37.11.34.48c-.06,1.17-.25,1.67-.54,1.89-.32.24-.9.34-1.57.34-.73,0-1.19-.07-1.41-.23-.25-.18-.41-.45-.41-1.13v-4.25h-.86c-.07,3.07-.9,4.6-2.65,5.63-.18.1-.28.15-.35.15-.08,0-.14-.08-.3-.3-.23-.3-.51-.58-.75-.75,1.86-.8,2.68-2.03,2.72-4.74-.79.01-1.1.03-1.16.03-.16,0-.17-.01-.17-.15,0-.1.03-.44.03-1.23v-1.71c0-.8-.03-1.13-.03-1.21,0-.16.01-.17.17-.17.07,0,.51.03,1.73.03h1.74ZM370.9,640.76c.18-.08.2-.08.28.04.37.51.75,1.2,1,1.83.04.14.03.17-.16.25l-.86.39c-.17.08-.2.08-.25-.07-.22-.64-.54-1.27-.93-1.86-.07-.13-.06-.16.13-.24l.79-.35ZM374.76,644.64h-3.87v1.86h3.87v-1.86Z"/><path class="cls-4" d="M382.48,650.41c.3.58.58.93,1.16,1.17.49.2,1.38.28,2.61.28,1.82,0,3.96-.1,6.07-.31-.2.3-.32.68-.38,1.1q-.07.45-.52.48c-1.79.1-3.47.14-4.94.14s-2.62-.13-3.3-.41c-.65-.27-1.03-.66-1.38-1.26-.44.42-.93.85-1.45,1.24-.14.11-.23.2-.28.28-.07.1-.13.14-.21.14-.06,0-.14-.07-.2-.18-.2-.37-.38-.82-.58-1.33.37-.17.56-.27.83-.44.41-.25.82-.58,1.19-.9v-3.12h-.69c-.76,0-.96.03-1.03.03-.16,0-.17-.01-.17-.17v-1.09c0-.14.01-.16.17-.16.07,0,.27.03,1.03.03h.9c.75,0,.97-.03,1.06-.03.14,0,.16.01.16.16,0,.08-.03.48-.03,1.34v2.99ZM381.6,644.09c-.1.07-.14.1-.18.1s-.07-.03-.11-.1c-.52-.85-1.1-1.61-1.74-2.2-.11-.1-.08-.14.07-.24l.79-.52c.16-.1.18-.11.3-.01.65.61,1.26,1.3,1.76,2.1.08.13.08.16-.07.27l-.82.61ZM386.6,641.38c.65,0,1.1-.03,1.28-.03.1,0,.14.07.14.16,0,.32-.01,1.11.17,2.07.41,2.34,1.79,4.57,3.96,5.95-.24.27-.55.69-.75,1.1-.11.21-.17.31-.25.31-.07,0-.17-.06-.31-.18-1.72-1.38-2.88-3.24-3.43-5.36-.54,2.14-1.58,3.82-3.22,5.25-.16.13-.24.2-.31.2s-.14-.08-.3-.27c-.3-.4-.59-.65-.87-.83,2.26-1.58,3.53-3.78,3.85-7h-1.23c-.87,0-1.13.03-1.21.03-.16,0-.17-.01-.17-.17v-1.1c0-.14.01-.16.17-.16.08,0,.34.03,1.21.03h1.26Z"/><path class="cls-4" d="M394.31,640.18c2.71,1.98,3.82,4.12,3.82,6.9s-1.12,4.92-3.82,6.9l-.37-.44c2.34-1.93,3.18-3.98,3.18-6.46s-.83-4.53-3.18-6.46l.37-.44Z"/><path class="cls-3" d="M478,614.79v-5.94h-13.67v-9.61h8.32l-11.89-30.21h12.68l10.3,29.82,11.39-29.82h12.78l-13.07,30.21h8.32v9.61h-13.67v5.94h13.67v9.61h-13.67v12.98h-11.49v-12.98h-13.67v-9.61h13.67Z"/><path class="cls-3" d="M550.21,638.8c-18.3,0-34.53-10.82-34.53-33.57v-45.35c0-23.39,16.23-33.73,34.53-33.73s34.53,10.34,34.53,33.57v45.51c0,22.75-16.23,33.57-34.53,33.57ZM550.21,542.22c-10.02,0-16.23,6.84-16.23,18.62v43.28c0,11.77,6.21,18.62,16.23,18.62s16.07-6.84,16.07-18.62v-43.28c0-11.77-6.21-18.62-16.07-18.62Z"/><path class="cls-4" d="M41.49,586.1c0,10.49,1.37,18.61,4.12,24.34,2.75,5.73,7.12,9.66,13.13,11.77v8.65c-5.33-1.54-9.82-4.19-13.48-7.95-3.29-3.39-5.9-7.63-7.85-12.72-2.18,5.33-5.31,9.75-9.4,13.25-4.09,3.5-9.05,5.98-14.89,7.42v-8.65c6.1-1.74,10.93-4.84,14.48-9.28,3.55-4.44,5.72-10.28,6.49-17.53l-.1-1.51h-15.39v-7.8h22.88Z"/><path class="cls-4" d="M84.03,585.4h9.81c1.51,2.48,3.86,4.56,7.04,6.24,3.19,1.68,6.81,2.75,10.86,3.22v7.9c-.87-.13-1.53-.24-1.96-.33-.44-.08-1-.21-1.71-.38v4.38h-38.12v-4.43l-3.82.75v-7.9c4.09-.5,7.72-1.58,10.89-3.24,3.17-1.66,5.51-3.73,7.02-6.21ZM111.74,610.54v6.69h-29.22l-2.67,5.68c3.89,0,7.33-.12,10.33-.35,3-.23,5.78-.62,8.32-1.16l-1.91-4.12h8.8l6.34,13.58h-8.85l-1.36-2.92c-3.12,1.04-6.61,1.7-10.46,1.99-3.86.28-9.84.43-17.96.43h-6.99v-7.39h4.22l2.67-5.73h-6.89v-6.69h45.62ZM77.14,599.78h23.54c-4.86-1.98-8.77-4.66-11.72-8.05-1.48,1.64-3.22,3.15-5.23,4.53-2.01,1.38-4.21,2.55-6.59,3.52Z"/><path class="cls-4" d="M131.9,586.66v-1.26h7.59v1.26h4.93v-1.26h7.59v1.26h11.52v9.76h-11.52v1.86h12.72v5.18c0,.97-.35,1.69-1.06,2.16-.7.47-1.91.7-3.62.7h-5.88v-2.61h2.01c.6,0,.9-.25.9-.75v-.75h-5.08v4.27h-7.59v-4.27h-6.14c-.97,2.28-2.85,4.07-5.63,5.38h30.93v20.32h-2.01l3.17,2.97h-9.2l-3.07-2.97h-20.02c-.94,1.17-1.95,2.16-3.02,2.97h-10.31c1.44-.91,2.73-1.89,3.87-2.97h-2.62v-17.9l-1.26.05v-5.83c2.88,0,5.13-.15,6.74-.45s2.9-.82,3.87-1.56h-9.4v-9.71h11.57v-1.71h-12.77v-4.12h12.77ZM127.68,598.27h4.02l.2-1.86h-4.22v1.86ZM128.58,613.11h26.81v-1.81h-26.81v1.81ZM128.58,618.59h26.81v-1.71h-26.81v1.71ZM128.58,624.17h26.81v-1.76h-26.81v1.76ZM144.43,596.41h-4.93l-.15,1.86h5.08v-1.86ZM139.5,592.49h4.93v-1.71h-4.93v1.71ZM152.02,592.49h4.27v-1.71h-4.27v1.71Z"/><rect class="cls-2" x="0" y="517.04" width="177.91" height="45.46" rx="22.73" ry="22.73"/><path class="cls-4" d="M50.52,530.27l-.07,2.96h.85v-3.28h3.33v3.28h1.52v2.85h4.22v-1.88h-3.58v-3.1h3.58v-1.15h3.63v1.15h3.65v3.1h-3.65v1.88h4.2v3.1h-1.15v1.79h1.15v3.08h-1.15v3.86c0,1.04-.29,1.79-.87,2.25-.49.37-1.22.55-2.18.55h-2.76v-3.47h1.7c.37,0,.55-.18.55-.53v-2.66h-7.35v.23c-.25.12-.51.24-.79.36s-.52.2-.72.26v5.81h-3.33v-4.84c-1.01.21-1.79.37-2.35.48-.56.11-1.08.16-1.57.16v-3.65c.57,0,1.17-.05,1.8-.15.63-.1,1.34-.25,2.12-.45v-5.53h-1.08c0,.44-.02.81-.06,1.1-.04.29-.16.83-.38,1.61h-2.62c.26-1.22.45-2.51.56-3.85s.17-3.11.17-5.32h2.62ZM54.63,541.23c.57-.2,1.07-.43,1.52-.69v.44h7.35v-1.79h-7.35v-2.46h-1.52v4.5ZM59.82,545.08l.87,4.52h-3.15l-.85-4.52h3.12Z"/><path class="cls-4" d="M77.68,531.65v-1.7h3.4v1.7h1.88v-1.7h3.38v1.7h5.35v12.88h.73v3.15h-2.09l2.09,3.03h-4.16l-1.98-3.03h-8.24c-.6,1.19-1.26,2.2-1.97,3.03h-4.48c.89-.89,1.68-1.9,2.39-3.03h-2.39v-3.15h.76v-12.88h5.33ZM75.8,538.06h1.95v-3.24h-1.95v3.24ZM75.8,544.53h1.95v-3.38h-1.95v3.38ZM81.08,538.06h1.88v-3.24h-1.88v3.24ZM81.08,544.53h1.88v-3.38h-1.88v3.38ZM86.27,538.06h1.95v-3.24h-1.95v3.24ZM86.27,544.53h1.95v-3.38h-1.95v3.38Z"/><path class="cls-4" d="M111.75,541.41c0,2.65-.57,4.62-1.7,5.9-1.18,1.33-3.04,2-5.58,2h-1.52c-2.53,0-4.37-.66-5.53-1.98-1.16-1.32-1.75-3.29-1.75-5.92v-3.35c0-2.65.62-4.63,1.85-5.95,1.23-1.32,3.04-1.98,5.43-1.98h1.52c2.37,0,4.18.66,5.42,1.98s1.86,3.3,1.86,5.95v3.35ZM107.71,541.41v-3.35c0-1.44-.3-2.46-.9-3.08-.52-.54-1.3-.8-2.34-.8h-1.52c-1.06,0-1.83.26-2.32.78-.6.61-.9,1.65-.9,3.1v3.35c0,1.35.27,2.33.8,2.95.54.62,1.34.93,2.41.93h1.52c1.06,0,1.86-.31,2.41-.93.55-.62.83-1.6.83-2.95Z"/><path class="cls-4" d="M126.36,549.15h-4.04v-14.65l-7.21,1.58v-4.09l7.44-1.7h3.81v18.85Z"/><rect class="cls-4" x="429.01" y="604.28" width="2.46" height="27.11" transform="translate(297.58 1358.94) rotate(-135)"/><rect class="cls-4" x="429.01" y="586.85" width="2.46" height="27.11" transform="translate(1159.01 720.74) rotate(135)"/><rect class="cls-4" x="419.38" y="591.62" width="2.46" height="35.01" transform="translate(1029.73 188.51) rotate(90)"/><path class="cls-4" d="M851.28,610.02v-2.54h-5.85v-4.11h3.56l-5.09-12.93h5.43l4.41,12.76,4.88-12.76h5.47l-5.6,12.93h3.56v4.11h-5.85v2.54h5.85v4.11h-5.85v5.56h-4.92v-5.56h-5.85v-4.11h5.85Z"/><path class="cls-4" d="M874.75,592.27c-4.21-2.14-7.2-6.59-7.2-11.57,0-9.11,7.81-14.55,16.31-14.55s16.31,5.44,16.31,14.55c0,4.98-2.99,9.42-7.2,11.57,4.29,1.84,7.96,6.66,7.96,12.64,0,9.65-7.96,15.47-17.08,15.47s-17.08-5.82-17.08-15.47c0-5.97,3.83-10.8,7.96-12.64ZM883.87,612.72c4.59,0,8.27-3.75,8.27-8.35,0-5.13-4.37-8.27-8.27-8.27s-8.2,3.14-8.2,8.27c0,4.6,3.45,8.35,8.2,8.35ZM883.87,588.9c4.14,0,7.51-3.37,7.51-7.58s-3.37-7.43-7.51-7.43-7.51,3.29-7.51,7.43,3.29,7.58,7.51,7.58Z"/><path class="cls-4" d="M916.59,623.67l-9.04,7.74v-22.29h9.04v14.55Z"/><path class="cls-4" d="M931.08,592.27c-4.21-2.14-7.2-6.59-7.2-11.57,0-9.11,7.81-14.55,16.31-14.55s16.31,5.44,16.31,14.55c0,4.98-2.99,9.42-7.2,11.57,4.29,1.84,7.96,6.66,7.96,12.64,0,9.65-7.96,15.47-17.08,15.47s-17.08-5.82-17.08-15.47c0-5.97,3.83-10.8,7.96-12.64ZM940.2,612.72c4.59,0,8.27-3.75,8.27-8.35,0-5.13-4.37-8.27-8.27-8.27s-8.2,3.14-8.2,8.27c0,4.6,3.45,8.35,8.2,8.35ZM940.2,588.9c4.14,0,7.51-3.37,7.51-7.58s-3.37-7.43-7.51-7.43-7.51,3.29-7.51,7.43,3.29,7.58,7.51,7.58Z"/><path class="cls-4" d="M979.92,620.38c-8.81,0-16.62-5.21-16.62-16.16v-21.83c0-11.26,7.81-16.24,16.62-16.24s16.62,4.98,16.62,16.16v21.9c0,10.95-7.81,16.16-16.62,16.16ZM979.92,573.89c-4.83,0-7.81,3.29-7.81,8.96v20.83c0,5.67,2.99,8.96,7.81,8.96s7.73-3.29,7.73-8.96v-20.83c0-5.67-2.99-8.96-7.73-8.96Z"/><path class="cls-4" d="M1020.27,620.38c-8.81,0-16.62-5.21-16.62-16.16v-21.83c0-11.26,7.81-16.24,16.62-16.24s16.62,4.98,16.62,16.16v21.9c0,10.95-7.81,16.16-16.62,16.16ZM1020.27,573.89c-4.83,0-7.81,3.29-7.81,8.96v20.83c0,5.67,2.99,8.96,7.81,8.96s7.73-3.29,7.73-8.96v-20.83c0-5.67-2.99-8.96-7.73-8.96Z"/><path class="cls-4" d="M702.74,582.44v37.72c0,1.88-.65,3.52-1.94,4.93-1.29,1.41-2.86,2.11-4.7,2.11h-11.01v-7.34h8.4c.84,0,1.26-.42,1.26-1.26v-4.93h-24.64c-.77,2.98-2.02,5.62-3.75,7.9-1.73,2.28-3.97,4.16-6.71,5.63v-10.76c2.25-1.91,3.37-5.53,3.37-10.86v-23.13h39.73ZM671.01,594.86h23.74v-5.63h-23.74v5.63ZM671.01,606.03v.9h23.74v-5.38h-23.74v4.48Z"/><path class="cls-4" d="M729.51,581.73h9.81c1.51,2.48,3.86,4.56,7.04,6.24s6.81,2.75,10.86,3.22v7.9c-.87-.13-1.53-.24-1.96-.33-.44-.08-1-.21-1.71-.38v4.38h-38.12v-4.43l-3.82.75v-7.9c4.09-.5,7.72-1.58,10.89-3.24,3.17-1.66,5.51-3.73,7.02-6.21ZM757.22,606.88v6.69h-29.22l-2.67,5.68c3.89,0,7.33-.12,10.33-.35,3-.23,5.78-.62,8.32-1.16l-1.91-4.12h8.8l6.34,13.58h-8.85l-1.36-2.92c-3.12,1.04-6.61,1.7-10.46,1.99-3.86.28-9.84.43-17.96.43h-6.99v-7.39h4.22l2.67-5.73h-6.89v-6.69h45.62ZM722.62,596.12h23.54c-4.86-1.98-8.77-4.66-11.72-8.05-1.48,1.64-3.22,3.15-5.23,4.53-2.01,1.38-4.21,2.55-6.59,3.52Z"/><path class="cls-4" d="M777.38,582.99v-1.26h7.59v1.26h4.93v-1.26h7.59v1.26h11.52v9.76h-11.52v1.86h12.72v5.18c0,.97-.35,1.69-1.06,2.16-.7.47-1.91.7-3.62.7h-5.88v-2.61h2.01c.6,0,.9-.25.9-.75v-.75h-5.08v4.27h-7.59v-4.27h-6.14c-.97,2.28-2.85,4.07-5.63,5.38h30.93v20.32h-2.01l3.17,2.97h-9.2l-3.07-2.97h-20.02c-.94,1.17-1.95,2.16-3.02,2.97h-10.31c1.44-.91,2.73-1.89,3.87-2.97h-2.62v-17.9l-1.26.05v-5.83c2.88,0,5.13-.15,6.74-.45s2.9-.82,3.87-1.56h-9.4v-9.71h11.57v-1.71h-12.77v-4.12h12.77ZM773.16,594.61h4.02l.2-1.86h-4.22v1.86ZM774.06,609.45h26.81v-1.81h-26.81v1.81ZM774.06,614.93h26.81v-1.71h-26.81v1.71ZM774.06,620.51h26.81v-1.76h-26.81v1.76ZM789.9,592.75h-4.93l-.15,1.86h5.08v-1.86ZM784.98,588.83h4.93v-1.71h-4.93v1.71ZM797.5,588.83h4.27v-1.71h-4.27v1.71Z"/><path class="cls-3" d="M1115.76,562.26c-.28,1.37-.78,2.73-1.48,4.1h42.98v8.76h-2.69v9.33h4.38v8.76h-4.38v9.26h2.69v8.76h-60.72v-8.76h2.69v-9.26h-4.38v-8.76h4.38v-4.38c-.71.33-1.38.58-2.01.74-.64.17-1.43.34-2.37.53v-10.25c2.45-.52,4.62-1.67,6.5-3.46,1.74-1.6,2.87-3.39,3.39-5.37h11.03ZM1110.04,614.22c-.33,1.98-.87,4.13-1.62,6.47-.75,2.33-1.48,4.16-2.19,5.48h-11.38c.99-1.32,1.94-3.16,2.86-5.51.92-2.36,1.54-4.5,1.87-6.43h10.46ZM1114.56,575.13h-5.94v9.33h5.94v-9.33ZM1108.62,602.48h5.94v-9.26h-5.94v9.26ZM1124.31,614.22l2.12,11.94h-10.32l-2.05-11.94h10.25ZM1129.76,575.13h-5.65v9.33h5.65v-9.33ZM1124.1,602.48h5.65v-9.26h-5.65v9.26ZM1140,614.22l2.76,11.94h-10.46l-2.47-11.94h10.18ZM1145.16,575.13h-5.87v9.33h5.87v-9.33ZM1139.3,602.48h5.87v-9.26h-5.87v9.26ZM1155.77,614.22l3.18,11.94h-10.32l-2.97-11.94h10.11Z"/><path class="cls-3" d="M1189.4,562.26v20.92h10.25v10.25h-10.25v1.77l10.25,8.48v13.01l-10.25-9.89v19.37h-10.11v-14.14c-1.51,2.03-3.06,3.81-4.66,5.34-1.6,1.53-3.46,2.93-5.59,4.21v-13.29c2.26-1.51,4.3-3.62,6.12-6.33,1.81-2.71,3-5.55,3.57-8.52h-9.68v-10.25h10.25v-20.92h10.11ZM1175.9,564.31c1.18,5.51,1.77,10.96,1.77,16.33h-6.93c0-2.78-.14-5.51-.42-8.2-.28-2.69-.71-5.4-1.27-8.13h6.86ZM1200.15,564.31l-2.26,16.33h-6.93l1.98-16.33h7.21ZM1218.52,603.47v-41.21h11.24v39.44l3.46-.49v10.81l-3.46.57v13.57h-11.24v-11.73l-16.68,2.69v-11.24l16.68-2.4ZM1215.27,570.53v10.81l-12.02-6.22v-10.39l12.02,5.8ZM1215.27,588.98v10.96l-12.02-6.36v-10.39l12.02,5.8Z"/><path class="cls-4" d="M859.04,530.79l5.79,2.23v4.09l-5.79-2.41v-3.9ZM859.04,540.04h5.79v8.65c.09.61.33,1.08.73,1.4.4.32,1,.48,1.78.48h15.46v3.59h-15.9c-1.21,0-2.1-.14-2.67-.43-.58-.29-1.09-.76-1.55-1.4l-3.64,2.12v-4.32l1.99-1.18v-4.95h-1.99v-3.96ZM866.22,531.13h15.96v2.46l-2.41,2.2h2.41v11.66c0,.77-.21,1.34-.62,1.73s-.94.58-1.58.58h-2.93v-2.2h.94c.33,0,.5-.18.5-.55v-.71h-2.62v3.46h-3.33v-3.46h-2.59v3.46h-3.72v-13.97h3.09l-.84-1.21h4.06l.81,1.21h1.78l1.99-1.86h-10.9v-2.8ZM869.94,539.86h2.59v-1.62h-2.59v1.62ZM869.94,543.92h2.59v-1.68h-2.59v1.68ZM875.86,539.86h2.62v-1.62h-2.62v1.62ZM875.86,543.92h2.62v-1.68h-2.62v1.68Z"/><path class="cls-4" d="M892.5,530.76c.19.33.35.66.49,1,.13.33.24.7.33,1.1h2.91v-2.1h4.24v2.1h3.12l.71-2.1h4.38l-.86,2.1h2.3v5.87h-2.04v5.63h-7.73v1.21h9.27v5.58c0,.94-.26,1.68-.79,2.21-.52.53-1.28.8-2.28.8h-3.77v-3.38h2.33c.12,0,.24-.05.35-.14.11-.1.17-.21.17-.35v-1.41h-5.29v5.58h-4.01v-5.58h-5.24v5.29h-3.98v-8.59h9.22v-1.21h-7.73v-5.63h-2.04v-5.87h2.54c-.18-.77-.43-1.47-.76-2.1h4.17ZM890.58,537.26h15.48v-1.07h-15.48v1.07ZM892.55,541.61h11.55v-1.6h-11.55v1.6Z"/><path class="cls-4" d="M995.88,627.94c-2.34,1.93-3.18,3.98-3.18,6.46s.83,4.53,3.18,6.46l-.37.44c-2.71-1.98-3.82-4.12-3.82-6.9s1.12-4.92,3.82-6.9l.37.44Z"/><path class="cls-4" d="M998.72,630.42q-.44.08-.62-.34c-.13-.3-.27-.54-.46-.76,1.38-.21,2.54-.55,3.37-.92.25-.1.4-.2.59-.32.32.28.59.56.85.85.08.1.11.14.11.24,0,.11-.1.18-.24.18-.13,0-.28.07-.47.14-.28.11-.58.21-.89.31v2.05c.94,0,1.27-.03,1.36-.03.14,0,.15.01.15.16v.97c0,.16-.01.17-.15.17-.09,0-.37-.01-1.14-.03.45.93.93,1.62,1.57,2.2-.17.25-.37.65-.49,1.03-.04.16-.1.23-.16.23s-.13-.08-.23-.23c-.38-.56-.68-1.07-.95-1.79,0,3.48.08,5.94.08,6.19,0,.13-.01.14-.16.14h-1.11c-.16,0-.17-.01-.17-.14,0-.24.08-2.55.11-5.59-.37,1.09-.88,2.02-1.44,2.82-.1.14-.17.21-.24.21-.06,0-.11-.07-.17-.23-.16-.38-.37-.78-.56-1,.82-.93,1.66-2.16,2.19-3.85h-.34c-1.03,0-1.36.03-1.45.03-.13,0-.14-.01-.14-.17v-.97c0-.14.02-.16.14-.16.1,0,.42.03,1.45.03h.49v-1.64l-.89.21ZM1006.58,630.69c.3-.65.52-1.24.72-1.85.06-.23.13-.51.16-.88.49.1,1.06.23,1.4.35.11.04.18.11.18.2,0,.1-.04.16-.13.24-.11.1-.18.24-.25.44-.2.41-.4.89-.71,1.5,1,0,1.4-.03,1.48-.03.14,0,.16.01.16.17,0,.08-.03.41-.03,1.21v1.71c0,.79.03,1.14.03,1.23,0,.14-.01.15-.16.15-.08,0-.51-.03-1.62-.03v3.7c0,.25.03.38.14.47.07.06.24.1.48.1.34,0,.48-.06.58-.17.11-.14.16-.48.17-1.61.24.17.62.35.86.41q.37.11.34.48c-.06,1.17-.25,1.67-.54,1.89-.32.24-.9.34-1.57.34-.73,0-1.18-.07-1.41-.23-.25-.18-.41-.45-.41-1.13v-4.25h-.86c-.07,3.07-.9,4.6-2.65,5.63-.18.1-.28.15-.35.15-.08,0-.14-.08-.3-.3-.23-.3-.51-.58-.75-.75,1.86-.8,2.68-2.03,2.72-4.74-.79.01-1.1.03-1.16.03-.16,0-.17-.01-.17-.15,0-.1.03-.44.03-1.23v-1.71c0-.8-.03-1.13-.03-1.21,0-.16.01-.17.17-.17.07,0,.51.03,1.74.03h1.74ZM1004.33,628.08c.18-.08.2-.08.28.04.37.51.75,1.2,1,1.83.04.14.03.17-.16.25l-.86.39c-.17.08-.2.08-.25-.07-.23-.64-.54-1.27-.93-1.86-.07-.13-.06-.16.13-.24l.79-.35ZM1008.18,631.96h-3.86v1.86h3.86v-1.86Z"/><path class="cls-4" d="M1015.91,637.73c.3.58.58.93,1.16,1.17.49.2,1.38.28,2.61.28,1.82,0,3.96-.1,6.07-.31-.2.3-.32.68-.38,1.1q-.07.45-.52.48c-1.79.1-3.47.14-4.94.14s-2.62-.13-3.3-.41c-.65-.27-1.03-.66-1.38-1.26-.44.42-.93.85-1.45,1.24-.14.11-.23.2-.28.28-.07.1-.13.14-.21.14-.06,0-.14-.07-.2-.18-.2-.37-.38-.82-.58-1.33.37-.17.56-.27.83-.44.41-.25.82-.58,1.18-.9v-3.12h-.69c-.76,0-.96.03-1.03.03-.16,0-.17-.01-.17-.17v-1.09c0-.14.01-.16.17-.16.07,0,.27.03,1.03.03h.9c.75,0,.97-.03,1.06-.03.14,0,.15.01.15.16,0,.08-.03.48-.03,1.34v2.99ZM1015.03,631.41c-.1.07-.14.1-.18.1s-.07-.03-.11-.1c-.52-.85-1.1-1.61-1.74-2.2-.11-.1-.08-.14.07-.24l.79-.52c.16-.1.18-.11.3-.01.65.61,1.26,1.3,1.76,2.1.08.13.08.16-.07.27l-.82.61ZM1020.02,628.7c.65,0,1.1-.03,1.28-.03.1,0,.14.07.14.16,0,.32-.01,1.11.17,2.07.41,2.34,1.79,4.57,3.97,5.95-.24.27-.55.69-.75,1.1-.11.21-.17.31-.26.31-.07,0-.17-.06-.31-.18-1.72-1.38-2.88-3.24-3.43-5.36-.54,2.14-1.58,3.82-3.22,5.25-.16.13-.24.2-.31.2s-.14-.08-.3-.27c-.3-.4-.59-.65-.88-.83,2.26-1.58,3.53-3.78,3.85-7h-1.23c-.88,0-1.13.03-1.21.03-.16,0-.17-.01-.17-.17v-1.1c0-.14.01-.16.17-.16.08,0,.34.03,1.21.03h1.26Z"/><path class="cls-4" d="M1027.74,627.5c2.71,1.98,3.82,4.12,3.82,6.9s-1.11,4.92-3.82,6.9l-.37-.44c2.34-1.93,3.17-3.98,3.17-6.46s-.83-4.53-3.17-6.46l.37-.44Z"/><rect class="cls-2" x="646" y="517.04" width="177.91" height="45.46" rx="22.73" ry="22.73"/><path class="cls-4" d="M696.41,530.27l-.07,2.96h.85v-3.28h3.33v3.28h1.52v2.85h4.22v-1.88h-3.58v-3.1h3.58v-1.15h3.63v1.15h3.65v3.1h-3.65v1.88h4.2v3.1h-1.15v1.79h1.15v3.08h-1.15v3.86c0,1.04-.29,1.79-.87,2.25-.49.37-1.22.55-2.18.55h-2.76v-3.47h1.7c.37,0,.55-.18.55-.53v-2.66h-7.35v.23c-.25.12-.51.24-.79.36s-.52.2-.72.26v5.81h-3.33v-4.84c-1.01.21-1.79.37-2.35.48-.56.11-1.08.16-1.57.16v-3.65c.57,0,1.17-.05,1.8-.15.63-.1,1.34-.25,2.12-.45v-5.53h-1.08c0,.44-.02.81-.06,1.1-.04.29-.16.83-.38,1.61h-2.62c.26-1.22.45-2.51.56-3.85s.17-3.11.17-5.32h2.62ZM700.52,541.22c.57-.2,1.07-.43,1.52-.69v.44h7.35v-1.79h-7.35v-2.46h-1.52v4.5ZM705.71,545.08l.87,4.52h-3.15l-.85-4.52h3.12Z"/><path class="cls-4" d="M723.58,531.65v-1.7h3.4v1.7h1.88v-1.7h3.38v1.7h5.35v12.88h.73v3.15h-2.09l2.09,3.03h-4.16l-1.98-3.03h-8.24c-.6,1.19-1.26,2.2-1.97,3.03h-4.48c.89-.89,1.68-1.9,2.39-3.03h-2.39v-3.15h.76v-12.88h5.33ZM721.69,538.06h1.95v-3.24h-1.95v3.24ZM721.69,544.53h1.95v-3.38h-1.95v3.38ZM726.97,538.06h1.88v-3.24h-1.88v3.24ZM726.97,544.53h1.88v-3.38h-1.88v3.38ZM732.16,538.06h1.95v-3.24h-1.95v3.24ZM732.16,544.53h1.95v-3.38h-1.95v3.38Z"/><path class="cls-4" d="M757.64,541.41c0,2.65-.57,4.62-1.7,5.9-1.18,1.33-3.04,2-5.58,2h-1.52c-2.53,0-4.37-.66-5.53-1.98-1.16-1.32-1.75-3.29-1.75-5.92v-3.35c0-2.65.62-4.63,1.85-5.95,1.23-1.32,3.04-1.98,5.43-1.98h1.52c2.37,0,4.18.66,5.42,1.98s1.86,3.3,1.86,5.95v3.35ZM753.6,541.41v-3.35c0-1.44-.3-2.46-.9-3.08-.52-.54-1.3-.8-2.34-.8h-1.52c-1.06,0-1.83.26-2.32.78-.6.61-.9,1.65-.9,3.1v3.35c0,1.35.27,2.33.8,2.95.54.62,1.34.93,2.41.93h1.52c1.06,0,1.86-.31,2.41-.93.55-.62.83-1.6.83-2.95Z"/><path class="cls-4" d="M776.9,536.59c0,1.47-.44,2.62-1.31,3.44-.74.7-2.01,1.32-3.81,1.86-1.91.63-3.37,1.19-4.36,1.69-.99.5-1.68,1.01-2.04,1.55h11.48v4.02h-15.91v-2.27c0-2.53.99-4.44,2.98-5.74.78-.51,2.62-1.25,5.51-2.23,2.01-.67,3.01-1.49,3.01-2.46v-.32c0-.52-.17-.93-.51-1.24-.4-.37-1.01-.55-1.84-.55h-1.98c-.9,0-1.63.26-2.17.79-.54.53-.81,1.18-.81,1.96v.78h-4.25v-1.19c0-1.96.56-3.51,1.69-4.66,1.13-1.15,2.73-1.72,4.81-1.72h2.89c2.2,0,3.87.51,5.01,1.54,1.07.95,1.61,2.24,1.61,3.88v.87Z"/><path class="cls-4" d="M1133.89,544.51c0,2.22-.54,3.85-1.62,4.9-1.08,1.05-2.71,1.57-4.9,1.57h-3.88c-2.06,0-3.6-.51-4.59-1.52-.9-.92-1.36-2.22-1.36-3.9v-.62h4.16v.21c0,.63.2,1.09.61,1.38.4.29,1.07.44,2.01.44h2.5c1.04,0,1.79-.23,2.24-.7.45-.47.68-1.15.68-2.05v-1.42c-.95.51-2.04.76-3.26.76h-3.33c-2.04,0-3.5-.39-4.41-1.17-.9-.78-1.35-1.98-1.35-3.6v-1.7c0-1.61.52-2.89,1.55-3.83,1.03-.95,2.56-1.42,4.58-1.42h3.83c2.17,0,3.83.51,4.96,1.52,1.06.95,1.58,2.3,1.58,4.06v7.12ZM1129.73,538.33v-.62c0-1.25-.8-1.88-2.39-1.88h-3.4c-.89,0-1.53.16-1.92.49-.39.33-.59.81-.59,1.44v.64c0,1.22.82,1.84,2.46,1.84h3.42c.77,0,1.36-.16,1.78-.47.42-.31.63-.79.63-1.43Z"/><path class="cls-4" d="M1156.66,531.95v17.22c0,.86-.3,1.61-.88,2.25s-1.31.96-2.15.96h-5.03v-3.35h3.83c.38,0,.57-.19.57-.57v-2.25h-11.25c-.35,1.36-.92,2.56-1.71,3.6-.79,1.04-1.81,1.9-3.06,2.57v-4.91c1.03-.87,1.54-2.53,1.54-4.96v-10.56h18.14ZM1142.17,537.62h10.84v-2.57h-10.84v2.57ZM1142.17,542.72v.41h10.84v-2.46h-10.84v2.04Z"/><path class="cls-4" d="M1169.85,531.65c-.31,1.47-.93,2.88-1.87,4.22-.94,1.35-2.08,2.48-3.41,3.4h13.16c-1.3-.9-2.43-2.04-3.4-3.41-.96-1.37-1.59-2.77-1.88-4.21h4.02c.26,1.24.86,2.36,1.79,3.35.93,1,2.04,1.67,3.31,2.02v3.88c-.49-.11-1.03-.26-1.63-.46v7.44c0,1.35-.36,2.43-1.08,3.26-.72.83-1.71,1.24-2.96,1.24h-4.36v-3.6h3.74c.32,0,.59-.12.8-.36s.32-.54.32-.91v-4.84h-6.08c-.46,2.56-1.45,4.72-2.96,6.48-1.65,1.88-3.67,2.96-6.06,3.24v-3.63c1.5-.4,2.7-1.12,3.59-2.16.89-1.04,1.47-2.35,1.73-3.93h-4.5v-2.14c-.34.11-.61.19-.83.25-.08.02-.26.05-.55.11v-3.88c1.26-.35,2.35-1.02,3.3-2.02.94-1,1.54-2.11,1.8-3.35h4.02Z"/><path class="cls-4" d="M1199.71,545.45c0,2.5-.47,4.22-1.41,5.19-.94.96-2.57,1.45-4.88,1.45h-2.02v-3.97h2c.9,0,1.52-.18,1.86-.53s.51-1.06.51-2.11v-4.87c0-1.19-.19-1.97-.56-2.33-.37-.36-1.24-.54-2.58-.54h-.97c-.37,2.57-.82,5.13-1.35,7.67-.54,2.54-1.07,4.57-1.58,6.09h-3.95c.55-1.42,1.1-3.39,1.65-5.91.55-2.52,1.02-5.13,1.4-7.84h-2.62v-3.77h3.05l.16-2.27h3.88l-.16,2.27h1.03c2.28,0,3.84.31,4.68.94,1.24.92,1.86,2.77,1.86,5.56v4.98ZM1202.83,534.82h-2.04v-3.86h2.04v3.86ZM1205.75,547.49h-3.79c0-5.02-.38-8.81-1.15-11.37h3.79c.38,1.48.67,3.13.86,4.94.19,1.81.29,3.95.29,6.43ZM1205.82,534.82h-1.98v-3.86h1.98v3.86Z"/><rect class="cls-4" x="1065.54" y="591.91" width="2.46" height="27.11" transform="translate(1392.96 1787.91) rotate(-135)"/><rect class="cls-4" x="1065.54" y="574.48" width="2.46" height="27.11" transform="translate(2236.88 249.52) rotate(135)"/><rect class="cls-4" x="1055.91" y="579.24" width="2.46" height="35.01" transform="translate(1653.89 -460.39) rotate(90)"/><path class="cls-3" d="M330.18,787.19v-2.96h-6.81v-4.78h4.14l-5.92-15.04h6.31l5.13,14.84,5.67-14.84h6.36l-6.51,15.04h4.14v4.78h-6.81v2.96h6.81v4.78h-6.81v6.46h-5.72v-6.46h-6.81v-4.78h6.81Z"/><path class="cls-3" d="M364.64,763.08c1.78-.89,3.92-1.16,5.88-1.16,9.62,0,16.56,7.75,16.56,18.17,0,12.38-8.28,19.15-19.32,19.15s-19.41-6.68-19.41-18.97c0-4.54,2.23-10.06,4.99-16.12l12.56-27.16h11.22l-12.47,26.09ZM367.76,790.24c5.61,0,8.99-3.92,8.99-9.89s-3.38-9.88-8.99-9.88-9.08,4.01-9.08,9.88,3.38,9.89,9.08,9.89Z"/><path class="cls-3" d="M405.31,803.06l-10.51,8.99v-25.91h10.51v16.92Z"/><path class="cls-3" d="M429.2,763.08c1.78-.89,3.92-1.16,5.88-1.16,9.62,0,16.56,7.75,16.56,18.17,0,12.38-8.28,19.15-19.32,19.15s-19.41-6.68-19.41-18.97c0-4.54,2.23-10.06,4.99-16.12l12.56-27.16h11.22l-12.47,26.09ZM432.32,790.24c5.61,0,8.99-3.92,8.99-9.89s-3.38-9.88-8.99-9.88-9.08,4.01-9.08,9.88,3.38,9.89,9.08,9.89Z"/><path class="cls-3" d="M478.03,799.23c-10.24,0-19.33-6.05-19.33-18.79v-25.38c0-13.09,9.08-18.88,19.33-18.88s19.32,5.79,19.32,18.79v25.47c0,12.73-9.08,18.79-19.32,18.79ZM478.03,745.18c-5.61,0-9.08,3.83-9.08,10.42v24.22c0,6.59,3.47,10.42,9.08,10.42s8.99-3.83,8.99-10.42v-24.22c0-6.59-3.47-10.42-8.99-10.42Z"/><path class="cls-3" d="M524.76,799.23c-10.24,0-19.33-6.05-19.33-18.79v-25.38c0-13.09,9.08-18.88,19.33-18.88s19.32,5.79,19.32,18.79v25.47c0,12.73-9.08,18.79-19.32,18.79ZM524.76,745.18c-5.61,0-9.08,3.83-9.08,10.42v24.22c0,6.59,3.47,10.42,9.08,10.42s8.99-3.83,8.99-10.42v-24.22c0-6.59-3.47-10.42-8.99-10.42Z"/><path class="cls-4" d="M54.39,750.27v37.72c0,1.88-.65,3.52-1.94,4.93-1.29,1.41-2.86,2.11-4.7,2.11h-11.01v-7.34h8.4c.84,0,1.26-.42,1.26-1.26v-4.93h-24.64c-.77,2.98-2.02,5.62-3.75,7.9-1.73,2.28-3.97,4.16-6.71,5.63v-10.76c2.25-1.91,3.37-5.53,3.37-10.86v-23.13h39.73ZM22.65,762.69h23.74v-5.63h-23.74v5.63ZM22.65,773.86v.9h23.74v-5.38h-23.74v4.48Z"/><path class="cls-4" d="M81.15,749.56h9.81c1.51,2.48,3.86,4.56,7.04,6.24,3.19,1.68,6.81,2.75,10.86,3.22v7.9c-.87-.13-1.53-.24-1.96-.33-.44-.08-1-.21-1.71-.38v4.38h-38.12v-4.43l-3.82.75v-7.9c4.09-.5,7.72-1.58,10.89-3.24,3.17-1.66,5.51-3.73,7.02-6.21ZM108.86,774.71v6.69h-29.22l-2.67,5.68c3.89,0,7.33-.12,10.33-.35,3-.23,5.78-.62,8.32-1.16l-1.91-4.12h8.8l6.34,13.58h-8.85l-1.36-2.92c-3.12,1.04-6.61,1.7-10.46,1.99-3.86.28-9.84.43-17.96.43h-6.99v-7.39h4.22l2.67-5.73h-6.89v-6.69h45.62ZM74.26,763.95h23.54c-4.86-1.98-8.77-4.66-11.72-8.05-1.48,1.64-3.22,3.15-5.23,4.53-2.01,1.38-4.21,2.55-6.59,3.52Z"/><path class="cls-4" d="M129.03,750.82v-1.26h7.59v1.26h4.93v-1.26h7.59v1.26h11.52v9.76h-11.52v1.86h12.72v5.18c0,.97-.35,1.69-1.06,2.16-.7.47-1.91.7-3.62.7h-5.88v-2.61h2.01c.6,0,.9-.25.9-.75v-.75h-5.08v4.27h-7.59v-4.27h-6.14c-.97,2.28-2.85,4.07-5.63,5.38h30.93v20.32h-2.01l3.17,2.97h-9.2l-3.07-2.97h-20.02c-.94,1.17-1.95,2.16-3.02,2.97h-10.31c1.44-.91,2.73-1.89,3.87-2.97h-2.62v-17.9l-1.26.05v-5.83c2.88,0,5.13-.15,6.74-.45s2.9-.82,3.87-1.56h-9.4v-9.71h11.57v-1.71h-12.77v-4.12h12.77ZM124.8,762.44h4.02l.2-1.86h-4.22v1.86ZM125.71,777.28h26.81v-1.81h-26.81v1.81ZM125.71,782.76h26.81v-1.71h-26.81v1.71ZM125.71,788.34h26.81v-1.76h-26.81v1.76ZM141.55,760.58h-4.93l-.15,1.86h5.08v-1.86ZM136.62,756.66h4.93v-1.71h-4.93v1.71ZM149.14,756.66h4.27v-1.71h-4.27v1.71Z"/><path class="cls-4" d="M224.08,769.15h-3.7v-13.43l-6.61,1.45v-3.75l6.82-1.56h3.49v17.28Z"/><path class="cls-4" d="M243.94,762.06c0,2.43-.52,4.23-1.56,5.41-1.08,1.22-2.79,1.83-5.11,1.83h-1.39c-2.32,0-4.01-.6-5.07-1.81-1.07-1.21-1.6-3.02-1.6-5.43v-3.07c0-2.43.56-4.24,1.69-5.45,1.13-1.21,2.79-1.81,4.98-1.81h1.39c2.17,0,3.83.6,4.97,1.81,1.14,1.21,1.7,3.02,1.7,5.45v3.07ZM240.24,762.06v-3.07c0-1.32-.27-2.26-.82-2.82-.48-.49-1.19-.74-2.15-.74h-1.39c-.97,0-1.68.24-2.13.72-.55.56-.82,1.51-.82,2.84v3.07c0,1.24.25,2.14.74,2.7s1.23.85,2.21.85h1.39c.97,0,1.7-.28,2.21-.85s.76-1.47.76-2.7Z"/><path class="cls-4" d="M264.79,751.85v15.78c0,.79-.27,1.47-.81,2.06-.54.59-1.2.88-1.97.88h-4.61v-3.07h3.52c.35,0,.53-.18.53-.53v-2.06h-10.31c-.32,1.25-.85,2.35-1.57,3.3-.72.95-1.66,1.74-2.81,2.36v-4.5c.94-.8,1.41-2.32,1.41-4.55v-9.68h16.63ZM251.51,757.05h9.93v-2.36h-9.93v2.36ZM251.51,761.72v.38h9.93v-2.25h-9.93v1.87Z"/><path class="cls-4" d="M281.93,764.16c0,2.3-.43,3.89-1.28,4.77-.86.88-2.35,1.32-4.48,1.32h-1.85v-3.64h1.81c.84,0,1.41-.16,1.72-.49.3-.33.45-.97.45-1.93v-4.44c0-1.09-.17-1.81-.52-2.14-.34-.33-1.13-.49-2.37-.49h-.8c-.34,2.39-.75,4.75-1.24,7.09s-.98,4.21-1.45,5.6h-3.62c.49-1.29.99-3.1,1.51-5.44.51-2.34.95-4.75,1.31-7.25h-2.48v-3.47h2.86l.13-1.96h3.56l-.15,1.96h.88c2.08,0,3.51.3,4.31.88,1.14.84,1.7,2.53,1.7,5.07v4.57ZM287.51,765.78h-3.47c0-2.33-.15-4.81-.44-7.45-.3-2.64-.61-4.58-.95-5.83h3.45c.36,1.49.69,3.47.98,5.96s.43,4.92.43,7.32Z"/><path class="cls-4" d="M308.6,763.7c0,2.22-.74,3.84-2.23,4.88-1.71,1.18-4.63,1.77-8.76,1.77h-4.61v-3.45h4.38c2.89,0,4.89-.27,6-.82,1-.49,1.5-1.32,1.5-2.48,0-1.54-1.12-2.32-3.37-2.32-1.74,0-3.22.23-4.44.71-1.22.47-2.31,1.23-3.26,2.28h-3.37v-12.27h3.45v8.27c1.09-.79,2.21-1.37,3.35-1.75,1.31-.45,2.74-.67,4.31-.67,2.33,0,4.09.48,5.27,1.44,1.19.96,1.78,2.43,1.78,4.41ZM307.49,755.37h-7.43c-.79,0-1.57-.03-2.35-.11-.78-.07-1.41-.16-1.88-.27v-3.35c.45.13,1.07.22,1.86.29.79.07,1.6.11,2.41.11h7.39v3.33Z"/><path class="cls-4" d="M237.18,789.17c0,1.67-.46,2.9-1.39,3.69-.93.79-2.3,1.19-4.13,1.19h-3.89c-1.96,0-3.38-.43-4.26-1.28-.88-.86-1.32-2.27-1.32-4.25h3.75c0,.69.2,1.19.6,1.49.4.31,1.05.46,1.97.46h2.23c.95,0,1.64-.17,2.04-.52s.61-.85.61-1.53v-.67c0-.72-.2-1.24-.61-1.58s-1.09-.51-2.04-.51h-2.4c-.65,0-1.16.13-1.54.38-.31.18-.53.46-.67.82h-3.79v-10.25h14.31v3.6h-10.59v2.8c.84-.39,1.78-.59,2.82-.59h2.69c1.78,0,3.16.4,4.14,1.2.98.8,1.46,1.99,1.46,3.56v1.98Z"/><path class="cls-4" d="M256.05,785.25h-2.21v1.83c0,2.6-.76,4.59-2.27,5.98-1.67,1.52-4.24,2.27-7.7,2.27h-2.23v-2.95h2.23c2.54,0,4.36-.48,5.47-1.45.98-.84,1.47-2.13,1.47-3.85v-1.83h-6.55c-.49.7-1.08,1.33-1.78,1.88-.69.55-1.48,1.04-2.35,1.46v-3.47c.77-.42,1.42-1.01,1.94-1.77.6-.9.91-1.9.91-3.01h3.07c-.04.31-.09.63-.16.96s-.14.66-.22.98h10.38v2.97Z"/><path class="cls-4" d="M276.53,776.6v15.78c0,.79-.27,1.47-.81,2.06-.54.59-1.2.88-1.97.88h-4.61v-3.07h3.52c.35,0,.53-.18.53-.53v-2.06h-10.31c-.32,1.25-.85,2.35-1.57,3.3-.72.95-1.66,1.74-2.81,2.36v-4.5c.94-.8,1.41-2.32,1.41-4.55v-9.68h16.63ZM263.25,781.8h9.93v-2.36h-9.93v2.36ZM263.25,786.47v.38h9.93v-2.25h-9.93v1.87Z"/><path class="cls-4" d="M289.25,776.6v8.9h-5.28v9.83h-3.24v-18.73h8.52ZM283.97,780.16h2.31v-1.18h-2.31v1.18ZM283.97,783.21h2.31v-1.22h-2.31v1.22ZM293.97,786.62v8.08h-8.38v-8.08h8.38ZM288.47,789.84h2.59v-1.07h-2.59v1.07ZM288.47,792.6h2.59v-1.12h-2.59v1.12ZM298.81,776.6v16.14c0,.79-.24,1.41-.72,1.88s-1.12.71-1.91.71h-2.08v-3.11h1.03c.29,0,.44-.15.44-.44v-6.27h-5.26v-8.9h8.5ZM293.29,780.16h2.27v-1.18h-2.27v1.18ZM293.29,783.21h2.27v-1.22h-2.27v1.22Z"/><path class="cls-4" d="M552.18,786.61c-2.34,1.93-3.17,3.98-3.17,6.46s.83,4.53,3.17,6.46l-.37.44c-2.71-1.98-3.82-4.12-3.82-6.9s1.11-4.92,3.82-6.9l.37.44Z"/><path class="cls-4" d="M555.03,789.09q-.44.08-.62-.34c-.13-.3-.27-.54-.47-.76,1.38-.21,2.54-.55,3.37-.92.25-.1.4-.2.59-.32.32.28.59.56.85.85.08.1.11.14.11.24,0,.11-.1.18-.24.18-.13,0-.28.07-.47.14-.28.11-.58.21-.89.31v2.05c.95,0,1.27-.03,1.36-.03.14,0,.16.01.16.16v.97c0,.16-.01.17-.16.17-.08,0-.37-.01-1.14-.03.45.93.93,1.62,1.57,2.2-.17.25-.37.65-.49,1.03-.04.16-.1.23-.16.23s-.13-.08-.23-.23c-.38-.56-.68-1.07-.94-1.79,0,3.48.08,5.94.08,6.19,0,.13-.02.14-.16.14h-1.11c-.16,0-.17-.01-.17-.14,0-.24.08-2.55.11-5.59-.37,1.09-.88,2.02-1.44,2.82-.1.14-.17.21-.24.21-.06,0-.11-.07-.17-.23-.16-.38-.37-.78-.56-1,.82-.93,1.66-2.16,2.19-3.85h-.34c-1.03,0-1.35.03-1.45.03-.13,0-.14-.01-.14-.17v-.97c0-.14.01-.16.14-.16.1,0,.42.03,1.45.03h.49v-1.64l-.89.21ZM562.88,789.36c.3-.65.52-1.24.72-1.85.06-.23.13-.51.16-.88.49.1,1.06.23,1.4.35.11.04.18.11.18.2,0,.1-.04.16-.13.24-.11.1-.18.24-.25.44-.2.41-.4.89-.71,1.5,1,0,1.4-.03,1.48-.03.14,0,.16.01.16.17,0,.08-.03.41-.03,1.21v1.71c0,.79.03,1.14.03,1.23,0,.14-.01.15-.16.15-.08,0-.51-.03-1.62-.03v3.7c0,.25.03.38.14.47.07.06.24.1.48.1.34,0,.48-.06.58-.17.11-.14.16-.48.17-1.61.24.17.62.35.86.41q.37.11.34.48c-.06,1.17-.25,1.67-.54,1.89-.32.24-.9.34-1.57.34-.73,0-1.19-.07-1.41-.23-.25-.18-.41-.45-.41-1.13v-4.25h-.86c-.07,3.07-.9,4.6-2.65,5.63-.18.1-.28.15-.35.15-.08,0-.14-.08-.3-.3-.23-.3-.51-.58-.75-.75,1.86-.8,2.68-2.03,2.72-4.74-.79.01-1.1.03-1.16.03-.16,0-.17-.01-.17-.15,0-.1.03-.44.03-1.23v-1.71c0-.8-.03-1.13-.03-1.21,0-.16.01-.17.17-.17.07,0,.51.03,1.73.03h1.74ZM560.64,786.75c.18-.08.2-.08.28.04.37.51.75,1.2,1,1.83.04.14.03.17-.16.25l-.86.39c-.17.08-.2.08-.25-.07-.22-.64-.54-1.27-.93-1.86-.07-.13-.06-.16.13-.24l.79-.35ZM564.49,790.63h-3.87v1.86h3.87v-1.86Z"/><path class="cls-4" d="M572.21,796.4c.3.58.58.93,1.16,1.17.49.2,1.38.28,2.61.28,1.82,0,3.96-.1,6.07-.31-.2.3-.32.68-.38,1.1q-.07.45-.52.48c-1.79.1-3.47.14-4.94.14s-2.62-.13-3.3-.41c-.65-.27-1.03-.66-1.38-1.26-.44.42-.93.85-1.45,1.24-.14.11-.23.2-.28.28-.07.1-.13.14-.21.14-.06,0-.14-.07-.2-.18-.2-.37-.38-.82-.58-1.33.37-.17.56-.27.83-.44.41-.25.82-.58,1.19-.9v-3.12h-.69c-.76,0-.96.03-1.03.03-.16,0-.17-.01-.17-.17v-1.09c0-.14.01-.16.17-.16.07,0,.27.03,1.03.03h.9c.75,0,.97-.03,1.06-.03.14,0,.16.01.16.16,0,.08-.03.48-.03,1.34v2.99ZM571.34,790.08c-.1.07-.14.1-.18.1s-.07-.03-.11-.1c-.52-.85-1.1-1.61-1.74-2.2-.11-.1-.08-.14.07-.24l.79-.52c.16-.1.18-.11.3-.01.65.61,1.26,1.3,1.76,2.1.08.13.08.16-.07.27l-.82.61ZM576.33,787.37c.65,0,1.1-.03,1.28-.03.1,0,.14.07.14.16,0,.32-.01,1.11.17,2.07.41,2.34,1.79,4.57,3.96,5.95-.24.27-.55.69-.75,1.1-.11.21-.17.31-.25.31-.07,0-.17-.06-.31-.18-1.72-1.38-2.88-3.24-3.43-5.36-.54,2.14-1.58,3.82-3.22,5.25-.16.13-.24.2-.31.2s-.14-.08-.3-.27c-.3-.4-.59-.65-.87-.83,2.26-1.58,3.53-3.78,3.85-7h-1.23c-.87,0-1.13.03-1.21.03-.16,0-.17-.01-.17-.17v-1.1c0-.14.01-.16.17-.16.08,0,.34.03,1.21.03h1.26Z"/><path class="cls-4" d="M584.05,786.17c2.71,1.98,3.82,4.12,3.82,6.9s-1.12,4.92-3.82,6.9l-.37-.44c2.34-1.93,3.18-3.98,3.18-6.46s-.83-4.53-3.18-6.46l.37-.44Z"/><rect class="cls-2" x="0" y="682.9" width="177.91" height="45.46" rx="22.73" ry="22.73"/><path class="cls-4" d="M50.36,696.14l-.07,2.96h.85v-3.28h3.33v3.28h1.52v2.85h4.22v-1.88h-3.58v-3.1h3.58v-1.15h3.63v1.15h3.65v3.1h-3.65v1.88h4.2v3.1h-1.15v1.79h1.15v3.08h-1.15v3.86c0,1.04-.29,1.79-.87,2.25-.49.37-1.22.55-2.18.55h-2.76v-3.47h1.7c.37,0,.55-.18.55-.53v-2.66h-7.35v.23c-.25.12-.51.24-.79.36s-.52.2-.72.26v5.81h-3.33v-4.84c-1.01.21-1.79.37-2.35.48-.56.11-1.08.16-1.57.16v-3.65c.57,0,1.17-.05,1.8-.15.63-.1,1.34-.25,2.12-.45v-5.53h-1.08c0,.44-.02.81-.06,1.1-.04.29-.16.83-.38,1.61h-2.62c.26-1.22.45-2.51.56-3.85s.17-3.11.17-5.32h2.62ZM54.47,707.09c.57-.2,1.07-.43,1.52-.69v.44h7.35v-1.79h-7.35v-2.46h-1.52v4.5ZM59.65,710.95l.87,4.52h-3.15l-.85-4.52h3.12Z"/><path class="cls-4" d="M77.52,697.51v-1.7h3.4v1.7h1.88v-1.7h3.38v1.7h5.35v12.88h.73v3.15h-2.09l2.09,3.03h-4.16l-1.98-3.03h-8.24c-.6,1.19-1.26,2.2-1.97,3.03h-4.48c.89-.89,1.68-1.9,2.39-3.03h-2.39v-3.15h.76v-12.88h5.33ZM75.63,703.92h1.95v-3.24h-1.95v3.24ZM75.63,710.4h1.95v-3.38h-1.95v3.38ZM80.92,703.92h1.88v-3.24h-1.88v3.24ZM80.92,710.4h1.88v-3.38h-1.88v3.38ZM86.1,703.92h1.95v-3.24h-1.95v3.24ZM86.1,710.4h1.95v-3.38h-1.95v3.38Z"/><path class="cls-4" d="M111.58,707.27c0,2.65-.57,4.62-1.7,5.9-1.18,1.33-3.04,2-5.58,2h-1.52c-2.53,0-4.37-.66-5.53-1.98-1.16-1.32-1.75-3.29-1.75-5.92v-3.35c0-2.65.62-4.63,1.85-5.95,1.23-1.32,3.04-1.98,5.43-1.98h1.52c2.37,0,4.18.66,5.42,1.98s1.86,3.3,1.86,5.95v3.35ZM107.54,707.27v-3.35c0-1.44-.3-2.46-.9-3.08-.52-.54-1.3-.8-2.34-.8h-1.52c-1.06,0-1.83.26-2.32.78-.6.61-.9,1.65-.9,3.1v3.35c0,1.35.27,2.33.8,2.95.54.62,1.34.93,2.41.93h1.52c1.06,0,1.86-.31,2.41-.93.55-.62.83-1.6.83-2.95Z"/><path class="cls-4" d="M131.19,710.08c0,1.74-.58,3.03-1.75,3.86-1.16.83-2.9,1.24-5.21,1.24h-3.28c-2.05,0-3.6-.53-4.66-1.6-1.06-1.06-1.58-2.49-1.58-4.28v-1.06h4.06v.73c0,.7.24,1.24.71,1.62.47.38,1.21.56,2.2.56h2.11c.92,0,1.6-.16,2.04-.47.44-.31.67-.72.67-1.23v-.6c0-.54-.19-.94-.57-1.22-.47-.35-1.22-.53-2.23-.53h-2.85v-3.31h2.82c.92,0,1.59-.14,2.01-.42s.63-.67.63-1.16v-.55c0-1.1-.83-1.65-2.48-1.65h-2.3c-.92,0-1.6.2-2.03.61-.44.41-.65.97-.65,1.69v.6h-4.09v-.83c0-1.78.57-3.23,1.71-4.37,1.14-1.14,2.69-1.71,4.65-1.71h3.15c2.05,0,3.67.45,4.86,1.34,1.19.9,1.78,2.19,1.78,3.89v.73c0,1.61-.74,2.79-2.23,3.54.84.41,1.47.93,1.88,1.56.41.63.62,1.34.62,2.14v.87Z"/><path class="cls-4" d="M1074.82,774.83c-2.56-3.13-4.35-6.2-4.35-9.98,0-6.08,4.86-10.04,11.58-10.04,8,0,11.38,4.41,11.38,8.76,0,4.93-4.67,8.31-9.34,11.7l9.85,10.87c.9-2.11,1.34-4.6,1.34-7.23h6.91c0,4.48-1.15,8.89-3.45,12.54l7.36,8.06h-8.89l-2.94-3.2c-3.14,2.37-7.23,3.77-12.28,3.77-9.72,0-14.71-6.08-14.71-12.34,0-5.88,3.52-9.79,7.55-12.92ZM1089.79,791.46l-11-12.15c-2.56,2.24-4.35,4.67-4.35,7.68,0,4.09,3.13,6.65,7.74,6.65,3.13,0,5.63-.83,7.61-2.17ZM1080.38,770.99c3.33-2.24,6.08-4.35,6.08-6.97,0-1.66-1.41-3.52-4.35-3.52-2.62,0-4.41,1.53-4.41,4.35,0,2.17,1.28,4.29,2.69,6.14Z"/><path class="cls-3" d="M862.76,797.45h-31.21v-6.14l17.74-20.8c3.37-3.89,5.24-7.26,5.24-10.85,0-4.71-3.52-7.11-7.33-7.11-4.04,0-7.11,2.47-7.33,7.11h-7.93c0-8.76,7.03-14.52,15.57-14.52s15.64,5.99,15.64,14.67c0,6.51-4.49,11.6-7.78,15.57l-12.2,14.59h19.61v7.48Z"/><path class="cls-4" d="M648.91,759.86h15.82v8.19c0,5.76-1.41,11.09-4.22,16-2.81,4.91-6.68,8.59-11.61,11.06v-9.93c2.33-1.43,4.23-3.58,5.69-6.44,1.6-3.13,2.4-6.69,2.4-10.68h-8.09v-8.19ZM675.62,751.03v36.99c0,5.42-2.48,8.14-7.44,8.14h-7.84v-7.84h5.29c1.2,0,1.8-.6,1.8-1.8v-35.49h8.19ZM685.35,757.56c0,.67,0,1.3.03,1.9.02.6.09,1.73.22,3.39l8.59-8.19v10.03l-7.29,6.84c.7,3.06,1.67,5.74,2.92,8.04,1.25,2.3,2.7,4.06,4.37,5.29v10.73c-5.52-3.13-9.67-8.05-12.43-14.78-2.63-6.39-3.94-14.14-3.94-23.26h7.54Z"/><path class="cls-4" d="M728.08,751.03v1.45h18.72v5.04h-18.72v2h17.52v5.09h-17.52v2.05h18.72v5.04h-26.96l-5.39,3.74h7.29l3.49-2.55h10.03l-11.88,9.19h4.54c3.66,0,6.61-.38,8.84-1.15l-1.75-5.49h7.69l4.14,13.28h-7.54l-.7-2.05c-2.5,1.13-6.04,1.7-10.63,1.7v7.79h-8.24v-7.79h-18.22v-6.29h11.33l2.95-2.15h-11.53v-4.29l5.74-3.94h-8.49v-5.04h18.72v-2.05h-17.52v-5.09h17.52v-2h-18.72v-5.04h18.72v-1.45h7.84ZM714.4,789.66c-.53,1.36-1.08,2.56-1.65,3.59-.67,1.3-1.33,2.26-2,2.9h-9.09c.67-.57,1.41-1.55,2.25-2.95.83-1.4,1.4-2.58,1.7-3.54h8.79ZM742.75,789.66l4.04,6.49h-8.69l-3.89-6.49h8.54Z"/><path class="cls-4" d="M754.15,759.86h15.82v8.19c0,5.76-1.41,11.09-4.22,16-2.81,4.91-6.68,8.59-11.61,11.06v-9.93c2.33-1.43,4.23-3.58,5.69-6.44,1.6-3.13,2.4-6.69,2.4-10.68h-8.09v-8.19ZM780.86,751.03v36.99c0,5.42-2.48,8.14-7.44,8.14h-7.84v-7.84h5.29c1.2,0,1.8-.6,1.8-1.8v-35.49h8.19ZM790.59,757.56c0,.67,0,1.3.03,1.9.02.6.09,1.73.22,3.39l8.59-8.19v10.03l-7.29,6.84c.7,3.06,1.67,5.74,2.92,8.04,1.25,2.3,2.7,4.06,4.37,5.29v10.73c-5.52-3.13-9.67-8.05-12.43-14.78-2.63-6.39-3.94-14.14-3.94-23.26h7.54Z"/><path class="cls-4" d="M1115.22,754.39h6.36v3.29c0,2.31-.57,4.46-1.7,6.43-1.13,1.97-2.68,3.45-4.66,4.44v-3.99c.94-.57,1.7-1.44,2.29-2.59.64-1.26.96-2.69.96-4.29h-3.25v-3.29ZM1125.95,750.84v14.86c0,2.18-1,3.27-2.99,3.27h-3.15v-3.15h2.13c.48,0,.72-.24.72-.72v-14.26h3.29ZM1129.86,753.47c0,.27,0,.52.01.76s.04.7.09,1.36l3.45-3.29v4.03l-2.93,2.75c.28,1.23.67,2.31,1.17,3.23.5.92,1.09,1.63,1.75,2.13v4.31c-2.22-1.26-3.88-3.24-4.99-5.94-1.06-2.57-1.58-5.68-1.58-9.35h3.03Z"/><path class="cls-4" d="M1147.19,750.84v.58h7.52v2.03h-7.52v.8h7.04v2.05h-7.04v.82h7.52v2.03h-10.83l-2.17,1.5h2.93l1.4-1.02h4.03l-4.77,3.69h1.82c1.47,0,2.65-.15,3.55-.46l-.7-2.21h3.09l1.66,5.34h-3.03l-.28-.82c-1,.45-2.43.68-4.27.68v3.13h-3.31v-3.13h-7.32v-2.53h4.55l1.18-.86h-4.63v-1.72l2.31-1.58h-3.41v-2.03h7.52v-.82h-7.04v-2.05h7.04v-.8h-7.52v-2.03h7.52v-.58h3.15ZM1141.7,766.37c-.21.55-.43,1.03-.66,1.44-.27.52-.54.91-.8,1.16h-3.65c.27-.23.57-.62.9-1.18.33-.56.56-1.04.68-1.42h3.53ZM1153.09,766.37l1.62,2.61h-3.49l-1.56-2.61h3.43Z"/><path class="cls-4" d="M1157.83,754.39h6.36v3.29c0,2.31-.57,4.46-1.7,6.43-1.13,1.97-2.68,3.45-4.66,4.44v-3.99c.94-.57,1.7-1.44,2.29-2.59.64-1.26.96-2.69.96-4.29h-3.25v-3.29ZM1168.56,750.84v14.86c0,2.18-1,3.27-2.99,3.27h-3.15v-3.15h2.13c.48,0,.72-.24.72-.72v-14.26h3.29ZM1172.48,753.47c0,.27,0,.52.01.76s.04.7.09,1.36l3.45-3.29v4.03l-2.93,2.75c.28,1.23.67,2.31,1.17,3.23.5.92,1.09,1.63,1.75,2.13v4.31c-2.22-1.26-3.88-3.24-4.99-5.94-1.06-2.57-1.58-5.68-1.58-9.35h3.03Z"/><path class="cls-4" d="M1196.83,756.28h-7.12v12.4h-3.41v-12.4h-7.24v-3.43h7.24v-1.99h3.41v1.99h2.45v1.81h4.67v1.62ZM1184.12,758.24c0,1.3-.15,2.95-.45,4.96-.3,2.01-.69,3.73-1.17,5.18h-3.43c.51-1.51.94-3.32,1.29-5.42s.53-3.67.53-4.71h3.23ZM1196.87,768.39h-3.23c0-1.06-.18-2.61-.54-4.65s-.79-3.87-1.28-5.48h3.43c.43,1.36.82,3.18,1.16,5.44.31,2.01.46,3.57.46,4.69ZM1194.75,753.81h-1.75v-3.25h1.75v3.25ZM1197.4,753.81h-1.74v-3.25h1.74v3.25Z"/><path class="cls-4" d="M1216.19,762.42c-2.33,0-4.58-.2-6.75-.6-2.17-.4-3.96-.93-5.35-1.58v8.46h-3.43v-17.79h3.43v5.64c1.42.76,3.34,1.36,5.78,1.81,2.18.39,4.29.58,6.32.58v3.49Z"/><path class="cls-4" d="M1223.26,760.63c0,1.97-.11,3.65-.34,5.04-.23,1.4-.49,2.39-.8,2.98h-3.43c.33-.66.61-1.65.83-3s.33-2.99.33-4.92v-9.51h3.41v9.41ZM1236.16,759.47c0,3.05-.59,5.33-1.77,6.85s-2.98,2.28-5.39,2.28h-3.57v-17.39h3.43v13.98h.84c.91,0,1.62-.47,2.15-1.42.59-1.07.88-2.65.88-4.75v-4.75h3.43v5.22Z"/><path class="cls-3" d="M1137.18,785.72c0,4.6-1.32,8.05-3.95,10.37-2.63,2.32-6.53,3.47-11.69,3.47h-4.62v-4.25h4.7c4,0,6.9-.8,8.7-2.4,1.73-1.52,2.6-3.86,2.6-7.05v-3.22h-16.89v-4.25h16.02c-.05.13-.1.32-.15.57-.05.25-.08.5-.08.75,0,1.1.38,2,1.15,2.7.77.7,1.64,1.05,2.62,1.05.6,0,1.13-.13,1.6-.4v2.65ZM1138.31,779.67c0,.75-.27,1.39-.81,1.91-.54.52-1.19.79-1.94.79s-1.42-.26-1.95-.77-.8-1.16-.8-1.92.27-1.42.81-1.96c.54-.54,1.19-.81,1.94-.81s1.42.27,1.95.8c.53.53.8,1.19.8,1.97ZM1136.68,779.67c0-.3-.11-.56-.34-.79s-.49-.34-.79-.34-.56.11-.79.34-.34.49-.34.79c0,.28.11.54.34.76.22.22.49.34.79.34s.56-.11.79-.34c.22-.23.34-.48.34-.76Z"/><path class="cls-3" d="M1163.54,782.95c0,5.43-1.59,9.62-4.77,12.57-2.96,2.75-6.96,4.12-11.99,4.12h-4.47v-21.64h4.27v17.17h1.03c3.28,0,5.95-.93,8-2.8,2.37-2.15,3.55-5.26,3.55-9.35v-.5h4.4v.42Z"/><path class="cls-3" d="M1188.94,785.12c0,2.27-.82,4.06-2.45,5.37-1.63,1.32-3.75,1.97-6.35,1.97h-.55v-4.4h.5c1.5,0,2.57-.23,3.2-.7.63-.47.95-1.15.95-2.05v-.33h-10.35v6.57c0,1.43.34,2.43,1.01,2.99.68.56,1.82.84,3.44.84h10.15v4.22h-10.47c-2.73,0-4.81-.66-6.23-1.97s-2.14-3.26-2.14-5.85v-6.8h-2.5v-4.25h2.5v-2.8h4.25v2.8h9.37v1.72h5.67v2.65ZM1186.51,781.42h-2.2v-4.15h2.2v4.15ZM1189.81,781.42h-2.17v-4.15h2.17v4.15Z"/><path class="cls-3" d="M1214.89,784.55c0,2.68-.36,5.01-1.08,6.97-.9,2.5-2.37,4.42-4.4,5.77-2.38,1.57-5.54,2.35-9.47,2.35h-6.8v-4.27h7c3.75,0,6.48-.98,8.2-2.95,1.52-1.73,2.27-4.28,2.27-7.65v-5.82h4.27v5.6ZM1204.77,785.02c-1.6-.65-3.43-1.2-5.49-1.66-2.06-.46-4-.69-5.83-.69v-4.32c2,0,4.09.2,6.27.6,2.18.4,3.86.89,5.05,1.47v4.6Z"/><path class="cls-3" d="M1238.61,791.84c-2.9,0-5.7-.25-8.41-.75-2.71-.5-4.93-1.16-6.66-1.97v10.55h-4.27v-22.17h4.27v7.02c1.77.95,4.16,1.7,7.2,2.25,2.71.48,5.34.72,7.87.72v4.35Z"/><path class="cls-3" d="M906.73,774.4h-4.99v4.14c0,5.87-1.71,10.37-5.14,13.51-3.77,3.42-9.58,5.14-17.41,5.14h-5.04v-6.66h5.04c5.74,0,9.86-1.09,12.37-3.28,2.22-1.9,3.33-4.8,3.33-8.7v-4.14h-14.79c-1.11,1.59-2.45,3.01-4.02,4.26-1.57,1.25-3.34,2.35-5.3,3.31v-7.85c1.74-.95,3.2-2.28,4.38-4,1.36-2.03,2.05-4.3,2.05-6.8h6.94c-.1.7-.21,1.42-.36,2.16-.14.74-.31,1.48-.5,2.21h23.45v6.71Z"/><path class="cls-3" d="M952.7,754.85v35.67c0,1.78-.61,3.33-1.83,4.66-1.22,1.33-2.7,2-4.45,2h-10.42v-6.94h7.94c.79,0,1.19-.4,1.19-1.19v-4.66h-23.31c-.73,2.82-1.91,5.31-3.54,7.47-1.63,2.16-3.75,3.93-6.35,5.33v-10.18c2.12-1.81,3.19-5.23,3.19-10.27v-21.88h37.57ZM922.68,766.6h22.45v-5.33h-22.45v5.33ZM922.68,777.16v.86h22.45v-5.09h-22.45v4.23Z"/><path class="cls-3" d="M975.07,754.18c-.19.92-.52,1.84-1,2.76h28.92v5.9h-1.81v6.28h2.95v5.9h-2.95v6.23h1.81v5.9h-40.85v-5.9h1.81v-6.23h-2.95v-5.9h2.95v-2.95c-.48.22-.93.39-1.36.5-.43.11-.96.23-1.59.36v-6.9c1.65-.35,3.11-1.13,4.38-2.33,1.17-1.08,1.93-2.28,2.28-3.61h7.42ZM971.22,789.14c-.22,1.33-.59,2.78-1.09,4.35-.51,1.57-1,2.8-1.47,3.69h-7.66c.66-.89,1.31-2.12,1.93-3.71.62-1.58,1.04-3.03,1.26-4.33h7.04ZM974.26,762.84h-4v6.28h4v-6.28ZM970.27,781.25h4v-6.23h-4v6.23ZM980.83,789.14l1.43,8.04h-6.94l-1.38-8.04h6.9ZM984.49,762.84h-3.81v6.28h3.81v-6.28ZM980.68,781.25h3.81v-6.23h-3.81v6.23ZM991.39,789.14l1.85,8.04h-7.04l-1.66-8.04h6.85ZM994.86,762.84h-3.95v6.28h3.95v-6.28ZM990.91,781.25h3.95v-6.23h-3.95v6.23ZM1001.99,789.14l2.14,8.04h-6.94l-2-8.04h6.8Z"/><path class="cls-3" d="M1024.84,754.18v14.08h6.9v6.9h-6.9v1.19l6.9,5.71v8.75l-6.9-6.66v13.03h-6.8v-9.51c-1.02,1.36-2.06,2.56-3.14,3.59-1.08,1.03-2.33,1.97-3.76,2.83v-8.94c1.52-1.01,2.89-2.43,4.11-4.26,1.22-1.82,2.02-3.73,2.4-5.73h-6.52v-6.9h6.9v-14.08h6.8ZM1015.76,755.56c.79,3.71,1.19,7.37,1.19,10.99h-4.66c0-1.87-.09-3.71-.28-5.52-.19-1.81-.48-3.63-.86-5.47h4.61ZM1032.07,755.56l-1.52,10.99h-4.66l1.33-10.99h4.85ZM1044.44,781.91v-27.73h7.56v26.54l2.33-.33v7.28l-2.33.38v9.13h-7.56v-7.9l-11.22,1.81v-7.56l11.22-1.62ZM1042.25,759.75v7.28l-8.09-4.19v-6.99l8.09,3.9ZM1042.25,772.16v7.37l-8.09-4.28v-6.99l8.09,3.9Z"/><rect class="cls-2" x="646" y="682.9" width="177.91" height="45.46" rx="22.73" ry="22.73"/><path class="cls-4" d="M696.37,696.14l-.07,2.96h.85v-3.28h3.33v3.28h1.52v2.85h4.22v-1.88h-3.58v-3.1h3.58v-1.15h3.63v1.15h3.65v3.1h-3.65v1.88h4.2v3.1h-1.15v1.79h1.15v3.08h-1.15v3.86c0,1.04-.29,1.79-.87,2.25-.49.37-1.22.55-2.18.55h-2.76v-3.47h1.7c.37,0,.55-.18.55-.53v-2.66h-7.35v.23c-.25.12-.51.24-.79.36s-.52.2-.72.26v5.81h-3.33v-4.84c-1.01.21-1.79.37-2.35.48-.56.11-1.08.16-1.57.16v-3.65c.57,0,1.17-.05,1.8-.15.63-.1,1.34-.25,2.12-.45v-5.53h-1.08c0,.44-.02.81-.06,1.1-.04.29-.16.83-.38,1.61h-2.62c.26-1.22.45-2.51.56-3.85.11-1.34.17-3.11.17-5.32h2.62ZM700.48,707.09c.57-.2,1.07-.43,1.52-.69v.44h7.35v-1.79h-7.35v-2.46h-1.52v4.5ZM705.67,710.95l.87,4.52h-3.15l-.85-4.52h3.12Z"/><path class="cls-4" d="M723.53,697.51v-1.7h3.4v1.7h1.88v-1.7h3.38v1.7h5.35v12.88h.73v3.15h-2.09l2.09,3.03h-4.16l-1.98-3.03h-8.24c-.6,1.19-1.26,2.2-1.97,3.03h-4.48c.89-.89,1.68-1.9,2.39-3.03h-2.39v-3.15h.76v-12.88h5.33ZM721.65,703.92h1.95v-3.24h-1.95v3.24ZM721.65,710.4h1.95v-3.38h-1.95v3.38ZM726.93,703.92h1.88v-3.24h-1.88v3.24ZM726.93,710.4h1.88v-3.38h-1.88v3.38ZM732.12,703.92h1.95v-3.24h-1.95v3.24ZM732.12,710.4h1.95v-3.38h-1.95v3.38Z"/><path class="cls-4" d="M757.59,707.27c0,2.65-.57,4.62-1.7,5.9-1.18,1.33-3.04,2-5.58,2h-1.52c-2.53,0-4.37-.66-5.53-1.98-1.16-1.32-1.75-3.29-1.75-5.92v-3.35c0-2.65.62-4.63,1.85-5.95,1.23-1.32,3.04-1.98,5.43-1.98h1.52c2.37,0,4.18.66,5.42,1.98s1.86,3.3,1.86,5.95v3.35ZM753.55,707.27v-3.35c0-1.44-.3-2.46-.9-3.08-.52-.54-1.3-.8-2.34-.8h-1.52c-1.06,0-1.83.26-2.32.78-.6.61-.9,1.65-.9,3.1v3.35c0,1.35.27,2.33.8,2.95.54.62,1.34.93,2.41.93h1.52c1.06,0,1.86-.31,2.41-.93.55-.62.83-1.6.83-2.95Z"/><path class="cls-4" d="M777.13,712.74h-1.86v2.27h-4.04v-2.27h-10.52v-4.27l7.67-12.31h6.89v12.56h1.86v4.02ZM771.23,708.72v-9.51l-5.9,9.51h5.9Z"/><path class="cls-4" d="M346.1,447.46v-6.26h23.97v5.75c-.05,3.83-.65,7.13-1.8,9.89-1.15,2.76-2.52,5.04-4.11,6.82-1.59,1.79-3.27,3.17-5.04,4.16-1.77.99-3.45,1.74-5.04,2.25s-2.89.83-3.89.98c-1,.14-1.52.2-1.54.18v-6.26c2.09-.31,3.9-.76,5.43-1.35,1.54-.59,3.07-1.52,4.59-2.8,1.53-1.28,2.77-2.99,3.73-5.14.96-2.15,1.51-4.89,1.64-8.23h-17.95Z"/><path class="cls-4" d="M396.6,445.43c-.91,1.93-2.04,3.75-3.38,5.45-1.34,1.71-2.58,3.19-3.69,4.44v17.48h-5.24v-13.41c-1.69,1.36-3.33,2.44-4.91,3.27-1.58.82-3.3,1.56-5.18,2.21v-5.36c2.22-.91,4.18-1.89,5.9-2.93,1.72-1.04,3.51-2.48,5.38-4.32,1.86-1.84,3.58-4.11,5.14-6.82h5.98Z"/><path class="cls-4" d="M405.25,445.62l2.35,13.41h-4.11l-2.27-13.41h4.03ZM403.72,471.98v-5.47c2.74-.47,5-1.46,6.78-2.97,1.79-1.51,3.13-3.27,4.03-5.28.9-2.01,1.58-3.96,2.05-5.86.47-1.9.78-3.49.94-4.75.16-1.26.22-1.92.2-1.97h5.24c-.18,2.32-.46,4.4-.82,6.24-.36,1.84-.95,3.82-1.74,5.94-.8,2.13-1.93,4.18-3.4,6.16-1.47,1.98-3.28,3.69-5.43,5.12-2.15,1.43-4.76,2.38-7.84,2.85ZM411.78,445.62l2.42,13.41h-4.18l-2.27-13.41h4.03Z"/><path class="cls-4" d="M428.88,472.37v-32.76h6.18v10.56h16.42v6.14h-16.42v16.07h-6.18Z"/><path class="cls-4" d="M457.36,449.77v-6.02h9.07v-4.3h6.18v4.3h9.81c-.34,1.41-.99,2.97-1.96,4.69-.97,1.72-2.04,3.26-3.23,4.61-1.19,1.36-2.21,2.46-3.07,3.32,1.46,1.15,2.83,2.08,4.12,2.8s2.33,1.24,3.13,1.56c.79.33,1.22.48,1.27.45v6.84c-.05,0-.59-.19-1.6-.57-1.02-.38-2.33-1.02-3.93-1.94-1.6-.91-3.17-1.97-4.71-3.17v10.01h-5.87v-9.46c-1.72,1.2-3.41,2.18-5.06,2.95-1.66.77-3,1.32-4.03,1.66-1.03.34-1.57.51-1.62.51v-6.22c.05,0,.66-.22,1.82-.67,1.16-.44,2.63-1.15,4.4-2.11,1.77-.96,3.55-2.21,5.34-3.73,1.79-1.52,3.42-3.37,4.91-5.53h-14.97Z"/><path class="cls-4" d="M489.24,447.38v-6.29h22.48c-.55,3.02-1.39,5.83-2.52,8.41-1.13,2.58-2.38,4.91-3.73,7,1.17,1.54,2.34,2.94,3.5,4.22,1.16,1.28,2.16,2.26,3.01,2.95.85.69,1.28,1.05,1.31,1.07v7.47c-1.41-1.02-2.68-2.01-3.83-2.97-1.15-.96-2.37-2.13-3.68-3.5-1.3-1.37-2.57-2.87-3.79-4.52-1.59,1.95-3.21,3.65-4.87,5.1-1.66,1.45-3.19,2.61-4.59,3.5-1.41.89-2.54,1.53-3.4,1.94-.86.4-1.3.61-1.33.61v-7c2.27-1.15,4.31-2.55,6.12-4.22,1.81-1.67,3.51-3.56,5.1-5.67,1.59-2.11,3.05-4.81,4.38-8.09h-14.15Z"/><path class="cls-4" d="M518.6,447.03v-6.14h11.46v6.14h-11.46ZM544.6,447.93c-1.3,4.77-3.05,8.65-5.24,11.65-2.19,3-4.46,5.31-6.82,6.94-2.36,1.63-4.59,2.78-6.7,3.46-2.11.68-3.84,1.07-5.18,1.19-1.34.12-2.03.16-2.05.14v-6.37s.56,0,1.6-.06c1.04-.06,2.38-.33,4.01-.8,1.63-.47,3.34-1.37,5.14-2.7,1.8-1.33,3.46-3.02,4.98-5.06,1.53-2.05,2.87-4.84,4.05-8.39h6.22ZM518.6,456.53v-6.14h11.46v6.14h-11.46ZM538.03,446.41v-5.63h2.7v5.63h-2.7ZM542.25,446.41v-5.63h2.7v5.63h-2.7Z"/><path class="cls-4" d="M560.79,440.62c-.89,4.38-1.79,8.28-2.72,11.71-.93,3.43-1.75,6.22-2.48,8.39-.73,2.16-1.21,3.52-1.45,4.07h12.43c-.36-1.8-.9-3.8-1.6-6s-1.56-4.53-2.58-6.98h6.41c1.28,3.13,2.38,6.31,3.3,9.54.92,3.23,1.63,6.43,2.13,9.58h-27.21v-5.83c1.07-2.68,2.01-5.17,2.82-7.47.81-2.29,1.63-4.9,2.46-7.82.83-2.92,1.56-5.98,2.19-9.19h6.29Z"/><path class="cls-4" d="M587.17,453.33v-2.97c-2.11,1.46-4.29,2.71-6.53,3.75-.81-1.69-1.97-3.32-3.48-4.89,3.28-1.38,6.39-3.3,9.31-5.75,2.92-2.45,5.15-4.87,6.68-7.27h6.18c4.3,5.89,9.85,9.94,16.66,12.16-1.04,1.07-2.31,2.84-3.79,5.32-2.09-.96-4.22-2.18-6.41-3.64v3.28h-18.61ZM613.25,461.11h-8.29c1.69,1.54,3.31,3.19,4.85,4.95s2.74,3.36,3.6,4.79l-5.43,3.28c-.11-.23-.59-1.02-1.45-2.35-8.13.44-16.71.87-25.73,1.29l-.78-5.71c.96-.03,3.01-.09,6.14-.2.86-1.8,1.64-3.82,2.35-6.06h-8.6v-5.4h33.35v5.4ZM590.34,448.01h12.55c-2.74-2.09-4.88-4.17-6.41-6.26-1.56,2.09-3.61,4.17-6.14,6.26ZM603.48,461.11h-7.78c-.24.44-.56,1.07-.96,1.88-.4.81-.77,1.54-1.11,2.19-.34.65-.67,1.25-.98,1.8,1.41-.05,4.66-.17,9.77-.35-1.07-1.17-2.12-2.27-3.17-3.28l4.22-2.23Z"/><path class="cls-4" d="M652.57,467.01h-5c3.39,1.04,6.5,2.09,9.35,3.13l-5.2,4.07c-3.6-1.62-7.95-3.14-13.06-4.57l3.67-2.62h-10.09l3.28,2.35c-3.52,2.01-7.68,3.6-12.47,4.77-1.3-1.43-2.78-2.82-4.42-4.14,2.87-.55,5.96-1.54,9.27-2.97h-5.32v-18.14h29.99v18.14ZM651.2,437.22v10.63h-26.74v-10.63h26.74ZM628.37,452.74v1.06h18.1v-1.06h-18.1ZM628.37,457.39v1.06h18.1v-1.06h-18.1ZM628.37,462.04v1.09h18.1v-1.09h-18.1ZM644.98,443.4v-1.72h-14.66v1.72h14.66Z"/><path class="cls-4" d="M669.11,438.24h14.55c0,14.44,5.16,24.66,15.48,30.65-.65.52-1.46,1.32-2.44,2.38-.98,1.07-1.73,1.98-2.25,2.74-6.73-4.04-11.44-10.23-14.16-18.57-3.13,8.55-7.86,14.76-14.19,18.65-.55-.63-1.38-1.44-2.5-2.44-1.12-1-2.06-1.78-2.82-2.33,7.71-3.8,12.64-11.06,14.78-21.78l2.89.55c-.21-1.17-.38-2.49-.51-3.95h-8.84v-5.9Z"/><path class="cls-4" d="M711.62,453.33v-2.97c-2.11,1.46-4.29,2.71-6.53,3.75-.81-1.69-1.97-3.32-3.48-4.89,3.28-1.38,6.38-3.3,9.3-5.75,2.92-2.45,5.15-4.87,6.69-7.27h6.18c4.3,5.89,9.85,9.94,16.66,12.16-1.04,1.07-2.31,2.84-3.79,5.32-2.09-.96-4.22-2.18-6.41-3.64v3.28h-18.61ZM737.69,461.11h-8.29c1.69,1.54,3.31,3.19,4.85,4.95s2.74,3.36,3.6,4.79l-5.43,3.28c-.11-.23-.59-1.02-1.45-2.35-8.13.44-16.71.87-25.73,1.29l-.78-5.71c.96-.03,3.01-.09,6.14-.2.86-1.8,1.64-3.82,2.35-6.06h-8.6v-5.4h33.35v5.4ZM714.78,448.01h12.55c-2.74-2.09-4.88-4.17-6.41-6.26-1.56,2.09-3.61,4.17-6.14,6.26ZM727.92,461.11h-7.78c-.24.44-.56,1.07-.96,1.88-.4.81-.78,1.54-1.11,2.19-.34.65-.67,1.25-.98,1.8,1.41-.05,4.67-.17,9.77-.35-1.07-1.17-2.12-2.27-3.17-3.28l4.22-2.23Z"/><path class="cls-4" d="M782.39,452.31h-4.11v2.97h3.64v5.32h-3.64v7.27c0,1.46-.16,2.58-.49,3.36-.33.78-.92,1.39-1.78,1.84-1.3.65-3.7.98-7.19.98-.21-1.8-.78-3.71-1.72-5.75,1.15.05,2.67.08,4.58.08.31,0,.53-.04.65-.14.12-.09.17-.27.17-.53v-7.12h-6.76c2.01,2.24,3.34,3.95,3.99,5.12l-4.57,3.01c-.7-1.54-2.16-3.6-4.38-6.18l3.13-1.96h-4.15v-1.99l-3.13.98v14.54h-5.32v-13.02c-3,.89-4.89,1.43-5.67,1.64l-1.33-5.55c.91-.18,3.24-.74,7-1.68v-6.65h-2.11c-.42,1.88-.86,3.43-1.33,4.65-1.41-1.09-2.76-1.98-4.07-2.66,1.02-2.71,1.69-6.95,2.03-12.71l4.81.78c-.13,1.49-.28,2.96-.47,4.42h1.13v-7.27h5.32v7.27h2.89v3.6h8.4v-2.5h-6.72v-5.24h6.72v-3.17h5.75v3.17h7v5.24h-7v2.5h8.72v5.36ZM772.5,455.28v-2.97h-13.72v-3.44h-2.15v5.2l3.17-.82.31,2.03h12.39Z"/><path class="cls-4" d="M824.27,459.46v5.51h-10.28c4.09,1.96,7.27,3.66,9.54,5.12l-5.43,3.87c-3.15-2.32-6.7-4.43-10.64-6.33l2.93-2.66h-10.67l3.67,2.5c-1.59,1.2-3.56,2.41-5.9,3.64-2.34,1.23-4.56,2.2-6.65,2.93-1.41-1.49-2.93-2.88-4.57-4.18,3.75-1.15,7.21-2.78,10.36-4.89h-10.21v-5.51h3.91v-18.88h8.17v-4.65h5.4v4.65h2.74v-4.65h5.51v4.65h8.52v18.88h3.6ZM798.51,445.94h-2.58v4.07h2.58v-4.07ZM795.93,455.32v4.14h2.58v-4.14h-2.58ZM806.64,445.94h-2.74v4.07h2.74v-4.07ZM806.64,459.46v-4.14h-2.74v4.14h2.74ZM814.81,445.94h-2.66v4.07h2.66v-4.07ZM812.15,455.32v4.14h2.66v-4.14h-2.66Z"/><path class="cls-4" d="M1135.14,810.23l-6.57,6.58,6.48,6.48-1.2,1.19-6.5-6.48-6.42,6.41-1.19-1.17,6.43-6.42-6.53-6.55,1.2-1.2,6.51,6.53,6.57-6.57,1.22,1.2ZM1123.58,816.83c0,.49-.18.92-.54,1.28-.36.36-.79.54-1.3.54s-.94-.18-1.31-.53c-.37-.35-.55-.78-.55-1.29s.18-.95.55-1.32c.36-.37.8-.56,1.31-.56s.94.18,1.3.55c.36.37.54.81.54,1.33ZM1129.3,811.15c0,.51-.18.94-.55,1.29s-.8.53-1.31.53-.93-.17-1.29-.52-.55-.78-.55-1.3.18-.94.54-1.31c.36-.37.79-.55,1.3-.55s.96.18,1.32.54c.36.36.54.8.54,1.32ZM1129.3,822.41c0,.51-.18.94-.54,1.29-.36.35-.8.53-1.32.53s-.93-.18-1.29-.53c-.37-.35-.55-.78-.55-1.29s.18-.94.55-1.31c.37-.37.8-.55,1.29-.55s.96.18,1.32.53c.36.35.54.8.54,1.33ZM1134.96,816.76c0,.49-.19.93-.57,1.31-.38.38-.82.57-1.33.57s-.94-.19-1.31-.56-.55-.81-.55-1.32.18-.94.55-1.31c.37-.37.8-.55,1.31-.55s.95.18,1.33.54.57.8.57,1.32Z"/><path class="cls-4" d="M1142.52,809.03l-.07,1.33h2.58v-1.58h3.01v1.58h5.72v2.6h-5.72v2.69h6.14v2.6h-4.48v3.06c0,.4.18.6.53.6h1.95c.38,0,.73-.05,1.06-.15.33-.1.64-.27.94-.5v2.73c-.28.19-.59.34-.94.44s-.68.16-1.03.16h-2.97c-.83,0-1.42-.19-1.8-.58-.37-.39-.56-1.02-.56-1.89v-3.86h-1.81c-.22,1.89-.9,3.42-2.02,4.6-1.24,1.29-2.88,1.93-4.94,1.93v-2.89c1.27-.18,2.23-.55,2.87-1.12s1.03-1.41,1.19-2.52h-4.05v-2.6h6.9v-2.69h-3.1c-.11.34-.19.58-.25.71-.17.4-.35.77-.55,1.1h-3.08c.53-.87.94-1.8,1.24-2.77.29-.97.44-1.96.44-2.96h2.78Z"/><path class="cls-4" d="M1162.22,808.81l.43.83h5.12l.32-.83h2.81l-.34.83h2.58v1.68h-6.62v.78h6.2v1.68h-6.2v.76h6.62v1.7h-10.26c-.06.13-.1.24-.13.34-.03.09-.09.22-.19.39h10.16v7.54h-14.07v-3.66c-.49.22-1.01.4-1.56.51v-3.15c1.39-.24,2.36-.89,2.9-1.96h-2.9v-1.7h6.62v-.76h-6.19v-1.68h6.19v-.78h-6.62v-1.68h2.89l-.44-.83h2.69ZM1161.39,818.74v.28h8.58v-.74h-8.21l-.37.46ZM1161.39,821.08h8.58v-.74h-8.58v.74ZM1161.39,823.13h8.58v-.73h-8.58v.73Z"/><path class="cls-4" d="M1188.46,819.77c0,1.35-.45,2.34-1.35,2.97-.9.64-2.24.96-4.02.96h-2.53c-1.58,0-2.78-.41-3.59-1.23-.81-.82-1.22-1.92-1.22-3.3v-.81h3.13v.57c0,.54.18.96.55,1.25s.93.43,1.7.43h1.63c.71,0,1.23-.12,1.58-.36s.51-.56.51-.95v-.46c0-.41-.15-.73-.44-.94-.37-.27-.94-.41-1.72-.41h-2.2v-2.55h2.18c.71,0,1.22-.11,1.55-.33.32-.22.49-.52.49-.89v-.43c0-.85-.64-1.27-1.91-1.27h-1.77c-.71,0-1.23.16-1.57.47-.33.31-.5.75-.5,1.3v.46h-3.15v-.64c0-1.37.44-2.49,1.32-3.37.88-.88,2.07-1.32,3.58-1.32h2.42c1.58,0,2.83.35,3.74,1.04.91.69,1.37,1.69,1.37,3v.57c0,1.24-.57,2.15-1.72,2.73.65.32,1.13.72,1.45,1.2.32.48.48,1.03.48,1.65v.67Z"/><path class="cls-4" d="M1203.43,817.61c0,2.04-.44,3.56-1.31,4.55-.91,1.03-2.34,1.54-4.3,1.54h-1.17c-1.95,0-3.37-.51-4.27-1.52s-1.35-2.54-1.35-4.57v-2.58c0-2.04.47-3.57,1.42-4.58.95-1.01,2.35-1.52,4.19-1.52h1.17c1.83,0,3.22.51,4.18,1.52.96,1.02,1.43,2.54,1.43,4.58v2.58ZM1200.32,817.61v-2.58c0-1.11-.23-1.9-.69-2.37-.4-.41-1-.62-1.81-.62h-1.17c-.81,0-1.41.2-1.79.6-.46.47-.69,1.27-.69,2.39v2.58c0,1.04.21,1.8.62,2.27s1.03.72,1.86.72h1.17c.81,0,1.43-.24,1.86-.72.42-.48.64-1.24.64-2.27Z"/><path class="cls-4" d="M1218.51,817.61c0,2.04-.44,3.56-1.31,4.55-.91,1.03-2.34,1.54-4.3,1.54h-1.17c-1.95,0-3.37-.51-4.27-1.52s-1.35-2.54-1.35-4.57v-2.58c0-2.04.47-3.57,1.42-4.58.95-1.01,2.35-1.52,4.19-1.52h1.17c1.83,0,3.22.51,4.18,1.52.96,1.02,1.43,2.54,1.43,4.58v2.58ZM1215.39,817.61v-2.58c0-1.11-.23-1.9-.69-2.37-.4-.41-1-.62-1.81-.62h-1.17c-.81,0-1.41.2-1.79.6-.46.47-.69,1.27-.69,2.39v2.58c0,1.04.21,1.8.62,2.27s1.03.72,1.86.72h1.17c.81,0,1.43-.24,1.86-.72.42-.48.64-1.24.64-2.27Z"/><path class="cls-4" d="M1236.99,821.54v3.24c-1.71-.43-3.26-1.18-4.64-2.26-1.38-1.08-2.45-2.39-3.22-3.92-.83,1.49-1.96,2.77-3.39,3.84-1.43,1.07-3.03,1.85-4.8,2.34v-3.24c1.96-.61,3.52-1.63,4.67-3.06,1.2-1.5,1.81-3.23,1.81-5.19v-4.51h3.01v4.21c0,1.99.61,3.78,1.81,5.35s2.79,2.64,4.75,3.2Z"/></g></svg>