<?xml version="1.0" encoding="UTF-8"?><svg id="_レイヤー_2" xmlns="http://www.w3.org/2000/svg" xmlns:xlink="http://www.w3.org/1999/xlink" viewBox="0 0 158.77 42.88"><defs><style>.cls-1{fill:url(#_新規グラデーションスウォッチ_7);stroke-width:0px;}</style><linearGradient id="_新規グラデーションスウォッチ_7" x1="0" y1="21.44" x2="158.77" y2="21.44" gradientUnits="userSpaceOnUse"><stop offset="0" stop-color="#ffb300"/><stop offset="1" stop-color="#f50"/></linearGradient></defs><g id="_レイヤー_1-2"><path class="cls-1" d="M42.44.71C26.61.71,3.06,13.76,3.06,26.25c0,2.97,1.33,4.9,3.68,4.9,5.52,0,10.42-4.46,13.64-11.67.15-.33.26-.55.41-.55s.2.11.2.28-.05.49-.2.94c-2.55,7.43-7.81,11.94-13.18,11.94-3.58,0-7.61-3.36-7.61-7.1C0,11.01,25.28,0,42.59,0c8.02,0,12.31,3.74,12.31,8.81,0,6-9.5,14.2-17.67,18.16,3.37,2.59,5.41,6.77,5.41,10.95,0,.38-1.74,2.31-1.99,2.31-.15,0-.25-.16-.25-.61,0-4.29-1.28-9.19-4.29-12.11-2.55,1.16-4.95,1.82-6.79,1.82-1.74,0-3.52-1.21-3.52-2.75,0-1.27,2.04-2.15,3.88-2.15,1.74,0,3.37.38,4.85.99,7.92-3.8,17.57-12.88,17.57-19.04,0-3.08-2.2-5.67-9.65-5.67ZM36.67,3.25c.61,0,2.09,1.81,2.09,2.53,0,.28-.15.55-.61.88-5.31,3.91-19.2,25.81-19.2,35.61,0,.44-.05.61-.2.61-.2,0-1.74-.66-1.74-1.65,0-9.58,16.7-37.98,19.66-37.98ZM26.66,26.42c0,.44.2.83,1.63.83s3.37-.5,5.41-1.38c-1.17-.55-2.5-.88-3.98-.88s-3.06.61-3.06,1.43Z"/><path class="cls-1" d="M59.38,29.17c.15,0,.2.17.2.22,0,.11-.36.5-.51.66,0,0-5.06,5.94-8.99,5.94-2.61,0-3.98-1.76-3.98-4.62,0-4.95,4.6-10.13,6.84-10.13,1.38,0,2.25,1.87,2.25,2.53,0,1.54-3.12,4.46-5.92,6.33-.1.33-.15,1.32-.15,1.71,0,1.71.77,3.14,2.25,3.14,2.71,0,7.71-5.56,7.71-5.56,0,0,.2-.22.31-.22ZM54.12,23.83c0-.44-.15-.61-.41-.61-.87,0-2.86,2.15-4.39,6.16,2.3-1.65,4.8-4.29,4.8-5.56Z"/><path class="cls-1" d="M70.16,35.78c-1.63,0-3.06-1.21-3.06-3.3,0-1.04.15-1.98.15-1.98-2.55,2.7-6.13,6.66-7.3,6.66s-2.96-1.49-2.96-3.19c0-4.4,6.95-12,11.34-12,1.99,0,3.93,1.93,3.93,3.14,0,.88-.26,1.43-.41,1.43s-.46-.33-.46-.55.25-.38.25-1.05c0-.38-.56-.88-.92-.88-4.8,0-11.44,7.71-11.44,11.5,0,.44.2.71.66.71.97,0,4.65-3.8,7.1-6.44,1.53-1.65,2.66-2.75,3.12-2.75s1.84,1.43,1.84,2.31c0,.66-2.25,2.48-2.25,4.18,0,.71.51,1.04,1.12,1.04,2.5,0,7.35-5.23,7.35-5.23.1-.11.21-.22.31-.22.15,0,.2.17.2.22,0,.11-.36.5-.51.66,0,0-5.21,5.72-8.07,5.72Z"/><path class="cls-1" d="M92.71,38.42c.1,0,.2.11.2.22,0,.22-.2.33-.46.33-2.2,0-4.9-2.7-5.01-8.86-3.68,3.91-7.1,6.83-8.73,6.83-.92,0-2.55-1.65-2.55-2.97,0-4.02,5.72-11.12,8.17-11.12,1.69,0,3.06.77,3.06,1.27,0,.16-.1.28-.31.28-2.91,0-8.58,8.14-8.58,11.12,0,.33.21.49.36.49,1.68,0,5-2.86,8.58-6.77.46-8.53,8.07-22.02,12.31-22.02,1.07,0,1.99,1.27,1.99,2.7,0,2.37-5.26,9.69-10.83,16.29-.36,1.43-.72,2.42-.72,5.56,0,3.52,1.28,6.44,2.5,6.66ZM100.27,9.8c-2.55,0-7.1,8.42-9.04,15.08,5.06-6.11,9.6-12.71,9.6-14.47,0-.33-.2-.61-.56-.61Z"/><path class="cls-1" d="M109.92,25.87c0,.66-2.86,4.96-3.12,5.72,0,0,8.83-9.69,10.11-9.69.87,0,2.66,1.32,2.66,3.14s-3.12,5.01-3.12,5.61c0,0,5.77-4.62,6.69-4.62.82,0,1.84,1.87,1.84,3.52s-3.17,3.85-3.17,6.11c0,.39.2.61.56.61,2.5,0,8.58-6.88,8.58-6.88,0,0,.15-.22.31-.22s.26.17.26.22c0,.11-.41.5-.56.66,0,0-6.43,7.21-8.89,7.21-1.12,0-2.71-1.38-2.71-3.08,0-2.31,3.52-6,3.52-6.88,0-.11-.1-.22-.2-.22-.51,0-3.98,2.31-5.77,4.18-1.23,1.27-2.15,2.48-2.45,2.48-.61,0-1.58-1.27-1.58-1.98,0-1.54,4.34-7.32,4.34-8.64,0-.16-.05-.22-.15-.22-1.58,0-9.24,8.37-10.73,10.35-1.48,1.93-1.84,2.97-2.35,2.97-.46,0-1.58-1.04-1.58-2.42,0-2.2,3.27-6.33,5.26-10.35.15-.28.31-.44.51-.44.71,0,1.74,1.43,1.74,2.86Z"/><path class="cls-1" d="M143.29,29.17c.15,0,.2.17.2.22,0,.11-.36.5-.51.66,0,0-5.06,5.94-8.99,5.94-2.61,0-3.98-1.76-3.98-4.62,0-4.95,4.6-10.13,6.84-10.13,1.38,0,2.25,1.87,2.25,2.53,0,1.54-3.12,4.46-5.92,6.33-.1.33-.15,1.32-.15,1.71,0,1.71.77,3.14,2.25,3.14,2.71,0,7.71-5.56,7.71-5.56,0,0,.2-.22.31-.22ZM138.03,23.83c0-.44-.15-.61-.41-.61-.87,0-2.86,2.15-4.39,6.16,2.3-1.65,4.8-4.29,4.8-5.56Z"/><path class="cls-1" d="M145.75,33.41c0,.28-1.58,1.71-1.58,2.75,0,.17-.1.28-.25.28-.26,0-1.43-.88-1.43-1.54,0-.94.97-3.08,1.63-3.08.71,0,1.63,1.21,1.63,1.6ZM158.77,6.44c0,.38-.66,1.27-.87,1.65-3.93,7.38-10.83,19.38-11.49,21.8-.05.22-.1.27-.25.27s-.66-.71-.66-1.48c0-2.26,10.52-22.46,10.52-24.77,0-.22.1-.28.2-.28.56,0,2.55,2.04,2.55,2.81Z"/></g></svg>