<?xml version="1.0" encoding="UTF-8"?><svg id="_レイヤー_2" xmlns="http://www.w3.org/2000/svg" viewBox="0 0 151.16 40.21"><defs><style>.cls-1{fill:#000;stroke-width:0px;}</style></defs><g id="_レイヤー_1-2"><path class="cls-1" d="M5.54,27.73c-3.14,0-5.54-1.2-5.54-4.57,0-4.1,7.47-7.57,9.44-8.41.9-.4,1.17-.83,1.17-1.2,0-1.3-4.34-2.04-4.34-4.17,0-4.71,8.88-6.84,12.31-6.84,2.44,0,3.64.87,3.77,2.04,0,0-.1,2.17-1.63,2.17-.03-2.2-1.7-3.1-4.17-3.1-3.44,0-7.81,2-7.81,4.5,0,2.07,3.67,3,3.67,4.87,0,.77-.47,1.04-2.57,2.17-3.67,1.97-7.34,4.14-7.34,7.74,0,2.74,2.07,3.84,4.91,3.84,3.37,0,7.84-1.54,11.28-3.74,1-.63,1.8-1.3,1.94-1.4.07-.03.1-.07.17-.07.1,0,.2.07.2.2,0,.07-.03.17-.1.23-.13.13-.77.63-1.64,1.23-2.67,1.87-9.01,4.51-13.71,4.51Z"/><path class="cls-1" d="M32.46,21.59s-.27,1.37-.27,1.94c0,1.3.57,1.77,1.37,1.77,2,0,5.57-2.87,6.47-3.6.07-.03.1-.07.17-.07.1,0,.2.07.2.2,0,.07-.03.17-.1.23-1.9,1.67-5.71,4.27-7.94,4.27-1.07,0-1.8-.6-1.8-2.2,0-.47-.03-1.37-.03-1.37-1.7,1.87-5.21,3.77-7.94,3.77-1.57,0-2.27-.57-2.27-1.33,0-1.97,4.41-5.41,10.25-5.41.17,0,.3.03.37.03.2.03.27.1.27.17,0,.1-.17.23-.33.23-5.34.13-8.21,2.87-8.21,4.44,0,.63.5,1.1,1.47,1.1,2.27,0,5.74-2.44,6.74-4.07.17-.27.7-.47,1.1-.47,0,0,.5,0,.5.37Z"/><path class="cls-1" d="M48.18,21.22c0,1.47-1.74,3.57-3.94,4.51,2.47-.13,6.01-1.7,8.68-4.04.07-.03.1-.07.17-.07.1,0,.2.07.2.2,0,.07-.03.17-.1.23-3.14,2.9-7.48,4.57-10.35,4.57-1.47,0-2.54-.43-2.9-1.3-.07-.17-.1-.3-.1-.47,0-.63.83-1.1,1.3-1.1.17,0,.23.07.23.27.4,1.07,1.07,1.54,1.77,1.54,1.27,0,2.6-1.4,2.6-3.27,0-1.4-.63-1.94-1.54-1.94s-2.3.63-4.07,1.9c-.23.17-.43.23-.53.23s-.17-.07-.17-.13c0-.1.07-.2.2-.3,0,0,3.2-2.87,6.54-2.87,1.17,0,2,.53,2,2.04Z"/><path class="cls-1" d="M57.63,21.76c0,.6-.8,2.44-.8,2.97,0,.43.23.67.7.67,1.04,0,3.44-2.37,4.81-3.47.17-.17.47-.27.73-.27s.5.13.5.5c-.5,2-1.24,4.07-2.1,6.11,2.2-2.24,4.5-4.37,6.61-5.94.07-.07.23-.17.4-.17.13,0,.3.07.3.13,0,.03-.03.07-.07.1l-.43.33c-2.3,1.84-4.91,4.21-7.24,6.54-2.6,5.87-6.07,10.95-7.38,10.95-.33,0-.53-.37-.53-1.13,0-1.37,2.7-4.74,5.97-8.31,1.2-2.74,2.1-5.47,2.14-7.04,0-.07,0-.1-.03-.1-.37,0-3.04,2.8-5.54,2.8-.67,0-1.47-.37-1.47-1.13,0-1.57,1.67-2.74,1.67-3.74,0-.33-.2-.5-.6-.5-.6,0-1.64.43-2.84,1.3-.13.1-.23.13-.3.13-.1,0-.17-.1-.17-.2,0-.07.03-.17.13-.23,1.2-1.07,2.77-1.83,3.91-1.83.9,0,1.63.53,1.63,1.53ZM54.03,39.28c.67,0,2.8-3.6,4.61-7.48-2.7,2.94-4.81,5.61-4.81,7.01,0,.33.07.47.2.47Z"/><path class="cls-1" d="M79.96,17.75c1.84-3.97,4.54-7.84,7.17-7.84.8,0,1.17.43,1.17,1.13,0,1.3-1.2,3.5-3,5.81,3.04-.6,5.84-1.33,7.01-2.04.27.1.4.27.4.47,0,.47-.6,1.1-1.3,1.23-.73.13-3.57.63-6.74,1.1-1.33,1.57-2.94,3.17-4.57,4.44-.33,1.3-.53,2.44-.53,3.1,0,.5.1.77.4.77.03,0,.2-.03.23-.07.03,0,.07.03.07.1,0,.2-.37.73-1.3.73-.8,0-1.3-.5-1.3-1.37,0-1.4.8-4.21,2.07-7.04-1.8.2-3.4.33-4.5.33-.57,0-.8,0-.8-.17,0-.27.67-.27.97-.27.83,0,2.54-.17,4.57-.43ZM81.37,18.05c-.47,1.2-.83,2.4-1.13,3.47.97-.73,2.3-2.17,3.54-3.77l-2.4.3ZM86.77,10.38c-1.8,0-3.8,3.47-5.21,7.11.87-.13,1.8-.27,2.74-.43,1.7-2.3,3.14-4.81,3.14-5.97,0-.43-.2-.7-.67-.7Z"/><path class="cls-1" d="M82.4,24.39c0-1.97,2.9-4.61,7.94-4.61.17,0,.3.03.37.03.2.03.27.1.27.17,0,.1-.17.23-.33.23-4.47.13-6.27,2.13-6.27,3.77,0,1.1.83,2.04,2.2,2.04,2.57,0,4-1.8,4-3.17,0-.5-.07-1.07-.17-1.33-.03-.13-.07-.2-.07-.3,0-.4,1.1-1.33,1.47-1.33.13,0,.2.03.2.13,0,1.87,1.17,2.74,2.57,2.74.93,0,1.97-.4,2.84-1.13.07-.03.1-.07.17-.07.1,0,.2.07.2.2,0,.07-.03.17-.1.23-1.07.97-2.34,1.57-3.67,1.57-.53,0-1.07-.1-1.57-.3-.87,1.67-3.5,3.3-6.64,3.3-2.34,0-3.4-.97-3.4-2.17Z"/><path class="cls-1" d="M112.57,0c2.6,0,4.64.93,4.64,3.07,0,6.31-9.58,15.68-9.58,21.26,0,1.13.8,1.57,1.97,1.57,2.27,0,5.64-2.44,8.84-5.57,2.34-5.87,6.64-13.48,9.31-13.48.47,0,.7.27.7.73,0,1.87-3.5,6.97-7.88,11.48-.9,2.5-1.5,4.81-1.5,6.24,0,.53.17.8.43.83.07,0,.1.03.1.07,0,.3-1.77.73-2.17.73-.33,0-.6-.13-.6-.77,0-.97.4-2.64,1.13-4.61-3.37,3-6.94,5.27-9.64,5.27-1.33,0-2.7-.7-2.7-2.6,0-6.14,10.04-16.75,10.04-21.39,0-1.57-1.33-2.27-3.14-2.27-3.84,0-9.84,3.1-9.84,7.47,0,.54.2,1.07.9,1.13.1.07.13.17.13.27s-.03.2-.17.2c-1.74,0-2.54-.87-2.54-2.2,0-4.37,6.77-7.44,11.55-7.44ZM127.62,7.34c-1.5,0-4.41,5.14-6.41,10.14,3.74-4.14,6.74-8.51,6.74-9.78,0-.23-.1-.37-.33-.37Z"/><path class="cls-1" d="M131.49,21.22c0,1.47-1.74,3.57-3.94,4.51,2.47-.13,6.01-1.7,8.68-4.04.07-.03.1-.07.17-.07.1,0,.2.07.2.2,0,.07-.03.17-.1.23-3.14,2.9-7.48,4.57-10.35,4.57-1.47,0-2.54-.43-2.9-1.3-.07-.17-.1-.3-.1-.47,0-.63.83-1.1,1.3-1.1.17,0,.23.07.23.27.4,1.07,1.07,1.54,1.77,1.54,1.27,0,2.6-1.4,2.6-3.27,0-1.4-.63-1.94-1.54-1.94s-2.3.63-4.07,1.9c-.23.17-.43.23-.53.23s-.17-.07-.17-.13c0-.1.07-.2.2-.3,0,0,3.2-2.87,6.54-2.87,1.17,0,2,.53,2,2.04Z"/><path class="cls-1" d="M140.48,26.83c-2.77,0-4.57-1.27-4.57-2.74,0-.73.37-1.43.93-2.04-.33-.1-.63-.23-.93-.4-.07-.03-.1-.1-.1-.13,0-.1.1-.17.27-.17.1,0,.23.03.4.1l.73.23c1.54-1.3,4.07-2.1,5.84-2.1,1.13,0,1.94.33,1.94,1.07,0,1.37-1.87,2.07-4.17,2.07-.8,0-1.63-.07-2.44-.23-.2.37-.3.8-.3,1.24,0,1.5,1.2,2.17,2.97,2.17,2.67,0,6.67-1.57,9.74-4.2.07-.07.1-.07.17-.07.1,0,.2.07.2.2,0,.07-.03.17-.1.23-4,3.5-7.78,4.77-10.58,4.77ZM138.61,22.06c.8.17,1.4.23,1.87.23,1.5,0,2.54-.9,2.54-1.54,0-.33-.3-.63-1-.63-1,0-2.57.73-3.4,1.93Z"/></g></svg>