<?xml version="1.0" encoding="UTF-8"?><svg id="_レイヤー_2" xmlns="http://www.w3.org/2000/svg" xmlns:xlink="http://www.w3.org/1999/xlink" viewBox="0 0 164.96 91.8"><defs><style>.cls-1{fill:#000;}.cls-2{fill:url(#_新規グラデーションスウォッチ_7);stroke-width:0px;}</style><linearGradient id="_新規グラデーションスウォッチ_7" x1="0" y1="69.53" x2="164.96" y2="69.53" gradientUnits="userSpaceOnUse"><stop offset="0" stop-color="#ffb300"/><stop offset="1" stop-color="#f50"/></linearGradient></defs><g id="_レイヤー_1-2"><path class="cls-1" d="M93.3,7.38c-.33-.84-.72-1.44-1.35-2.07-.63-.63-1.23-1.02-2.07-1.35-.63-.25-1.59-.54-3.34-.62-1.9-.09-2.47-.11-7.27-.11s-5.38.02-7.27.11c-1.76.08-2.71.37-3.34.62-.84.33-1.44.72-2.07,1.35-.63.63-1.02,1.23-1.35,2.07-.25.63-.54,1.59-.62,3.34-.09,1.9-.1,2.47-.1,7.27s.02,5.38.1,7.27c.08,1.76.37,2.71.62,3.34.33.84.72,1.44,1.35,2.07.63.63,1.23,1.02,2.07,1.35.63.25,1.59.54,3.34.62,1.9.09,2.47.11,7.27.11s5.38-.02,7.27-.11c1.76-.08,2.71-.37,3.34-.62.84-.33,1.44-.72,2.07-1.35.63-.63,1.02-1.23,1.35-2.07.25-.63.54-1.59.62-3.34.09-1.9.11-2.47.11-7.27s-.02-5.38-.11-7.27c-.08-1.76-.37-2.71-.62-3.34ZM79.27,27.24c-5.11,0-9.24-4.14-9.24-9.24s4.14-9.24,9.24-9.24,9.24,4.14,9.24,9.24-4.14,9.24-9.24,9.24ZM88.88,10.55c-1.19,0-2.16-.97-2.16-2.16s.97-2.16,2.16-2.16,2.16.97,2.16,2.16-.97,2.16-2.16,2.16ZM79.27,12c-3.31,0-6,2.69-6,6s2.69,6,6,6,6-2.69,6-6-2.69-6-6-6ZM97.16,25.42c-.09,1.92-.39,3.22-.84,4.37-.46,1.18-1.08,2.19-2.08,3.19-1,1-2,1.62-3.19,2.08-1.14.44-2.45.75-4.37.84-1.92.09-2.53.11-7.42.11s-5.5-.02-7.42-.11c-1.92-.09-3.22-.39-4.37-.84-1.18-.46-2.19-1.08-3.19-2.08-1-1-1.62-2-2.08-3.19-.44-1.14-.75-2.45-.84-4.37-.09-1.92-.11-2.53-.11-7.42s.02-5.5.11-7.42c.09-1.92.39-3.22.84-4.37.46-1.18,1.08-2.19,2.08-3.19,1-1,2-1.62,3.19-2.08,1.14-.44,2.45-.75,4.37-.84,1.92-.09,2.53-.11,7.42-.11s5.5.02,7.42.11c1.92.09,3.22.39,4.37.84,1.18.46,2.19,1.08,3.19,2.08,1,1,1.62,2,2.08,3.19.44,1.14.75,2.45.84,4.37.09,1.92.11,2.53.11,7.42s-.02,5.5-.11,7.42Z"/><path class="cls-2" d="M45.5,51.78c0,.28-1.69,1.49-5.31,1.49-1.17,0-2.91-.17-4.55-.44-3.12,3.63-5.41,9.03-7.61,14.64,2.35-.33,3.58-.88,3.58-.88,0,0,1.33-1.27,1.89-1.27.51,0,.87,1.32.87,1.71,0,.33-3.42.44-5.46,4.9-.1.22-.15.33-.31.33-.1,0-.15-.11-.15-.22,0-.17.05-.33.1-.5.77-2.09,2.6-3.96,2.6-3.96,0,0-1.48.66-3.52.99-4.44,11.34-8.94,23.23-20.38,23.23-3.98,0-7.25-2.64-7.25-3.14,0-.11.1-.22.2-.22.15,0,1.12,1.32,4.34,1.32,10.01,0,15.02-10.46,20.02-21.03-7.25.22-11.39,4.46-11.39,6.71,0,.16-.1.22-.21.22-.15,0-.31-.55-.31-1.32,0-4.35,4.03-6.49,9.75-6.49.97,0,1.79,0,2.55-.05,2.71-5.72,5.52-11.39,9.09-15.3-3.01-.55-6.79-1.16-11.44-1.16-10.01,0-15.12,3.91-15.12,9.63,0,.16-.1.22-.26.22-.31,0-1.58-1.48-1.58-3.63,0-5.45,5.57-7.54,13.69-7.54,6.13,0,10.98,1.1,15.37,1.87,2.81-2.81,6.13-4.62,10.32-4.62.66,0,1.12.66,1.12.94,0,.11-.05.17-.1.17-.1,0-.51-.22-.97-.22-3.63,0-6.43,1.54-8.78,3.96,1.63.28,3.17.38,4.7.38,3.68,0,4.19-1.1,4.34-1.04.1,0,.15.22.15.33Z"/><path class="cls-2" d="M38.35,81.39c-1.48,1.27-2.86,1.98-3.52,1.98-1.23,0-3.42-1.32-3.42-3.85,0-1.1.2-2.09.56-3.03,0-.11-.05-.22-.05-.38,0-4.68,4.7-8.04,7.41-8.04,2.3,0,3.98,1.6,3.98,3.91,0,3.63-2.2,6.77-4.39,8.86,3.06-.22,5.72-2.48,7.3-4.18,0,0,.15-.22.31-.22s.26.17.26.22c0,.11-.41.5-.56.66-1.53,1.49-3.93,3.91-7.86,4.07ZM38,70.06c.61,0,1.63,1.54,1.63,2.09,0,.33-.36.55-.66.72-1.89,1.21-4.49,3.63-5.62,6.05.87,1.21,2.4,1.93,4.24,2.04,2.15-2.04,4.24-5.56,4.24-9.14,0-1.82-.97-2.97-2.96-2.97s-5.62,2.53-6.23,6.17c.82-1.43,1.94-2.53,3.01-3.52.82-.77,1.69-1.43,2.35-1.43ZM32.89,80.9c0,.99.56,1.82,1.43,1.82.77,0,1.79-.5,2.81-1.32-1.68-.16-3.12-.77-4.03-1.82-.15.44-.2.88-.2,1.32Z"/><path class="cls-2" d="M56.12,77.1c2.5-9.63,9.86-22.79,13.43-22.79,1.48,0,2.66,1.43,2.66,3.03,0,3.74-8.22,13.65-13.18,18.66,0,0-.97,2.86-.97,5.12,0,1.32.56,1.76,1.28,1.76,2.04,0,8.38-6.22,8.38-6.22.1-.11.21-.22.31-.22.15,0,.2.17.2.22,0,.11-.36.5-.51.66,0,0-6.64,6.77-9.45,6.77-1.38,0-2.55-1.1-2.55-3.36,0-.55.2-2.15.36-2.86-2.15,1.98-6.33,6.77-8.27,6.77-1.38,0-2.55-1.1-2.55-3.36,0-10.46,9.55-25.54,13.43-25.54,1.48,0,2.66,1.43,2.66,3.03,0,3.74-7.56,12.22-12.51,17.23,0,0-1.23,3.41-1.23,5.67,0,1.32.56,1.76,1.28,1.76,1.38,0,5.26-4.46,7.25-6.33ZM60.41,58.72c0-.49-.31-.71-.66-.71-2.86,0-9.19,11.34-10.52,16.73,3.98-4.24,11.18-12.66,11.18-16.02ZM71.29,57.29c0-.5-.31-.72-.66-.72-2.86,0-9.86,12.77-11.18,18.16,3.98-4.24,11.85-14.09,11.85-17.45Z"/><path class="cls-2" d="M73.5,81.39c-1.48,1.27-2.86,1.98-3.52,1.98-1.23,0-3.42-1.32-3.42-3.85,0-1.1.2-2.09.56-3.03,0-.11-.05-.22-.05-.38,0-4.68,4.7-8.04,7.41-8.04,2.3,0,3.98,1.6,3.98,3.91,0,3.63-2.2,6.77-4.39,8.86,3.06-.22,5.72-2.48,7.3-4.18,0,0,.15-.22.31-.22s.25.17.25.22c0,.11-.41.5-.56.66-1.53,1.49-3.93,3.91-7.86,4.07ZM73.14,70.06c.61,0,1.63,1.54,1.63,2.09,0,.33-.36.55-.66.72-1.89,1.21-4.49,3.63-5.62,6.05.87,1.21,2.4,1.93,4.24,2.04,2.15-2.04,4.24-5.56,4.24-9.14,0-1.82-.97-2.97-2.96-2.97s-5.62,2.53-6.23,6.17c.82-1.43,1.94-2.53,3.01-3.52.82-.77,1.69-1.43,2.35-1.43ZM68.03,80.9c0,.99.56,1.82,1.43,1.82.77,0,1.79-.5,2.81-1.32-1.68-.16-3.12-.77-4.03-1.82-.15.44-.2.88-.2,1.32Z"/><path class="cls-2" d="M84.8,69.29c.77,0,1.89,1.21,1.89,2.64,0,2.37-4.8,7.27-4.8,10.84,0,.33.2.55.46.55.87,0,4.29-3.25,6.95-7.54.92-1.32,1.33-2.48,1.74-2.48.36,0,2.09,1.27,2.09,2.2,0,.88-1.63,3.03-1.63,4.84,0,.83.46,1.32,1.02,1.32,2.71,0,5.62-6.66,5.62-10.51,0-2.42-.56-2.81-.56-3.19,0-.11.05-.17.15-.17.51,0,2.04.88,2.04,2.92,0,3.96-4.44,11.67-7.35,11.67-1.79,0-3.27-1.27-3.27-3.41,0-.61.2-2.09.2-2.09,0,0-5.11,7.21-6.64,7.21-1.28,0-2.86-1.54-2.86-3.63,0-3.47,4.55-7.59,4.55-10.79,0-.28.1-.38.41-.38Z"/><path class="cls-2" d="M116.1,73.14c0,.66-2.86,4.96-3.12,5.72,0,0,8.83-9.69,10.11-9.69.87,0,2.66,1.32,2.66,3.14s-3.12,5.01-3.12,5.61c0,0,5.77-4.62,6.69-4.62.82,0,1.84,1.87,1.84,3.52s-3.17,3.85-3.17,6.11c0,.39.2.61.56.61,2.5,0,8.58-6.88,8.58-6.88,0,0,.15-.22.31-.22s.26.17.26.22c0,.11-.41.5-.56.66,0,0-6.43,7.21-8.89,7.21-1.12,0-2.71-1.38-2.71-3.08,0-2.31,3.52-6,3.52-6.88,0-.11-.1-.22-.2-.22-.51,0-3.98,2.31-5.77,4.18-1.23,1.27-2.15,2.48-2.45,2.48-.61,0-1.58-1.27-1.58-1.98,0-1.54,4.34-7.32,4.34-8.64,0-.16-.05-.22-.15-.22-1.58,0-9.24,8.37-10.73,10.35-1.48,1.93-1.84,2.97-2.35,2.97-.46,0-1.58-1.04-1.58-2.42,0-2.2,3.27-6.33,5.26-10.35.15-.28.31-.44.51-.44.71,0,1.74,1.43,1.74,2.86Z"/><path class="cls-2" d="M149.48,76.44c.15,0,.2.17.2.22,0,.11-.36.5-.51.66,0,0-5.06,5.94-8.99,5.94-2.61,0-3.98-1.76-3.98-4.62,0-4.95,4.6-10.13,6.84-10.13,1.38,0,2.25,1.87,2.25,2.53,0,1.54-3.12,4.46-5.92,6.33-.1.33-.15,1.32-.15,1.71,0,1.71.77,3.14,2.25,3.14,2.71,0,7.71-5.56,7.71-5.56,0,0,.2-.22.31-.22ZM144.22,71.1c0-.44-.15-.61-.41-.61-.87,0-2.86,2.15-4.39,6.16,2.3-1.65,4.8-4.29,4.8-5.56Z"/><path class="cls-2" d="M151.93,80.68c0,.28-1.58,1.71-1.58,2.75,0,.17-.1.28-.25.28-.26,0-1.43-.88-1.43-1.54,0-.94.97-3.08,1.63-3.08.71,0,1.63,1.21,1.63,1.6ZM164.96,53.71c0,.38-.66,1.27-.87,1.65-3.93,7.38-10.83,19.38-11.49,21.8-.05.22-.1.27-.25.27s-.66-.71-.66-1.48c0-2.26,10.52-22.46,10.52-24.77,0-.22.1-.28.2-.28.56,0,2.55,2.04,2.55,2.81Z"/></g></svg>