<?xml version="1.0" encoding="UTF-8"?><svg id="_レイヤー_2" xmlns="http://www.w3.org/2000/svg" viewBox="0 0 243.76 52.48"><defs><style>.cls-1{fill:#000;}.cls-1,.cls-2{stroke-width:0px;}.cls-2{fill:#0076bd;}</style></defs><g id="_レイヤー_1-2"><path class="cls-2" d="M23.15,21.7c7.77-6.4,16.76-8.34,19.33-5.51,4.64,5.1-6.45,15.43-11.99,19.1-12.18,8.08-24.81,10.34-28.9,5.29-4.19-5.17-.36-15.91,14.36-27.34C29.73,2.56,54.27-4.08,62.26,2.82c8.04,6.96.66,25.82-23.14,38.65-14.67,7.91-34.96,11.07-35.19,11,1.05-.12,19.9-4.48,32.71-13.28,11.69-8.02,22.27-21.59,15.63-28.95-4.82-5.33-19.74-3.02-32.96,6.16-8.55,5.93-14.85,14.33-11.64,19.03,2.37,3.45,10.52,3.78,20.12-3.03,4.49-3.2,8.48-7.74,7.05-10.08-1.29-2.11-5.85-1.22-9.51.57-5.18,2.55-9.68,7.1-9.68,7.1,0,0,1.9-3.7,7.5-8.31"/><path class="cls-1" d="M120.6,24.93h7.47l-2.13,10.06c-.75,3.5.24,4.59,2.57,4.59s3.79-1.09,4.53-4.59l2.14-10.06h7.32l-2.28,10.72c-.62,2.89-1.43,4.11-2.9,5.35-2.26,1.93-5.64,2.75-9.77,2.75s-7.17-.81-8.61-2.75c-.93-1.25-1.23-2.47-.61-5.35l2.28-10.72ZM164.78,24.93h7.71l-3.89,18.34h-7.72l3.9-18.34ZM148.81,29.4h-5.39l.95-4.48h18.32l-.95,4.48h-5.2l-2.94,13.87h-7.73l2.95-13.87ZM243.76,40.98c0,1.42-1.14,2.55-2.52,2.55-1.4-.01-2.53-1.15-2.53-2.55,0-1.42,1.18-2.53,2.53-2.53,1.39,0,2.52,1.13,2.52,2.52,0,0,0,0,0,.01M239.01,40.98c0,1.26,1.01,2.25,2.23,2.25s2.23-1.01,2.23-2.25c0-1.23-1-2.22-2.23-2.22-1.23,0-2.22,1-2.23,2.22M240.31,39.6h.96c.2,0,.93,0,.93.68l-.51.66.41.52.17.86h-.4l-.13-.71-.58-.52h-.47v1.24h-.37v-2.73h0ZM240.68,40.76h.59l.53-.41-.53-.43h-.59v.84ZM176.86,24.91h7.72l-2.94,13.88h6.86l-.95,4.47h-14.59l3.9-18.35ZM193.09,24.91h7.47l-2.14,10.07c-.74,3.51.24,4.6,2.58,4.6s3.79-1.09,4.54-4.6l2.14-10.07h7.32l-2.28,10.72c-.62,2.9-1.43,4.12-2.9,5.36-2.26,1.92-5.63,2.75-9.78,2.75s-7.17-.82-8.61-2.75c-.93-1.25-1.23-2.47-.62-5.36l2.28-10.72ZM223.19,37.36c-.19,1.01-.15,1.75.23,2.23.41.48,1.04.74,2.06.74,1.6,0,3.41-.38,3.73-1.85l-.15-.84c-.79-1.17-9.37-2.03-11.38-4.19-.82-.86-.84-2.16-.62-3.2.85-4.01,4.92-5.82,12.26-5.82,7.81,0,9.7,2.16,9,5.94h-7.56c.17-1.01-.03-1.65-.51-2.03-.46-.38-1.19-.51-2.16-.51-1.63,0-2.62.61-2.82,1.55l.15.83c.96,1.14,9.27,1.96,11.25,4.15.58.63,1.1,1.63.73,3.41-.77,3.63-4.48,5.97-12.83,5.97-9.96,0-9.81-2.98-9.24-6.38h7.88ZM72.38,29.71h-.05s-2.88,13.52-2.88,13.52h-6.71l3.9-18.35h11.16l3.14,10.78c.18.56.35,1.33.41,2.3h.05s2.8-13.08,2.8-13.08h6.71l-3.9,18.35h-10.95l-3.39-11.68c-.14-.51-.28-1.4-.29-1.84M101.89,24.88h9.63l5.45,18.35h-8.51l-.7-3.05h-9.48l-2.07,3.05h-7.57l13.25-18.35ZM105.43,29.49h-.08l-1.2,2.01-3.16,4.66h5.82l-1.17-5.08-.2-1.59Z"/><path class="cls-2" d="M51.91,41c0,1.4-1.13,2.54-2.53,2.54-1.4,0-2.53-1.14-2.53-2.54,0-1.42,1.17-2.53,2.53-2.53,1.39,0,2.53,1.13,2.53,2.52,0,0,0,0,0,0M47.15,41c0,1.23.99,2.24,2.22,2.25,0,0,0,0,.01,0,1.24-.04,2.21-1.07,2.17-2.31-.04-1.18-.99-2.14-2.17-2.17-1.23,0-2.22,1-2.23,2.23M48.46,39.61h.96c.2,0,.93,0,.93.68,0,.08,0,.51-.51.66l.42.52.16.86h-.38l-.14-.71-.59-.52h-.47v1.24h-.38v-2.72ZM48.84,40.78h.59l.54-.41-.54-.43h-.59v.84Z"/></g></svg>