<?xml version="1.0" encoding="UTF-8"?><svg id="_レイヤー_2" xmlns="http://www.w3.org/2000/svg" viewBox="0 0 158.77 67.99"><defs><style>.cls-1{fill:#000;stroke-width:0px;}</style></defs><g id="_レイヤー_1-2"><path class="cls-1" d="M29.79,23.59c4.67-.89,6.67.65,6.67,1.91,0,1.38-1.61,3.28-2.91,3.53,0,0-.55,0-.55-.5,0-3.03-3.41-3.42-5.97-2.93C13.59,28.18,3.76,47.46,3.76,58.52c0,6.11,4.06,7.97,9.33,6.96,4.21-.81,9.13-3.4,13.34-7.18,1.5-1.33,2.71-2.67,2.91-2.87.1-.07.15-.14.25-.16.15-.03.3.05.3.27,0,.11-.05.28-.15.41-.2.26-1.15,1.27-2.46,2.51-3.56,3.43-11.14,8.02-17.4,9.23-5.42,1.04-9.88-.47-9.88-7.52,0-11.94,13.39-33.44,29.79-36.59Z"/><path class="cls-1" d="M31.06,62.97c-.8.15-1.55.02-1.55-.8,0-.11,0-.28.05-.39.85-4.24,2.01-8.15,3.36-11.71l-.9.17c-1.61.31-1.96.32-1.96.32-.25.05-.45-.08-.45-.3s.25-.54.95-.68l2.71-.52c6.47-16.49,17.2-25.92,23.17-27.06,2.66-.51,4.36.65,4.36,3.46,0,6.22-10.03,19.26-24.88,23.81-1.15,3.25-2.11,6.79-2.81,10.5,0,0,0,.5.3.44,1.05-.2,8.58-7.42,11.59-8,3.66-.7,2.76,5.03,4.82,4.64,2.56-.49,8.28-6.49,8.78-7.02.1-.07.15-.14.25-.16.15-.03.3.05.3.27,0,.11-.05.28-.15.41-.6.78-8.08,8.32-11.49,8.97-2.66.51-1.05-5.58-4.41-5.04-3.16.61-9.43,8.19-12.04,8.69ZM36.27,48.32c13.04-4.1,21.67-16.59,21.67-22.15,0-2.2-1.1-3.09-2.81-2.76-4.51.87-13.44,10.01-18.86,24.92Z"/><path class="cls-1" d="M64.76,57.23c-4.16.8-6.87-.77-6.87-3.2,0-1.21.55-2.47,1.4-3.63-.5-.07-.95-.2-1.4-.39-.1-.04-.15-.14-.15-.19,0-.17.15-.3.4-.35.15-.03.35-.01.6.05l1.1.17c2.31-2.59,6.12-4.64,8.78-5.15,1.71-.33,2.91,0,2.91,1.2,0,2.26-2.81,3.95-6.27,4.62-1.2.23-2.46.36-3.66.32-.3.66-.45,1.41-.45,2.12,0,2.48,1.81,3.23,4.46,2.72,4.01-.77,10.03-4.51,14.65-9.74.1-.13.15-.14.25-.16.15-.03.3.05.3.27,0,.11-.05.29-.15.42-6.02,6.93-11.69,10.11-15.9,10.92ZM61.96,49.89c1.2.04,2.11-.02,2.81-.15,2.26-.43,3.81-2.22,3.81-3.26,0-.55-.45-.96-1.5-.76-1.5.29-3.86,1.95-5.12,4.17Z"/><path class="cls-1" d="M87.29,51.42c4.06-.78,9.83-4.14,15.05-9.87.1-.13.15-.14.25-.16.15-.03.3.05.3.27,0,.11-.05.28-.15.41-6.12,7.01-12.19,10.21-16.7,11.07-4.46.86-7.42-.61-7.42-3.04,0-4.84,7.02-8.78,11.69-9.67,2.31-.44,4.01-.16,4.01,1.16,0,1.43-1.5,2.65-1.96,2.74-.3.06-.35-.21-.35-.43v-.28c0-1.65-1.66-2.16-3.61-1.78-2.86.55-6.42,2.99-6.42,6.51,0,2.7,2.16,3.66,5.32,3.05Z"/><path class="cls-1" d="M115.27,47.71c-1.66.32-3.06-.13-3.96-1.83-.2-.18-.35-.37-.35-.59s.2-.48.55-.66c3.21-1.28,5.02-3.44,5.02-4.48,0-.5-.4-.75-1.2-.59-2.46.47-11.23,10.46-13.29,10.86-.65.12-.95-.2-.95-.97,0-2.26,1.05-6.75,2.86-11.89l-.6.12c-1.1.21-2.21.37-3.26.4-.15.03-.25-.06-.25-.17,0-.17.15-.36.6-.45.95-.07,1.91-.2,2.81-.37l.9-.17c3.91-10.77,11.18-24.05,19.71-25.68,2.66-.51,5.67-.15,5.67,2.77,0,7.38-11.19,18.88-22.62,22.72-1.1,3.51-1.91,6.81-2.26,9.24-.05.34-.1.62-.1.85,0,.33.1.53.35.48,1.25-.24,8.17-8.89,13.19-9.85,1-.19,2.31-.11,2.31,1.1,0,2.86-3.56,4.98-5.32,5.59-.05.12-.05.23-.05.34.05,1.48.7,2.07,1.8,1.86,2.41-.46,7.02-4.54,11.99-10.06.1-.13.15-.14.25-.16.15-.03.3.05.3.27,0,.11-.05.28-.15.41,0,0-8.33,9.85-13.94,10.93ZM107.09,36.01c10.88-3.9,19.06-14.55,19.06-20.83,0-2.37-1.45-3.19-3.36-2.82-6.52,1.25-12.39,13.44-15.7,23.65Z"/><path class="cls-1" d="M132.89,41.47c0,1.05-1,2.67-2.06,2.87-.85.16-1.3-.47-1.3-1.24,0-.99.7-2.23,2.06-2.54.95-.18,1.3.25,1.3.91ZM144.78,2.48c.65-.12,1.25.03,1.25.7,0,.22-.1.46-.25.76-3.36,6.75-10.08,24.61-12.04,32.03-.3.61-.65.9-.9.94s-.4-.14-.4-.42v-.11c1.91-7.14,6.87-22.07,10.18-32.17.3-.94,1.3-1.57,2.16-1.73Z"/><path class="cls-1" d="M145.63,39.03c0,1.04-1,2.67-2.06,2.87-.85.16-1.3-.47-1.3-1.24,0-.99.7-2.23,2.06-2.54.95-.18,1.3.25,1.3.91ZM157.51.04c.65-.12,1.25.03,1.25.7,0,.22-.1.46-.25.76-3.36,6.75-10.08,24.61-12.04,32.03-.3.61-.65.9-.9.94-.25.05-.4-.14-.4-.42v-.11c1.91-7.14,6.87-22.07,10.18-32.17.3-.94,1.3-1.57,2.16-1.73Z"/></g></svg>