<?xml version="1.0" encoding="UTF-8"?><svg id="_レイヤー_2" xmlns="http://www.w3.org/2000/svg" viewBox="0 0 336 132.36"><defs><style>.cls-1{fill:#00b900;}.cls-1,.cls-2{stroke-width:0px;}.cls-3{fill:none;stroke:#00b900;stroke-miterlimit:10;}.cls-2{fill:#fff;}</style></defs><g id="_レイヤー_1-2"><rect class="cls-1" x=".5" y=".5" width="335" height="131.36" rx="11.46" ry="11.46"/><path class="cls-2" d="M160.64,33.11c-.94,0-1.77-.21-2.49-.62s-1.28-.99-1.68-1.74c-.4-.75-.61-1.61-.61-2.58,0-.81.21-1.54.63-2.21.42-.66.93-1.16,1.54-1.5-.52-.35-.94-.8-1.28-1.36-.33-.56-.5-1.21-.5-1.95,0-.9.19-1.69.56-2.36.37-.68.89-1.21,1.55-1.59s1.42-.57,2.27-.57,1.63.19,2.3.57c.66.38,1.18.91,1.55,1.59.37.68.56,1.47.56,2.36,0,.75-.17,1.4-.51,1.95-.34.56-.76,1.01-1.25,1.36.61.33,1.12.83,1.53,1.5.41.66.62,1.4.62,2.21,0,.99-.21,1.85-.62,2.59-.41.74-.97,1.31-1.69,1.72s-1.55.62-2.49.62ZM160.64,30.78c.76,0,1.34-.22,1.75-.65.4-.43.6-1.09.6-1.98,0-.82-.2-1.47-.6-1.95-.4-.48-.99-.72-1.75-.72s-1.32.24-1.72.72c-.4.48-.61,1.13-.61,1.95,0,1.75.78,2.63,2.33,2.63ZM160.64,23.54c.64,0,1.12-.21,1.45-.62s.49-.99.49-1.74-.18-1.3-.55-1.67c-.37-.37-.83-.55-1.39-.55s-1.03.18-1.39.55c-.37.37-.55.92-.55,1.67s.16,1.33.49,1.74.81.62,1.45.62Z"/><path class="cls-2" d="M169.59,32.79c-.41.82-.86,1.1-1.35.85-.47-.26-.51-.79-.11-1.6l7.68-15.1c.2-.4.42-.66.65-.8.23-.14.47-.14.7-.02.49.26.53.78.14,1.58l-7.7,15.1Z"/><path class="cls-2" d="M181.09,32.88c-.9,0-1.35-.25-1.35-.75,0-1.1.29-2.16.86-3.2s1.53-2.19,2.87-3.47c.47-.46.92-.92,1.35-1.38.43-.46.78-.92,1.05-1.37.27-.45.42-.88.43-1.29.01-.79-.16-1.38-.54-1.76s-.9-.57-1.59-.57c-.93,0-1.52.47-1.78,1.42-.12.41-.28.73-.47.95-.19.22-.48.33-.88.33s-.69-.13-.91-.39-.29-.61-.18-1.05c.24-1.13.74-2.01,1.48-2.64s1.66-.95,2.74-.95c.88,0,1.67.18,2.37.55.69.37,1.24.9,1.63,1.6.4.7.58,1.56.55,2.58-.02.72-.18,1.38-.5,1.99-.32.61-.74,1.2-1.27,1.77s-1.12,1.18-1.79,1.82c-.7.69-1.32,1.34-1.86,1.96-.54.62-.86,1.17-.95,1.62h4.75c.9,0,1.35.37,1.35,1.12s-.45,1.12-1.35,1.12h-6.01Z"/><path class="cls-2" d="M196.02,33.11c-.94,0-1.77-.21-2.49-.62s-1.28-.99-1.68-1.74c-.4-.75-.61-1.61-.61-2.58,0-.81.21-1.54.63-2.21.42-.66.93-1.16,1.54-1.5-.52-.35-.94-.8-1.28-1.36-.33-.56-.5-1.21-.5-1.95,0-.9.19-1.69.56-2.36.37-.68.89-1.21,1.55-1.59.66-.38,1.42-.57,2.27-.57s1.63.19,2.3.57c.66.38,1.18.91,1.55,1.59s.56,1.47.56,2.36c0,.75-.17,1.4-.51,1.95-.34.56-.76,1.01-1.25,1.36.61.33,1.12.83,1.53,1.5.41.66.62,1.4.62,2.21,0,.99-.21,1.85-.62,2.59-.41.74-.97,1.31-1.69,1.72s-1.55.62-2.49.62ZM196.02,30.78c.76,0,1.34-.22,1.75-.65.4-.43.61-1.09.61-1.98,0-.82-.2-1.47-.61-1.95-.4-.48-.99-.72-1.75-.72s-1.32.24-1.72.72c-.4.48-.61,1.13-.61,1.95,0,1.75.78,2.63,2.33,2.63ZM196.02,23.54c.64,0,1.12-.21,1.45-.62.33-.41.49-.99.49-1.74s-.18-1.3-.55-1.67c-.37-.37-.83-.55-1.39-.55s-1.03.18-1.39.55c-.37.37-.55.92-.55,1.67s.16,1.33.49,1.74c.33.41.81.62,1.45.62Z"/><path class="cls-2" d="M209.24,34c-1.33,0-2.35-.34-3.07-1.02s-1.08-1.54-1.08-2.59.38-1.87,1.13-2.55,1.87-1.02,3.35-1.02c.26,0,.53.01.8.03.27.02.56.05.84.08-.04-.85-.1-1.78-.17-2.78-.07-1-.14-2-.21-3.02-.07-1.01-.12-1.97-.16-2.88-.04-.91-.06-1.69-.06-2.36,0-.38.13-.7.4-.96.27-.26.59-.39.97-.39s.7.13.97.39.4.58.4.96c0,.44.01.98.04,1.61.02.63.06,1.31.1,2.04.44-.06.93-.14,1.47-.24.54-.1,1.08-.21,1.61-.32s1-.22,1.42-.33c.38-.11.74-.06,1.06.14.33.2.54.48.63.85.11.37.06.72-.13,1.06s-.48.55-.86.63c-.75.17-1.58.33-2.51.48-.93.15-1.78.27-2.56.34.06.94.12,1.88.18,2.81s.11,1.77.16,2.54c1.04.29,2.06.65,3.06,1.07s1.89.9,2.65,1.42c.3.21.49.51.56.89s0,.73-.22,1.05c-.21.3-.51.49-.89.56s-.72,0-1.03-.22c-1.19-.81-2.54-1.49-4.04-2.03-.06,1.16-.5,2.07-1.31,2.74-.82.67-1.98,1-3.51,1ZM209.24,31.37c.7,0,1.22-.12,1.56-.37.34-.24.51-.63.51-1.17v-.3c-.3-.06-.61-.1-.91-.12-.31-.02-.61-.03-.91-.03-.58,0-1,.09-1.27.29s-.4.43-.4.72.12.51.35.7c.24.19.59.29,1.06.29Z"/><path class="cls-2" d="M231.21,33.96c-.27-.26-.42-.58-.45-.96-.02-.38.1-.71.38-.98,1.16-1.17,2.07-2.65,2.73-4.43.66-1.78.99-3.72.99-5.83,0-1.19-.19-2.05-.57-2.58-.38-.53-.95-.8-1.69-.8-.61,0-1.17.25-1.69.74s-.91,1.23-1.17,2.21-.33,2.2-.21,3.68c.03.35-.07.67-.29.95s-.51.44-.86.47c-.37.03-.68-.06-.95-.27s-.43-.5-.49-.85c-.11-.79-.17-1.66-.21-2.62-.03-.95-.03-1.9-.01-2.86.02-.95.06-1.83.13-2.65.06-.82.12-1.49.18-2.02.05-.37.21-.66.5-.89s.62-.32.98-.27c.38.05.68.21.9.48.22.27.3.61.24,1.01-.03.27-.07.62-.13,1.05-.05.43-.09.83-.12,1.21.35-.59.82-1.09,1.42-1.5.59-.4,1.21-.61,1.85-.61,1.63,0,2.85.53,3.66,1.59.81,1.06,1.21,2.57,1.21,4.54,0,1.57-.16,3.1-.49,4.58-.33,1.48-.81,2.87-1.46,4.16-.65,1.29-1.46,2.43-2.43,3.42-.26.27-.58.41-.97.42-.39,0-.72-.12-.99-.38Z"/><path class="cls-2" d="M123.64,64.05c-.38,0-.71-.13-.99-.39-.28-.26-.42-.6-.42-1.03v-10.6c0-1.29.18-2.31.54-3.05.36-.74.94-1.27,1.76-1.59.81-.32,1.9-.48,3.26-.48h2.42v-2.72c0-.44.14-.79.42-1.04.28-.25.61-.38.99-.38s.73.12,1.01.38c.27.25.41.6.41,1.04v2.72h2.44c1.37,0,2.46.16,3.27.48.81.32,1.39.85,1.75,1.59.36.74.54,1.76.54,3.05v7.97c0,1.42-.32,2.42-.96,3-.64.59-1.67.88-3.08.88-.41,0-.77-.12-1.06-.37-.3-.24-.46-.6-.49-1.07-.02-.4.12-.73.4-1.02.28-.28.61-.43.99-.45.58-.05.96-.14,1.14-.3.18-.15.27-.49.27-1.01v-7.65c0-.65-.08-1.16-.25-1.52-.17-.36-.45-.6-.85-.74-.4-.14-.95-.21-1.67-.21h-2.51c-.03.46-.08.9-.16,1.32-.08.43-.18.84-.3,1.23.5.35,1.07.78,1.7,1.29.63.51,1.25,1.03,1.85,1.55.6.53,1.1.99,1.5,1.38.3.29.44.63.41,1.02-.03.39-.2.73-.5,1.02-.27.27-.61.4-.99.38-.39-.02-.71-.18-.97-.47-.32-.38-.71-.79-1.17-1.23s-.93-.88-1.43-1.33c-.5-.44-.96-.84-1.41-1.19-.46.84-1.02,1.61-1.68,2.31-.66.7-1.42,1.35-2.27,1.94-.33.24-.71.36-1.13.35-.42,0-.76-.19-1.02-.56-.23-.3-.31-.65-.24-1.05.07-.4.27-.71.61-.94,1.34-.88,2.36-1.87,3.07-2.97.71-1.1,1.14-2.45,1.29-4.07h-2.35c-.7,0-1.25.07-1.65.21-.4.14-.68.38-.85.74-.17.36-.25.87-.25,1.52v10.6c0,.43-.13.77-.4,1.03-.27.26-.6.39-.99.39Z"/><path class="cls-2" d="M145.45,64.16c-.33.02-.63-.07-.88-.25s-.39-.43-.42-.75c-.02-.32.07-.59.25-.8.18-.21.43-.33.73-.34,1.34-.08,2.49-.25,3.46-.53.97-.27,1.77-.67,2.41-1.19-.9-.01-1.6-.11-2.11-.3s-.87-.49-1.07-.93c-.21-.43-.31-1.02-.31-1.75v-2.08c0-.75.11-1.33.32-1.76.21-.43.59-.73,1.12-.92s1.26-.29,2.19-.29h7.06c.94,0,1.68.09,2.2.29s.9.5,1.12.92c.22.43.33,1.01.33,1.76v2.08c0,.73-.11,1.31-.33,1.75-.22.43-.59.75-1.12.94-.53.19-1.26.29-2.2.29h-.27v.27c0,.3.05.54.15.7.1.16.31.27.63.33.32.06.82.09,1.51.09.73,0,1.28-.03,1.64-.08.37-.05.63-.16.8-.33.17-.17.3-.43.39-.8.11-.37.33-.62.66-.75s.69-.14,1.07-.02c.35.12.59.33.71.64.12.3.14.64.05,1-.17.67-.44,1.2-.82,1.58-.38.38-.94.65-1.67.81-.73.16-1.72.24-2.97.24s-2.26-.09-2.95-.26c-.69-.17-1.15-.48-1.4-.92-.25-.44-.38-1.05-.38-1.83v-.66h-1.48c-.85,1.25-1.99,2.19-3.42,2.81-1.42.62-3.09.97-4.99,1.05ZM148.08,51.57c-1.11,0-1.9-.2-2.36-.59-.46-.4-.7-1.1-.7-2.12v-3.04c0-1.02.23-1.73.7-2.14.46-.4,1.25-.61,2.36-.61h6.01c.26,0,.46.08.61.25.14.17.22.36.22.57,0,.23-.07.43-.22.59-.15.17-.35.25-.61.25h-2.7v.82h.91c.69,0,1.16.13,1.42.39.26.26.39.72.39,1.37v.25s.04-.05.07-.11c.49-.58.95-1.27,1.38-2.07s.77-1.53.99-2.18c.11-.32.31-.54.62-.65.3-.11.61-.12.91-.01.35.11.58.3.69.59.11.29.11.59,0,.89-.03.12-.07.24-.11.37s-.09.24-.14.37h5.64c.35,0,.62.11.82.33s.3.48.3.79-.1.54-.3.77-.47.33-.82.33h-6.74c-.18.29-.37.58-.56.86-.19.28-.38.54-.58.79-.21.27-.49.45-.82.54-.34.08-.66.03-.96-.15-.29-.17-.46-.41-.5-.73-.21.55-.78.82-1.69.82h-.91v.82h2.92c.26,0,.46.08.59.25.14.17.21.36.21.57,0,.23-.07.42-.21.58-.14.16-.34.24-.59.24h-6.24ZM147.3,47.76h4.11c.2,0,.33-.03.4-.08.07-.05.1-.17.1-.35s-.03-.3-.1-.34-.2-.07-.4-.07h-4.11v.84ZM147.33,45.56h1.83v-.82h-.62c-.43,0-.73.05-.9.15-.18.1-.28.32-.31.67ZM148.54,49.93h.62v-.82h-1.83c.03.33.13.56.31.66.17.11.48.16.9.16ZM150.09,56.64h9.16v-.73h-9.16v.73ZM150.11,54.63h9.12c-.03-.35-.15-.57-.34-.65-.2-.08-.57-.12-1.12-.12h-6.17c-.56,0-.94.04-1.14.12-.2.08-.31.3-.34.65ZM151.6,58.7h6.17c.55,0,.92-.04,1.12-.11.2-.08.31-.3.34-.66h-9.12c.03.37.14.59.34.66.2.08.58.11,1.14.11ZM157.38,50.96c-.34,0-.61-.11-.81-.33-.21-.22-.31-.48-.31-.79s.1-.57.31-.79c.21-.22.48-.33.81-.33h5.57c.35,0,.62.11.81.33.19.22.29.48.29.79s-.1.57-.29.79c-.19.22-.46.33-.81.33h-5.57Z"/><path class="cls-2" d="M169.31,52.14c-.38.21-.76.29-1.13.24-.37-.05-.67-.25-.88-.61-.17-.3-.2-.62-.1-.94.1-.32.34-.59.72-.82.84-.5,1.72-1.07,2.64-1.7s1.82-1.28,2.7-1.95c.88-.67,1.66-1.31,2.34-1.92.59-.53,1.13-.89,1.6-1.06.47-.18.95-.18,1.43-.02.48.16,1.03.49,1.63.99.62.5,1.38,1.08,2.27,1.74.89.65,1.82,1.31,2.79,1.95.97.65,1.88,1.22,2.73,1.72.44.24.71.54.8.9.09.36.03.71-.18,1.06-.2.33-.5.53-.91.59-.41.06-.82-.04-1.23-.3-.59-.37-1.24-.79-1.93-1.28s-1.39-.99-2.1-1.52c-.71-.53-1.38-1.04-2.02-1.55-.64-.51-1.2-.98-1.69-1.41-.3-.27-.57-.41-.8-.41s-.49.14-.8.41c-.69.61-1.48,1.28-2.39,2.01-.91.73-1.83,1.44-2.79,2.12-.95.69-1.85,1.26-2.68,1.74ZM186.03,63.32c-.29.23-.62.32-.99.29s-.67-.19-.88-.47c-.17-.23-.35-.46-.54-.71-.19-.24-.39-.49-.61-.73-.76.12-1.65.25-2.66.39-1.01.14-2.06.27-3.15.41-1.09.14-2.14.26-3.15.38s-1.9.2-2.66.26c-.43.05-.77-.03-1.02-.24-.25-.21-.4-.5-.45-.88-.05-.35.06-.65.33-.9.27-.25.61-.38,1.02-.4.21-.01.43-.03.65-.05.22-.01.45-.03.7-.05.18-.32.39-.71.63-1.17.23-.46.48-.93.74-1.43.26-.49.49-.96.69-1.38h-4.52c-.3,0-.57-.12-.79-.35-.22-.24-.33-.51-.33-.81,0-.32.11-.6.33-.83s.48-.35.79-.35h15.76c.3,0,.57.12.79.35s.33.51.33.83-.11.58-.33.81c-.22.24-.48.35-.79.35h-8.41c-.23.49-.52,1.07-.87,1.76-.35.69-.69,1.33-1.03,1.94.99-.09,1.98-.19,2.97-.3s1.9-.21,2.72-.32c-.11-.12-.21-.23-.31-.33s-.2-.2-.31-.31c-.2-.21-.3-.48-.31-.81,0-.33.1-.6.33-.81.27-.26.59-.38.95-.35.36.02.66.16.9.4.58.55,1.2,1.19,1.85,1.92.65.73,1.24,1.41,1.76,2.03.21.27.32.59.31.96,0,.37-.16.66-.45.89ZM173.9,52.55c-.3,0-.57-.12-.79-.35s-.33-.51-.33-.83.11-.58.33-.81c.22-.24.48-.35.79-.35h8.18c.3,0,.57.12.79.35.22.24.33.51.33.81s-.11.6-.33.83-.48.35-.79.35h-8.18Z"/><path class="cls-2" d="M192.7,61.65c-.33.17-.69.19-1.06.06-.37-.13-.64-.37-.81-.72-.17-.35-.19-.71-.06-1.07.13-.37.36-.63.7-.8,2.18-1.05,4.12-2.32,5.81-3.8,1.7-1.48,3.08-3.1,4.15-4.83.67-1.1.3-1.64-1.1-1.64h-6.24c-.38,0-.71-.14-.98-.42-.27-.28-.41-.61-.41-.99s.14-.73.41-1.01c.27-.27.6-.41.98-.41h6.33c1.37,0,2.42.25,3.15.74.73.5,1.13,1.17,1.2,2.02s-.22,1.83-.86,2.95c-.33.61-.74,1.22-1.21,1.83.7.58,1.42,1.21,2.16,1.91.74.69,1.43,1.36,2.08,2.01.65.65,1.19,1.2,1.63,1.66.26.27.39.61.39,1.01s-.15.73-.43,1c-.27.27-.61.41-1,.4-.4,0-.73-.15-1.01-.42-.41-.43-.93-.96-1.55-1.61-.62-.65-1.29-1.32-1.99-2.01s-1.38-1.32-2.03-1.88c-1.16,1.2-2.45,2.33-3.87,3.39-1.42,1.06-2.88,1.95-4.38,2.66Z"/><path class="cls-2" d="M215.63,63.09c-.37.15-.73.16-1.09.02-.36-.14-.62-.39-.79-.75-.15-.35-.16-.71-.01-1.07.14-.37.39-.62.74-.78,3.14-1.36,5.72-3.08,7.74-5.16-.33-.33-.65-.64-.96-.91-.3-.27-.56-.5-.78-.66-.29-.26-.46-.58-.51-.96s.04-.72.29-1.01c.26-.3.58-.48.97-.53s.73.06,1.02.32c.26.2.54.43.83.7.3.27.61.55.95.86.27-.4.53-.8.78-1.21.24-.41.47-.83.69-1.26.24-.5.29-.88.15-1.13-.15-.25-.51-.38-1.11-.38h-3.11c-.76,1.02-1.62,2-2.56,2.94-.95.94-1.84,1.72-2.7,2.34-.32.23-.67.31-1.06.24-.39-.07-.69-.26-.9-.58-.23-.32-.31-.67-.24-1.05.07-.38.26-.69.58-.91.88-.64,1.73-1.36,2.55-2.17.82-.81,1.55-1.66,2.21-2.55.65-.89,1.18-1.75,1.58-2.59.17-.35.43-.6.79-.74.36-.14.71-.14,1.06.01.35.15.6.42.74.79s.13.73-.03,1.08c-.03.08-.06.16-.1.24-.04.08-.08.16-.13.24h1.76c1.17,0,2.08.22,2.71.66.63.44.99,1.06,1.06,1.84s-.14,1.68-.64,2.68c-.56,1.19-1.26,2.32-2.1,3.4.35.33.67.66.96.96s.53.58.73.82c.26.3.37.66.32,1.05-.05.4-.23.72-.55.98-.3.24-.65.34-1.04.29-.39-.05-.71-.22-.97-.51-.15-.18-.34-.4-.57-.64-.23-.24-.47-.5-.73-.75-2.38,2.47-5.22,4.42-8.52,5.85Z"/><path class="cls-2" d="M234.92,54.93c-.38,0-.71-.14-.99-.42-.28-.28-.42-.61-.42-.99s.14-.73.42-1.01c.28-.27.61-.41.99-.41h14.23c.4,0,.73.14,1,.41s.41.61.41,1.01-.14.71-.41.99c-.27.28-.61.42-1,.42h-14.23Z"/><path class="cls-2" d="M259.79,63.09c-.38,0-.71-.14-.98-.41s-.41-.6-.41-.98v-15.79c0-.4.14-.73.41-.99s.6-.4.98-.4.73.13,1,.4c.27.27.41.6.41.99v5.51c.2-.3.47-.51.82-.61.35-.1.69-.07,1.03.1.9.47,1.82,1.01,2.75,1.62.94.61,1.75,1.2,2.43,1.78.3.24.48.57.51.97s-.07.76-.33,1.06c-.24.29-.56.45-.96.49-.4.04-.75-.07-1.05-.31-.43-.33-.92-.69-1.47-1.07-.56-.38-1.11-.75-1.67-1.11-.56-.36-1.06-.67-1.52-.93-.24-.14-.43-.3-.55-.5v8.77c0,.38-.14.71-.41.98-.27.27-.61.41-1,.41Z"/><path class="cls-2" d="M274.74,62.42c-.47,0-.88-.17-1.21-.5-.34-.33-.5-.74-.5-1.21s.17-.9.5-1.23c.33-.33.74-.5,1.21-.5s.9.17,1.25.5c.34.33.51.75.51,1.23s-.17.88-.51,1.21c-.34.33-.76.5-1.25.5ZM274.77,57.51c-.66,0-1-.45-1.05-1.35l-.3-8.71c-.03-.91.41-1.37,1.33-1.37s1.39.46,1.35,1.37l-.3,8.71c-.03.9-.37,1.35-1.03,1.35Z"/><path class="cls-2" d="M103.27,86.83c-.23,0-.42-.08-.58-.23-.16-.15-.24-.35-.24-.6v-3.69h-4.58c-.2,0-.37-.07-.52-.22-.14-.14-.22-.31-.22-.5,0-.2.07-.37.22-.52.14-.14.32-.22.52-.22h4.58v-4.15h-4.03c-.19,0-.36-.07-.5-.22-.14-.14-.22-.32-.22-.52s.07-.37.22-.52c.14-.14.31-.22.5-.22h9.61c.2,0,.37.07.52.22.14.14.22.32.22.52s-.07.37-.22.52c-.14.14-.32.22-.52.22h-3.94v4.15h4.5c.2,0,.37.07.52.22.14.14.22.32.22.52s-.07.36-.22.5c-.14.14-.32.22-.52.22h-4.5v3.69c0,.24-.08.44-.24.6s-.35.23-.58.23ZM101.27,80.44c-.2.11-.4.14-.61.09-.21-.05-.36-.17-.45-.37-.08-.16-.19-.36-.33-.62-.14-.26-.29-.52-.44-.78-.15-.26-.29-.48-.4-.64-.11-.17-.14-.36-.07-.57s.19-.35.37-.44c.21-.1.41-.14.61-.1s.36.15.47.35c.1.16.23.37.39.64s.3.54.44.8c.14.27.26.48.33.63.1.19.12.38.07.55s-.18.32-.38.44ZM105.26,80.48c-.17-.1-.29-.24-.35-.44-.06-.2-.03-.38.07-.56.1-.16.23-.37.38-.63s.29-.52.44-.79.26-.47.33-.63c.11-.2.27-.33.48-.39s.41-.03.61.07c.2.1.34.26.41.47.07.21.05.42-.05.62-.1.17-.22.38-.37.63-.15.25-.31.5-.46.75s-.29.45-.4.61c-.13.18-.29.3-.49.35-.2.05-.39.03-.6-.08Z"/><path class="cls-2" d="M115.59,85.97c-.74,0-1.36-.05-1.85-.15s-.88-.28-1.16-.54c-.28-.26-.49-.61-.61-1.07-.12-.45-.18-1.03-.18-1.74v-3.48c0-.71.06-1.29.18-1.74.12-.45.32-.81.61-1.07.28-.26.67-.44,1.16-.54.49-.1,1.1-.15,1.85-.15h.99c.74,0,1.36.05,1.85.15.49.1.87.28,1.16.54.28.26.49.61.61,1.07.12.45.18,1.03.18,1.74v3.48c0,.71-.06,1.29-.18,1.74-.12.45-.33.81-.61,1.07-.28.26-.67.44-1.16.54s-1.1.15-1.85.15h-.99ZM113.41,79.92h5.37v-.93c0-.58-.05-1.01-.16-1.3-.11-.29-.32-.49-.63-.58s-.77-.14-1.39-.14h-.99c-.61,0-1.07.05-1.39.14-.31.1-.53.29-.63.58-.11.29-.16.73-.16,1.3v.93ZM115.59,84.5h.99c.62,0,1.08-.05,1.39-.15s.52-.29.63-.58c.11-.29.16-.72.16-1.29v-1.13h-5.37v1.13c0,.58.05,1.01.16,1.29.11.29.32.48.63.58.31.1.78.15,1.39.15Z"/><path class="cls-2" d="M125.56,85.71c-.47,0-.71-.26-.71-.77v-6.61l-.94.62c-.44.3-.78.24-1.02-.16-.25-.4-.16-.74.27-1.01l1.57-.98c.16-.1.31-.16.46-.2.15-.04.32-.06.51-.06.37,0,.55.26.55.77v7.63c0,.52-.23.77-.69.77Z"/><path class="cls-2" d="M131.52,85.84c-.7,0-1.24-.17-1.64-.52s-.67-.87-.83-1.57-.24-1.57-.24-2.62.08-1.92.24-2.62.44-1.23.83-1.58c.39-.35.94-.52,1.64-.52s1.24.17,1.63.52c.39.35.66.88.82,1.58.16.7.24,1.58.24,2.62s-.08,1.92-.24,2.62c-.16.7-.44,1.22-.82,1.57-.39.35-.93.52-1.63.52ZM131.52,84.5c.32,0,.58-.1.77-.31.19-.21.32-.55.41-1.04.09-.49.13-1.17.13-2.03s-.04-1.55-.13-2.04c-.09-.49-.22-.84-.41-1.04-.19-.21-.44-.31-.77-.31s-.58.1-.77.31-.33.55-.41,1.04c-.08.49-.12,1.17-.12,2.04s.04,1.54.12,2.03c.08.49.22.83.41,1.04s.45.31.77.31Z"/><path class="cls-2" d="M137.09,81.22c-.27,0-.5-.1-.7-.29-.2-.19-.29-.42-.29-.69s.1-.51.29-.7.43-.28.7-.28.5.09.7.28.29.42.29.7-.1.5-.29.69c-.2.19-.43.29-.7.29ZM137.09,85.85c-.27,0-.5-.1-.7-.29-.2-.19-.29-.42-.29-.69s.1-.51.29-.71c.2-.19.43-.29.7-.29s.5.1.7.29c.2.19.29.43.29.71s-.1.5-.29.69c-.2.19-.43.29-.7.29Z"/><path class="cls-2" d="M142.68,85.84c-.7,0-1.24-.17-1.64-.52s-.67-.87-.83-1.57-.24-1.57-.24-2.62.08-1.92.24-2.62.44-1.23.83-1.58c.39-.35.94-.52,1.64-.52s1.24.17,1.63.52c.39.35.66.88.82,1.58.16.7.24,1.58.24,2.62s-.08,1.92-.24,2.62c-.16.7-.44,1.22-.82,1.57-.39.35-.93.52-1.63.52ZM142.68,84.5c.32,0,.58-.1.77-.31.19-.21.32-.55.41-1.04.09-.49.13-1.17.13-2.03s-.04-1.55-.13-2.04c-.09-.49-.22-.84-.41-1.04-.19-.21-.44-.31-.77-.31s-.58.1-.77.31-.33.55-.41,1.04c-.08.49-.12,1.17-.12,2.04s.04,1.54.12,2.03c.08.49.22.83.41,1.04s.45.31.77.31Z"/><path class="cls-2" d="M150.02,85.84c-.7,0-1.24-.17-1.64-.52s-.67-.87-.83-1.57-.24-1.57-.24-2.62.08-1.92.24-2.62.44-1.23.83-1.58c.39-.35.94-.52,1.64-.52s1.24.17,1.63.52c.39.35.66.88.82,1.58.16.7.24,1.58.24,2.62s-.08,1.92-.24,2.62c-.16.7-.44,1.22-.82,1.57-.39.35-.93.52-1.63.52ZM150.02,84.5c.32,0,.58-.1.77-.31.19-.21.32-.55.41-1.04.09-.49.13-1.17.13-2.03s-.04-1.55-.13-2.04c-.09-.49-.22-.84-.41-1.04-.19-.21-.44-.31-.77-.31s-.58.1-.77.31-.33.55-.41,1.04c-.08.49-.12,1.17-.12,2.04s.04,1.54.12,2.03c.08.49.22.83.41,1.04s.45.31.77.31Z"/><path class="cls-2" d="M166.39,80.18c-.82,1.48-2.03,2.26-3.4,2.26-1.18,0-2-.48-2.92-1.38-.72-.69-1.31-1.11-2.28-1.11-1.06,0-1.99.72-2.54,1.77l-.85-.44c.82-1.48,2.03-2.27,3.4-2.27,1.18,0,2,.48,2.92,1.38.72.69,1.32,1.11,2.28,1.11,1.06,0,1.99-.72,2.54-1.77l.85.45Z"/><path class="cls-2" d="M168.34,85.71c-.52,0-.77-.14-.77-.43,0-.63.16-1.24.49-1.83.33-.59.87-1.26,1.64-1.99.27-.26.53-.53.77-.79.24-.27.44-.53.6-.79.16-.26.24-.5.25-.74,0-.45-.09-.79-.31-1.01-.21-.22-.52-.33-.91-.33-.53,0-.87.27-1.02.81-.07.24-.16.42-.27.54-.11.13-.28.19-.5.19s-.39-.07-.52-.22-.17-.35-.1-.6c.14-.65.42-1.15.85-1.51.43-.36.95-.54,1.57-.54.51,0,.96.1,1.35.31.4.21.71.51.94.92.23.4.33.89.31,1.48,0,.41-.1.79-.29,1.14-.18.35-.42.69-.73,1.01-.3.33-.64.67-1.03,1.04-.4.39-.76.77-1.07,1.13-.31.36-.49.67-.54.93h2.72c.51,0,.77.21.77.64s-.26.64-.77.64h-3.44Z"/><path class="cls-2" d="M174.93,85.71c-.51,0-.77-.14-.77-.43,0-.63.16-1.24.49-1.83.33-.59.87-1.26,1.64-1.99.27-.26.53-.53.77-.79.24-.27.44-.53.6-.79.16-.26.24-.5.25-.74,0-.45-.09-.79-.31-1.01-.21-.22-.52-.33-.91-.33-.53,0-.87.27-1.02.81-.07.24-.16.42-.27.54-.11.13-.28.19-.5.19s-.39-.07-.52-.22-.17-.35-.1-.6c.14-.65.42-1.15.85-1.51.43-.36.95-.54,1.57-.54.51,0,.96.1,1.35.31.4.21.71.51.94.92.23.4.33.89.31,1.48,0,.41-.1.79-.29,1.14-.18.35-.42.69-.73,1.01-.3.33-.64.67-1.03,1.04-.4.39-.76.77-1.07,1.13-.31.36-.49.67-.54.93h2.72c.51,0,.77.21.77.64s-.26.64-.77.64h-3.44Z"/><path class="cls-2" d="M181.89,81.22c-.27,0-.5-.1-.7-.29-.2-.19-.29-.42-.29-.69s.1-.51.29-.7.43-.28.7-.28.5.09.7.28.29.42.29.7-.1.5-.29.69c-.2.19-.43.29-.7.29ZM181.89,85.85c-.27,0-.5-.1-.7-.29-.2-.19-.29-.42-.29-.69s.1-.51.29-.71c.2-.19.43-.29.7-.29s.5.1.7.29c.2.19.29.43.29.71s-.1.5-.29.69c-.2.19-.43.29-.7.29Z"/><path class="cls-2" d="M187.48,85.84c-.7,0-1.24-.17-1.64-.52s-.67-.87-.83-1.57-.24-1.57-.24-2.62.08-1.92.24-2.62.44-1.23.83-1.58c.39-.35.94-.52,1.64-.52s1.24.17,1.63.52c.39.35.66.88.82,1.58s.24,1.58.24,2.62-.08,1.92-.24,2.62-.44,1.22-.82,1.57c-.39.35-.93.52-1.63.52ZM187.48,84.5c.32,0,.58-.1.77-.31s.33-.55.41-1.04c.09-.49.13-1.17.13-2.03s-.04-1.55-.13-2.04c-.09-.49-.23-.84-.41-1.04s-.44-.31-.77-.31-.58.1-.77.31c-.19.21-.33.55-.41,1.04-.08.49-.12,1.17-.12,2.04s.04,1.54.12,2.03c.08.49.22.83.41,1.04.19.21.45.31.77.31Z"/><path class="cls-2" d="M194.82,85.84c-.7,0-1.24-.17-1.64-.52s-.67-.87-.83-1.57-.24-1.57-.24-2.62.08-1.92.24-2.62.44-1.23.83-1.58c.39-.35.94-.52,1.64-.52s1.24.17,1.63.52c.39.35.66.88.82,1.58s.24,1.58.24,2.62-.08,1.92-.24,2.62-.44,1.22-.82,1.57c-.39.35-.93.52-1.63.52ZM194.82,84.5c.32,0,.58-.1.77-.31s.33-.55.41-1.04c.09-.49.13-1.17.13-2.03s-.04-1.55-.13-2.04c-.09-.49-.23-.84-.41-1.04s-.44-.31-.77-.31-.58.1-.77.31c-.19.21-.33.55-.41,1.04-.08.49-.12,1.17-.12,2.04s.04,1.54.12,2.03c.08.49.22.83.41,1.04.19.21.45.31.77.31Z"/><path class="cls-2" d="M202.52,86.23c-.17.14-.36.2-.58.18-.22-.02-.4-.12-.55-.28-.13-.16-.31-.35-.52-.58-.22-.23-.44-.46-.67-.69s-.43-.42-.61-.57c-.14-.13-.22-.3-.24-.5s.04-.38.18-.53c.15-.15.32-.23.52-.25s.38.04.54.16c.19.15.42.34.67.58.26.24.51.48.76.73.25.25.45.46.6.65.15.17.21.36.2.58s-.11.4-.29.55Z"/><path class="cls-2" d="M209.29,86.18c-.21,0-.39-.07-.54-.22-.15-.15-.23-.33-.23-.55s.08-.39.23-.54c.15-.15.33-.23.54-.23h4.49v-4.45h-3.64c-.22,0-.4-.08-.55-.23-.15-.15-.22-.33-.22-.54s.07-.4.22-.55c.15-.15.33-.22.55-.22h3.64v-2.92c0-.25.08-.46.25-.62.17-.16.36-.24.59-.24s.42.08.59.24c.17.16.25.36.25.62v2.92h3.7c.22,0,.4.07.55.22s.22.33.22.55-.07.39-.22.54-.33.23-.55.23h-3.7v4.45h4.55c.22,0,.4.08.55.23.15.15.22.33.22.54s-.07.4-.22.55c-.15.15-.33.22-.55.22h-10.72Z"/><path class="cls-2" d="M226.76,85.97c-.74,0-1.36-.05-1.85-.15s-.88-.28-1.16-.54c-.28-.26-.49-.61-.61-1.07-.12-.45-.18-1.03-.18-1.74v-3.48c0-.71.06-1.29.18-1.74.12-.45.33-.81.61-1.07.28-.26.67-.44,1.16-.54.49-.1,1.1-.15,1.85-.15h.99c.74,0,1.36.05,1.85.15.49.1.88.28,1.16.54.28.26.49.61.61,1.07.12.45.18,1.03.18,1.74v3.48c0,.71-.06,1.29-.18,1.74-.12.45-.33.81-.61,1.07-.28.26-.67.44-1.16.54s-1.1.15-1.85.15h-.99ZM224.57,79.92h5.37v-.93c0-.58-.05-1.01-.16-1.3-.11-.29-.32-.49-.63-.58-.31-.1-.77-.14-1.39-.14h-.99c-.61,0-1.07.05-1.39.14s-.53.29-.63.58c-.11.29-.16.73-.16,1.3v.93ZM226.76,84.5h.99c.62,0,1.08-.05,1.39-.15.31-.1.52-.29.63-.58.11-.29.16-.72.16-1.29v-1.13h-5.37v1.13c0,.58.05,1.01.16,1.29.11.29.32.48.63.58s.78.15,1.39.15Z"/><path class="cls-2" d="M236.39,85.84c-.32,0-.63-.06-.94-.19-.3-.13-.58-.3-.83-.52-.19-.17-.28-.35-.27-.53.01-.18.1-.33.27-.46.17-.13.33-.18.48-.15.14.03.3.12.48.25.24.2.51.3.81.3.59,0,1.03-.27,1.31-.82.28-.55.43-1.35.45-2.42-.15.22-.36.39-.63.52-.27.13-.54.19-.82.19-.49,0-.93-.11-1.32-.33s-.69-.54-.92-.94c-.22-.41-.33-.89-.33-1.45s.1-1.07.31-1.5c.21-.43.51-.77.89-1.02s.83-.37,1.33-.37c.38,0,.75.06,1.09.19.34.13.65.35.92.67.27.32.48.77.63,1.35.15.58.22,1.33.2,2.25-.03,1.72-.32,2.98-.84,3.78-.53.8-1.29,1.2-2.27,1.2ZM236.7,80.76c.41,0,.73-.14.96-.41.23-.28.33-.63.31-1.07-.02-.5-.13-.88-.35-1.15s-.5-.4-.87-.4-.67.14-.88.43c-.21.29-.32.66-.32,1.13,0,.44.11.79.32,1.06s.49.41.83.41Z"/><path class="cls-2" d="M242.33,81.22c-.27,0-.5-.1-.7-.29-.2-.19-.29-.42-.29-.69s.1-.51.29-.7.43-.28.7-.28.5.09.7.28.29.42.29.7-.1.5-.29.69c-.2.19-.43.29-.7.29ZM242.33,85.85c-.27,0-.5-.1-.7-.29-.2-.19-.29-.42-.29-.69s.1-.51.29-.71c.2-.19.43-.29.7-.29s.5.1.7.29c.2.19.29.43.29.71s-.1.5-.29.69c-.2.19-.43.29-.7.29Z"/><path class="cls-2" d="M247.92,85.84c-.7,0-1.24-.17-1.64-.52s-.67-.87-.83-1.57-.24-1.57-.24-2.62.08-1.92.24-2.62.44-1.23.83-1.58c.39-.35.94-.52,1.64-.52s1.24.17,1.63.52c.39.35.66.88.82,1.58s.24,1.58.24,2.62-.08,1.92-.24,2.62-.44,1.22-.82,1.57c-.39.35-.93.52-1.63.52ZM247.92,84.5c.32,0,.58-.1.77-.31s.33-.55.41-1.04c.09-.49.13-1.17.13-2.03s-.04-1.55-.13-2.04c-.09-.49-.23-.84-.41-1.04s-.44-.31-.77-.31-.58.1-.77.31c-.19.21-.33.55-.41,1.04-.08.49-.12,1.17-.12,2.04s.04,1.54.12,2.03c.08.49.22.83.41,1.04.19.21.45.31.77.31Z"/><path class="cls-2" d="M255.26,85.84c-.7,0-1.24-.17-1.64-.52s-.67-.87-.83-1.57-.24-1.57-.24-2.62.08-1.92.24-2.62.44-1.23.83-1.58c.39-.35.94-.52,1.64-.52s1.24.17,1.63.52c.39.35.66.88.82,1.58s.24,1.58.24,2.62-.08,1.92-.24,2.62-.44,1.22-.82,1.57c-.39.35-.93.52-1.63.52ZM255.26,84.5c.32,0,.58-.1.77-.31s.33-.55.41-1.04c.09-.49.13-1.17.13-2.03s-.04-1.55-.13-2.04c-.09-.49-.23-.84-.41-1.04s-.44-.31-.77-.31-.58.1-.77.31c-.19.21-.33.55-.41,1.04-.08.49-.12,1.17-.12,2.04s.04,1.54.12,2.03c.08.49.22.83.41,1.04.19.21.45.31.77.31Z"/><path class="cls-2" d="M271.63,80.18c-.82,1.48-2.03,2.26-3.4,2.26-1.18,0-2-.48-2.92-1.38-.72-.69-1.31-1.11-2.28-1.11-1.06,0-1.99.72-2.54,1.77l-.85-.44c.83-1.48,2.03-2.27,3.4-2.27,1.18,0,2,.48,2.92,1.38.72.69,1.32,1.11,2.28,1.11,1.06,0,1.99-.72,2.54-1.77l.85.45Z"/><path class="cls-2" d="M275.46,85.71c-.47,0-.71-.26-.71-.77v-6.61l-.94.62c-.44.3-.78.24-1.02-.16-.25-.4-.16-.74.28-1.01l1.57-.98c.16-.1.31-.16.46-.2.15-.04.32-.06.51-.06.37,0,.55.26.55.77v7.63c0,.52-.23.77-.69.77Z"/><path class="cls-2" d="M280.24,85.71c-.22,0-.38-.07-.49-.22s-.14-.35-.08-.62c.1-.5.24-1.05.39-1.66s.33-1.23.52-1.87c.19-.64.39-1.26.59-1.86.2-.6.4-1.15.59-1.64h-2.84c-.52,0-.79-.22-.79-.65s.26-.64.79-.64h3.61c.24,0,.43.04.57.13.14.09.2.21.2.37,0,.17-.02.32-.05.46-.03.14-.08.3-.15.48-.18.46-.37.99-.56,1.59-.19.6-.38,1.22-.56,1.87-.18.65-.35,1.28-.51,1.9-.16.62-.29,1.17-.39,1.67-.09.46-.37.69-.84.69Z"/><path class="cls-2" d="M285.42,81.22c-.27,0-.5-.1-.7-.29-.2-.19-.29-.42-.29-.69s.1-.51.29-.7.43-.28.7-.28.5.09.7.28.29.42.29.7-.1.5-.29.69c-.2.19-.43.29-.7.29ZM285.42,85.85c-.27,0-.5-.1-.7-.29-.2-.19-.29-.42-.29-.69s.1-.51.29-.71c.2-.19.43-.29.7-.29s.5.1.7.29c.2.19.29.43.29.71s-.1.5-.29.69c-.2.19-.43.29-.7.29Z"/><path class="cls-2" d="M291.01,85.84c-.7,0-1.24-.17-1.64-.52s-.67-.87-.83-1.57-.24-1.57-.24-2.62.08-1.92.24-2.62.44-1.23.83-1.58c.39-.35.94-.52,1.64-.52s1.24.17,1.63.52c.39.35.66.88.82,1.58s.24,1.58.24,2.62-.08,1.92-.24,2.62-.44,1.22-.82,1.57c-.39.35-.93.52-1.63.52ZM291.01,84.5c.32,0,.58-.1.77-.31s.33-.55.41-1.04c.09-.49.13-1.17.13-2.03s-.04-1.55-.13-2.04c-.09-.49-.23-.84-.41-1.04s-.44-.31-.77-.31-.58.1-.77.31c-.19.21-.33.55-.41,1.04-.08.49-.12,1.17-.12,2.04s.04,1.54.12,2.03c.08.49.22.83.41,1.04.19.21.45.31.77.31Z"/><path class="cls-2" d="M298.35,85.84c-.7,0-1.24-.17-1.64-.52s-.67-.87-.83-1.57-.24-1.57-.24-2.62.08-1.92.24-2.62.44-1.23.83-1.58c.39-.35.94-.52,1.64-.52s1.24.17,1.63.52c.39.35.66.88.82,1.58s.24,1.58.24,2.62-.08,1.92-.24,2.62-.44,1.22-.82,1.57c-.39.35-.93.52-1.63.52ZM298.35,84.5c.32,0,.58-.1.77-.31s.33-.55.41-1.04c.09-.49.13-1.17.13-2.03s-.04-1.55-.13-2.04c-.09-.49-.23-.84-.41-1.04s-.44-.31-.77-.31-.58.1-.77.31c-.19.21-.33.55-.41,1.04-.08.49-.12,1.17-.12,2.04s.04,1.54.12,2.03c.08.49.22.83.41,1.04.19.21.45.31.77.31Z"/><path class="cls-2" d="M85.42,48.94c0-15.38-15.42-27.89-34.37-27.89s-34.37,12.51-34.37,27.89c0,13.79,12.23,25.34,28.74,27.52,1.12.24,2.64.74,3.03,1.69.35.87.23,2.23.11,3.11,0,0-.4,2.43-.49,2.94-.15.87-.69,3.4,2.98,1.85,3.67-1.55,19.79-11.65,27.01-19.96h0c4.98-5.46,7.37-11.01,7.37-17.16ZM38.93,57.15c0,.37-.3.67-.67.67h-9.63c-.18,0-.34-.07-.46-.19,0,0,0,0,0,0,0,0,0,0,0-.01-.12-.12-.19-.28-.19-.46v-14.97c0-.37.3-.67.67-.67h2.41c.37,0,.67.3.67.67v11.89h6.55c.37,0,.67.3.67.67v2.41ZM44.74,57.15c0,.37-.3.67-.67.67h-2.41c-.37,0-.67-.3-.67-.67v-14.98c0-.37.3-.67.67-.67h2.41c.37,0,.67.3.67.67v14.98ZM61.33,57.15c0,.37-.3.67-.67.67h-2.41c-.06,0-.12,0-.17-.02h-.01s-.03-.01-.05-.02c0,0-.01,0-.02,0-.01,0-.02,0-.03-.01-.01,0-.02-.01-.03-.02,0,0-.01,0-.02-.01-.01,0-.03-.02-.04-.02,0,0,0,0,0,0-.06-.04-.12-.1-.17-.16l-6.87-9.28v8.89c0,.37-.3.67-.67.67h-2.41c-.37,0-.67-.3-.67-.67v-14.98c0-.37.3-.67.67-.67h2.41s.02,0,.02,0c.01,0,.02,0,.03,0,.01,0,.02,0,.03,0,0,0,.02,0,.03,0,.01,0,.03,0,.04,0,0,0,.02,0,.02,0,.01,0,.03,0,.04.01,0,0,.01,0,.02,0,.01,0,.03.01.04.02,0,0,.01,0,.02,0,.01,0,.02.01.03.02,0,0,.01,0,.02.01.01,0,.02.02.03.02,0,0,.01,0,.02.01.01,0,.02.02.04.03,0,0,0,0,.01.01.01.01.03.03.04.04,0,0,0,0,0,0,.02.02.04.04.05.07l6.86,9.27v-8.9c0-.37.3-.67.67-.67h2.41c.37,0,.67.3.67.67v14.98ZM74.65,44.58c0,.37-.3.67-.67.67h-6.55v2.53h6.55c.37,0,.67.3.67.67v2.41c0,.37-.3.67-.67.67h-6.55v2.53h6.55c.37,0,.67.3.67.67v2.41c0,.37-.3.67-.67.67h-9.63c-.18,0-.34-.07-.46-.19,0,0,0,0,0,0,0,0,0,0,0-.01-.12-.12-.19-.28-.19-.46v-14.97c0-.18.07-.34.19-.46,0,0,0,0,.01-.01,0,0,0,0,0,0,.12-.12.28-.19.46-.19h9.63c.37,0,.67.3.67.67v2.41Z"/><path class="cls-2" d="M.5,100.21v20.76c0,6.01,4.87,10.89,10.89,10.89h313.22c6.01,0,10.89-4.87,10.89-10.89v-20.76H.5Z"/><rect class="cls-3" x=".5" y=".5" width="335" height="131.36" rx="11.46" ry="11.46"/><path class="cls-1" d="M61.31,121.82c-.6,0-.9-.3-.9-.9v-8.89c0-.6.29-.9.87-.9s.89.3.89.9v8.16h4.67c.6,0,.9.27.9.81s-.3.82-.9.82h-5.53Z"/><path class="cls-1" d="M70.59,121.82c-.58,0-.87-.3-.87-.9v-8.89c0-.6.29-.9.87-.9s.89.3.89.9v8.89c0,.6-.3.9-.89.9Z"/><path class="cls-1" d="M75.23,121.82c-.58,0-.87-.3-.87-.9v-8.89c0-.6.29-.9.87-.9h.2c.46,0,.82.2,1.08.6l4.64,7v-6.69c0-.3.08-.52.24-.67.16-.15.38-.23.66-.23.59,0,.89.3.89.9v8.89c0,.6-.28.9-.84.9h-.15c-.47,0-.83-.2-1.08-.6l-4.75-7.21v6.9c0,.6-.3.9-.89.9Z"/><path class="cls-1" d="M86.73,121.82c-.6,0-.9-.3-.9-.9v-8.89c0-.6.3-.9.9-.9h5.35c.6,0,.9.27.9.82s-.3.81-.9.81h-4.49v2.78h4.02c.6,0,.9.27.9.82s-.3.82-.9.82h-4.02v2.99h4.66c.6,0,.9.27.9.81s-.3.82-.9.82h-5.51Z"/><path class="cls-1" d="M94.92,116.93c-.19-.18-.29-.4-.27-.66,0-.26.12-.49.32-.68.39-.37.79-.8,1.2-1.31.41-.51.8-1.04,1.15-1.58s.64-1.04.84-1.49c.11-.25.29-.42.53-.49.24-.07.48-.05.7.06.23.12.39.3.47.53.08.23.06.46-.05.69-.27.59-.6,1.18-.98,1.76-.38.59-.77,1.14-1.19,1.67-.42.52-.83,1-1.24,1.41-.2.19-.45.31-.73.35-.28.04-.53-.05-.76-.26ZM107.38,122.54c-.22.15-.48.2-.76.15-.28-.05-.49-.19-.63-.41-.1-.15-.21-.32-.33-.49-.12-.17-.25-.36-.39-.55-.46.06-.99.13-1.6.2s-1.24.15-1.92.22c-.67.08-1.34.15-1.99.23-.66.08-1.27.15-1.85.21-.58.06-1.06.11-1.46.15-.32.03-.57-.03-.76-.18-.19-.15-.31-.37-.34-.66-.02-.24.05-.46.21-.64.16-.18.39-.29.67-.31.2-.02.43-.04.66-.05.24-.02.5-.03.79-.05.2-.4.43-.86.69-1.38.25-.52.51-1.07.77-1.63.26-.57.5-1.1.73-1.61.22-.51.41-.95.55-1.31.1-.25.27-.43.5-.53.23-.1.48-.11.73-.02.25.09.44.26.54.5.11.24.11.48,0,.73-.19.44-.43.95-.7,1.54-.27.59-.57,1.2-.87,1.82-.31.62-.6,1.2-.87,1.73.76-.07,1.53-.15,2.3-.22.77-.08,1.46-.15,2.08-.21-.23-.31-.47-.6-.7-.88-.23-.28-.44-.52-.62-.73-.16-.17-.24-.38-.23-.63.01-.24.11-.44.29-.6.19-.16.41-.24.66-.23.24.01.45.1.63.27.24.25.52.56.83.91.31.35.62.72.93,1.12.32.39.62.77.9,1.14.29.37.53.7.75.99.16.23.23.49.19.76-.04.27-.17.49-.4.66ZM107.37,116.78c-.54-.42-1.06-.88-1.56-1.38-.5-.5-.95-1.03-1.35-1.58-.4-.55-.75-1.09-1.03-1.62-.12-.23-.23-.41-.33-.53-.1-.12-.22-.19-.37-.23-.15-.04-.36-.05-.63-.05h-1.08c-.22,0-.42-.08-.58-.25-.16-.17-.24-.36-.24-.59s.08-.43.24-.6.36-.24.58-.24h1.08c.57,0,1.02.05,1.36.14.34.09.62.25.85.49s.46.56.69.99c.39.68.9,1.37,1.53,2.07.63.7,1.33,1.31,2.09,1.84.23.15.37.37.42.64.05.27-.02.52-.19.75-.18.22-.42.35-.7.37-.29.03-.54-.05-.78-.22Z"/><path class="cls-1" d="M120.97,121.94c-.64-.76-1.23-1.81-1.77-3.15-.54-1.33-.94-3.01-1.21-5.04h-6.42c-.25,0-.46-.08-.62-.25-.16-.17-.24-.37-.24-.62s.08-.44.24-.6c.16-.17.36-.25.62-.25h6.23c-.02-.35-.04-.7-.05-1.07-.02-.37-.03-.74-.05-1.11,0-.29.09-.51.27-.68.18-.17.39-.25.65-.25s.47.08.65.24c.18.16.27.38.27.68-.01.38,0,.75,0,1.12s.03.73.05,1.08h4.23c.26,0,.47.08.63.25s.23.37.23.6-.08.45-.23.62-.36.25-.63.25h-4.05c.22,1.63.56,3.03,1.02,4.21s.96,2.05,1.52,2.63c.15.16.28.23.39.21s.21-.13.3-.31c.05-.11.11-.24.18-.39.07-.15.13-.27.17-.37.1-.23.26-.39.48-.47.22-.08.44-.07.66.02.23.1.39.26.48.47.09.21.09.42.02.63s-.15.42-.24.61-.19.41-.3.64c-.27.57-.61.95-1.01,1.15-.4.2-.81.22-1.25.08-.43-.15-.85-.46-1.24-.92ZM111.88,122.52c-.29.04-.52,0-.7-.15-.18-.14-.3-.34-.35-.6-.04-.26.01-.48.16-.65.15-.17.36-.27.63-.31.07,0,.3-.05.69-.11.39-.06.84-.13,1.37-.21v-3.3h-1.83c-.25,0-.46-.08-.6-.24-.15-.16-.22-.36-.22-.58s.07-.43.22-.59.35-.24.6-.24h5.32c.25,0,.45.08.6.24s.21.35.21.59-.07.42-.21.58c-.14.16-.34.24-.6.24h-1.59v2.99c.54-.08,1.02-.16,1.43-.23s.67-.11.77-.12c.26-.05.48-.02.65.09.17.11.27.29.31.53.05.24.02.45-.1.62s-.29.28-.53.33c-.09.02-.3.06-.61.11-.32.06-.7.12-1.15.21-.45.08-.92.17-1.41.25s-.95.17-1.4.25c-.44.08-.81.15-1.12.2s-.49.08-.56.09ZM122.88,111.81c-.18.15-.39.22-.63.2s-.45-.12-.62-.29c-.07-.08-.17-.19-.31-.31s-.26-.25-.4-.37c-.13-.12-.24-.22-.32-.29-.16-.14-.24-.33-.24-.55,0-.22.09-.42.25-.58.16-.17.35-.27.57-.29.22-.02.42.05.6.21.09.07.21.18.37.31.15.14.3.27.45.4.15.13.26.24.33.32.17.17.25.38.24.62s-.11.45-.3.62Z"/><path class="cls-1" d="M130.28,122.46c-.2.16-.43.23-.69.2-.25-.03-.46-.15-.63-.35-.16-.2-.23-.44-.2-.69.03-.26.15-.47.35-.63.69-.54,1.27-1.17,1.73-1.9.46-.73.78-1.52.95-2.39.18-.87.19-1.76.02-2.69-.04-.26,0-.5.15-.71.14-.21.34-.33.6-.37.26-.05.5,0,.71.14.21.14.33.35.37.61.02.07.03.15.04.23,0,.08.01.16.02.24.92-.05,1.61-.13,2.07-.24.46-.11.77-.23.93-.37.16-.14.24-.28.24-.42,0-.21-.07-.38-.2-.5-.13-.12-.42-.18-.86-.18h-8.08c-.25,0-.48-.09-.66-.28-.19-.18-.28-.4-.28-.66s.09-.49.28-.66.41-.27.66-.27h8.08c2.02,0,3.02.82,3.02,2.46,0,.61-.18,1.12-.53,1.52-.35.4-.91.71-1.67.92s-1.75.36-2.99.43c-.09,1.32-.44,2.55-1.04,3.68-.6,1.13-1.41,2.09-2.43,2.87Z"/><path class="cls-1" d="M142.5,122.31c-.19-.17-.3-.39-.31-.65-.01-.26.07-.49.24-.68.79-.85,1.47-1.82,2.04-2.89.56-1.07,1.01-2.24,1.32-3.49-.57.03-1.1.06-1.6.08-.49.03-.82.04-.97.05-.25.01-.48-.07-.67-.25-.19-.18-.3-.39-.31-.65-.01-.26.07-.49.24-.69.17-.19.39-.3.66-.31.11-.01.33-.02.64-.03.32,0,.68-.02,1.11-.04.42-.02.85-.03,1.28-.05.12-.76.2-1.55.23-2.37,0-.26.11-.49.31-.66.19-.18.42-.26.67-.24.26.01.49.11.66.3.18.19.26.42.24.68-.01.38-.04.75-.08,1.12s-.09.74-.14,1.11l.44-.03c1.11-.04,1.97.1,2.57.41.6.32.99.84,1.16,1.57.17.73.16,1.72-.03,2.95-.16,1.04-.39,1.88-.69,2.54-.3.65-.66,1.14-1.08,1.47-.42.33-.9.53-1.43.61-.53.08-1.1.06-1.73-.04-.25-.04-.46-.17-.61-.38s-.21-.45-.17-.7c.05-.26.18-.47.4-.62s.45-.2.7-.15c.34.06.64.08.92.05.27-.03.53-.14.76-.34.23-.19.43-.51.61-.95.18-.44.33-1.05.47-1.83.14-.8.18-1.41.12-1.81s-.24-.67-.54-.8c-.3-.13-.75-.19-1.35-.17-.15,0-.44.02-.87.05-.37,1.54-.89,2.98-1.56,4.32-.67,1.34-1.45,2.5-2.32,3.45-.17.19-.39.29-.65.3-.26,0-.49-.08-.68-.25Z"/><path class="cls-1" d="M160.25,122.58c-.23.1-.47.12-.72.05-.24-.07-.43-.22-.55-.45-.12-.23-.15-.48-.07-.73.08-.25.23-.43.47-.53,1.49-.67,2.62-1.43,3.41-2.26s1.32-1.78,1.6-2.83c.1-.36.16-.64.18-.86.02-.22-.02-.4-.1-.56-.08-.12-.23-.22-.44-.3s-.53-.13-.95-.17-.98-.05-1.68-.05-1.29.01-1.69.04c-.4.03-.7.07-.89.14-.19.07-.34.16-.44.28-.1.13-.15.35-.15.64,0,.3.06.76.16,1.39.05.25,0,.49-.15.7s-.36.34-.63.38c-.25.04-.49-.02-.69-.17-.21-.15-.34-.36-.39-.61-.1-.65-.17-1.2-.2-1.64-.03-.44,0-.82.08-1.14.08-.32.23-.6.46-.86.21-.24.46-.43.74-.57.28-.13.65-.23,1.12-.3.47-.07,1.07-.1,1.82-.11v-1.77c0-.26.09-.49.28-.67.18-.18.4-.28.66-.28s.49.09.67.28c.18.18.27.41.27.67v1.77c.71.02,1.3.07,1.77.14.47.07.85.18,1.15.34.3.15.55.36.76.63.3.4.43.85.41,1.34-.02.5-.13,1.1-.32,1.82-.21.78-.56,1.56-1.02,2.32-.47.76-1.1,1.48-1.9,2.15s-1.8,1.26-3.02,1.78Z"/><path class="cls-1" d="M173.02,115.21c-.39-.33-.82-.66-1.3-1.02-.48-.35-.91-.64-1.3-.86-.22-.14-.37-.34-.43-.59s-.03-.49.11-.71c.14-.22.34-.37.59-.44.25-.07.49-.03.71.11.28.17.59.38.94.63s.69.5,1.02.74c.33.24.6.45.82.63.2.16.32.37.36.63.04.26-.03.49-.19.7-.16.2-.38.32-.63.36s-.49-.03-.7-.19ZM171.7,121.22c-.24.09-.49.08-.73-.03-.24-.11-.4-.29-.5-.53-.09-.24-.08-.49.03-.73.11-.24.29-.4.53-.5.82-.29,1.64-.64,2.47-1.05.83-.42,1.62-.87,2.38-1.37.76-.49,1.45-1,2.08-1.53.63-.52,1.14-1.03,1.54-1.52.17-.2.39-.32.65-.35.26-.03.49.04.68.21.21.16.32.37.35.63.03.26-.04.49-.21.7-.42.51-.97,1.05-1.67,1.63-.69.58-1.46,1.14-2.32,1.7-.86.56-1.74,1.08-2.64,1.56-.91.48-1.79.87-2.64,1.18Z"/><path class="cls-1" d="M187.18,122.48c-.25,0-.47-.09-.66-.27s-.28-.4-.28-.66v-10.55c0-.26.09-.49.28-.66s.4-.27.66-.27.49.09.67.27c.18.18.27.4.27.66v3.68c.13-.2.32-.34.55-.4s.46-.04.69.07c.6.32,1.21.68,1.84,1.08s1.17.8,1.63,1.19c.2.16.32.38.34.65.03.27-.05.51-.22.71-.16.19-.38.3-.64.33-.26.03-.5-.04-.7-.21-.29-.22-.61-.46-.98-.72-.37-.25-.74-.5-1.12-.74-.37-.24-.71-.45-1.02-.62-.16-.09-.29-.2-.37-.34v5.87c0,.25-.09.47-.27.66-.18.18-.41.27-.67.27Z"/><path class="cls-1" d="M197.88,122.43c-.25.04-.48-.01-.69-.15s-.33-.34-.38-.58c-.06-.34-.11-.79-.14-1.38-.03-.58-.05-1.23-.06-1.96-.01-.72,0-1.47,0-2.25.01-.78.04-1.54.08-2.28.04-.74.09-1.41.16-2.02s.14-1.1.24-1.47c.06-.24.2-.43.41-.57.21-.13.44-.17.69-.11.24.06.43.2.56.41.13.21.17.44.11.69-.09.38-.17.85-.23,1.42-.06.57-.11,1.19-.15,1.87-.04.68-.07,1.37-.08,2.08-.02.71-.02,1.4,0,2.07,0,.67.03,1.27.07,1.82.04.54.08.99.15,1.34.05.24,0,.47-.15.67s-.34.33-.59.38ZM202.97,122.42c-.82,0-1.47-.2-1.96-.6-.49-.4-.74-.98-.74-1.73s.25-1.3.74-1.72c.49-.42,1.17-.63,2.04-.63.26,0,.53.02.81.05-.01-.48-.02-1-.04-1.57-.02-.57-.03-1.14-.05-1.73-.54.03-1.06.05-1.57.06-.5.01-.94.01-1.31,0-.25,0-.47-.1-.63-.28s-.25-.39-.24-.65c.02-.24.12-.45.3-.62.18-.17.39-.25.63-.24.36.01.78.01,1.26,0,.48,0,.99-.02,1.52-.05-.01-.39-.02-.76-.02-1.11v-1.01c0-.25.09-.47.26-.65.17-.18.39-.27.64-.27s.48.09.66.27c.17.18.26.39.26.65,0,.32,0,.64,0,.98s0,.68,0,1.02c.45-.04.86-.08,1.23-.12s.68-.08.94-.12c.24-.05.47,0,.67.15.2.15.33.34.37.59.04.24-.01.47-.16.67s-.34.32-.59.35c-.29.04-.64.08-1.06.13s-.88.09-1.37.13c.02.71.04,1.4.06,2.06.02.66.04,1.25.05,1.76.56.18,1.09.4,1.58.66.49.25.92.52,1.29.79.2.15.33.35.37.6.04.25-.01.48-.15.68s-.34.33-.59.38c-.25.05-.48,0-.68-.15-.25-.19-.53-.38-.84-.56-.31-.18-.62-.35-.95-.49-.1,1.56-1.02,2.34-2.75,2.34ZM202.97,120.69c.63,0,.95-.3.95-.9,0-.03,0-.07,0-.12,0-.05,0-.11,0-.17-.31-.06-.62-.09-.93-.09s-.55.06-.7.18c-.15.12-.22.28-.22.47s.07.35.21.46c.14.11.38.17.7.17Z"/><path class="cls-1" d="M220.98,121.39c-1.54.36-2.91.51-4.12.47-1.21-.05-2.21-.28-3.01-.69-.8-.42-1.36-1.01-1.67-1.77-.1-.23-.1-.47,0-.7.1-.23.27-.4.5-.49.23-.1.47-.1.7,0,.23.1.39.27.48.5.19.44.59.77,1.19,1.01.6.23,1.37.35,2.31.34.94,0,2.01-.16,3.2-.45.25-.06.47-.02.69.11.21.14.35.33.41.57.05.24.01.47-.12.69-.13.21-.32.35-.56.41ZM219.58,113.04c-.55-.14-1.14-.25-1.76-.33s-1.25-.12-1.86-.13c-.61,0-1.18.01-1.71.06-.25.03-.48-.03-.68-.18-.2-.15-.31-.36-.34-.61-.03-.25.03-.48.18-.68.15-.2.36-.31.61-.34.61-.06,1.28-.08,2.02-.05s1.45.08,2.15.16c.7.08,1.31.19,1.83.32.24.07.43.21.56.42.13.21.17.44.11.68-.05.24-.19.44-.41.57-.22.14-.45.18-.69.11Z"/><path class="cls-1" d="M230.05,122.86c-.25.01-.47-.07-.66-.25s-.29-.39-.31-.65c0-.25.07-.48.25-.66s.39-.28.65-.28c1.46-.04,2.5-.29,3.12-.74.63-.45.94-1.11.94-1.98,0-.48-.16-.86-.47-1.15s-.72-.46-1.22-.51c-.5-.06-1.06.02-1.66.24-.6.21-1.19.58-1.77,1.08-.15.13-.33.2-.53.21-.2,0-.38-.04-.56-.15-.16-.11-.28-.26-.35-.44-.07-.18-.08-.37-.03-.56.14-.49.27-1.06.38-1.73.11-.66.2-1.32.28-1.99-.5.01-.97.01-1.41,0-.44,0-.82-.02-1.15-.04-.25-.02-.45-.13-.6-.32-.16-.19-.23-.41-.21-.66.02-.24.13-.45.32-.6.19-.16.41-.23.66-.21.34.03.73.05,1.17.06.44.01.9.01,1.38,0,.02-.29.04-.55.05-.79,0-.24.01-.45.01-.63,0-.25.08-.47.25-.65s.38-.27.63-.28c.25,0,.47.07.66.24.18.17.28.39.28.64,0,.17,0,.38-.02.61-.02.23-.03.49-.05.76,1.02-.06,1.9-.18,2.64-.35.25-.05.47,0,.68.13.21.14.33.33.38.57.05.24,0,.47-.12.67-.13.2-.32.33-.56.38-.44.08-.93.15-1.48.21-.55.06-1.12.11-1.71.15-.05.45-.11.89-.18,1.32-.07.43-.14.82-.21,1.17.57-.33,1.15-.54,1.74-.66.59-.11,1.16-.13,1.71-.05s1.04.26,1.48.53.78.64,1.04,1.09c.25.45.38.99.38,1.61,0,1.45-.51,2.56-1.54,3.35-1.03.78-2.45,1.21-4.28,1.27Z"/><path class="cls-1" d="M243.18,122.37c-.25,0-.47-.09-.65-.26-.18-.17-.27-.39-.28-.64,0-.25.09-.47.26-.65.17-.18.39-.27.64-.28,2.85-.05,4.28-.87,4.28-2.44,0-.52-.18-.93-.53-1.22-.36-.29-.83-.44-1.42-.44-.65,0-1.33.16-2.02.48-.7.32-1.33.8-1.9,1.44-.13.15-.3.25-.51.28-.21.04-.4,0-.57-.08-.17-.08-.3-.21-.38-.39-.08-.18-.11-.36-.08-.56.07-.43.15-.89.24-1.39.09-.5.18-1.01.28-1.52.1-.51.2-.99.31-1.43.05-.25.19-.45.41-.57.22-.13.45-.16.69-.1.25.06.43.2.57.42.13.22.17.45.11.69-.07.29-.16.61-.25.99-.1.37-.2.77-.3,1.18,1.17-.79,2.33-1.19,3.47-1.19.75,0,1.41.14,1.97.43.56.29,1,.68,1.31,1.19s.47,1.1.47,1.79c0,1.27-.5,2.3-1.5,3.07s-2.53,1.18-4.58,1.21ZM245.63,112.81c-.33-.16-.7-.34-1.11-.53-.41-.19-.83-.37-1.24-.55-.41-.18-.78-.33-1.09-.45-.22-.09-.38-.26-.46-.5-.08-.24-.07-.48.03-.7.11-.23.29-.39.52-.47.23-.08.47-.07.7.02.34.13.7.28,1.09.45s.79.34,1.18.52c.4.18.76.35,1.08.51.22.11.38.28.48.51s.1.46,0,.69c-.1.22-.27.39-.5.49-.23.1-.47.1-.7,0Z"/><path class="cls-1" d="M256.33,122.19c-.25-.03-.46-.15-.61-.34-.15-.2-.21-.43-.18-.68.04-.25.16-.46.36-.61.2-.15.42-.21.66-.18.33.04.61.05.86.02.25-.03.46-.13.65-.31.19-.18.35-.48.5-.9.14-.42.27-.99.37-1.73.09-.64.1-1.14.02-1.5-.08-.36-.28-.61-.58-.75s-.76-.19-1.36-.15c-.24.83-.53,1.67-.87,2.5-.34.83-.71,1.63-1.12,2.38-.41.75-.86,1.42-1.34,2.02-.15.19-.35.31-.6.34-.25.04-.48-.02-.68-.18-.19-.16-.31-.37-.34-.62-.04-.25.03-.47.19-.66.6-.73,1.15-1.59,1.64-2.58.49-.99.91-2.01,1.25-3.05-.32.04-.64.08-.97.11-.33.04-.66.07-.99.1-.24.02-.47-.05-.66-.2-.2-.15-.31-.36-.34-.61-.02-.25.05-.48.21-.68.16-.2.36-.31.6-.33.44-.05.88-.09,1.33-.13.45-.04.89-.06,1.31-.08.21-.94.35-1.81.4-2.63.02-.25.12-.47.31-.63.18-.17.4-.24.66-.22.25.01.47.11.63.3s.24.41.22.66c-.03.38-.08.77-.15,1.18-.07.41-.14.82-.24,1.25,1.39.02,2.34.39,2.83,1.12.49.72.63,1.82.43,3.28-.16,1.26-.42,2.24-.79,2.93-.36.69-.83,1.15-1.42,1.38s-1.31.29-2.16.18ZM264.92,117.67c-.22.12-.46.15-.69.08-.24-.07-.43-.21-.56-.43-.17-.33-.39-.67-.66-1.04-.26-.37-.54-.72-.82-1.06-.28-.34-.55-.63-.8-.88-.18-.17-.28-.38-.29-.63-.01-.24.07-.46.24-.64.17-.18.38-.28.63-.29.25-.01.47.07.65.24.33.31.65.65.99,1.05.33.39.64.79.93,1.2s.53.79.73,1.16c.13.22.16.46.09.7-.07.24-.22.42-.44.53Z"/><path class="cls-1" d="M271.79,122.37c-.25,0-.47-.09-.65-.26-.18-.17-.27-.39-.28-.64,0-.25.09-.47.26-.65.17-.18.39-.27.64-.28,2.85-.05,4.28-.87,4.28-2.44,0-.52-.18-.93-.53-1.22-.36-.29-.83-.44-1.42-.44-.65,0-1.33.16-2.02.48-.7.32-1.33.8-1.9,1.44-.13.15-.3.25-.51.28-.21.04-.4,0-.57-.08-.17-.08-.3-.21-.38-.39-.08-.18-.11-.36-.08-.56.07-.43.15-.89.24-1.39.09-.5.18-1.01.28-1.52.1-.51.2-.99.31-1.43.05-.25.19-.45.41-.57.22-.13.45-.16.69-.1.25.06.43.2.57.42.13.22.17.45.11.69-.07.29-.16.61-.25.99-.1.37-.2.77-.3,1.18,1.17-.79,2.33-1.19,3.47-1.19.75,0,1.41.14,1.97.43.56.29,1,.68,1.31,1.19s.47,1.1.47,1.79c0,1.27-.5,2.3-1.5,3.07s-2.53,1.18-4.58,1.21ZM274.23,112.81c-.33-.16-.7-.34-1.11-.53-.41-.19-.83-.37-1.24-.55-.41-.18-.78-.33-1.09-.45-.22-.09-.38-.26-.46-.5-.08-.24-.07-.48.03-.7.11-.23.29-.39.52-.47.23-.08.47-.07.7.02.34.13.7.28,1.09.45s.79.34,1.18.52c.4.18.76.35,1.08.51.22.11.38.28.48.51s.1.46,0,.69c-.1.22-.27.39-.5.49-.23.1-.47.1-.7,0Z"/></g></svg>