<?xml version="1.0" encoding="UTF-8"?><svg id="_レイヤー_2" xmlns="http://www.w3.org/2000/svg" viewBox="0 0 336 132.36"><defs><style>.cls-1{letter-spacing:-.09em;}.cls-2{letter-spacing:.05em;}.cls-3{letter-spacing:-.09em;}.cls-4{letter-spacing:-.08em;}.cls-5{letter-spacing:-.05em;}.cls-6{letter-spacing:.04em;}.cls-7{letter-spacing:-.05em;}.cls-8{letter-spacing:.05em;}.cls-9{letter-spacing:.05em;}.cls-10{letter-spacing:-.06em;}.cls-11{letter-spacing:-.16em;}.cls-12,.cls-13{stroke-width:0px;}.cls-12,.cls-14{fill:#00b900;}.cls-15{letter-spacing:-.1em;}.cls-16{letter-spacing:.04em;}.cls-17{letter-spacing:-.06em;}.cls-18{letter-spacing:0em;}.cls-19{letter-spacing:-.1em;}.cls-20{fill:none;stroke:#00b900;stroke-miterlimit:10;}.cls-21{letter-spacing:.03em;}.cls-13{fill:#fff;}.cls-14{font-family:ZenMaruGothic-Bold, 'Zen Maru Gothic';font-size:15.27px;font-weight:700;}</style></defs><g id="_レイヤー_1-2"><rect class="cls-12" x=".5" y=".5" width="335" height="131.36" rx="11.46" ry="11.46"/><path class="cls-13" d="M154.25,46.35c-.42,0-.77-.13-1.05-.4-.29-.27-.43-.63-.43-1.08v-1.67c-.68.14-1.46.29-2.36.46-.89.17-1.77.32-2.64.47-.87.15-1.61.27-2.24.38-.4.07-.74,0-1.01-.22-.28-.22-.45-.51-.52-.87-.07-.35,0-.65.23-.92.23-.27.53-.43.91-.48l1.35-.18v-8.3h-1.56c-.33,0-.61-.12-.83-.35-.23-.23-.34-.52-.34-.85,0-.31.11-.59.34-.83.23-.24.5-.36.83-.36h22.25c.31,0,.58.12.81.36.23.24.34.52.34.83,0,.33-.11.61-.34.85-.23.23-.49.35-.81.35h-11.45v11.35c0,.45-.14.81-.43,1.08-.29.27-.64.4-1.05.4ZM152.95,30.29c-1.35,0-2.39-.12-3.1-.36-.71-.24-1.2-.65-1.47-1.24s-.4-1.39-.4-2.43.13-1.85.4-2.43c.27-.58.76-.99,1.47-1.22.71-.23,1.74-.35,3.1-.35h6.27c1.35,0,2.39.12,3.11.35s1.21.64,1.48,1.22c.27.58.4,1.39.4,2.43s-.13,1.85-.4,2.43-.76.99-1.48,1.24c-.72.24-1.76.36-3.11.36h-6.27ZM149.49,34.72h3.28v-1.2h-3.28v1.2ZM149.49,37.87h3.28v-1.2h-3.28v1.2ZM149.49,41.38c.61-.09,1.19-.17,1.76-.26.56-.09,1.07-.16,1.52-.23v-1.07h-3.28v1.56ZM150.97,25.32h10.25c-.07-.45-.24-.73-.52-.85-.28-.11-.77-.17-1.48-.17h-6.27c-.69,0-1.18.06-1.46.17-.28.11-.45.4-.52.85ZM152.95,28.24h6.27c.71,0,1.21-.06,1.48-.18.28-.12.45-.41.52-.86h-10.25c.05.45.22.74.51.86.29.12.78.18,1.47.18ZM158.28,45.36c-.42.23-.83.32-1.25.27-.42-.04-.75-.26-.99-.66-.19-.33-.24-.69-.16-1.07s.32-.67.7-.86c1.16-.56,2.22-1.21,3.18-1.95-.97-1.23-1.71-2.64-2.21-4.22h-.44c-.33,0-.61-.12-.83-.36-.23-.24-.34-.53-.34-.86,0-.31.11-.59.34-.83.23-.24.5-.36.83-.36h5.62c1.06,0,1.86.2,2.39.6.54.4.82.93.86,1.59.03.66-.17,1.38-.62,2.16-.45.8-1.02,1.58-1.69,2.34.45.31.95.61,1.48.9.54.29,1.13.55,1.77.79.4.17.66.45.78.82.12.37.09.74-.1,1.11-.19.38-.49.62-.91.7-.42.09-.82.04-1.22-.13-.71-.3-1.38-.64-2-1.03-.62-.39-1.21-.8-1.77-1.24-1.06.85-2.2,1.61-3.41,2.29ZM161.67,39.32c.38-.43.69-.86.94-1.27.24-.4.32-.69.22-.88-.1-.19-.4-.29-.92-.29h-1.67c.36.92.84,1.73,1.43,2.45Z"/><path class="cls-13" d="M177.81,46.3c-.4,0-.74-.13-1.03-.4-.29-.27-.43-.62-.43-1.05v-5.1c-.45.64-.93,1.28-1.43,1.9-.5.62-.95,1.14-1.35,1.54-.28.28-.61.44-.99.49-.38.05-.72-.06-1.02-.34-.26-.24-.4-.53-.42-.87-.02-.34.09-.62.34-.85.4-.38.85-.85,1.34-1.41.49-.56.97-1.12,1.43-1.7.46-.58.85-1.09,1.16-1.52h-2.32c-.38,0-.69-.12-.94-.36-.24-.24-.36-.55-.36-.91s.12-.65.36-.9c.24-.25.56-.38.94-.38h3.25v-1.77h-3.8c-.38,0-.68-.12-.9-.35-.22-.23-.33-.52-.33-.85,0-.35.11-.64.33-.87.22-.23.52-.35.9-.35h1.93c-.12-.29-.24-.59-.35-.9-.11-.3-.2-.53-.25-.69-.12-.35-.11-.66.03-.95.14-.29.37-.47.7-.56l.08-.03h-1.59c-.36,0-.66-.12-.87-.35-.22-.23-.33-.52-.33-.85s.11-.61.33-.85c.22-.23.51-.35.87-.35h3.17v-1.54c0-.4.14-.73.43-.99.29-.26.65-.39,1.08-.39s.82.13,1.11.39c.29.26.43.59.43.99v1.54h3.12c.38,0,.68.12.89.35.21.23.31.52.31.85s-.1.61-.31.85c-.21.23-.5.35-.89.35h-1.46c.35.1.59.3.72.59.13.29.13.6.01.95-.07.17-.16.41-.27.7s-.24.59-.38.88h1.77c.38,0,.68.12.88.35.21.23.31.52.31.87s-.1.61-.31.85-.5.35-.88.35h-3.59v1.77h2.94c.4,0,.72.13.95.38.23.25.35.55.35.9,0,.36-.12.67-.35.91-.23.24-.55.36-.95.36h-2.65c.23.24.52.54.9.88.37.35.75.68,1.15,1,.39.32.71.57.95.74.28.23.43.52.46.88s-.08.68-.33.94c-.26.28-.56.42-.91.43s-.66-.11-.94-.35c-.42-.4-.94-.92-1.56-1.56v4.89c0,.43-.14.79-.42,1.05-.28.27-.62.4-1.01.4ZM177.11,30.24h1.3c.14-.35.3-.76.49-1.25s.35-.89.47-1.2c.12-.33.33-.56.62-.68h-4.48c.14.05.27.13.4.25.13.11.23.27.3.46.07.14.16.36.26.66.1.3.22.62.34.94.12.32.22.59.29.82ZM191.08,46.22c-.4,0-.75-.14-1.04-.42s-.44-.64-.44-1.09v-11.66h-2.16c-.02,2.72-.29,5.04-.83,6.96-.54,1.92-1.39,3.65-2.55,5.19-.28.35-.64.56-1.08.64s-.85,0-1.21-.25c-.31-.23-.5-.53-.56-.92-.06-.39.03-.72.27-1,.73-.87,1.31-1.83,1.76-2.9.44-1.07.76-2.29.95-3.67.19-1.38.29-2.96.29-4.75v-4.03c0-.97.12-1.75.35-2.33.23-.58.62-1.03,1.15-1.35.53-.32,1.23-.58,2.1-.77.68-.14,1.45-.33,2.33-.59.88-.25,1.66-.48,2.35-.69.47-.16.88-.15,1.25.01.36.17.61.42.73.77.14.42.14.81,0,1.18-.14.37-.42.62-.83.74-.75.19-1.51.38-2.29.57s-1.55.37-2.32.55c-.71.17-1.2.4-1.46.68-.26.28-.39.77-.39,1.48v1.64h6.64c.43,0,.78.14,1.03.42.25.28.38.62.38,1.02s-.13.71-.38.99c-.25.28-.59.42-1.03.42h-1.48v11.66c0,.45-.15.82-.44,1.09s-.65.42-1.07.42Z"/><path class="cls-13" d="M199.19,34.46c-.36-.07-.62-.26-.78-.56-.16-.3-.2-.63-.13-.98.1-.42.21-.93.31-1.55.1-.62.2-1.24.29-1.86.09-.62.15-1.15.18-1.59.03-.45.2-.78.51-.99.3-.21.66-.28,1.08-.21.35.05.62.21.83.48.21.27.29.6.26,1-.05.5-.12,1.09-.21,1.76-.09.67-.18,1.31-.29,1.94s-.21,1.15-.31,1.59c-.09.38-.29.66-.61.83-.32.17-.7.22-1.13.13ZM203.82,46.14c-.42,0-.77-.13-1.05-.4-.29-.27-.43-.63-.43-1.08v-21.26c0-.45.14-.81.43-1.08.29-.27.64-.4,1.05-.4s.76.13,1.04.4c.28.27.42.63.42,1.08v2.71s.04-.02.08-.05c.28-.19.58-.28.91-.26.33.02.58.15.75.39.1.12.25.31.43.56.18.25.37.5.56.75.19.25.33.46.42.61.03-.24.13-.46.29-.64s.37-.27.65-.27h3.57v-.96h-4.92c-.31,0-.56-.1-.74-.31-.18-.21-.27-.45-.27-.73s.09-.52.27-.74c.18-.22.43-.33.74-.33h4.92v-.91c0-.45.15-.81.44-1.07s.65-.39,1.07-.39.77.13,1.05.39.43.62.43,1.07v.91h5.31c.31,0,.56.11.73.33.17.22.26.46.26.74s-.09.52-.26.73c-.17.21-.42.31-.73.31h-5.31v.96h3.77c.29,0,.52.1.68.31.16.21.23.44.23.7s-.08.49-.23.7c-.16.21-.38.31-.68.31h-3.77v1.04h6.04c.33,0,.58.1.75.31.17.21.26.46.26.75,0,.28-.09.52-.26.73-.17.21-.43.31-.75.31h-14.7c-.33,0-.58-.1-.75-.31-.17-.21-.26-.45-.26-.73,0-.29.09-.55.26-.75.17-.21.42-.31.75-.31h5.67v-1.04h-3.57c-.14,0-.26-.03-.38-.09-.11-.06-.21-.13-.3-.2,0,.43-.17.77-.52,1.02-.28.19-.59.26-.94.21-.35-.05-.62-.22-.81-.49-.12-.19-.3-.46-.52-.79-.23-.34-.43-.65-.62-.92v16.71c0,.45-.14.81-.42,1.08-.28.27-.62.4-1.04.4ZM210.12,46.32c-.42,0-.77-.14-1.07-.42-.3-.28-.44-.64-.44-1.09v-7.91c0-.9.12-1.62.35-2.15.23-.53.64-.91,1.22-1.15.58-.23,1.39-.35,2.43-.35h4.01c1.04,0,1.85.12,2.42.35.57.23.98.62,1.21,1.15s.35,1.25.35,2.15v5.73c0,1.3-.33,2.23-.99,2.77-.66.55-1.62.82-2.89.82-.43,0-.79-.12-1.07-.35-.28-.23-.43-.54-.47-.92-.04-.4.05-.75.26-1.04.21-.29.52-.47.94-.52.49-.07.81-.15.98-.25.16-.09.25-.35.25-.77v-.65h-6.01v3.1c0,.45-.15.82-.44,1.09-.3.28-.64.42-1.04.42ZM211.6,36.56h6.01c-.02-.5-.13-.82-.33-.95-.2-.13-.62-.2-1.26-.2h-2.84c-.64,0-1.06.06-1.26.2-.2.13-.31.45-.33.95ZM211.6,39.71h6.01v-1.15h-6.01v1.15Z"/><path class="cls-13" d="M232.33,46.22c-.38,0-.71-.13-.99-.39s-.42-.61-.42-1.04v-3.36h-3.15c-.35,0-.65-.13-.9-.38-.25-.25-.38-.55-.38-.9s.13-.65.38-.9.55-.38.9-.38h3.15v-1.77h-3.49c-.35,0-.65-.13-.9-.38-.25-.25-.38-.55-.38-.9s.13-.65.38-.9.55-.38.9-.38h1.38c-.12-.33-.24-.65-.36-.96-.12-.31-.2-.51-.23-.6-.14-.33-.13-.65.03-.96.16-.31.4-.53.73-.65h-1.95c-.35,0-.65-.13-.9-.38-.25-.25-.38-.55-.38-.9s.13-.65.38-.9.55-.38.9-.38h3.9v-1.64h-2.78c-.35,0-.64-.13-.88-.38-.24-.25-.36-.54-.36-.87,0-.35.12-.64.36-.88s.54-.36.88-.36h2.78v-1.38c0-.43.14-.78.42-1.04s.61-.39.99-.39.74.13,1.01.39c.28.26.42.61.42,1.04v1.38h2.68c.35,0,.64.12.89.36.24.24.36.54.36.88s-.12.62-.36.87c-.24.25-.54.38-.89.38h-2.68v1.64h3.62c.35,0,.65.13.9.38.25.25.38.55.38.9s-.13.65-.38.9-.55.38-.9.38h-1.72c.31.12.54.33.69.64.15.3.15.61.01.92-.04.12-.12.34-.25.66-.13.32-.26.64-.4.95h1.22c.35,0,.65.13.9.38.25.25.38.55.38.9s-.13.65-.38.9c-.25.25-.55.38-.9.38h-3.17v1.77h2.86c.35,0,.65.13.9.38.25.25.38.55.38.9s-.13.65-.38.9-.55.38-.9.38h-2.86v3.36c0,.43-.14.78-.42,1.04-.28.26-.62.39-1.01.39ZM231.55,34.56h1.48c.09-.23.19-.5.3-.83.11-.33.22-.64.31-.94.1-.29.16-.49.2-.57.05-.21.15-.38.29-.52s.29-.24.47-.31h-4.68c.35.14.6.38.75.73.07.16.16.4.27.73.11.33.23.66.35.98.12.32.21.57.26.74ZM240.27,46.17c-.38,0-.72-.13-1-.4s-.43-.62-.43-1.05v-17.67c0-1.15.13-2.03.4-2.67.27-.63.76-1.08,1.47-1.34.71-.26,1.74-.39,3.1-.39s2.39.11,3.11.34c.72.23,1.21.62,1.48,1.2.27.57.4,1.37.4,2.39,0,1.15-.14,2.04-.42,2.68-.28.64-.72,1.09-1.34,1.34-.62.25-1.44.39-2.46.4-.45,0-.81-.13-1.07-.4-.26-.27-.41-.62-.44-1.05-.02-.4.11-.73.38-1,.27-.27.62-.41,1.05-.43.57-.03.95-.13,1.12-.3s.26-.47.26-.92c0-.66-.13-1.08-.39-1.27s-.82-.29-1.69-.29-1.41.11-1.68.33c-.27.22-.4.68-.4,1.39v4.66h4.01c1.39,0,2.34.32,2.86.95s.65,1.59.39,2.88c-.38,1.89-.97,3.54-1.77,4.94.38.43.78.85,1.2,1.26.42.41.87.79,1.35,1.16.31.23.48.54.51.95.03.41-.08.76-.33,1.05-.28.33-.62.51-1.04.53-.42.03-.79-.09-1.12-.35-.42-.33-.81-.67-1.18-1.03-.37-.36-.72-.72-1.05-1.11-.28.31-.56.62-.85.92-.29.3-.59.6-.9.9-.3.28-.64.44-1.04.48-.4.04-.75-.07-1.04-.35-.05.38-.21.69-.48.92-.27.23-.59.35-.98.35ZM241.72,42.81c.81-.76,1.53-1.54,2.13-2.32-.85-1.49-1.5-3.19-1.95-5.1-.1-.42-.05-.77.16-1.07h-.34v8.48ZM245.47,37.76c.14-.35.27-.7.4-1.07.13-.36.23-.74.3-1.12.12-.5.12-.84-.01-1-.13-.17-.46-.25-1-.25h-.94c.1.12.18.3.23.52.26,1.02.6,2,1.02,2.92Z"/><path class="cls-13" d="M256.31,44.97c-.43.07-.82-.02-1.17-.26-.35-.24-.56-.57-.65-.99-.1-.57-.18-1.35-.23-2.34-.05-.99-.09-2.1-.1-3.33-.02-1.23-.01-2.51.01-3.84.03-1.33.07-2.62.14-3.88.07-1.26.16-2.4.27-3.44.11-1.03.25-1.87.4-2.51.1-.42.34-.74.7-.96.36-.23.75-.29,1.17-.18s.74.34.96.7c.23.36.29.75.18,1.17-.16.64-.29,1.45-.39,2.42s-.19,2.03-.26,3.19c-.07,1.15-.12,2.34-.14,3.55-.03,1.21-.03,2.39-.01,3.53.02,1.14.06,2.17.12,3.1.06.93.14,1.69.25,2.28.09.42,0,.8-.25,1.15-.25.35-.59.56-1,.65ZM264.98,44.94c-1.39,0-2.5-.34-3.34-1.03-.84-.69-1.26-1.67-1.26-2.95s.42-2.21,1.26-2.93c.84-.72,2-1.08,3.47-1.08.45,0,.91.03,1.38.08-.02-.81-.04-1.7-.06-2.67s-.06-1.95-.09-2.95c-.92.05-1.81.09-2.67.1-.86.02-1.6.02-2.23,0-.43-.02-.79-.18-1.08-.48-.29-.3-.42-.67-.4-1.11.03-.42.2-.77.51-1.05.3-.29.66-.42,1.08-.4.61.02,1.32.02,2.15.01.82,0,1.69-.04,2.59-.09-.02-.66-.03-1.29-.03-1.9v-1.72c0-.43.15-.8.44-1.11.29-.3.66-.46,1.09-.46s.82.15,1.12.46c.29.3.44.67.44,1.11,0,.54,0,1.09.01,1.67,0,.57.01,1.15.01,1.74.76-.07,1.46-.14,2.09-.21s1.17-.14,1.6-.21c.42-.09.8,0,1.15.25s.56.59.62,1-.02.8-.27,1.15c-.25.35-.59.55-1,.6-.49.07-1.09.14-1.81.22-.72.08-1.5.15-2.33.22.03,1.21.07,2.39.1,3.51.03,1.13.06,2.13.08,2.99.95.31,1.85.69,2.69,1.12.84.43,1.57.88,2.2,1.35.35.26.55.6.62,1.03.07.43-.02.81-.26,1.16-.24.35-.58.56-1,.65-.43.09-.81,0-1.16-.26-.43-.33-.91-.65-1.43-.96-.52-.31-1.06-.59-1.61-.83-.17,2.65-1.73,3.98-4.68,3.98ZM264.98,42c1.08,0,1.61-.51,1.61-1.54,0-.05,0-.12-.01-.21,0-.09-.01-.18-.01-.29-.52-.1-1.05-.16-1.59-.16s-.93.1-1.18.31c-.25.21-.38.48-.38.81s.12.59.36.78c.24.19.64.29,1.2.29Z"/><path class="cls-13" d="M113.38,77.22c-1.02,0-1.54-.51-1.54-1.54v-15.15c0-1.02.49-1.54,1.48-1.54s1.51.51,1.51,1.54v13.9h7.96c1.02,0,1.54.46,1.54,1.38s-.51,1.41-1.54,1.41h-9.42Z"/><path class="cls-13" d="M129.1,77.22c-.99,0-1.48-.51-1.48-1.54v-15.15c0-1.02.49-1.54,1.48-1.54s1.51.51,1.51,1.54v15.15c0,1.02-.5,1.54-1.51,1.54Z"/><path class="cls-13" d="M136.93,77.22c-.99,0-1.48-.51-1.48-1.54v-15.15c0-1.02.49-1.54,1.48-1.54h.34c.78,0,1.4.34,1.85,1.02l7.91,11.92v-11.4c0-.5.13-.88.4-1.15s.65-.39,1.13-.39c1.01,0,1.51.51,1.51,1.54v15.15c0,1.02-.48,1.54-1.43,1.54h-.26c-.8,0-1.41-.34-1.85-1.02l-8.09-12.28v11.76c0,1.02-.5,1.54-1.51,1.54Z"/><path class="cls-13" d="M156.43,77.22c-1.02,0-1.54-.51-1.54-1.54v-15.15c0-1.02.51-1.54,1.54-1.54h9.11c1.02,0,1.54.47,1.54,1.41s-.51,1.38-1.54,1.38h-7.65v4.74h6.84c1.02,0,1.54.47,1.54,1.41s-.51,1.41-1.54,1.41h-6.84v5.1h7.94c1.02,0,1.54.46,1.54,1.38s-.51,1.41-1.54,1.41h-9.39Z"/><path class="cls-13" d="M188.2,78.05c-2.05-.3-3.74-.89-5.07-1.78-1.34-.89-2.33-1.97-2.98-3.24-.65-1.27-.98-2.58-.98-3.96s.27-2.68.81-3.89c.54-1.21,1.32-2.25,2.34-3.14-1.04.16-2.15.33-3.33.53-1.18.2-2.32.4-3.42.6-1.1.2-2.07.38-2.9.53-.43.07-.82-.03-1.16-.29-.34-.26-.54-.6-.61-1.02-.07-.43.02-.82.27-1.16.25-.34.59-.54,1.03-.61.56-.09,1.27-.2,2.13-.35.87-.15,1.84-.31,2.91-.48,1.08-.17,2.18-.36,3.31-.55,1.13-.19,2.23-.38,3.32-.56,1.08-.18,2.08-.35,2.98-.51.9-.16,1.64-.29,2.21-.39.4-.07.78.02,1.13.26.36.24.57.56.64.96.09.42.02.81-.2,1.17-.22.36-.53.58-.95.65-1.21.19-2.28.56-3.2,1.11-.92.55-1.7,1.21-2.33,1.98-.63.77-1.11,1.59-1.43,2.45-.32.86-.48,1.7-.48,2.54,0,1.68.57,3.04,1.72,4.07,1.15,1.03,2.71,1.69,4.68,1.96.42.07.75.28,1.01.62.26.35.36.73.29,1.15-.05.43-.25.78-.6,1.04-.35.26-.73.36-1.15.29ZM191.5,67.41c-.23.19-.5.27-.82.23s-.58-.18-.77-.44c-.19-.24-.43-.55-.73-.92-.3-.37-.56-.7-.81-.98-.16-.19-.23-.42-.22-.69,0-.27.13-.5.35-.69.21-.19.45-.28.72-.27.27,0,.52.11.74.3.26.23.56.52.9.88.34.36.62.69.85.99.19.24.26.52.22.83-.04.31-.19.56-.43.75ZM194,65.17c-.23.23-.5.33-.82.31-.32-.02-.59-.15-.79-.39-.21-.24-.47-.54-.79-.89-.32-.35-.61-.65-.87-.91-.17-.17-.26-.4-.27-.68,0-.28.09-.52.3-.73.19-.19.42-.29.7-.3.28,0,.53.07.75.25.28.19.6.46.96.79s.67.66.91.95c.21.23.3.49.29.79-.02.3-.14.57-.36.79Z"/><path class="cls-13" d="M204.79,77.69c-.35.26-.74.36-1.18.3-.44-.06-.79-.26-1.05-.61-.28-.36-.38-.76-.31-1.2.07-.43.28-.79.62-1.07,1.15-.85,2.11-1.88,2.89-3.1s1.35-2.54,1.72-3.98h-8.9c-.43,0-.8-.15-1.11-.46-.3-.3-.46-.67-.46-1.11s.15-.8.46-1.11.67-.46,1.11-.46h9.34c.02-.9-.03-1.82-.16-2.76-1.04.17-2.07.32-3.1.43-1.02.11-1.98.2-2.86.25-.43.03-.81-.1-1.13-.42-.32-.31-.49-.69-.51-1.12-.02-.45.13-.83.44-1.13.31-.3.69-.46,1.12-.48.87-.03,1.8-.11,2.81-.23,1.01-.12,2.02-.27,3.04-.44,1.02-.17,2-.37,2.93-.59.93-.22,1.75-.44,2.46-.66.43-.14.85-.12,1.25.05.4.17.68.47.83.89.16.42.14.82-.04,1.22-.18.4-.49.67-.92.81-.43.16-.93.3-1.48.44-.56.14-1.15.28-1.77.42.09.54.14,1.09.17,1.65.03.56.03,1.12.01,1.68h7.52c.43,0,.8.15,1.11.46.3.3.46.67.46,1.11s-.15.8-.46,1.11c-.3.3-.67.46-1.11.46h-7.91c-.4,1.98-1.1,3.81-2.09,5.5-1,1.69-2.24,3.08-3.73,4.15Z"/><path class="cls-13" d="M225.32,75.84c-.38,0-.71-.14-.99-.43s-.42-.62-.42-1,.14-.73.42-1c.28-.27.61-.4.99-.4h5.88v-4.35h-3.57c-.38,0-.71-.14-.99-.43-.28-.29-.42-.62-.42-1s.14-.73.42-1c.28-.27.61-.4.99-.4h9.89c.4,0,.74.13,1.02.4.28.27.42.6.42,1s-.14.72-.42,1c-.28.29-.62.43-1.02.43h-3.51v4.35h5.93c.4,0,.73.13,1,.4.27.27.4.6.4,1s-.13.72-.4,1-.6.43-1,.43h-14.63Z"/><path class="cls-13" d="M250.84,70.82c-.35.16-.7.16-1.05.01s-.62-.39-.79-.74c-.28-.57-.57-1.13-.87-1.68s-.58-1.01-.82-1.39c-.23-.33-.31-.69-.25-1.07.06-.38.25-.69.56-.91.31-.23.66-.31,1.05-.25.39.06.7.25.92.56.33.47.69,1.05,1.07,1.76.38.7.69,1.32.91,1.86.17.35.19.7.04,1.07s-.4.62-.77.78ZM251.67,78.31c-.35.16-.71.17-1.08.03-.37-.14-.64-.38-.79-.73-.16-.36-.17-.73-.03-1.09.14-.36.38-.62.73-.78,1.77-.8,3.22-1.7,4.36-2.72,1.14-1.02,2.03-2.19,2.67-3.51.64-1.33,1.08-2.85,1.33-4.57.05-.4.24-.71.56-.94.32-.23.67-.31,1.05-.26.38.05.69.23.92.55.23.31.32.67.25,1.07-.45,2.98-1.49,5.56-3.11,7.72-1.62,2.16-3.91,3.91-6.86,5.24ZM255.11,69.83c-.38.12-.74.1-1.07-.07-.33-.16-.56-.43-.7-.79-.19-.5-.43-1.08-.72-1.72-.29-.64-.52-1.15-.72-1.54-.17-.35-.22-.71-.13-1.08.09-.37.29-.65.62-.85.35-.21.71-.26,1.09-.17.38.1.66.32.83.66.26.49.55,1.08.87,1.78.32.7.59,1.37.79,1.99.14.36.12.72-.07,1.07-.18.35-.46.58-.82.7Z"/><path class="cls-13" d="M270.85,78.1c-.42.17-.83.18-1.24.01-.41-.17-.71-.45-.9-.85-.17-.4-.18-.81-.01-1.22.16-.42.45-.71.85-.88,2.88-1.27,5.37-2.84,7.47-4.71,2.1-1.87,3.76-4.01,4.97-6.4.29-.56.35-.97.17-1.25-.18-.28-.63-.42-1.34-.42h-3.46c-.83,1.11-1.76,2.19-2.78,3.24-1.02,1.05-2.09,1.96-3.2,2.72-.35.26-.74.35-1.18.27s-.79-.3-1.05-.66c-.24-.36-.33-.77-.25-1.21s.3-.78.66-1.03c.97-.66,1.92-1.45,2.84-2.37.92-.92,1.76-1.89,2.51-2.9.75-1.02,1.35-2.01,1.78-2.98.17-.4.47-.68.88-.85.42-.16.82-.15,1.22.04.4.17.68.47.85.88.17.42.15.82-.04,1.22-.07.17-.16.35-.26.52h1.8c2.06,0,3.44.53,4.12,1.59.69,1.06.59,2.49-.27,4.29-.88,1.84-2.04,3.58-3.47,5.23-1.43,1.65-3.05,3.13-4.85,4.44-1.8,1.31-3.74,2.4-5.8,3.27Z"/><path class="cls-13" d="M297.31,78.81c-.61,0-1.13-.22-1.56-.65s-.65-.95-.65-1.56.22-1.13.65-1.56c.43-.43.95-.65,1.56-.65s1.13.22,1.56.65c.43.43.65.95.65,1.56s-.22,1.13-.65,1.56c-.43.43-.95.65-1.56.65ZM297.31,72.46c-.35,0-.65-.12-.91-.36-.26-.24-.41-.55-.44-.91-.05-.66-.1-1.41-.14-2.26-.04-.85-.09-1.72-.14-2.62-.05-.89-.1-1.75-.13-2.56-.03-.82-.06-1.54-.08-2.16-.02-.62-.03-1.08-.03-1.38v-2.58c0-.5.18-.93.53-1.27.36-.35.8-.52,1.34-.52s1.01.17,1.37.52c.35.35.53.77.53,1.27v2.58c0,.29-.01.75-.04,1.38-.03.62-.06,1.34-.09,2.16-.04.82-.07,1.67-.12,2.56-.04.89-.09,1.77-.14,2.62-.05.85-.1,1.6-.16,2.26-.02.36-.16.67-.42.91-.26.24-.57.36-.94.36Z"/><path class="cls-13" d="M94.42,44.94c0-15.38-15.42-27.89-34.37-27.89s-34.37,12.51-34.37,27.89c0,13.79,12.23,25.34,28.74,27.52,1.12.24,2.64.74,3.03,1.69.35.87.23,2.23.11,3.11,0,0-.4,2.43-.49,2.94-.15.87-.69,3.4,2.98,1.85,3.67-1.55,19.79-11.65,27.01-19.96h0c4.98-5.46,7.37-11.01,7.37-17.16ZM47.93,53.15c0,.37-.3.67-.67.67h-9.63c-.18,0-.34-.07-.46-.19,0,0,0,0,0,0,0,0,0,0,0-.01-.12-.12-.19-.28-.19-.46v-14.97c0-.37.3-.67.67-.67h2.41c.37,0,.67.3.67.67v11.89h6.55c.37,0,.67.3.67.67v2.41ZM53.74,53.15c0,.37-.3.67-.67.67h-2.41c-.37,0-.67-.3-.67-.67v-14.98c0-.37.3-.67.67-.67h2.41c.37,0,.67.3.67.67v14.98ZM70.33,53.15c0,.37-.3.67-.67.67h-2.41c-.06,0-.12,0-.17-.02h-.01s-.03-.01-.05-.02c0,0-.01,0-.02,0-.01,0-.02,0-.03-.01-.01,0-.02-.01-.03-.02,0,0-.01,0-.02-.01-.01,0-.03-.02-.04-.02,0,0,0,0,0,0-.06-.04-.12-.1-.17-.16l-6.87-9.28v8.89c0,.37-.3.67-.67.67h-2.41c-.37,0-.67-.3-.67-.67v-14.98c0-.37.3-.67.67-.67h2.41s.02,0,.02,0c.01,0,.02,0,.03,0,.01,0,.02,0,.03,0,0,0,.02,0,.03,0,.01,0,.03,0,.04,0,0,0,.02,0,.02,0,.01,0,.03,0,.04.01,0,0,.01,0,.02,0,.01,0,.03.01.04.02,0,0,.01,0,.02,0,.01,0,.02.01.03.02,0,0,.01,0,.02.01.01,0,.02.02.03.02,0,0,.01,0,.02.01.01,0,.02.02.04.03,0,0,0,0,.01.01.01.01.03.03.04.04,0,0,0,0,0,0,.02.02.04.04.05.07l6.86,9.27v-8.9c0-.37.3-.67.67-.67h2.41c.37,0,.67.3.67.67v14.98ZM83.65,40.58c0,.37-.3.67-.67.67h-6.55v2.53h6.55c.37,0,.67.3.67.67v2.41c0,.37-.3.67-.67.67h-6.55v2.53h6.55c.37,0,.67.3.67.67v2.41c0,.37-.3.67-.67.67h-9.63c-.18,0-.34-.07-.46-.19,0,0,0,0,0,0,0,0,0,0,0-.01-.12-.12-.19-.28-.19-.46v-14.97c0-.18.07-.34.19-.46,0,0,0,0,.01-.01,0,0,0,0,0,0,.12-.12.28-.19.46-.19h9.63c.37,0,.67.3.67.67v2.41Z"/><path class="cls-13" d="M.5,100.21v20.76c0,6.01,4.87,10.89,10.89,10.89h313.22c6.01,0,10.89-4.87,10.89-10.89v-20.76H.5Z"/><rect class="cls-20" x=".5" y=".5" width="335" height="131.36" rx="11.46" ry="11.46"/><text class="cls-14" transform="translate(59.32 121.82)"><tspan class="cls-6" x="0" y="0">L</tspan><tspan class="cls-8" x="9.31" y="0">I</tspan><tspan class="cls-9" x="13.96" y="0">N</tspan><tspan class="cls-21" x="25.43" y="0">E</tspan><tspan class="cls-16" x="34.85" y="0">公</tspan><tspan class="cls-18" x="50.74" y="0">式</tspan><tspan class="cls-7" x="66.07" y="0">ア</tspan><tspan class="cls-3" x="80.56" y="0">カ</tspan><tspan class="cls-1" x="94.44" y="0">ウ</tspan><tspan class="cls-11" x="108.38" y="0">ン</tspan><tspan class="cls-10" x="121.16" y="0">ト</tspan><tspan class="cls-17" x="135.58" y="0">は</tspan><tspan class="cls-19" x="149.98" y="0">こ</tspan><tspan class="cls-15" x="163.76" y="0">ち</tspan><tspan class="cls-4" x="177.48" y="0">ら</tspan><tspan class="cls-5" x="191.51" y="0">か</tspan><tspan class="cls-2" x="206.08" y="0">ら</tspan></text></g></svg>