<?xml version="1.0" encoding="UTF-8"?><svg id="_レイヤー_2" xmlns="http://www.w3.org/2000/svg" viewBox="0 0 80.74 27.68"><defs><style>.cls-1{fill:#c69c6d;stroke-width:0px;}</style></defs><g id="_レイヤー_1-2"><path class="cls-1" d="M44.49,10.4c.9,0,2.52,1.19,2.52,2.34,0,2.12-5.29,7.6-5.29,11.63,0,.65.32,1.8,1.44,1.8.11,0,.22.04.22.14s-.14.18-.36.18c-1.3,0-3.17-1.04-3.17-3.35,0-3.96,5.33-9.4,5.33-11.63,0-.25-.18-.47-.43-.47-2.48,0-10.15,7.67-13.71,11.91-.79.94-1.19,1.48-1.44,1.48-.61,0-1.94-1.15-1.94-1.94,0-3.2,11.3-16.16,11.3-18.39,0-.32-.11-.54-.65-.54-4.68,0-18.39,19.33-21.74,23.58-.36.47-.54.54-.94.54-.79,0-2.48-.9-2.48-1.91,0-4.43,10.83-15.51,10.83-21.17,0-2.88-1.66-4.07-3.56-4.07C12.13.54,2.16,10.37,2.16,16.27c0,1.51.54,2.63,2.16,2.63,5.04,0,12.09-8.06,13.07-10.65.04-.07.07-.18.18-.18.14,0,.5.58.5.83,0,1.55-8.28,10.55-14.22,10.55-1.84,0-3.85-1.51-3.85-3.49C0,9.11,11.77,0,19.73,0c3.38,0,6.26,2.3,6.26,5.33,0,6.08-10.73,16.95-10.73,21.45,0,.07.07.14.14.14,1.73,0,17.17-24.01,22.64-24.01,1.37,0,2.7,1.37,2.7,2.41,0,2.88-10.08,13.57-10.11,17.03,1.01-1.12,10.94-11.95,13.86-11.95Z"/><path class="cls-1" d="M50.89,22.32c-1.04.83-2.02,1.3-2.48,1.3-.86,0-2.41-.86-2.41-2.52,0-.72.14-1.37.4-1.98,0-.07-.04-.14-.04-.25,0-3.06,3.31-5.26,5.22-5.26,1.62,0,2.81,1.04,2.81,2.56,0,2.38-1.55,4.43-3.1,5.79,2.16-.14,4.03-1.62,5.15-2.74,0,0,.11-.14.22-.14s.18.11.18.14c0,.07-.29.32-.4.43-1.08.97-2.77,2.56-5.54,2.66ZM50.64,14.9c.43,0,1.15,1.01,1.15,1.37,0,.22-.25.36-.47.47-1.33.79-3.17,2.38-3.96,3.96.61.79,1.69,1.26,2.99,1.33,1.51-1.33,2.99-3.64,2.99-5.98,0-1.19-.68-1.94-2.09-1.94s-3.96,1.66-4.39,4.03c.58-.94,1.37-1.66,2.12-2.3.58-.5,1.19-.94,1.66-.94ZM47.04,21.99c0,.65.4,1.19,1.01,1.19.54,0,1.26-.32,1.98-.86-1.19-.11-2.2-.5-2.84-1.19-.11.29-.14.58-.14.86Z"/><path class="cls-1" d="M58.3,14.72c.54,0,1.48.76,1.48,1.73,0,1.44-2.63,5.26-2.63,6.7,0,.11.07.18.18.18,1.08,0,6.62-4.79,6.62-8.96,0-.61-.22-.94-.22-1.19,0-.11.04-.14.14-.14.25,0,1.12.9,1.12,1.94,0,4.14-6.95,9.03-8.03,9.03-.47,0-1.55-.83-1.55-1.51,0-1.73,2.59-6.01,2.59-7.52,0-.18.07-.25.29-.25Z"/><path class="cls-1" d="M69.25,15.73c0,.65-4.1,5.29-4.1,6.84,0,.43.25.61.58.61,2.05,0,6.23-3.96,6.23-3.96,0,0,.14-.14.25-.14.07,0,.14.11.14.14,0,.07-.29.32-.4.43,0,0-4.39,4.21-6.73,4.21-.58,0-1.73-.83-1.73-1.98,0-1.58,3.13-5.58,3.82-7.27.11-.22.25-.36.43-.36.72,0,1.51.83,1.51,1.48ZM72.82,9.47c0,.25-.47,1.01-.76,1.15-.22.11-.68.25-1.01.36-.68.22-.9.61-1.04.61-.11,0-.22-.07-.22-.22,0-.86,1.37-2.66,1.37-3.53,0-.11.07-.14.14-.14.58,0,1.51,1.26,1.51,1.76Z"/><path class="cls-1" d="M80.6,19.08c.11,0,.14.11.14.14,0,.07-.25.32-.36.43,0,0-3.56,3.89-6.33,3.89-1.84,0-2.81-1.15-2.81-3.02,0-3.24,3.24-6.62,4.82-6.62.97,0,1.58,1.22,1.58,1.66,0,1.01-2.2,2.92-4.18,4.14-.07.22-.11.86-.11,1.12,0,1.12.54,2.05,1.58,2.05,1.91,0,5.43-3.64,5.43-3.64,0,0,.14-.14.22-.14ZM76.89,15.59c0-.29-.11-.4-.29-.4-.61,0-2.02,1.4-3.1,4.03,1.62-1.08,3.38-2.81,3.38-3.64Z"/></g></svg>