<?xml version="1.0" encoding="UTF-8"?><svg id="_レイヤー_2" xmlns="http://www.w3.org/2000/svg" viewBox="0 0 87.2 25.73"><defs><style>.cls-1{fill:#fff;stroke-width:0px;}</style></defs><g id="_レイヤー_1-2"><path class="cls-1" d="M1.74,20.79c0,2.44,1.13,4.1,3.74,4.1,6.71,0,12.58-11.71,12.58-17.59,0-1.97-.63-3.27-2.14-3.27-2.14,0-4.44,2.94-4.44,5.91,0,1.03.33,2.04,1.5,2.17.13,0,.2.07.2.13,0,.2-.47.37-1.1.37-1.07,0-2.54-.53-2.54-2.47,0-3.87,4.67-7.21,7.51-7.21,2.44,0,3.44,1.5,3.44,3.77,0,6.47-8.38,19.02-15.82,19.02-2.97,0-4.67-1.94-4.67-5.14C0,10.81,9.84,1.44,19.19.03l.2-.03c.13,0,.2.03.2.1s-.1.2-.23.23C9.34,2.84,1.74,14.48,1.74,20.79Z"/><path class="cls-1" d="M22.6,16.22c3.3-.27,6.27-.7,8.88-1.3,4.37-8.21,10.88-12.18,14.65-12.18,2.1,0,3.2.83,3.2,2.1,0,2.77-5.17,7.58-16.02,10.21-1.13,2.3-2.07,4.94-2.7,7.88,0,0,0,.3.2.3.7,0,5.71-3.5,7.71-3.5,2.44,0,1.84,3.37,3.2,3.37,1.7,0,5.51-2.97,5.84-3.24.07-.03.1-.07.17-.07.1,0,.2.07.2.2,0,.07-.03.17-.1.23-.4.4-5.37,4.1-7.64,4.1-1.77,0-.7-3.57-2.94-3.57-2.1,0-6.27,3.87-8.01,3.87-.53,0-1.03-.17-1.03-.67,0-.07,0-.17.03-.23.23-1,.5-2,.8-2.94-2,1.63-5.34,3.77-7.34,3.77-1.27,0-1.84-.97-1.84-2.5,0-1.4.47-3.3,1.3-5.34-1.5.1-3.07.13-4.71.13-.57,0-.8,0-.8-.17,0-.27.67-.27.97-.27,1.64,0,3.2-.03,4.71-.13,1.37-3.14,3.54-6.61,6.04-9.14.1-.07.17-.1.23-.1.1,0,.17.1.17.23,0,.07,0,.1-.03.17-2.14,2.34-4,5.71-5.14,8.78ZM22.44,16.65c-.63,1.77-.97,3.44-.97,4.67,0,1.37.43,2.2,1.44,2.2,1.94,0,5.41-2.7,6.41-3.54.53-1.6,1.17-3.1,1.87-4.47-2.6.5-5.54.9-8.74,1.13ZM45.26,3.44c-2.77,0-8.01,3.84-11.65,10.98,9.51-2.57,13.85-6.97,13.85-9.34,0-1-.73-1.64-2.2-1.64Z"/><path class="cls-1" d="M51.81,25.06c-2.77,0-4.57-1.27-4.57-2.74,0-.73.37-1.43.93-2.04-.33-.1-.63-.23-.93-.4-.07-.03-.1-.1-.1-.13,0-.1.1-.17.27-.17.1,0,.23.03.4.1l.73.23c1.54-1.3,4.07-2.1,5.84-2.1,1.13,0,1.94.33,1.94,1.07,0,1.37-1.87,2.07-4.17,2.07-.8,0-1.63-.07-2.44-.23-.2.37-.3.8-.3,1.23,0,1.5,1.2,2.17,2.97,2.17,2.67,0,6.67-1.57,9.74-4.2.07-.07.1-.07.17-.07.1,0,.2.07.2.2,0,.07-.03.17-.1.23-4,3.5-7.78,4.77-10.58,4.77ZM49.94,20.29c.8.17,1.4.23,1.87.23,1.5,0,2.54-.9,2.54-1.54,0-.33-.3-.63-1-.63-1,0-2.57.73-3.4,1.94Z"/><path class="cls-1" d="M65.53,24.73c-.77,0-1.23-.33-1.23-1.17,0-1.4,1.5-2.9,2.2-3.6.03-.03.07-.1.07-.13,0-.1-.13-.17-.7-.17-1.67,0-2.37-.03-2.8-.23-.07,0-.17.1-.3.23-.23.27-.73.7-1.1.97-.13.1-.27.13-.37.13s-.17-.03-.17-.1.03-.17.17-.27c.7-.6,1.44-1.3,1.67-1.87.13-.33.23-.47.37-.47.1,0,.2.03.33.13.3.2,1.5.27,2.4.27.53,0,.73-.03,1.07-.03.37,0,.7.2.7.5,0,.4-1.7,2.14-1.7,3.7,0,.63.37.9.93.9,1.94,0,6.34-2.94,7.07-3.67.07-.07.1-.07.17-.07.1,0,.2.07.2.2,0,.07-.03.17-.1.23-.83.8-6.37,4.5-8.88,4.5Z"/><path class="cls-1" d="M82.09,19.46c0,1.47-1.74,3.57-3.94,4.5,2.47-.13,6.01-1.7,8.68-4.04.07-.03.1-.07.17-.07.1,0,.2.07.2.2,0,.07-.03.17-.1.23-3.14,2.9-7.48,4.57-10.35,4.57-1.47,0-2.54-.43-2.9-1.3-.07-.17-.1-.3-.1-.47,0-.63.83-1.1,1.3-1.1.17,0,.23.07.23.27.4,1.07,1.07,1.54,1.77,1.54,1.27,0,2.6-1.4,2.6-3.27,0-1.4-.63-1.94-1.54-1.94s-2.3.63-4.07,1.9c-.23.17-.43.23-.53.23s-.17-.07-.17-.13c0-.1.07-.2.2-.3,0,0,3.2-2.87,6.54-2.87,1.17,0,2,.53,2,2.04Z"/></g></svg>