<?xml version="1.0" encoding="UTF-8"?><svg id="_レイヤー_2" xmlns="http://www.w3.org/2000/svg" viewBox="0 0 295.1 237.95"><defs><style>.cls-1{fill:#d5d4d3;}.cls-1,.cls-2,.cls-3,.cls-4,.cls-5,.cls-6,.cls-7,.cls-8,.cls-9,.cls-10{stroke-width:0px;}.cls-2{fill:#282322;}.cls-3{fill:#231815;}.cls-4{fill:#ffa3a3;}.cls-5{fill:#fff566;}.cls-6{fill:#63a0d8;}.cls-7{fill:#251e1c;}.cls-8{fill:#fff;}.cls-9{fill:#64a2da;}.cls-10{fill:#636262;}</style></defs><g id="_レイヤー_1-2"><path class="cls-7" d="M84.24,208.05l-4.73-24.15-2.89-23.31s0-.03,0-.04c-.13-.69-.53-1.27-1.12-1.61-.55-.31-1.21-.37-1.8-.15-4.13,1.51-28.5,5.89-34.95,4.85-.02,0-.03,0-.05,0l-20.56-2.02c-1.21-.12-2.34.64-2.69,1.8l-.2.68c-1.35,4.46-4.15,13.74-4.56,28.97,0,.02,0,.03,0,.05l.86,22.01c.02.41.34.73.75.74l41.84.86h.02c.07,0,.13,0,.2-.03l29.33-7.75c.39-.1.63-.49.56-.89Z"/><path class="cls-8" d="M87.6,118.22l-3.88-24.81s-.86-15.53-15.1-18.55c0,0-14.3-.68-13.57-11.71,14.09-2.34,11.34-19.15,11.34-19.15-.59-3.37-1.17-8.5-1.17-8.5.59-12.3-5.13-15.23-5.13-15.23-10.55-7.18-14.21.88-14.21.88-4.25,19.19-10.94,19.6-10.94,19.6-4.15-5.54-7.08-1-7.08-1-2.49,8.64,5.64,10.25,5.64,10.25.06.11.12.21.18.32.22,1.19,3.8,21.63-12.95,25.4,0,0-20.93,1.73-18.98,26.1l20.06,42.5-3.49,17.3,20.39,2s.03,0,.05,0c6.46,1.04,30.82-3.33,34.95-4.85.06-.02.13-.04.19-.06l-1.18-18.5,14.89-22Z"/><path class="cls-4" d="M34.03,58.77c.37-4.37-.26-7.97-.35-8.45-.06-.11-.12-.21-.18-.32,0,0-8.13-1.61-5.64-10.25,0,0,2.93-4.54,7.08,1,0,0,6.69-.42,10.94-19.6,0,0,3.66-8.06,14.21-.88,0,0,5.71,2.93,5.13,15.23,0,0,.1.84.25,2.07,2.59-3.65,5.81-10.09,1.24-15.39,0,0-15.5-19.64-29.31-11.64,0,0-7.15-2.55-17.56,11.38,0,0-14.5,24.9,14.19,36.84Z"/><path class="cls-8" d="M79.81,209.96l-25.46,6.73c-.06.02-.13.03-.2.03h-.02l-39.93-.82c.85,6.89,2.32,14.07,4.73,20.8h65.83l-4.97-26.74Z"/><path class="cls-4" d="M20.5,74.86s5.18,17.69,29.34,16.83c0,0,18.77.86,17.69-17.47l5.18,1.94,4.75,37.54-3.45,38.83s-30.85,8.85-53.29,1.51l1.94-30.85s9.49-16.4-8.2-45.3l6.04-3.02Z"/><path class="cls-4" d="M41.74,157.9c-9.8,0-16.77-1.46-21.32-2.95-.41-.14-.69-.53-.66-.97l1.94-30.85c0-.15.05-.29.13-.42.02-.04,2.28-4.07,2.41-11.5.21-12.47-5.64-24.73-10.6-32.82-.14-.23-.18-.51-.1-.76.07-.26.25-.47.49-.59l6.04-3.02c.25-.13.55-.13.81-.02.26.11.46.34.54.61h0s1.31,4.31,5.44,8.4c5.53,5.48,13.25,8.09,22.95,7.74.03,0,.05,0,.08,0,.08,0,8.12.3,12.98-4.64,2.76-2.8,4-6.78,3.71-11.82-.02-.32.13-.63.39-.83.26-.19.6-.24.9-.13l5.18,1.94c.33.12.57.42.61.78l4.75,37.54c0,.07,0,.14,0,.21l-3.45,38.83c-.04.39-.31.73-.69.84-.08.02-7.91,2.25-18.38,3.54-5.26.65-9.96.91-14.15.91ZM21.72,153.35c20.08,6.21,46.95-.4,51.39-1.57l3.38-38.06-4.66-36.86-3.3-1.24c.02,4.94-1.43,8.92-4.31,11.84-5.34,5.4-13.64,5.23-14.38,5.2-12.8.44-20.34-4.3-24.41-8.37-3.2-3.2-4.8-6.45-5.46-8.08l-4.15,2.08c4.99,8.35,10.6,20.59,10.33,33.12-.15,6.99-2.05,11.1-2.55,12.06l-1.88,29.89Z"/><rect class="cls-8" x="37.86" y="122.35" width="23.29" height="16.29" rx="8.14" ry="8.14"/><path class="cls-1" d="M59.48,126.2h-19.69c-.53,0-.96-.43-.96-.96s.43-.96.96-.96h19.69c.53,0,.96.43.96.96s-.43.96-.96.96Z"/><path class="cls-8" d="M45.03,117.46h0l1.22,13.03-18.1,7.13c-.09.05.09-.06,0,0-.92.61-.42,1.2,0,0l-.26-1.55-2.34-10.23C14.92,61.58,1.55,87.52,1.3,105.93c0,0,5.81,31.61,9.03,38.63,0,0,4.42,9.64,7.58,13.37,2.29,2.7-2.63.82,11.87-2.16l15.1-9.06,13.68-34.25-8.42.39c-2.29.73-4.15,2.42-5.11,4.62Z"/><path class="cls-7" d="M51.63,111.97l-6.83-11.05c-.1-.16-.24-.28-.42-.35-.13-.05-1.34-.51-2.29.14-.42.28-.92.87-.92,2.08,0,.17.05.33.14.47l6.43,10.04c.16.25.44.4.73.4.05,0,.1,0,.14-.01l2.41-.4c.29-.05.53-.23.65-.5.12-.26.1-.57-.05-.82Z"/><path class="cls-5" d="M39.1,171.02c-1.95,0-3.28-1.98-2.52-3.78l22.84-54.37c.7-1.38,2.14-2.21,3.69-2.14l38.54.48c2.76.13,2.65,2.92,1.53,5.44l-21,52.65c-.41,1.03-1.41,1.71-2.52,1.72h-40.55Z"/><path class="cls-7" d="M83.37,166.29c-.26-.1-.55-.1-.81.01-.26.11-.46.32-.56.58l-.82,2.04c-.25.64-.86,1.05-1.54,1.05h-40.57c-.57,0-1.07-.28-1.39-.75-.32-.47-.37-1.05-.15-1.57l22.82-54.33c.52-1,1.56-1.6,2.72-1.54l4.69.06,28.69.48h0c.59,0,1.05-.45,1.06-1.04,0-.58-.45-1.06-1.04-1.07l-28.69-.48-4.66-.06c-1.95-.09-3.78.97-4.67,2.72-.01.02-.02.05-.03.07l-22.84,54.37c-.49,1.17-.36,2.5.34,3.56.7,1.05,1.87,1.68,3.15,1.68h40.56s0,0,0,0c1.55,0,2.92-.94,3.49-2.38l.82-2.04c.21-.54-.05-1.15-.59-1.37Z"/><path class="cls-7" d="M104.45,111.64c-.39-.63-1.18-1.39-2.76-1.47-.28-.01-.55.08-.76.27-.21.19-.33.45-.34.73-.01.28.08.55.27.76.19.21.45.33.73.34.8.04,1,.36,1.07.47.39.63.21,2.02-.47,3.53l-9.48,23.78c-.1.26-.1.55.01.81.11.26.32.46.58.56.13.05.26.08.39.08.43,0,.82-.26.98-.66l9.47-23.74c.98-2.21,1.1-4.19.32-5.46Z"/><path class="cls-7" d="M93.38,113.81c-.19-.21-.44-.34-.72-.35-.28-.02-.55.08-.76.26l-2.61,2.32h-12.95l-1.63-2.44c-.16-.23-.39-.39-.67-.45-.28-.06-.56,0-.79.16-.23.16-.39.39-.45.67-.06.28,0,.56.16.79l1.94,2.91c.2.29.52.47.88.47h13.91c.26,0,.51-.09.7-.27l2.91-2.59c.43-.39.47-1.05.09-1.49Z"/><path class="cls-8" d="M96.8,146.33l-10.25-4.42c-2.7-1.19-3.88.11-3.88.11-1.08.86-.22,2.48-.22,2.48l.93,1.08s-4.6-2.55-5.47-.11c0,0-1.08,1.62,1.44,3.42,0,0-3.31-2.3-4.46.72,0,0-.43,2.23,2.29,3.48.16.08,1.02.92.84.91-1.18-.1-3.67,1.19-.54,4.64l2.16,1.9c.4.36.83.69,1.27,1,1.18.81,3.54,2.33,5.2,2.75,0,0,5.82,2.12,6.04-1.87,0,0,3.31-1.29,3.16-3.88,0,0,3.02-1.15,2.88-4.03l.43-3.52c1.29-3.67-1.83-4.64-1.83-4.64Z"/><path class="cls-3" d="M99.59,147.42c-.71-1.42-2.02-1.96-2.4-2.09l-10.2-4.4c-2.96-1.3-4.59-.11-5.02.28-.84.69-.97,1.61-.91,2.31-1.05-.25-1.93-.24-2.63.03-.69.26-1.2.77-1.47,1.45-.16.27-.48,1-.27,1.99-.25.02-.48.06-.71.13-.66.2-1.55.73-2.08,2.11-.02.06-.04.12-.05.18-.18.95.05,2.88,2.07,4.2-.32.25-.57.56-.74.91-.46.93-.57,2.52,1.52,4.83.03.03.06.06.09.09l2.16,1.9c.44.39.9.75,1.37,1.07,1.28.88,3.69,2.43,5.49,2.89.41.14,1.85.61,3.37.61,1.05,0,1.92-.22,2.59-.66.51-.33,1.15-.97,1.39-2.12.92-.48,2.94-1.77,3.22-3.92,1.17-.65,3.04-2.11,2.9-4.76-.03-.59-.54-1.04-1.13-1.02-.29.01-.55.14-.74.35-.19.21-.29.49-.28.77.1,2.04-2.09,2.93-2.19,2.97-.44.17-.72.59-.69,1.06.1,1.76-2.46,2.82-2.48,2.83-.39.15-.66.52-.68.94-.04.72-.31.98-.51,1.11-1.03.68-3.36.07-4.09-.19-.03-.01-.07-.02-.11-.03-1.08-.27-2.85-1.22-4.85-2.59-.4-.27-.79-.58-1.17-.92l-2.11-1.85c-1.11-1.24-1.32-2.07-1.15-2.4.15-.3.63-.43.84-.41.13.01.26,0,.39-.04l9.14,5.15c.16.09.34.14.53.14.39,0,.75-.21.94-.55.29-.52.11-1.17-.41-1.46l-10.43-5.88c-.25-.19-.44-.31-.45-.31-1.65-.76-1.72-1.88-1.69-2.23.25-.59.56-.68.66-.71.66-.21,1.73.32,2.14.6.01,0,.03.01.04.02.01,0,.02.02.04.03l11.72,6.72c.16.09.35.14.53.14.38,0,.74-.21.93-.54.29-.51.12-1.17-.4-1.46l-11.67-6.69c-1.54-1.12-1.15-1.9-1.14-1.92.07-.09.09-.14.12-.24.06-.17.14-.23.25-.28.78-.3,2.66.4,3.68.97,0,0,0,0,.01,0,0,0,0,0,0,0l11.15,5.83c.15.08.32.12.5.12.4,0,.77-.22.95-.58.27-.52.07-1.17-.45-1.45l-10.97-5.73-.7-.81c-.16-.39-.25-.87-.02-1.06l.03-.02s.04-.03.06-.06c.03-.03.8-.71,2.7.12l10.25,4.42s.07.03.1.04c0,0,.84.29,1.21,1.05.28.57.26,1.31-.06,2.21-.1.27-.08.56.04.82.12.26.34.45.61.55.27.1.56.08.82-.04.26-.12.45-.34.55-.61.52-1.48.5-2.79-.06-3.9Z"/><path class="cls-7" d="M87.56,107.47c-.81-4.64-2.99-16.54-3.23-17.88v-.04c-1.8-9.42-7.19-12.66-7.41-12.79-.5-.29-1.15-.12-1.44.38-.29.5-.12,1.15.38,1.44.05.03,4.78,2.88,6.4,11.36.02.13,2.38,12.98,3.23,17.9.09.51.52.87,1.04.87.06,0,.12,0,.18-.02.28-.05.52-.2.68-.43.16-.23.22-.51.18-.79Z"/><path class="cls-7" d="M25.92,135.66c.09.52.53.89,1.06.89.06,0,.12,0,.18-.01.58-.1.98-.65.88-1.24l-5.82-34.3c-.1-.58-.65-.98-1.24-.88-.58.1-.98.65-.88,1.24l5.82,34.3Z"/><path class="cls-7" d="M41.73,147.51c-4.9,3.02-18.57,10.84-22.95,10.84-.59,0-1.07.48-1.07,1.07s.48,1.07,1.07,1.07c5.89,0,23.34-10.71,24.08-11.16.5-.31.66-.97.35-1.48-.31-.5-.97-.66-1.48-.35Z"/><path class="cls-7" d="M57.81,112.26c-.04-.28-.18-.54-.41-.71-.23-.18-.51-.25-.79-.21-9.33,1.19-11.61,3.81-11.84,4.1-.16.2-.24.45-.23.71l.6,13.66-24.85,10.73c-.54.23-.79.87-.56,1.41.17.39.56.65.99.65.15,0,.29-.03.43-.09l25.52-11.03c.41-.18.67-.59.65-1.03l-.61-13.9c.86-.67,3.5-2.23,10.18-3.08.28-.04.54-.18.71-.41.18-.23.25-.51.22-.79Z"/><path class="cls-7" d="M2.16,101.13c-.4-15.46,8.14-20.38,8.51-20.58.52-.28.71-.94.42-1.45-.28-.52-.94-.71-1.46-.43-.41.22-10.06,5.69-9.62,22.54v.04c.02.26,1.87,26.14,14.11,53.86.17.39.56.64.98.64.15,0,.29-.03.43-.09.54-.24.79-.87.55-1.41C4.16,127.26,2.23,102.18,2.16,101.13Z"/><path class="cls-10" d="M54.59,214.87s-.02,0-.04,0c-.59-.02-1.06-.51-1.04-1.11l.43-13.38c0-.28.13-.55.33-.74l10.79-10.36c.43-.41,1.11-.4,1.52.03.41.43.4,1.11-.03,1.52l-10.47,10.05-.42,12.94c-.02.58-.49,1.04-1.07,1.04Z"/><path class="cls-7" d="M17.91,237.95c-.49,0-.94-.35-1.03-.85l-3.02-18.79c-.11-.57.26-1.12.83-1.24.57-.11,1.12.26,1.24.83l3.02,18.79c.11.57-.26,1.12-.83,1.24-.07.01-.14.02-.2.02Z"/><path class="cls-7" d="M52.65,237.09c-.56,0-1.03-.44-1.05-1.01l-.65-17.5c-.03-.58.42-1.07,1-1.1.58-.02,1.07.42,1.1,1l.65,17.5c.03.58-.42,1.07-1,1.1-.02,0-.03,0-.05,0Z"/><path class="cls-7" d="M84.78,236.67c-.49,0-.92-.34-1.03-.83l-4.31-23.54c-.12-.57.24-1.13.81-1.25.57-.12,1.13.24,1.25.81l4.31,23.54c.12.57-.24,1.13-.81,1.25-.07.02-.15.02-.22.02Z"/><path class="cls-7" d="M35.35,49.36c-.15-.25-.38-.43-.67-.51-.28-.08-.58-.04-.83.11-1.22.71-2.81-.89-2.97-1.05-3.66-5.36-1.54-7.7-1.3-7.93.79-.56,1.53-.79,2.19-.67,1.01.18,1.65,1.11,1.65,1.12.33.5,1.01.64,1.52.31.5-.33.65-1.01.32-1.51-.05-.07-1.13-1.72-3.08-2.08-1.29-.24-2.62.12-3.93,1.08-.02.02-.05.03-.07.05-.17.14-4.1,3.61.93,10.92.03.04.05.07.08.11.03.03.7.78,1.67,1.34.61.36,1.22.57,1.81.65.15.02.3.03.45.03.09,0,.18,0,.27,0,.55-.03,1.07-.19,1.56-.48.52-.3.7-.98.4-1.5Z"/><path class="cls-7" d="M34,46.41s.09,0,.14,0c.44-.07.73-.5.67-.94-.61-4.72-3.43-4.82-3.55-4.82h0c-.63.29-.71,1.16-.14,1.55l.09.06c.06,0,1.58.16,2,3.44.05.4.39.7.79.71Z"/><path class="cls-7" d="M33.88,46.58c-.43-.06-.79-.41-.84-.85-.39-3.14-1.82-3.29-1.84-3.29-.03,0-.06-.01-.09-.03l-.09-.06c-.32-.22-.49-.59-.46-.97.03-.39.26-.72.62-.88.02-.01.05-.02.08-.02.13,0,3.09.09,3.72,4.97.07.54-.3,1.05-.82,1.13-.06,0-.11.01-.17.01h0s-.08,0-.11,0ZM31.28,42.1c.3.05,1.71.46,2.1,3.59.04.31.3.55.62.56h0s.07,0,.11,0c.34-.05.57-.38.53-.74-.56-4.34-2.98-4.64-3.34-4.67-.22.12-.36.33-.38.58-.02.26.09.51.31.66l.05.04Z"/><path class="cls-7" d="M34.06,46.46s-.04,0-.07,0c-.42,0-.78-.33-.83-.75-.41-3.25-1.89-3.4-1.96-3.4,0,0-.01,0-.02,0l-.09-.06c-.28-.19-.43-.51-.4-.85.03-.34.23-.63.54-.77,0,0,.01,0,.02,0,.12,0,2.98.1,3.59,4.86.06.47-.26.91-.71.98-.03,0-.05,0-.08,0ZM31.23,42.22c.16.02,1.62.28,2.02,3.48.05.38.37.66.75.67h0s.09,0,.13,0c.41-.06.69-.46.64-.89-.59-4.59-3.28-4.77-3.5-4.78-.28.13-.46.39-.48.7-.03.31.11.6.36.78l.08.06Z"/><path class="cls-7" d="M33.87,46.62c-.45-.06-.82-.42-.88-.89-.39-3.11-1.79-3.25-1.8-3.25-.03,0-.08-.02-.11-.04l-.09-.06c-.33-.23-.51-.61-.47-1.01.03-.4.27-.75.64-.92.02-.01.07-.02.1-.02.12,0,3.13.1,3.76,5.01.07.57-.31,1.09-.85,1.18-.03,0-.06,0-.1.01-.03,0-.05,0-.08,0-.04,0-.08,0-.12,0ZM31.29,42.06c.32.06,1.74.49,2.13,3.62.04.29.29.52.58.52.03,0,.07,0,.1,0,.31-.05.53-.36.49-.69-.55-4.24-2.85-4.6-3.29-4.63-.2.11-.33.31-.35.54-.02.25.09.48.29.62l.05.03Z"/><path class="cls-2" d="M21.83,44.41c-.59-.08-1.02-.62-.95-1.22.07-.6.62-1.04,1.22-.97,5.89.68,10.8-.55,14.6-3.66,7.11-5.83,8.07-16.41,8.08-16.51,0-.03,0-.06.01-.09.29-1.76.84-3.17,1.63-4.2.37-.48,1.06-.57,1.54-.2.48.37.57,1.06.2,1.54-.56.73-.96,1.79-1.19,3.17-.08.93-1.21,11.69-8.86,17.98-4.28,3.51-9.75,4.91-16.26,4.16,0,0-.01,0-.02,0Z"/><path class="cls-7" d="M56.53,33.92c-.11-.02-.22-.05-.33-.1-.55-.26-.78-.92-.51-1.47,3.32-6.86-1.72-13.78-1.77-13.85-.36-.49-.26-1.18.23-1.54.49-.36,1.18-.26,1.54.22.24.32,5.89,8.05,1.98,16.12-.21.44-.68.67-1.14.61Z"/><path class="cls-7" d="M64.87,33.25c-.52-.07-.94-.51-.95-1.06-.29-9.29-5.77-12.77-6-12.91-.52-.32-.68-.99-.37-1.51.31-.52.99-.69,1.51-.37.28.17,6.74,4.18,7.07,14.73.02.61-.46,1.12-1.07,1.13-.06,0-.12,0-.18,0Z"/><path class="cls-7" d="M47.16,34.33c-.24-.03-.47-.14-.65-.34-.42-.44-.4-1.14.05-1.56,4.91-4.63,3.17-14.42,3.15-14.52-.11-.6.28-1.17.88-1.28.6-.11,1.17.28,1.28.88.08.45,1.98,11.06-3.8,16.52-.25.24-.59.33-.9.29Z"/><path class="cls-7" d="M46.82,37.98c.02.69.6,1.23,1.28,1.2.69-.02,1.23-.6,1.2-1.28-.02-.69-.6-1.23-1.28-1.2-.69.02-1.23.6-1.2,1.28Z"/><path class="cls-7" d="M57.36,46.96l1.65-.16c.48-.05.83-.47.78-.95-.05-.48-.47-.83-.95-.78l-1.65.16c-.48.05-.83.47-.78.95.05.48.47.83.95.78Z"/><path class="cls-7" d="M60.12,36.94c.02.69.6,1.23,1.28,1.2.69-.02,1.23-.6,1.2-1.28-.02-.69-.6-1.23-1.28-1.2-.69.02-1.23.6-1.2,1.28Z"/><path class="cls-7" d="M56.43,58.09c-.19,0-.39,0-.59,0-.04,0-.09,0-.13-.02-1.44-.3-4.09-2.03-3.8-6.43.03-.45.38-.82.83-.86l6.93-.68c.48-.05.92.28,1,.76.03.16.65,3.85-1.19,5.91-.76.85-1.78,1.29-3.05,1.33ZM56.04,56.24c.92.04,1.59-.19,2.06-.71.78-.87.89-2.44.84-3.51l-5.2.51c.09,2.92,1.89,3.59,2.3,3.71Z"/><path class="cls-7" d="M24.6,75.5c-.39,0-.77-.22-.96-.59-.26-.53-.05-1.17.48-1.44h0c.45-.23,10.92-5.7,8.7-20.02-.09-.59.31-1.13.9-1.22.58-.09,1.13.31,1.22.9,2.46,15.91-9.73,22.2-9.86,22.27-.15.08-.32.11-.48.11Z"/><path class="cls-7" d="M64.3,75.93c-.08,0-.17,0-.25-.03-4.48-1.09-6.79-3.61-7.94-5.54-1.25-2.1-1.43-3.97-1.43-4.04-.05-.59.39-1.11.98-1.16.59-.05,1.11.38,1.16.97.02.25.65,5.96,7.74,7.68.58.14.93.72.79,1.3-.12.49-.56.82-1.04.82Z"/><path class="cls-7" d="M28.31,71.78c-.07-.3-.26-.55-.52-.71-.26-.16-.57-.21-.87-.13-.62.15-.99.77-.84,1.39.08.33,8.1,32.88,16.51,48.17.2.37.59.6,1.01.6.19,0,.38-.05.55-.14.56-.31.76-1.01.45-1.56-8.25-15.02-16.21-47.29-16.29-47.61Z"/><path class="cls-7" d="M62.42,76.31c-.02-.31-.15-.59-.38-.79-.23-.2-.52-.31-.83-.29-.63.04-1.12.58-1.08,1.21.01.23,1.27,23.01-.62,31.62-.14.62.26,1.23.88,1.37.08.02.17.03.25.03.54,0,1.01-.38,1.12-.9,1.95-8.89.73-31.29.67-32.24Z"/><path class="cls-2" d="M55.98,64.43c-9.26,0-17.54-7.73-17.89-8.06-.44-.41-.46-1.11-.04-1.54.41-.44,1.11-.46,1.54-.04.08.07,7.96,7.42,16.32,7.46.45-.07,3.92-.69,6.79-4.81.04-.05,4.02-6.02,2.6-14.73-.1-.6.31-1.16.9-1.25.59-.1,1.16.31,1.25.9,1.56,9.61-2.78,16.05-2.96,16.32-3.62,5.19-8.21,5.72-8.4,5.74-.04,0-.07,0-.11,0Z"/><path class="cls-7" d="M83.85,26.05c-.23,0-.47-.08-.67-.23-.47-.37-.55-1.05-.18-1.52l11.01-13.97c.37-.47,1.05-.55,1.52-.18.47.37.55,1.05.18,1.52l-11.01,13.97c-.21.27-.53.41-.85.41Z"/><path class="cls-7" d="M97.47,8.77c-.23,0-.47-.08-.67-.23-.47-.37-.55-1.05-.18-1.52l1.13-1.43c.37-.47,1.05-.55,1.52-.18.47.37.55,1.05.18,1.52l-1.13,1.43c-.21.27-.53.41-.85.41Z"/><path class="cls-7" d="M90.72,34.96c-.36,0-.71-.18-.92-.5-.32-.51-.17-1.18.33-1.5l12.71-8.07c.51-.32,1.18-.17,1.5.33.32.51.17,1.18-.33,1.5l-12.71,8.07c-.18.11-.38.17-.58.17Z"/><path class="cls-7" d="M114.76,43.64c-.56,0-1.03-.42-1.08-.99-.05-.6.39-1.12.98-1.18l1.41-.13c.59-.05,1.12.39,1.18.98.05.6-.39,1.12-.98,1.18l-1.41.13s-.07,0-.1,0Z"/><path class="cls-7" d="M94.25,45.48c-.56,0-1.03-.42-1.08-.99-.05-.6.39-1.12.98-1.18l17.05-1.52c.59-.05,1.12.39,1.18.98.05.6-.39,1.12-.98,1.18l-17.05,1.52s-.07,0-.1,0Z"/><path class="cls-7" d="M103.81,79.71c-.26,0-.51-.09-.72-.27l-1.12-.99c-.45-.4-.49-1.08-.09-1.53.4-.45,1.08-.49,1.53-.09l1.12.99c.45.4.49,1.08.09,1.53-.21.24-.51.37-.81.37Z"/><path class="cls-7" d="M99.96,76.3c-.26,0-.51-.09-.72-.27l-12.14-10.75c-.45-.4-.49-1.08-.09-1.53.4-.45,1.08-.49,1.53-.09l12.14,10.75c.45.4.49,1.08.09,1.53-.21.24-.51.37-.81.37Z"/><path class="cls-7" d="M107.71,60.3c-.12,0-.25-.02-.37-.07l-14.33-5.22c-.56-.2-.85-.83-.65-1.39.2-.56.83-.85,1.39-.65l14.33,5.22c.56.2.85.83.65,1.39-.16.44-.58.71-1.02.71Z"/><path class="cls-8" d="M262.01,107.54l-12.55-22.9s-7.96-8.11-18.58-8.34c0,0-9.46,1.58-8.34-13.09,4.92-4.96,6.65-8.98,7.24-11.39.25.15.51.26.8.31,1.82.3,3.69-1.78,4.19-4.63.49-2.85-.58-5.41-2.4-5.71-.42-.07-.85,0-1.26.16-1.52-14.33-13.27-21.22-18.51-20.86-2.92-.29-12.81-.18-16.94,17.78l.15,3.08c-.41-.17-.83-.23-1.26-.16-1.82.3-2.89,2.86-2.4,5.71.49,2.85,2.37,4.93,4.19,4.63.29-.05.55-.16.8-.31.55,2.24,1.25,7.54,6.39,11.66.23,3.51-.35,9.56-3.45,12.24,0,0-2.22,1.23-8.61,1.45,0,0-10.27.86-16.39,13.83,0,0-1.22,3.91-2.94,12.23,0,0-6.45,24.48-9.4,29.11l18.85,4.1,6.2-15.2-.35,11.64,1.83,12.91s.98,3.42-.73,4.92l-2.51,9.15c9.82.91,18.97,1.46,27.21,1.61,8.39-.16,17.77-.72,27.85-1.67l-3.32-12.57,2.46-18.56.92-4.89,6.35,9.51h0c2.49,2.25,5.19,4.46,8.18,6.06,3.1,1.65,8.57,1.26,10.43-1.71,2.16-3.45,2.13-5.86,2.8-7.98.92-2.88.88-10.79.86-13.81-.04-8.54-.02-14.96-.02-14.96l.28-2.51-8.03,9.15Z"/><path class="cls-4" d="M223.11,14.57c.67-1.35,1.04-2.87,1.04-4.47,0-5.58-4.52-10.1-10.1-10.1s-10.1,4.52-10.1,10.1c0,1.31.25,2.57.71,3.72-8.38,3.49-14.31,12.05-14.31,22.06,0,3.26.63,6.37,1.77,9.2.26-1.75,1.17-3.07,2.44-3.28.42-.07.85,0,1.26.16l-.15-3.08c4.13-17.96,14.01-18.07,16.94-17.78,5.24-.36,16.99,6.52,18.51,20.86.41-.17.83-.23,1.26-.16.94.15,1.68.92,2.11,2.01.84-2.48,1.3-5.15,1.3-7.93,0-9.35-5.17-17.43-12.68-21.3Z"/><path class="cls-6" d="M229.74,51.99s.08-.09.12-.13c-.03-.01-.05-.03-.08-.04-.01.06-.03.11-.04.17Z"/><path class="cls-6" d="M196.5,52.1c.34.38.69.75,1.05,1.1-.17-.53-.3-1-.4-1.38-.21.13-.42.22-.66.28Z"/><path class="cls-8" d="M157.97,125.56s-2.94-2.94-5.63.98l-2.69,4.4,7.09,1.47s3.67-3.67,1.22-6.85Z"/><path class="cls-7" d="M156.75,133.45c-.07,0-.14,0-.21-.02l-7.09-1.47c-.33-.07-.61-.3-.75-.61-.14-.31-.11-.67.07-.96l2.69-4.4s.02-.03.03-.05c1.04-1.51,2.27-2.35,3.65-2.47,2.02-.19,3.52,1.28,3.58,1.35.03.03.06.07.09.1,2.38,3.09.18,6.73-1.31,8.23-.2.2-.47.31-.74.31ZM151.32,130.22l5.05,1.04c.73-.9,2.21-3.1.82-5-.19-.17-.98-.8-1.88-.71-.72.07-1.42.59-2.09,1.55l-1.9,3.11Z"/><path class="cls-7" d="M156.75,133.55c-.08,0-.16,0-.23-.02l-7.09-1.47c-.36-.08-.67-.32-.82-.66-.15-.34-.12-.73.07-1.05l2.69-4.4s.02-.04.03-.05c1.06-1.54,2.31-2.38,3.72-2.51,2.08-.19,3.59,1.31,3.66,1.38.03.03.07.07.1.11,2.42,3.14.19,6.84-1.32,8.35-.21.21-.51.33-.81.33ZM155.49,123.55c-.11,0-.23,0-.35.02-1.35.12-2.55.94-3.58,2.43-.01.01-.02.03-.03.04l-2.69,4.4c-.16.26-.18.59-.06.87.12.28.38.49.68.55l7.09,1.47c.3.07.64-.04.86-.26,1.47-1.47,3.64-5.06,1.3-8.1-.02-.03-.05-.06-.08-.09-.06-.06-1.35-1.34-3.16-1.34ZM156.37,131.36s-.01,0-.02,0l-5.05-1.04s-.06-.03-.07-.06c-.01-.03-.01-.06,0-.09l1.9-3.11c.68-.99,1.41-1.52,2.16-1.6.93-.09,1.73.53,1.96.73,1.44,1.97-.09,4.24-.81,5.13-.02.02-.05.04-.07.04ZM151.48,130.15l4.86,1c.71-.88,2.11-3.02.78-4.84-.19-.17-.94-.76-1.8-.67-.69.07-1.37.58-2.02,1.51l-1.83,2.99Z"/><path class="cls-8" d="M258.17,76.25s-3,2.87.85,5.65l4.34,2.79,1.62-7.06s-3.59-3.75-6.82-1.37Z"/><path class="cls-7" d="M263.37,85.73c-.2,0-.39-.06-.57-.17l-4.34-2.79s-.03-.02-.05-.03c-1.49-1.07-2.3-2.32-2.39-3.7-.14-2.03,1.36-3.49,1.43-3.55.03-.03.07-.06.1-.09,3.14-2.31,6.74-.03,8.2,1.49.24.25.34.61.26.96l-1.62,7.06c-.08.33-.31.61-.62.73-.13.05-.26.08-.4.08ZM259.62,81.04l3.07,1.97,1.15-5.02c-.88-.75-3.05-2.27-4.98-.93-.17.19-.82.96-.75,1.87.06.72.56,1.44,1.5,2.12Z"/><path class="cls-7" d="M263.37,85.85c-.22,0-.44-.06-.63-.18l-4.34-2.79s-.04-.02-.05-.04c-1.52-1.09-2.34-2.37-2.44-3.79-.14-2.08,1.39-3.58,1.46-3.64.04-.03.08-.07.12-.1,3.21-2.36,6.86-.04,8.35,1.51.27.28.38.68.29,1.06l-1.62,7.06c-.08.37-.34.67-.69.82-.14.06-.29.09-.44.09ZM260.5,74.54c-.95,0-1.94.27-2.88.96-.03.02-.06.05-.09.08-.06.06-1.53,1.49-1.39,3.46.09,1.35.88,2.56,2.34,3.62l.04.03,4.34,2.79c.25.16.57.19.86.08.28-.11.49-.36.56-.65l1.62-7.06c.07-.31-.02-.63-.24-.85-1-1.04-3.01-2.44-5.17-2.44ZM262.68,83.12s-.04,0-.06-.02l-3.07-1.97s0,0,0,0c-.97-.7-1.49-1.45-1.55-2.2-.07-.94.58-1.73.78-1.95,2.02-1.41,4.26.18,5.14.92.03.03.05.07.04.11l-1.15,5.02s-.03.07-.07.08c-.01,0-.03,0-.04,0ZM259.68,80.94l2.93,1.88,1.1-4.79c-.87-.73-2.96-2.16-4.78-.88-.17.19-.76.91-.7,1.76.05.69.54,1.37,1.45,2.03Z"/><path class="cls-5" d="M151.36,128.21c-2.67,3.97-4.18,8.6-4.35,13.38-.08,2.06-1.4,3.25-3.3,2.63-2.48-.81-4.96-1.61-7.44-2.42-1.89-.62-3.65-2.8-3.57-4.86.18-4.78,1.68-9.41,4.35-13.38,1.15-1.71,3.86-2.45,5.75-1.83,2.48.81,4.96,1.61,7.44,2.42,1.9.62,2.27,2.35,1.12,4.07Z"/><path class="cls-7" d="M144.67,145.43c-.41,0-.85-.07-1.29-.21l-7.44-2.42c-2.42-.79-4.39-3.49-4.29-5.9.12-3.24.82-6.4,2.08-9.4.22-.53.84-.78,1.37-.56.53.22.78.84.56,1.37-1.16,2.76-1.81,5.67-1.92,8.66-.06,1.5,1.3,3.33,2.85,3.83l7.44,2.42c.36.12.88.2,1.27-.07.39-.27.62-.85.65-1.6.18-4.98,1.75-9.79,4.53-13.92.42-.62.57-1.24.41-1.68-.16-.45-.62-.69-.99-.81l-7.44-2.42c-1.55-.5-3.72.17-4.56,1.42-.32.48-.97.61-1.45.29-.48-.32-.61-.97-.29-1.45,1.34-2.01,4.52-3.03,6.94-2.24l7.44,2.42c1.15.38,1.98,1.13,2.32,2.11.38,1.09.14,2.34-.65,3.53-2.56,3.81-4.01,8.25-4.18,12.84-.06,1.44-.61,2.59-1.55,3.24-.53.37-1.16.56-1.83.56Z"/><path class="cls-7" d="M144.67,145.52c-.43,0-.87-.07-1.32-.22l-7.44-2.42c-2.46-.8-4.46-3.55-4.36-6,.12-3.25.82-6.43,2.09-9.43.12-.28.34-.5.62-.61.28-.11.59-.11.87,0,.28.12.5.34.61.62.11.28.11.59,0,.87-1.16,2.75-1.8,5.65-1.91,8.63-.06,1.46,1.27,3.24,2.78,3.74l7.44,2.42c.34.11.83.19,1.19-.06.36-.25.59-.81.61-1.53.18-4.99,1.76-9.83,4.55-13.97.4-.6.55-1.18.4-1.6-.14-.41-.58-.63-.93-.75l-7.44-2.42c-1.52-.49-3.63.17-4.45,1.38-.35.52-1.06.66-1.58.31-.52-.35-.66-1.06-.31-1.58,1.36-2.04,4.59-3.09,7.05-2.28l7.44,2.42c1.18.38,2.03,1.16,2.38,2.17.39,1.12.15,2.4-.66,3.62-2.55,3.8-3.99,8.22-4.16,12.79-.06,1.47-.62,2.64-1.59,3.32-.54.38-1.19.57-1.89.57ZM134.7,126.95c-.12,0-.24.02-.36.07-.24.1-.42.28-.52.51-1.26,2.98-1.96,6.13-2.07,9.36-.09,2.37,1.84,5.03,4.23,5.81l7.44,2.42c1.11.36,2.21.24,3.03-.33.92-.64,1.45-1.76,1.51-3.17.17-4.61,1.62-9.06,4.19-12.89.78-1.17,1.01-2.39.64-3.45-.33-.96-1.13-1.69-2.26-2.05l-7.44-2.42c-2.39-.78-5.52.23-6.84,2.21-.29.44-.17,1.03.26,1.32.44.29,1.03.17,1.32-.26.86-1.28,3.08-1.97,4.67-1.46l7.44,2.42c.39.13.88.38,1.05.87.16.47,0,1.12-.42,1.77-2.77,4.12-4.33,8.92-4.51,13.87-.03.78-.28,1.39-.7,1.68-.42.3-.97.21-1.36.08l-7.44-2.42c-1.59-.52-2.98-2.39-2.92-3.93.11-3,.76-5.93,1.93-8.7.1-.23.1-.49,0-.73-.1-.24-.28-.42-.51-.52-.12-.05-.24-.08-.37-.08Z"/><path class="cls-5" d="M275.39,84.92c-2.8-3.88-6.62-6.9-11.05-8.72-1.91-.79-2.56-2.44-1.33-4,1.62-2.05,3.23-4.1,4.85-6.14,1.23-1.56,3.9-2.46,5.8-1.67,4.42,1.82,8.25,4.84,11.05,8.72,1.21,1.67.96,4.47-.27,6.03-1.62,2.05-3.23,4.1-4.85,6.14-1.24,1.57-2.99,1.31-4.2-.36Z"/><path class="cls-7" d="M277.69,87.37s-.04,0-.06,0c-1.15-.02-2.25-.68-3.09-1.84-2.69-3.73-6.35-6.62-10.6-8.36-1.33-.55-2.22-1.46-2.51-2.58-.26-1.01,0-2.09.76-3.04l4.85-6.14c1.58-2,4.79-2.91,7.02-1.99.53.22.79.83.57,1.37-.22.53-.83.79-1.37.57-1.39-.57-3.57.07-4.58,1.35l-4.85,6.14c-.24.3-.5.76-.38,1.22.12.46.58.88,1.28,1.17,4.6,1.89,8.58,5.03,11.49,9.07.44.61.96.96,1.43.97,0,0,.01,0,.02,0,.47,0,.85-.35,1.08-.65l4.85-6.14c1.01-1.28,1.13-3.55.25-4.77-1.7-2.35-3.77-4.37-6.17-5.99-.48-.32-.6-.97-.28-1.45.32-.48.97-.6,1.45-.28,2.6,1.76,4.86,3.95,6.7,6.5,1.41,1.95,1.28,5.29-.3,7.29l-4.85,6.14c-.74.93-1.7,1.44-2.72,1.45Z"/><path class="cls-7" d="M277.69,87.49h-.06c-1.19-.02-2.32-.69-3.18-1.88-2.67-3.71-6.32-6.59-10.55-8.32-1.36-.56-2.27-1.51-2.57-2.65-.27-1.05,0-2.16.78-3.14l4.85-6.14c1.61-2.04,4.88-2.96,7.16-2.02.59.25.87.93.63,1.52-.25.59-.93.87-1.52.63-1.35-.56-3.46.07-4.44,1.31l-4.85,6.14c-.22.28-.46.7-.35,1.12.11.42.55.82,1.21,1.09,4.62,1.9,8.62,5.05,11.54,9.11.42.58.91.91,1.34.92h0c.44,0,.79-.33,1.01-.6l4.85-6.14c.98-1.24,1.1-3.45.24-4.63-1.69-2.34-3.75-4.34-6.14-5.96-.26-.17-.43-.44-.49-.74-.06-.3,0-.61.18-.87.17-.26.44-.43.74-.49.3-.06.61,0,.87.18,2.62,1.77,4.88,3.96,6.72,6.52,1.44,1.99,1.3,5.39-.3,7.43l-4.85,6.14c-.76.96-1.76,1.49-2.81,1.49ZM272.12,63.17c-1.85,0-3.85.86-4.99,2.3l-4.85,6.14c-.73.92-.99,1.97-.74,2.94.28,1.08,1.15,1.96,2.44,2.5,4.27,1.75,7.95,4.66,10.65,8.4.82,1.13,1.88,1.77,3,1.79h.06c.99,0,1.92-.5,2.63-1.4l4.85-6.14c1.55-1.96,1.68-5.24.3-7.15-1.83-2.54-4.07-4.71-6.67-6.47-.21-.14-.46-.19-.7-.14-.24.05-.46.19-.59.39-.14.21-.19.45-.14.7.05.24.19.46.39.6,2.41,1.63,4.5,3.66,6.2,6.02.91,1.25.79,3.59-.25,4.9l-4.85,6.14c-.25.32-.65.69-1.17.69-.53-.01-1.08-.38-1.55-1.02-2.9-4.02-6.86-7.15-11.44-9.03-.73-.3-1.22-.76-1.35-1.25-.13-.51.14-1,.4-1.32l4.85-6.14c1.04-1.32,3.28-1.97,4.71-1.38.47.2,1.02-.03,1.22-.5.2-.47-.03-1.02-.5-1.22-.58-.24-1.23-.35-1.9-.35Z"/><path class="cls-9" d="M197.09,52.35c-.05-.19-.1-.37-.14-.53-.06.04-.13.06-.19.1.11.15.22.29.33.43Z"/><path class="cls-9" d="M230.06,51.98c-.11-.05-.21-.1-.31-.16-.06.23-.13.51-.22.8.18-.21.36-.43.53-.65Z"/><path class="cls-7" d="M234.85,42.31c-.6-.84-1.4-1.37-2.31-1.52-.2-.03-.4-.05-.61-.04-.01,0-.03,0-.04.01l-1.78,1.13s-.03.03-.04.06l-.32,3.79c-.02.26.06.52.23.72.18.21.43.34.71.36.03,0,.06,0,.09,0,.53,0,.98-.41,1.03-.92l.27-3.15s.08,0,.12.01c.34.06.67.29.95.68.63.89.86,2.37.6,3.87-.43,2.46-1.92,3.98-3,3.81-.14-.02-.28-.08-.42-.17-.28-.17-.63-.2-.94-.08-.31.12-.54.38-.61.7-.62,2.52-2.81,8.82-9.6,12.82-5.94,3.31-11.19.14-11.41,0-6.81-4.01-8.99-10.31-9.61-12.83-.08-.32-.31-.58-.62-.7-.3-.12-.66-.09-.94.08-.14.09-.28.14-.42.17-1.08.17-2.57-1.35-3-3.8-.26-1.5-.03-2.98.6-3.87.28-.39.61-.63.95-.68.04,0,.07,0,.11-.01l.27,3.15c.05.55.54.97,1.11.92.28-.02.53-.15.71-.36.17-.2.26-.46.23-.72l-.33-3.78s0-.05,0-.09l-.22-2.38c-.05-.56-.53-.96-1.11-.92-.28.02-.53.15-.71.36-.17.2-.26.46-.23.72l.1,1.1c-.11,0-.2.02-.28.03-.91.15-1.7.67-2.3,1.51-.95,1.34-1.3,3.29-.94,5.36.59,3.41,2.91,5.8,5.3,5.47.98,3.21,3.61,9.1,10.23,12.99.12.07,2.93,1.81,6.85,1.81,2.32,0,4.57-.6,6.69-1.78h.02c6.64-3.92,9.27-9.81,10.25-13.02,2.39.33,4.71-2.05,5.3-5.47.36-2.06.01-4.01-.94-5.35Z"/><path class="cls-7" d="M196.45,53.04s.08.03.09.07c.97,3.16,3.58,9.05,10.19,12.94.12.07,2.9,1.8,6.8,1.8,2.3,0,4.54-.6,6.64-1.77,6.64-3.91,9.26-9.8,10.23-12.96.01-.05.06-.07.11-.07,2.33.33,4.61-2.04,5.19-5.39.35-2.04.01-3.96-.92-5.28h0c-.58-.82-1.36-1.33-2.24-1.48-.2-.03-.4-.05-.59-.04l-1.77,1.13-.31,3.78c-.02.24.05.47.21.65.16.19.39.31.64.33.03,0,.05,0,.08,0,.48,0,.89-.37.93-.83l.27-3.15c0-.05.04-.1.1-.09.05,0,.09,0,.13.01.37.06.72.31,1.01.72.64.91.88,2.42.62,3.94-.44,2.51-1.99,4.07-3.11,3.89-.15-.03-.3-.09-.46-.18-.25-.16-.57-.18-.85-.07-.28.11-.49.35-.56.63-.63,2.53-2.82,8.86-9.65,12.89-5.98,3.34-11.29.14-11.51,0-6.84-4.02-9.03-10.36-9.66-12.89-.07-.28-.28-.52-.56-.63-.27-.11-.6-.08-.85.07-.16.1-.3.15-.45.18-1.12.18-2.68-1.37-3.11-3.88-.26-1.53-.03-3.04.62-3.94.29-.41.64-.66,1.01-.72.04,0,.08-.01.13-.01.06,0,.1.04.1.09l.27,3.15c.04.5.49.88,1.01.83.25-.02.48-.14.64-.33.16-.18.23-.42.21-.65l-.33-3.78s0-.06,0-.09l-.22-2.38c-.04-.51-.48-.87-1.01-.83-.25.02-.48.14-.64.33-.16.18-.23.42-.21.65l.1,1.1s0,.05-.02.07c-.02.02-.04.03-.07.03-.1,0-.19.02-.27.03-.88.15-1.66.66-2.24,1.47-.94,1.32-1.28,3.25-.92,5.28.58,3.34,2.86,5.71,5.19,5.39,0,0,0,0,.01,0Z"/><path class="cls-7" d="M230.88,42.83c-.44,0-.82-.31-.89-.75-.85-5.57-3.02-9.52-4.7-11.85-.29-.4-.19-.94.22-1.22.41-.28.97-.18,1.26.22,1.78,2.48,4.1,6.68,5,12.59.07.48-.27.93-.76,1-.04,0-.09,0-.13,0Z"/><path class="cls-7" d="M230.88,42.95c-.5,0-.93-.36-1.01-.85-.85-5.55-3.01-9.48-4.68-11.8-.16-.22-.22-.48-.17-.74.05-.26.2-.49.42-.65.46-.31,1.09-.2,1.42.24,1.79,2.49,4.12,6.71,5.02,12.64.04.26-.03.52-.18.73-.16.22-.4.36-.68.4-.05,0-.1.01-.15.01ZM226.03,28.97c-.16,0-.31.04-.45.14-.17.12-.29.29-.32.49-.03.2.01.4.13.56,1.68,2.34,3.86,6.3,4.72,11.9.06.41.46.7.89.64.21-.03.4-.14.52-.31.12-.16.17-.36.14-.55-.9-5.89-3.21-10.07-4.98-12.54-.15-.21-.4-.33-.64-.33Z"/><path class="cls-4" d="M207.1,21.14s.14,17.3,25.5,14.24c0,0-2.39-25.04-25.5-14.24Z"/><path class="cls-7" d="M216.93,35.45c-.13-.23-.35-.39-.61-.46-4.1-1.07-6.76-4.05-7.9-8.86-.88-3.73-.48-7.18-.48-7.22.07-.55-.32-1.04-.87-1.11-.54-.06-1.04.33-1.11.87-.02.15-1.72,15.23,9.86,18.24.08.02.17.03.25.03.45,0,.85-.31.96-.75.07-.26.03-.53-.11-.76Z"/><path class="cls-7" d="M216.07,37.05c-.09,0-.19-.01-.28-.04-11.68-3.04-9.95-18.2-9.93-18.35.07-.6.62-1.02,1.22-.95.29.03.55.18.73.41.18.23.26.52.23.81-.02.14-.39,3.52.48,7.18,1.13,4.77,3.77,7.73,7.83,8.78.28.07.52.25.67.5h0c.15.25.19.55.12.83-.13.48-.56.82-1.06.82ZM206.95,17.9c-.45,0-.84.34-.89.79-.02.15-1.72,15.14,9.79,18.14.07.02.15.03.23.03.41,0,.77-.28.87-.67.06-.23.03-.47-.09-.68-.12-.21-.32-.35-.55-.41-4.14-1.08-6.82-4.08-7.97-8.93-.88-3.69-.5-7.11-.48-7.25.03-.24-.04-.47-.19-.66-.15-.19-.36-.31-.6-.34-.04,0-.07,0-.1,0Z"/><path class="cls-7" d="M222.63,4.42c-.08-.02-1.99-.59-4.41.24-3.87,1.32-6.07,5.14-7.25,8.14-.18.47-.03,1.03.4,1.28.16.09.33.13.5.13.4,0,.77-.24.93-.64,3.41-8.8,9-7.32,9.25-7.25.52.16,1.08-.14,1.23-.66.16-.53-.14-1.08-.66-1.24Z"/><path class="cls-7" d="M211.88,14.31c-.19,0-.38-.05-.55-.15-.46-.27-.66-.87-.45-1.4,1.17-3,3.39-6.86,7.31-8.2,2.43-.83,4.38-.26,4.47-.24h0c.58.17.9.79.73,1.36-.17.57-.78.9-1.36.73-.23-.07-5.75-1.54-9.13,7.19-.16.42-.56.7-1.02.7ZM220.89,4.31c-.73,0-1.64.1-2.64.44-3.84,1.31-6.03,5.12-7.19,8.08-.17.44-.02.94.36,1.16.14.08.29.12.45.12.37,0,.7-.22.84-.57,3.45-8.9,9.13-7.38,9.37-7.31.47.14.97-.13,1.11-.6.14-.47-.13-.98-.6-1.12-.05-.01-.7-.2-1.71-.2Z"/><path class="cls-7" d="M222.15,41.41c0,.76-.62,1.38-1.38,1.38s-1.38-.62-1.38-1.38.62-1.38,1.38-1.38,1.38.62,1.38,1.38Z"/><path class="cls-7" d="M207.56,41.41c0,.76-.62,1.38-1.38,1.38s-1.38-.62-1.38-1.38.62-1.38,1.38-1.38,1.38.62,1.38,1.38Z"/><path class="cls-8" d="M164.91,139.07l1.21-5.11c.28-2.14-1.21-2.88-1.21-2.88-1.58-1.02-3.16,1-3.16,1-.09-2.21-1.67-2.58-1.67-2.58-1.86-.46-2.69.84-2.69.84-.28-1.67-1.77-1.86-1.77-1.86-1.88-.42-3.07,1.3-3.07,1.3-.42-1.25-.93-1.77-.93-1.77-2.69-1.77-4.37,1.86-4.37,1.86l-2.44,7.43c-.84,3.14,1.67,3.76,1.67,3.76l10.03,3.76c1.01.29,7.46,3.34,8.18,3.6l1.79-5.74-1.58-3.62Z"/><path class="cls-7" d="M159.11,146.71c-.12,0-.24-.02-.36-.07-.75-.28-1.59-.55-2.5-.8-.03,0-.06-.02-.08-.03l-9.99-3.75c-.31-.09-1.39-.48-2.06-1.61-.55-.94-.65-2.09-.3-3.42,0-.02.01-.04.02-.06l2.44-7.43s.03-.08.04-.11c.11-.23,1.1-2.29,2.97-2.83.67-.19,1.72-.26,2.92.53.06.04.12.08.17.14.06.06.28.3.55.75.75-.49,1.74-.82,2.89-.57.54.08,1.4.43,2,1.23.65-.3,1.5-.45,2.53-.19.06.01,1.33.33,2.03,1.72.88-.49,1.98-.72,3.07-.03.8.43,2.01,1.7,1.72,3.92,0,.04-.01.07-.02.11l-1.13,4.77,1.44,3.3c.23.53-.01,1.15-.54,1.38-.53.23-1.15-.01-1.38-.54l-1.58-3.62c-.09-.21-.11-.44-.06-.66l1.19-5.05c.14-1.23-.53-1.69-.65-1.76-.04-.02-.05-.03-.09-.05-.74-.48-1.76.76-1.77.77-.27.34-.73.48-1.14.34-.42-.14-.7-.51-.72-.95-.05-1.28-.74-1.56-.89-1.61-1-.24-1.46.27-1.56.4-.22.38-.64.55-1.07.48-.43-.08-.76-.44-.83-.88-.13-.81-.71-.96-.88-.99-.05,0-.03,0-.08-.01-1.16-.26-1.97.86-1.98.87-.23.33-.62.5-1.01.44-.39-.06-.72-.33-.85-.71-.24-.73-.51-1.14-.63-1.3-.51-.3-.85-.26-1.07-.2-.77.22-1.43,1.24-1.63,1.65l-2.41,7.34c-.13.51-.41,2.07.94,2.46.04,0,.06.02.1.03l9.99,3.75c.95.27,1.83.55,2.62.84.54.2.82.8.62,1.34-.16.42-.56.68-.98.68Z"/><path class="cls-7" d="M159.11,146.8c-.13,0-.27-.02-.4-.07-.74-.27-1.58-.54-2.5-.8-.03,0-.06-.02-.09-.03l-9.99-3.75c-.32-.09-1.43-.5-2.11-1.65-.57-.96-.67-2.14-.31-3.49,0-.02.01-.04.02-.06l2.44-7.43s.03-.08.05-.12c.11-.24,1.12-2.33,3.03-2.88.69-.2,1.77-.26,3,.54.07.04.13.09.18.15.06.06.26.28.51.68.65-.4,1.65-.79,2.88-.53.58.09,1.41.45,2.01,1.21.76-.33,1.63-.39,2.53-.17.05.01,1.32.32,2.04,1.68.77-.41,1.91-.72,3.09.02.98.53,2.04,1.9,1.77,4.02,0,.04-.01.08-.02.12l-1.12,4.74,1.43,3.27c.12.28.13.59.02.87-.11.28-.33.51-.61.63-.58.25-1.25-.01-1.5-.59l-1.58-3.62c-.1-.22-.12-.48-.06-.72l1.19-5.05c.13-1.15-.49-1.58-.61-1.66-.03-.01-.04-.02-.07-.04h-.02c-.66-.44-1.63.72-1.64.73-.3.37-.8.52-1.25.38-.45-.15-.77-.56-.79-1.04-.05-1.22-.69-1.48-.82-1.52-.93-.22-1.34.22-1.45.36-.23.39-.69.6-1.17.51-.46-.08-.83-.47-.91-.96-.12-.74-.65-.89-.81-.92-.04,0-.04,0-.06,0h-.03c-1.1-.25-1.87.82-1.88.83-.24.35-.67.54-1.1.48-.43-.06-.79-.36-.92-.77-.23-.7-.49-1.1-.6-1.25-.47-.27-.78-.23-.98-.18-.71.2-1.34,1.13-1.57,1.6l-2.4,7.32c-.15.58-.37,1.98.87,2.33.04,0,.06.02.11.03l9.99,3.75c.95.27,1.83.55,2.62.84.29.11.51.32.64.59.13.28.14.59.03.87-.16.45-.6.75-1.07.75ZM150.16,126.58c-.33,0-.61.05-.85.12-1.83.52-2.81,2.55-2.91,2.77-.02.03-.03.07-.04.1l-2.44,7.43s-.01.03-.02.05c-.35,1.3-.25,2.43.29,3.34.65,1.1,1.7,1.48,2,1.57l10,3.75s.05.02.08.03c.92.26,1.76.53,2.51.81.11.04.22.06.33.06.4,0,.75-.25.89-.62.09-.24.08-.5-.03-.73-.11-.23-.3-.41-.53-.49-.78-.29-1.66-.57-2.61-.84l-10-3.75s-.05-.02-.09-.03c-1.44-.41-1.14-2.07-1.01-2.57l2.41-7.34c.25-.5.92-1.49,1.7-1.71.23-.07.6-.11,1.14.21.01,0,.02.01.03.03.14.18.4.6.64,1.32.11.34.41.59.77.64.36.05.71-.11.92-.4,0-.01.84-1.18,2.08-.91h.06c.2.05.83.22.97,1.09.07.41.37.73.76.8.4.07.78-.09.98-.43.13-.17.62-.69,1.66-.44.16.05.91.35.96,1.7.02.39.28.74.66.86.37.12.79,0,1.04-.31.01-.01,1.08-1.32,1.9-.79l.02.02s.03.02.06.03c.15.09.86.58.71,1.86l-1.2,5.07c-.05.2-.03.41.05.6l1.58,3.62c.21.48.77.7,1.25.49.23-.1.41-.29.51-.52.09-.24.09-.49-.01-.73l-1.44-3.3s-.01-.04,0-.06l1.13-4.77s.01-.06.02-.1c.35-2.66-1.46-3.72-1.67-3.83-1.15-.72-2.26-.38-2.98.03-.02.01-.05.02-.08,0-.03,0-.05-.03-.06-.05-.68-1.36-1.91-1.66-1.96-1.67-.9-.22-1.73-.16-2.47.19-.04.02-.09,0-.12-.03-.56-.75-1.37-1.11-1.93-1.19-1.23-.26-2.22.16-2.83.56-.02.01-.05.02-.07.01-.03,0-.05-.02-.06-.04-.26-.44-.47-.67-.53-.73-.05-.05-.1-.09-.15-.12-.74-.48-1.42-.64-1.99-.64Z"/><path class="cls-7" d="M150.51,137.05c-.11,0-.22-.02-.33-.05-.55-.18-.85-.77-.67-1.32l2.04-6.22c.18-.55.77-.85,1.32-.67.55.18.85.77.67,1.32l-2.04,6.22c-.14.44-.55.72-.99.72Z"/><path class="cls-7" d="M150.51,137.15c-.12,0-.24-.02-.36-.06-.6-.2-.93-.84-.73-1.44l2.04-6.22c.1-.29.3-.53.57-.66.27-.14.58-.16.87-.07.6.2.93.84.73,1.44l-2.04,6.22c-.15.47-.59.79-1.09.79ZM152.55,128.83c-.15,0-.29.03-.43.1-.23.11-.4.31-.47.55l-2.04,6.22c-.16.5.11,1.04.61,1.2.1.03.2.05.3.05.41,0,.77-.26.9-.65l2.04-6.22c.16-.5-.11-1.04-.61-1.2-.1-.03-.2-.05-.3-.05Z"/><path class="cls-7" d="M155.15,138.44c-.1,0-.21-.02-.32-.05-.55-.17-.86-.76-.68-1.31l2.23-7.06c.17-.55.76-.86,1.31-.68.55.17.86.76.68,1.31l-2.23,7.06c-.14.45-.55.73-1,.73Z"/><path class="cls-7" d="M155.15,138.54c-.12,0-.23-.02-.34-.05-.6-.19-.93-.83-.75-1.43l2.23-7.06c.09-.29.29-.53.56-.67.27-.14.58-.17.87-.07.6.19.93.83.75,1.43l-2.23,7.06c-.15.48-.59.8-1.09.8ZM157.38,129.38c-.15,0-.3.04-.44.11-.23.12-.39.32-.47.56l-2.23,7.06c-.08.24-.05.5.06.73.12.23.32.39.56.47.09.03.19.04.29.04.42,0,.78-.27.91-.66l2.23-7.06c.08-.24.05-.5-.06-.73-.12-.23-.32-.39-.56-.47-.09-.03-.19-.04-.29-.04Z"/><path class="cls-7" d="M160.08,139.65c-.09,0-.17-.01-.26-.03-.56-.14-.9-.71-.75-1.27l1.67-6.53c.14-.56.71-.9,1.27-.75.56.14.9.71.75,1.27l-1.67,6.53c-.12.47-.55.79-1.01.79Z"/><path class="cls-7" d="M189.75,136.34c-.07-.62-.64-1.08-1.27-1-.63.07-1.08.64-1,1.27l.93,12.46-2.87,8.07c-.17.61.19,1.24.79,1.41.1.03.21.04.31.04.51,0,.96-.34,1.1-.83l2.93-8.29c.04-.14.05-.29.03-.44l-.96-12.69Z"/><path class="cls-7" d="M241.74,157.14s0,0,0,0l-2.86-8.06,1.51-12.73c.04-.3-.05-.6-.24-.84-.19-.24-.46-.39-.76-.43-.3-.04-.6.05-.84.24-.24.19-.39.46-.43.76l-1.54,12.96c-.02.15,0,.3.04.45l2.92,8.27c.14.49.59.83,1.1.83.1,0,.21-.01.31-.04.29-.08.54-.27.69-.54.15-.27.19-.57.1-.87Z"/><path class="cls-8" d="M274.36,81.06l-5.92-5.11s-3.3-2.24-4.7.66c0,0-.17.7.12,1.99,0,0-1.9-.86-3.3.47,0,0-1.18.93-.55,2.5,0,0-1.39-.68-2.74.67,0,0-1.16,1.13-.1,3.07,0,0-2.4-.92-3.22.77,0,0-.89,1.4.45,3.09l3.67,3.75.53,18.31,11.3-11.57,2.93-9.11,2.05-5.43s1.82-1.83-.51-4.09Z"/><path class="cls-7" d="M258.58,97.91c-.52,0-.97-.38-1.04-.91l-.47-3.57-3.43-3.5s-.05-.05-.07-.08c-1.39-1.75-1.01-3.47-.55-4.25.59-1.15,1.65-1.53,2.65-1.56-.12-1.55.8-2.48.86-2.53.75-.75,1.55-1.06,2.26-1.13.1-.99.66-1.74,1.07-2.08.86-.8,1.88-1.03,2.77-1,0-.52.06-.83.08-.92.02-.07.04-.14.07-.2.62-1.29,1.55-1.78,2.22-1.96,1.88-.51,3.79.74,4.01.89.03.02.07.05.1.07l5.92,5.11s.03.03.04.04c.99.96,1.5,1.99,1.51,3.08.01,1.12-.52,1.94-.81,2.3l-1.98,5.25-1.1,2.87c-.21.54-.81.81-1.35.6-.54-.21-.81-.81-.6-1.35l1.1-2.87,2.04-5.42c.05-.14.13-.26.24-.37.23-.25.92-1.21-.47-2.57l-5.85-5.04c-.38-.24-1.47-.78-2.25-.57-.22.06-.53.2-.81.72-.02.2-.04.69.13,1.44.09.39-.05.79-.36,1.04-.31.25-.73.31-1.09.14-.04-.02-1.29-.54-2.14.27-.03.03-.04.04-.07.06-.12.1-.53.53-.23,1.29.16.41.07.89-.26,1.18-.33.29-.78.35-1.17.15-.15-.06-.81-.26-1.54.46-.1.12-.54.71.07,1.84.21.38.16.86-.13,1.19-.29.33-.75.45-1.16.29-.01,0-1.52-.54-1.91.26-.02.05-.02.05-.05.09-.07.13-.4.87.35,1.85l3.63,3.71c.16.16.26.37.29.6l.52,3.92c.08.57-.33,1.1-.9,1.17-.05,0-.09,0-.14,0Z"/><path class="cls-7" d="M258.58,98.02c-.58,0-1.07-.43-1.15-1.01l-.47-3.53-3.4-3.48s-.05-.06-.08-.09c-1.34-1.68-1.14-3.41-.56-4.38.63-1.23,1.75-1.56,2.63-1.61-.07-1.53.86-2.46.9-2.5.65-.65,1.42-1.05,2.24-1.15.12-.95.65-1.69,1.1-2.07.92-.85,1.97-1.04,2.73-1.03,0-.47.07-.75.09-.83.02-.08.05-.15.08-.22.64-1.33,1.6-1.83,2.3-2.02,1.93-.52,3.88.76,4.1.9.04.03.07.05.11.08l5.92,5.11s.03.03.05.04c1.01.98,1.53,2.04,1.54,3.16.01,1.13-.51,1.96-.83,2.36l-1.97,5.24-1.1,2.87c-.11.29-.33.52-.61.65-.28.13-.6.14-.89.02-.29-.11-.52-.33-.65-.61-.13-.28-.14-.6-.02-.89l1.1-2.87,2.04-5.42c.06-.16.15-.29.26-.41.22-.24.85-1.12-.47-2.41l-5.84-5.04c-.34-.21-1.41-.74-2.14-.54-.19.05-.47.17-.73.64-.02.19-.03.66.13,1.38.1.43-.06.88-.4,1.16-.34.28-.81.34-1.21.16-.05-.02-1.22-.51-2.02.25-.04.04-.05.05-.09.07-.11.09-.46.47-.19,1.16.19.47.07,1-.29,1.31-.37.32-.88.39-1.3.16-.15-.06-.73-.22-1.4.44-.08.09-.49.64.09,1.7.23.43.17.96-.14,1.32-.32.37-.84.49-1.29.32-.01,0-1.42-.49-1.76.2-.03.06-.03.07-.06.11-.06.12-.36.8.35,1.71l3.62,3.7c.17.18.29.41.32.66l.52,3.92c.04.31-.04.61-.23.86-.19.25-.46.4-.77.44-.05,0-.1.01-.15.01ZM262.49,77.4c-.71,0-1.69.18-2.54.97-.44.37-.95,1.09-1.04,2.01,0,.05-.05.1-.1.1-.81.08-1.55.45-2.19,1.1-.04.04-.94.94-.82,2.44,0,.03,0,.06-.03.09-.02.02-.05.04-.08.04-.83.02-1.95.3-2.55,1.49-.12.21-1.13,2.04.54,4.13.02.03.04.05.06.07l3.43,3.5s.03.04.03.07l.47,3.57c.07.5.54.87,1.04.8.25-.03.47-.16.62-.36.15-.2.22-.44.18-.69l-.52-3.92c-.03-.2-.12-.39-.26-.53l-3.63-3.71c-.8-1.04-.45-1.83-.37-1.98.02-.03.03-.04.04-.06,0,0,.01-.03.01-.03.43-.87,1.98-.34,2.05-.31.37.14.78.04,1.04-.26.26-.29.3-.72.12-1.06-.65-1.2-.16-1.85-.05-1.97.77-.77,1.47-.57,1.67-.49.35.19.75.14,1.05-.13.29-.25.38-.68.23-1.05-.34-.85.16-1.33.26-1.42.03-.02.04-.03.05-.04.93-.88,2.23-.34,2.29-.31.33.15.7.1.97-.13.28-.22.4-.58.32-.93-.17-.78-.15-1.29-.13-1.47,0-.02,0-.03.01-.04.31-.56.65-.71.88-.77.78-.21,1.87.29,2.34.58l5.86,5.05c1.51,1.48.67,2.54.48,2.74-.1.1-.17.21-.21.33l-2.04,5.42-1.1,2.87c-.18.48.06,1.02.54,1.2.23.09.49.08.71-.02.23-.1.4-.29.49-.52l1.1-2.87,1.98-5.25s.01-.02.02-.03c.3-.37.8-1.15.79-2.23-.01-1.06-.51-2.07-1.47-3l-.04-.04-5.92-5.11s-.06-.05-.09-.07c-.21-.14-2.08-1.36-3.91-.87-.65.17-1.55.65-2.15,1.9-.03.06-.05.12-.07.18-.02.08-.09.38-.08.89,0,.03-.01.06-.03.08-.02.02-.05.03-.08.03-.05,0-.1,0-.15,0Z"/><path class="cls-7" d="M268.82,83.93c-.24,0-.49-.08-.68-.25l-4.96-4.28c-.44-.38-.49-1.04-.11-1.48.38-.44,1.04-.49,1.48-.11l4.96,4.28c.44.38.49,1.04.11,1.48-.21.24-.5.36-.79.36Z"/><path class="cls-7" d="M268.82,84.05c-.28,0-.55-.1-.76-.28l-4.96-4.28c-.23-.2-.38-.48-.4-.79-.02-.31.08-.61.28-.84.2-.24.48-.38.79-.4.31-.02.61.08.84.28l4.96,4.28c.48.42.54,1.15.12,1.64-.22.26-.54.4-.88.4ZM263.86,77.68s-.05,0-.07,0c-.25.02-.47.13-.64.32-.16.19-.24.43-.22.68.02.25.13.47.32.64l4.96,4.28c.38.32.99.28,1.31-.1.34-.39.29-.98-.1-1.31l-4.96-4.28c-.17-.15-.38-.23-.61-.23Z"/><path class="cls-7" d="M265.56,87.52c-.25,0-.49-.09-.69-.26l-5.55-4.9c-.43-.38-.48-1.04-.09-1.48.38-.43,1.04-.48,1.48-.09l5.55,4.9c.43.38.48,1.04.09,1.48-.21.23-.5.35-.79.35Z"/><path class="cls-7" d="M265.56,87.64c-.28,0-.56-.1-.77-.29l-5.55-4.9c-.23-.21-.37-.49-.39-.8-.02-.31.08-.61.29-.84.21-.23.49-.37.8-.39.31-.02.61.08.84.29l5.55,4.9c.23.21.37.49.39.8.02.31-.08.61-.29.84-.22.25-.54.39-.87.39ZM260.01,80.65s-.04,0-.06,0c-.25.02-.48.13-.64.31-.17.19-.25.43-.23.67.02.25.13.48.31.64l5.55,4.9c.37.33.99.29,1.32-.08.16-.19.25-.43.23-.67-.02-.25-.13-.48-.31-.64l-5.55-4.9c-.17-.15-.39-.23-.62-.23Z"/><path class="cls-7" d="M261.97,91.1c-.27,0-.53-.1-.73-.3l-4.8-4.73c-.41-.41-.42-1.07-.01-1.48.41-.41,1.07-.42,1.48-.01l4.8,4.73c.41.41.42,1.07.01,1.48-.2.21-.48.31-.75.31Z"/><path class="cls-7" d="M261.97,91.22c-.31,0-.6-.12-.82-.33l-4.8-4.73c-.46-.45-.46-1.19-.01-1.64.45-.46,1.19-.46,1.64-.01l4.8,4.73c.22.22.34.51.35.82,0,.31-.12.6-.33.82-.22.22-.51.35-.83.35ZM257.17,84.4c-.24,0-.48.09-.66.28-.17.18-.27.41-.27.66,0,.25.1.48.28.66l4.8,4.73c.35.35.97.34,1.32-.01.17-.18.27-.41.27-.66,0-.25-.1-.48-.28-.66l-4.8-4.73c-.18-.18-.42-.27-.65-.27Z"/><path class="cls-5" d="M180.89,134.52c-2.54-.57-4.96-1.61-7.44-2.42-1.89-.62-4.6.12-5.75,1.83-2.67,3.97-4.18,8.6-4.35,13.38-.08,2.06,1.68,4.25,3.57,4.86,2.48.81,4.96,1.61,7.44,2.42,8.92,2.13,10.34-15.71,10.34-15.71,0,0-.17-3.55-3.81-4.37Z"/><path class="cls-7" d="M175.74,155.9c-.91,0-1.53-.22-1.77-.33l-7.38-2.4c-2.42-.79-4.39-3.49-4.29-5.9.18-4.98,1.75-9.79,4.53-13.92,1.34-2,4.52-3.03,6.94-2.24l7.44,2.42c.55.18.85.77.67,1.32-.18.55-.77.85-1.32.67l-7.44-2.42c-1.55-.5-3.72.17-4.56,1.42-2.56,3.81-4.01,8.25-4.18,12.84-.06,1.5,1.3,3.33,2.85,3.83l7.44,2.42c.07.02.09.03.15.06.11.05.89.34,2.2-.06,1.38-.43,2.57-1.45,3.26-2.81,1.19-2.36,3.88-8.32,3.1-12.54-.1-.57.27-1.11.84-1.22.57-.1,1.11.27,1.22.84.86,4.67-1.69,10.69-3.29,13.86-.94,1.87-2.58,3.28-4.51,3.87-.73.22-1.37.3-1.91.3Z"/><path class="cls-7" d="M175.74,156c-.94,0-1.58-.24-1.81-.34l-7.37-2.4c-2.46-.8-4.46-3.55-4.36-6,.18-4.99,1.76-9.83,4.55-13.97,1.36-2.04,4.59-3.08,7.05-2.28l7.44,2.42c.29.09.53.3.66.57.14.27.16.58.07.87-.09.29-.3.53-.57.66-.27.14-.58.16-.87.07l-7.44-2.42c-1.52-.49-3.63.17-4.45,1.38-2.55,3.79-3.99,8.22-4.16,12.79-.06,1.46,1.27,3.24,2.78,3.74l7.44,2.42c.07.02.11.03.17.07.07.03.84.33,2.13-.07,1.36-.42,2.53-1.43,3.2-2.77,1.19-2.36,3.86-8.29,3.09-12.48-.11-.62.3-1.22.92-1.33.62-.11,1.22.3,1.33.92.87,4.7-1.69,10.74-3.29,13.92-.95,1.89-2.62,3.32-4.57,3.92-.66.2-1.31.31-1.93.31ZM172.01,130.93c-2,0-4.09.95-5.11,2.47-2.77,4.12-4.33,8.92-4.51,13.87-.09,2.37,1.84,5.03,4.23,5.81l7.38,2.4c.23.1.84.33,1.74.33.61,0,1.24-.1,1.88-.3,1.9-.59,3.52-1.98,4.45-3.82,1.59-3.16,4.14-9.16,3.28-13.8-.1-.51-.59-.86-1.11-.76-.52.1-.86.59-.76,1.11.79,4.25-1.91,10.23-3.11,12.6-.7,1.38-1.91,2.43-3.31,2.86-1.33.41-2.12.12-2.27.06-.06-.03-.08-.04-.13-.05l-7.46-2.43c-1.59-.52-2.98-2.39-2.92-3.93.17-4.61,1.62-9.06,4.19-12.89.86-1.28,3.08-1.97,4.67-1.46l7.44,2.42c.24.08.5.06.73-.06.23-.12.39-.31.47-.55.08-.24.06-.5-.06-.73-.12-.23-.31-.39-.55-.47l-7.44-2.42c-.55-.18-1.13-.26-1.73-.26Z"/><path class="cls-7" d="M176.37,152.32s-.02,0-.02,0c-.58-.01-1.04-.49-1.02-1.07,0-.32.22-7.8,4.83-14.54.33-.48.98-.6,1.45-.27.48.33.6.98.27,1.45-4.26,6.23-4.46,13.33-4.47,13.4-.01.57-.48,1.02-1.05,1.02Z"/><path class="cls-7" d="M176.37,152.42s-.01,0-.01,0c-.64-.01-1.14-.54-1.13-1.17,0-.32.22-7.83,4.85-14.59.36-.52,1.07-.65,1.59-.3.52.36.65,1.07.3,1.59-4.25,6.21-4.45,13.28-4.45,13.35-.01.62-.53,1.12-1.14,1.12ZM181.02,136.35c-.3,0-.6.14-.79.41-4.59,6.71-4.81,14.17-4.81,14.49-.01.52.41.96.93.97l.02.1v-.1c.51,0,.94-.42.95-.93,0-.07.2-7.19,4.48-13.45.3-.43.18-1.03-.25-1.32-.16-.11-.35-.17-.54-.17Z"/><path class="cls-7" d="M252.9,123.95c-.08,0-.16,0-.25-.03-.56-.14-.91-.7-.77-1.26l1.67-6.9c.14-.56.7-.91,1.26-.77.56.14.91.7.77,1.26l-1.67,6.9c-.12.48-.54.8-1.02.8Z"/><path class="cls-7" d="M252.9,124.06c-.09,0-.18-.01-.27-.03-.62-.15-1.01-.78-.86-1.4l1.67-6.9c.15-.62.78-1,1.4-.86.62.15,1.01.78.86,1.4l-1.67,6.9c-.13.52-.59.89-1.13.89ZM254.57,115.07c-.42,0-.8.29-.91.71l-1.67,6.9c-.12.5.19,1,.69,1.13.5.12,1.01-.19,1.13-.69l1.67-6.9c.06-.24.02-.49-.11-.7-.13-.21-.33-.36-.58-.42-.07-.02-.15-.03-.22-.03Z"/><path class="cls-7" d="M250.05,86.74c-.36,0-.71-.19-.91-.52-2.68-4.59-8.54-6.41-8.6-6.42-.55-.17-.87-.75-.7-1.3.17-.55.75-.87,1.3-.7.27.08,6.7,2.06,9.8,7.37.29.5.12,1.14-.38,1.43-.17.1-.35.14-.53.14Z"/><path class="cls-7" d="M250.05,86.85c-.41,0-.8-.22-1-.58-2.66-4.56-8.47-6.35-8.53-6.37-.61-.19-.96-.83-.78-1.45.18-.61.84-.96,1.45-.78.27.08,6.74,2.07,9.87,7.43.16.27.2.58.12.88-.08.3-.27.55-.54.71-.18.1-.38.16-.58.16ZM240.85,77.86c-.4,0-.77.26-.89.66-.15.49.13,1.01.62,1.16.06.02,5.95,1.83,8.66,6.48.17.29.48.46.81.46.16,0,.33-.04.47-.13.22-.13.37-.33.43-.57.06-.24.03-.49-.1-.71-3.08-5.28-9.46-7.24-9.73-7.32-.09-.03-.18-.04-.27-.04Z"/><path class="cls-4" d="M252.46,201.56c-1.29-12.55-8.92-41.11-9-41.37-.11-.35-.45-.58-.81-.54l-.18.02c-.12-.03-.25-.03-.38,0,0,0-.07.02-.2.05-10.39,1-20.04,1.59-28.66,1.75-8.65-.16-18.3-.75-28.68-1.75-.13-.03-.19-.05-.2-.05-.12-.03-.25-.03-.38,0l-.18-.02c-.36-.04-.7.19-.81.54-.08.25-7.71,28.82-9,41.37-.04.41.25.78.66.84l33.65,4.53s.07,0,.1,0c.34,0,.65-.23.74-.57l2.71-10.69h2.71l2.73,10.69c.1.37.46.61.84.56l33.65-4.53c.41-.06.7-.43.66-.84Z"/><polygon class="cls-8" points="250.37 202.59 219.66 206.73 228.85 236.85 254.47 236.85 250.37 202.59"/><polygon class="cls-8" points="175.34 202.49 171.23 236.85 196.85 236.85 206.07 206.63 175.34 202.49"/><path class="cls-7" d="M171.35,236.85s-.08,0-.12,0c-.58-.06-1-.58-.93-1.16l3.74-30.63c.06-.58.58-1,1.16-.93.58.06,1,.58.93,1.16l-3.74,30.63c-.06.54-.52.94-1.05.94Z"/><path class="cls-7" d="M197.88,236.85c-.08,0-.17-.01-.25-.03-.56-.14-.91-.71-.77-1.28l7.33-26.32c.14-.56.71-.91,1.27-.77.56.14.91.71.77,1.28l-7.33,26.32c-.12.48-.55.8-1.02.8Z"/><path class="cls-7" d="M254.65,236.85c-.53,0-.99-.4-1.05-.94l-3.74-30.63c-.06-.58.35-1.1.93-1.16.58-.07,1.1.35,1.16.93l3.74,30.63c.06.58-.35,1.1-.93,1.16-.04,0-.08,0-.12,0Z"/><path class="cls-7" d="M228.12,236.85c-.47,0-.9-.32-1.02-.8l-7.33-26.32c-.14-.56.21-1.14.77-1.28.57-.14,1.14.21,1.27.77l7.33,26.32c.14.56-.21,1.14-.77,1.28-.08.02-.17.03-.25.03Z"/><path class="cls-7" d="M212.71,52.4h1.53c.53,0,.95-.43.95-.95s-.43-.95-.95-.95h-1.53c-.53,0-.95.43-.95.95s.43.95.95.95Z"/><path class="cls-7" d="M213.48,54.81c-1.77,0-3.21,1.45-3.21,3.23s1.44,3.23,3.21,3.23,3.21-1.45,3.21-3.23-1.44-3.23-3.21-3.23ZM213.48,59.16c-.61,0-1.1-.5-1.1-1.12s.49-1.12,1.1-1.12,1.1.5,1.1,1.12-.49,1.12-1.1,1.12Z"/><path class="cls-7" d="M207.37,35.57c-.21.02-.43-.03-.62-.15-.07-.04-1.1-.62-2.92.22-.48.22-1.06,0-1.28-.47-.22-.48,0-1.06.47-1.28,2.89-1.33,4.72-.12,4.8-.07.44.3.55.9.25,1.34-.17.25-.43.39-.7.42Z"/><path class="cls-7" d="M231.72,36.47c-14.49,0-17.34-13.52-17.36-13.66-.12-.58.26-1.15.84-1.26.58-.12,1.15.26,1.26.84.1.51,2.67,12.42,16.1,11.92.59-.03,1.09.44,1.11,1.03.02.59-.44,1.09-1.03,1.11-.31.01-.62.02-.92.02Z"/><path class="cls-7" d="M154.31,117.34c-.57.03-1.08-.37-1.18-.95-2.43-13.68.46-24.01,3.31-30.27,3.11-6.82,6.77-10.36,6.93-10.5.46-.44,1.19-.42,1.62.04.44.46.42,1.19-.04,1.62-.18.18-13.99,13.79-9.56,38.71.11.62-.31,1.22-.93,1.33-.05,0-.1.01-.15.02Z"/><path class="cls-7" d="M145.01,112.14c-.56.02-1.06-.36-1.18-.92-2.35-11.76.31-21.23,2.95-27.09.26-.58.94-.84,1.52-.58.58.26.84.94.58,1.52-2.5,5.56-5.02,14.53-2.79,25.7.12.62-.28,1.23-.9,1.35-.06.01-.12.02-.18.02Z"/><path class="cls-7" d="M149.89,81.88c-.22,0-.44-.04-.64-.16-.55-.33-.72-1.03-.4-1.58.88-1.48,1.51-2.29,1.54-2.32.39-.5,1.11-.58,1.61-.19.5.39.58,1.11.19,1.61h0s-.57.74-1.37,2.08c-.21.34-.56.54-.94.56Z"/><path class="cls-7" d="M276.58,151.08c-.21,0-.43-.06-.62-.18-.53-.34-.69-1.05-.35-1.59.68-1.06,1.32-2.16,1.91-3.25.3-.56,1-.77,1.56-.47.56.3.77,1,.47,1.56-.61,1.15-1.28,2.29-2,3.41-.22.34-.59.53-.97.53Z"/><path class="cls-7" d="M280.52,143.56c-.15,0-.3-.03-.44-.09-.59-.24-.87-.92-.62-1.5.27-.65.53-1.32.77-1.99,6.21-17.23-.32-32.36-.39-32.51-.26-.58,0-1.26.58-1.52.58-.26,1.26,0,1.52.58.29.65,6.99,16.09.45,34.22-.25.7-.53,1.4-.81,2.09-.18.44-.61.71-1.06.71Z"/><path class="cls-7" d="M290.39,144.61c-.12,0-.25-.02-.37-.06-.6-.2-.92-.86-.72-1.46,4.36-12.86,3.8-23.53,2.57-30.22-1.34-7.25-3.75-11.52-3.77-11.56-.31-.55-.12-1.25.43-1.57.55-.32,1.25-.13,1.57.42.42.72,10.08,18,1.39,43.66-.16.48-.61.78-1.09.78Z"/><path class="cls-8" d="M243.16,21.19s4.26-10.76,11.01-11.52c0,0,2.83-.45,4.35,1.65,1.53,2.1.79,5.12-1.52,6.31-.59.3-1.31.55-2.21.7-.46.08-.94.1-1.41.09-1.7-.04-7.1.06-10.23,2.78Z"/><path class="cls-7" d="M243.16,22.19c-.2,0-.41-.06-.58-.19-.38-.27-.52-.76-.35-1.19.18-.46,4.55-11.32,11.82-12.14.35-.05,3.5-.41,5.29,2.05.9,1.23,1.21,2.8.85,4.31-.36,1.51-1.35,2.79-2.72,3.49-.72.37-1.56.64-2.51.79-.49.08-1.01.12-1.6.1-1.51-.04-6.68.04-9.55,2.53-.19.16-.42.25-.66.25ZM254.82,10.64c-.29,0-.48.03-.49.03-.01,0-.03,0-.04,0-3.11.35-5.7,3.24-7.32,5.61-.56.82-1.05,1.64-1.46,2.37,2.98-1.19,6.32-1.28,7.91-1.24.45.01.85-.01,1.22-.07.74-.12,1.38-.32,1.92-.6.84-.43,1.46-1.22,1.68-2.17.22-.93.03-1.9-.52-2.66-.81-1.11-2.18-1.27-2.9-1.27Z"/><path class="cls-7" d="M243.16,22.31c-.23,0-.46-.07-.65-.21-.42-.3-.58-.84-.39-1.32.18-.46,4.59-11.38,11.91-12.21.36-.05,3.56-.42,5.4,2.1.92,1.26,1.23,2.86.87,4.4-.37,1.55-1.38,2.85-2.78,3.56-.73.37-1.58.65-2.54.8-.5.08-1.03.12-1.62.1-1.5-.03-6.63.04-9.47,2.5-.2.18-.46.27-.73.27ZM254.83,8.74c-.39,0-.67.03-.76.05-7.2.82-11.55,11.61-11.73,12.07-.15.38-.02.82.31,1.06.33.23.8.21,1.1-.05,2.9-2.52,8.1-2.59,9.63-2.56.57.02,1.09-.02,1.57-.1.93-.16,1.77-.42,2.47-.78,1.34-.69,2.31-1.93,2.66-3.42.35-1.47.05-3.01-.83-4.21-1.3-1.78-3.32-2.05-4.43-2.05ZM245.51,18.76s-.06-.01-.08-.04c-.03-.04-.04-.09-.01-.13.46-.84.96-1.64,1.46-2.38,1.64-2.39,4.25-5.31,7.4-5.66h.04s.21-.03.5-.03c.76,0,2.16.17,2.99,1.32.57.78.77,1.78.54,2.75-.23.97-.87,1.79-1.74,2.24-.54.28-1.2.48-1.95.61-.38.06-.78.09-1.24.08-1.68-.04-4.93.06-7.87,1.24-.01,0-.03,0-.04,0ZM254.82,10.75c-.28,0-.46.03-.47.03h-.04c-3.07.35-5.63,3.22-7.24,5.57-.45.65-.88,1.36-1.3,2.09,2.89-1.08,6.02-1.18,7.67-1.14.44.01.84-.01,1.2-.07.73-.12,1.36-.32,1.89-.59.82-.42,1.41-1.18,1.62-2.09.21-.9.03-1.84-.5-2.57-.78-1.07-2.09-1.23-2.81-1.23Z"/><path class="cls-8" d="M247.22,30.06s7.86-5.18,12.71-2.53c0,0,2.09,1.02,2.13,3.13.04,2.11-1.87,3.78-3.96,3.49-.53-.07-1.13-.25-1.8-.57-.35-.17-.67-.37-.98-.6-1.12-.82-4.76-3.27-8.11-2.93Z"/><path class="cls-7" d="M258.58,35.19c-.2,0-.4-.01-.6-.04-.67-.09-1.38-.31-2.1-.66-.38-.18-.75-.41-1.14-.7-.98-.72-4.4-3.05-7.41-2.74-.46.05-.89-.23-1.05-.66-.16-.44,0-.92.39-1.18.34-.22,8.41-5.47,13.73-2.58.29.15,2.62,1.43,2.67,4,.02,1.29-.53,2.54-1.51,3.41-.83.74-1.9,1.14-2.98,1.14ZM250.51,29.41c2.37.67,4.43,2.04,5.42,2.77.29.21.55.38.81.5.53.25,1.04.42,1.5.48.71.1,1.43-.13,1.98-.61.54-.48.85-1.16.83-1.87-.03-1.45-1.56-2.24-1.57-2.25-.01,0-.03-.01-.04-.02-2.16-1.18-5.17-.48-7.31.31-.58.22-1.13.45-1.63.68Z"/><path class="cls-7" d="M258.58,35.3c-.21,0-.41-.01-.62-.04-.68-.09-1.4-.32-2.13-.67-.38-.18-.76-.41-1.16-.71-.97-.71-4.36-3.02-7.33-2.72-.52.05-.99-.25-1.17-.74-.17-.49,0-1.02.44-1.31.34-.23,8.47-5.51,13.85-2.58.27.14,2.68,1.45,2.73,4.1.02,1.33-.54,2.6-1.55,3.49-.85.75-1.94,1.17-3.06,1.17ZM247.89,30.92c2.9,0,5.99,2.11,6.92,2.79.38.28.75.51,1.12.69.71.34,1.4.56,2.06.65,1.25.17,2.54-.22,3.5-1.07.96-.85,1.49-2.06,1.47-3.32-.04-2.52-2.35-3.77-2.61-3.9-5.26-2.86-13.28,2.35-13.62,2.57-.34.23-.49.66-.35,1.05.14.39.53.63.93.59.19-.02.38-.03.57-.03ZM258.58,33.29c-.12,0-.23,0-.35-.02-.48-.07-.99-.23-1.53-.49-.27-.13-.54-.3-.83-.51-1.01-.74-3.04-2.09-5.38-2.75-.04-.01-.08-.05-.08-.1,0-.05.02-.09.06-.11.56-.26,1.11-.49,1.64-.69,2.16-.81,5.2-1.51,7.4-.31l.03.02s1.61.82,1.63,2.34c.01.74-.3,1.45-.87,1.95-.48.43-1.1.66-1.72.66ZM250.83,29.39c2.25.7,4.19,1.98,5.16,2.7.28.21.54.37.8.49.52.25,1.02.41,1.47.47.68.09,1.37-.12,1.89-.58.52-.46.81-1.11.8-1.78-.02-1.38-1.5-2.14-1.51-2.15l-.03-.02c-2.14-1.17-5.11-.47-7.22.32-.44.16-.89.35-1.35.56Z"/><path class="cls-7" d="M198.16,77.21c-.5,0-.95-.36-1.04-.87-.1-.57.28-1.11.85-1.22.26-.05,5.68-1.27,4.53-11.52-.07-.58.35-1.1.93-1.16.58-.07,1.1.35,1.16.93,1.38,12.33-5.94,13.77-6.25,13.83-.06.01-.12.02-.18.02Z"/><path class="cls-7" d="M228.31,77.21c-.06,0-.12,0-.18-.02-.31-.06-7.64-1.49-6.25-13.83.06-.58.58-1,1.16-.93.58.06.99.59.93,1.16-1.17,10.39,4.47,11.51,4.52,11.52.57.1.96.65.85,1.22-.09.51-.53.87-1.04.87Z"/><path class="cls-7" d="M260.08,142.49c-.8,0-1.62-.12-2.42-.38-7.74-2.45-14.4-13.38-14.68-13.84-.31-.51-.14-1.17.37-1.47.51-.31,1.17-.14,1.47.36.06.11,6.52,10.7,13.49,12.9,2.84.9,5.99-.56,7.18-3.33,1.97-4.62,4.13-14.57,3.21-35.8-.03-.59.43-1.09,1.03-1.12.59-.03,1.09.43,1.12,1.03.93,21.63-1.32,31.91-3.38,36.73-1.3,3.05-4.24,4.91-7.38,4.91Z"/><path class="cls-7" d="M165.15,127.49c-.18,0-.36-.04-.52-.14-.52-.29-.7-.94-.41-1.46,3.54-6.31,8.08-26.53,8.29-27.5,2.01-13.27,11.74-19.24,12.15-19.49.51-.3,1.17-.14,1.47.37.3.51.14,1.17-.37,1.47-.11.07-9.31,5.77-11.14,18.01,0,.02,0,.05-.01.07-.19.87-4.76,21.41-8.53,28.12-.2.35-.56.55-.94.55Z"/><path class="cls-7" d="M183.6,133c-.1,0-.21-.02-.32-.05-.57-.17-.88-.77-.71-1.34l2.59-8.41c.17-.57.77-.88,1.34-.71.57.17.88.77.71,1.34l-2.59,8.41c-.14.46-.57.76-1.02.76Z"/><path class="cls-4" d="M242.54,103.28c-3.26-8.74-4.18-25.42-4.19-25.59-.03-.49-.39-.9-.87-.98l-6.28-1.05c-.32-.05-.65.05-.88.27-.24.22-.36.54-.33.86.68,7.4-.72,13.08-4.17,16.87-4.36,4.8-10.77,5.19-12.62,5.2-1.86,0-8.27-.4-12.63-5.2-3.44-3.79-4.85-9.47-4.17-16.87.03-.32-.09-.64-.33-.86-.24-.22-.56-.32-.88-.27l-6.28,1.05c-.48.08-.85.49-.87.98,0,.17-.92,16.76-4.16,25.52-.57.96-4.6,8.19-1.62,16.88l4.03,12.74c.13.42.52.71.96.73,4.06.16,12.79.21,25.95.17,2.79,0,5.38.01,7.77.01,8.88,0,14.98-.06,18.19-.19.44-.02.82-.31.96-.73l4.03-12.71c2.59-6.52-1.32-16.2-1.58-16.83Z"/><path class="cls-5" d="M264.37,98.26c-2.8-3.88-6.62-6.9-11.05-8.72-1.91-.79-4.57.1-5.8,1.67-1.62,2.05-3.23,4.1-4.85,6.14-6.31,6.48,10.34,14.81,10.34,14.81,0,0,4.2,1.4,6.23-1.73,1.42-2.19,3.23-4.1,4.85-6.14,1.23-1.56,1.48-4.36.27-6.03Z"/><path class="cls-7" d="M254.71,113.56c-.06,0-.12,0-.18-.02-4.68-.81-9.45-5.28-11.87-7.88-1.43-1.53-2.18-3.56-2.07-5.57.11-2.05,1.01-3.14,1.3-3.44l4.81-6.09c1.58-2,4.79-2.91,7.02-1.99,4.6,1.89,8.58,5.03,11.49,9.07,1.41,1.95,1.28,5.29-.3,7.29l-4.85,6.14c-.36.45-1.02.53-1.47.17-.45-.36-.53-1.02-.17-1.47l4.85-6.14c1.01-1.28,1.13-3.55.25-4.77-2.69-3.73-6.35-6.62-10.6-8.36-1.39-.58-3.57.07-4.58,1.35l-4.85,6.14c-.04.06-.06.08-.11.12-.08.09-.63.72-.7,2.09-.08,1.45.47,2.92,1.51,4.03,1.81,1.94,6.46,6.52,10.69,7.25.57.1.95.64.85,1.21-.09.51-.53.87-1.03.87Z"/><path class="cls-7" d="M254.71,113.68c-.07,0-.13,0-.2-.02-4.71-.81-9.5-5.31-11.93-7.92-1.45-1.55-2.21-3.61-2.1-5.66.11-2.1,1.05-3.22,1.33-3.51l4.8-6.09c1.61-2.04,4.88-2.96,7.16-2.02,4.62,1.9,8.62,5.05,11.54,9.11,1.44,1.99,1.3,5.39-.3,7.43l-4.85,6.14c-.4.5-1.13.59-1.63.19-.5-.4-.59-1.13-.19-1.63l4.85-6.14c.98-1.24,1.1-3.45.24-4.63-2.67-3.71-6.32-6.59-10.55-8.32-1.35-.56-3.46.07-4.45,1.31l-4.85,6.14c-.05.06-.07.09-.13.14-.05.06-.59.66-.66,2.01-.08,1.42.46,2.85,1.48,3.95,1.8,1.93,6.44,6.49,10.63,7.21.63.11,1.06.71.95,1.34-.1.56-.58.96-1.14.96ZM251.78,88.33c-1.85,0-3.85.86-4.99,2.3l-4.81,6.1c-.28.29-1.16,1.35-1.27,3.37-.11,1.98.64,3.98,2.04,5.49,2.41,2.59,7.16,7.05,11.8,7.85.52.09.99-.26,1.08-.76.09-.51-.25-.99-.76-1.08-4.26-.73-8.94-5.34-10.76-7.28-1.06-1.14-1.62-2.64-1.54-4.12.08-1.39.63-2.04.73-2.16.05-.04.06-.06.09-.1l4.86-6.16c1.04-1.32,3.29-1.97,4.71-1.38,4.27,1.75,7.95,4.66,10.65,8.4.91,1.25.79,3.59-.25,4.9l-4.85,6.14c-.15.2-.22.44-.19.69.03.25.15.47.35.62.4.32.99.25,1.31-.15l4.85-6.14c1.55-1.96,1.68-5.24.3-7.15-2.9-4.02-6.86-7.15-11.44-9.03-.58-.24-1.23-.35-1.9-.35Z"/><path class="cls-7" d="M256.59,110.64c-.33,0-.65-.15-.85-.44-4.35-6.13-10.96-8.8-11.03-8.83-.54-.21-.8-.82-.59-1.36.21-.54.82-.8,1.36-.59.29.12,7.24,2.91,11.97,9.57.33.47.22,1.12-.25,1.46-.18.13-.4.19-.6.19Z"/><path class="cls-7" d="M256.59,110.75c-.38,0-.73-.18-.95-.49-4.34-6.11-10.91-8.76-10.98-8.79-.6-.24-.89-.91-.65-1.51.23-.6.91-.89,1.51-.65.3.12,7.28,2.92,12.02,9.61.37.52.25,1.25-.27,1.62-.2.14-.43.21-.67.21ZM245.1,99.46c-.37,0-.72.22-.87.59-.19.48.05,1.02.52,1.21.07.03,6.7,2.7,11.08,8.87.17.25.46.39.76.39.19,0,.38-.06.54-.17.42-.3.52-.88.22-1.3-4.7-6.63-11.62-9.41-11.92-9.53-.11-.04-.23-.06-.34-.06Z"/></g></svg>