<?xml version="1.0" encoding="UTF-8"?><svg id="_レイヤー_2" xmlns="http://www.w3.org/2000/svg" viewBox="0 0 261.26 58.64"><defs><style>.cls-1{fill:none;stroke:#fff;stroke-miterlimit:10;}.cls-2{fill:#ffec0c;}.cls-2,.cls-3,.cls-4{stroke-width:0px;}.cls-3{fill:#fff;}.cls-4{fill:#00a77d;}</style></defs><g id="_レイヤー_1-2"><path class="cls-1" d="M184.15,14.21c11.42,4.18,15.04,22.29.84,27.58-14.21,5.29-33.43,5.85-43.74,5.29-10.31-.56-14.99,2.43-12.54,6.41,4.46,7.24,9.47,2.79,6.97.56-3.68-3.27-10.03-4.74-18.67-2.79-8.64,1.95-66.03,18.39-73.83-7.8C29.24,49.04-3.08,41.24.82,15.05"/><path class="cls-3" d="M40.44,31.03c-.39,0-.73-.13-1-.4-.27-.27-.41-.61-.41-1.04v-7.99c-.74.67-1.48,1.29-2.24,1.85-.36.24-.73.35-1.12.33s-.72-.2-.99-.54c-.27-.36-.38-.73-.31-1.12.07-.38.29-.71.67-.96,1.17-.8,2.27-1.73,3.33-2.79,1.05-1.05,1.92-2.06,2.61-3.02.55-.74.33-1.1-.67-1.1h-3.93c-.43,0-.76-.13-.99-.39-.23-.26-.35-.57-.35-.95s.12-.7.35-.95c.23-.26.56-.38.99-.38h2.59v-3.14c0-.45.14-.79.41-1.05s.62-.38,1.03-.38.73.13,1.01.38.42.61.42,1.05v3.14h.03c.87,0,1.54.18,2,.53.46.35.71.81.75,1.39s-.15,1.2-.57,1.89c-.26.43-.53.85-.81,1.27-.28.42-.58.83-.89,1.22.31.22.69.5,1.14.83s.89.65,1.31.95c.42.3.74.53.96.68.34.22.53.51.55.86.03.35-.08.69-.32,1.01-.22.29-.52.47-.9.53-.38.06-.74-.04-1.08-.29-.21-.17-.51-.42-.91-.75-.4-.32-.82-.65-1.25-.98v8.87c0,.43-.14.78-.41,1.04-.27.27-.62.4-1.03.4ZM51.34,30.57c-.48,0-.87-.14-1.18-.42s-.47-.64-.49-1.07c-.02-.45.12-.82.4-1.12.28-.3.64-.46,1.07-.48.7-.03,1.24-.1,1.61-.21s.64-.31.82-.62c.18-.31.32-.78.42-1.41.17-1.08.3-2.15.38-3.2.09-1.05.15-2.2.19-3.43.04-1.23.06-2.64.06-4.21,0-.57-.06-1-.17-1.3-.11-.3-.32-.5-.63-.6-.31-.1-.77-.15-1.39-.15h-.44c-.02,2.91-.23,5.44-.64,7.59s-1.08,4.03-2,5.65c-.92,1.62-2.18,3.09-3.78,4.41-.34.29-.74.44-1.18.44s-.83-.2-1.16-.59c-.24-.33-.34-.68-.3-1.05s.23-.68.55-.92c1.04-.82,1.92-1.71,2.63-2.67.71-.96,1.29-2.05,1.72-3.28s.75-2.62.95-4.19c.2-1.57.3-3.36.32-5.38h-2.85c-.43,0-.76-.13-1-.4-.24-.27-.36-.59-.36-.96s.12-.72.36-.98c.24-.26.57-.38,1-.38h6.45c1.18,0,2.13.14,2.84.42.71.28,1.23.75,1.55,1.41.33.66.48,1.56.46,2.71-.02,2.26-.06,4.3-.14,6.13s-.23,3.58-.45,5.26c-.17,1.32-.47,2.34-.9,3.07-.43.73-1.02,1.23-1.79,1.52-.76.28-1.75.42-2.97.42ZM44.27,18.85c-.26-.21-.41-.47-.46-.8s.03-.62.23-.87c.15-.21.37-.48.64-.82.27-.34.51-.65.72-.93.22-.29.5-.47.82-.53.33-.06.64.01.95.22.29.17.47.42.54.76.07.33-.02.66-.26.99-.17.24-.39.54-.67.89-.27.35-.53.67-.77.96-.21.26-.48.39-.82.41-.34.02-.65-.08-.92-.28Z"/><path class="cls-3" d="M61.56,25.12c-.39-.21-.63-.52-.72-.94s-.02-.81.21-1.17c.38-.58.75-1.22,1.12-1.91s.71-1.4,1.04-2.11c.33-.71.59-1.38.8-1.99.15-.44.44-.73.86-.86s.83-.11,1.22.06c.43.17.71.44.85.81.14.37.13.76-.03,1.17-.24.63-.52,1.33-.85,2.09-.33.76-.68,1.51-1.05,2.25-.38.74-.76,1.4-1.16,2-.26.38-.6.63-1.04.75s-.85.07-1.25-.15ZM74.85,30.1c-1.51,0-2.69-.14-3.55-.41-.86-.28-1.46-.76-1.82-1.45-.36-.69-.54-1.67-.54-2.92v-9.82c0-.5.15-.88.46-1.16.31-.27.68-.41,1.11-.41s.82.14,1.12.41c.3.28.45.66.45,1.16v9.48c0,.58.08,1.02.24,1.32.16.3.46.5.89.62.43.11,1.04.17,1.83.17.74,0,1.3-.05,1.7-.14.39-.1.7-.29.91-.59.21-.3.41-.75.58-1.35.14-.41.4-.7.78-.87s.8-.19,1.25-.05.76.38.94.72c.18.34.21.74.09,1.18-.24,1.03-.6,1.84-1.08,2.44s-1.14,1.03-1.99,1.29c-.85.26-1.97.38-3.35.38ZM74.92,13.2c-.41-.29-.9-.62-1.46-1-.57-.38-1.14-.74-1.71-1.1-.57-.36-1.09-.65-1.55-.88-.38-.19-.6-.48-.67-.89-.07-.4-.02-.76.15-1.07.21-.36.5-.59.87-.71s.75-.07,1.13.12c.48.22,1.01.5,1.61.83.59.33,1.19.69,1.79,1.05.6.37,1.13.71,1.59,1.04.36.24.58.56.67.95.08.39,0,.79-.23,1.18-.22.36-.56.59-1,.68-.45.1-.84.02-1.18-.22ZM84.43,23.29c-.38.29-.79.4-1.25.32-.45-.08-.8-.3-1.04-.68-.33-.53-.73-1.11-1.22-1.75-.49-.63-.99-1.25-1.52-1.85s-1.01-1.12-1.48-1.57c-.27-.27-.4-.61-.37-1.01.03-.4.18-.74.48-1.02s.64-.42,1.05-.42c.41,0,.78.13,1.1.42.53.5,1.08,1.06,1.64,1.68.57.62,1.11,1.25,1.62,1.88s.94,1.2,1.29,1.71c.27.39.38.8.33,1.22-.05.42-.27.78-.64,1.07Z"/><path class="cls-3" d="M99.24,30.85c-1.44,0-2.55-.14-3.34-.42-.79-.28-1.34-.78-1.66-1.48-.32-.7-.48-1.68-.48-2.93v-1.1c0-.34,0-.66.03-.96.02-.3.05-.58.1-.83-1.25.56-2.56,1.1-3.93,1.62-.5.19-.94.21-1.32.08s-.66-.43-.83-.87c-.14-.39-.11-.78.08-1.14.19-.37.52-.62,1-.76,3.48-1.1,6.59-2.54,9.35-4.34h-8.89c-.36,0-.67-.13-.94-.39-.27-.26-.4-.56-.4-.92,0-.38.13-.69.4-.95s.58-.38.94-.38h8.12v-2.29h-5.45c-.36,0-.67-.13-.92-.39-.26-.26-.39-.56-.39-.92,0-.38.13-.69.39-.95s.57-.38.92-.38h5.45v-1.77c0-.46.15-.84.45-1.12.3-.28.66-.43,1.09-.43s.81.14,1.11.43c.29.28.44.65.44,1.12v1.77h2.67c.38,0,.69.13.95.38s.39.57.39.95-.13.67-.39.92c-.26.26-.57.39-.95.39h-2.67v2.29h1.13c1.99-1.77,3.66-3.81,5.01-6.14.22-.39.53-.64.92-.74.39-.1.78-.04,1.16.21.34.21.56.51.64.9.08.39.02.76-.21,1.11-.58.87-1.18,1.7-1.8,2.47-.62.77-1.25,1.51-1.9,2.21h5.27c.38,0,.69.13.95.38s.39.57.39.95-.13.67-.39.92c-.26.26-.57.39-.95.39h-8.07c-1.06.89-2.16,1.7-3.29,2.41h2.98c1.46,0,2.58.14,3.37.42.79.28,1.34.77,1.66,1.46.32.7.48,1.67.48,2.92v1.1c0,1.25-.16,2.23-.48,2.93-.32.7-.87,1.2-1.66,1.48-.79.28-1.91.42-3.37.42h-3.16ZM96.75,24.3h8.15c-.04-.7-.21-1.16-.54-1.36-.33-.21-.98-.31-1.95-.31h-3.16c-.96,0-1.6.1-1.93.31-.33.21-.51.66-.57,1.36ZM99.24,28.33h3.16c.98,0,1.63-.11,1.95-.33s.5-.68.54-1.36h-8.15c.03.69.22,1.14.55,1.36s.98.33,1.94.33Z"/><path class="cls-3" d="M131.26,30.7c-.48,0-.87-.15-1.17-.45-.3-.3-.46-.67-.48-1.12-.02-.43.11-.8.39-1.1.27-.31.65-.48,1.13-.52.7-.05,1.15-.16,1.35-.32.2-.16.3-.52.3-1.07v-9.38h-4.68c-.41,0-.74-.13-.99-.38-.25-.26-.37-.57-.37-.95s.11-.67.33-.93c-.15.07-.35.1-.59.1h-.9c-.24,1.23-.57,2.44-.98,3.62s-.91,2.33-1.49,3.44c.65.79,1.27,1.58,1.85,2.36.58.79,1.1,1.53,1.57,2.24.26.39.35.79.29,1.2s-.29.73-.68.99c-.38.26-.78.35-1.2.27-.42-.08-.75-.31-.99-.71-.7-1.15-1.53-2.35-2.49-3.62-1.32,1.92-2.89,3.58-4.7,4.99-.34.27-.73.4-1.17.38-.44-.02-.8-.21-1.09-.59-.24-.29-.34-.63-.29-1.03.04-.39.22-.7.53-.92,1.88-1.35,3.5-3.08,4.86-5.17-.62-.7-1.23-1.38-1.85-2.03-.62-.65-1.21-1.23-1.77-1.75-.29-.27-.43-.6-.41-.98.02-.38.14-.68.36-.92.26-.28.57-.43.95-.46.38-.04.73.09,1.05.36.51.43,1.04.9,1.57,1.41.53.51,1.06,1.06,1.59,1.64.34-.75.65-1.52.91-2.3s.48-1.59.66-2.43h-6.86c-.38,0-.69-.13-.92-.4-.24-.27-.36-.59-.36-.96s.12-.7.36-.95c.24-.26.57-.39.98-.39h3.93v-3.03c0-.48.16-.87.48-1.16s.69-.44,1.12-.44.83.15,1.14.44c.32.29.47.68.47,1.16v3.03h3.55c.41,0,.74.13.99.39.25.26.37.57.37.95s-.11.67-.33.92c.14-.07.32-.1.54-.1h4.68v-5.29c0-.45.14-.8.44-1.08.29-.27.64-.41,1.05-.41s.76.14,1.05.41c.29.27.44.63.44,1.08v5.29h1.77c.41,0,.74.13.98.4.24.27.36.59.36.96s-.12.69-.36.95c-.24.26-.57.38-.98.38h-1.77v9.89c0,1.01-.14,1.82-.41,2.42-.27.6-.74,1.02-1.39,1.27-.65.25-1.55.37-2.7.37ZM130.36,23.7c-.36.21-.74.27-1.13.19-.39-.08-.68-.29-.87-.63-.15-.29-.36-.63-.62-1.02s-.51-.78-.77-1.17c-.26-.39-.49-.72-.69-.98-.22-.31-.3-.65-.24-1.03.06-.38.25-.68.58-.9.34-.24.71-.33,1.09-.28.38.05.7.23.94.54.22.26.48.59.76.99.28.4.56.8.82,1.21s.48.73.63.99c.24.36.32.74.23,1.13-.09.39-.33.71-.72.95Z"/><path class="cls-3" d="M151.76,31.26c-.48,0-.87-.12-1.16-.37-.29-.25-.45-.58-.49-.99-.02-.39.11-.74.38-1.03.27-.29.65-.45,1.13-.46.96-.07,1.59-.27,1.9-.59.31-.32.46-.94.46-1.85-.69.41-1.46.83-2.33,1.26-.87.43-1.76.85-2.7,1.26-.93.41-1.84.79-2.72,1.12-.88.33-1.7.61-2.45.83-.38.12-.73.1-1.07-.06-.33-.16-.56-.44-.68-.83-.1-.36-.06-.69.13-.99.19-.3.5-.51.92-.63.75-.21,1.59-.47,2.51-.8.92-.32,1.85-.69,2.81-1.09.96-.4,1.88-.82,2.78-1.25.89-.43,1.7-.85,2.42-1.26-.03-.14-.08-.28-.14-.44-.06-.15-.12-.3-.19-.44-.82.48-1.75.96-2.78,1.44-1.03.48-2.09.92-3.19,1.32-1.1.4-2.15.74-3.16,1.02-.43.12-.8.13-1.12.04-.32-.1-.54-.35-.68-.76-.12-.39-.09-.74.1-1.03.19-.29.5-.5.95-.62.89-.21,1.87-.48,2.93-.83,1.06-.35,2.11-.74,3.13-1.17,1.03-.43,1.94-.86,2.72-1.29-.09-.14-.18-.27-.27-.4-.09-.13-.2-.25-.32-.37-1.13.56-2.36,1.1-3.7,1.59-1.34.5-2.65.91-3.93,1.23-.38.09-.73.07-1.07-.05-.33-.12-.55-.38-.66-.77-.12-.39-.08-.73.13-1.02.21-.28.56-.47,1.05-.58,1.08-.24,2.15-.52,3.23-.85,1.07-.32,2.08-.69,3.02-1.11h-.85c-1.04,0-1.86-.1-2.44-.29s-.99-.52-1.23-.98c-.24-.45-.36-1.07-.36-1.84v-.28c0-.1,0-.19.03-.26-.1.07-.21.14-.31.22-.1.08-.21.15-.31.22-.33.24-.7.36-1.13.35-.43,0-.79-.21-1.08-.6-.22-.29-.3-.63-.24-1.01.06-.39.25-.69.58-.91.51-.36,1.07-.79,1.67-1.3.6-.5,1.2-1.04,1.79-1.61.59-.57,1.14-1.12,1.64-1.66.5-.54.91-1.01,1.22-1.43.29-.38.65-.59,1.07-.63.42-.04.77.04,1.07.24.34.22.55.52.63.89.08.37,0,.7-.24.99l-.1.15h4.57c.84,0,1.47.15,1.9.46.43.31.66.7.69,1.17.03.47-.15.94-.54,1.4-.07.09-.14.17-.21.26l-.21.26h1.88c1.04,0,1.86.1,2.44.29s.99.52,1.23.96c.24.45.36,1.05.36,1.82s-.12,1.38-.36,1.84c-.24.46-.65.78-1.23.98s-1.4.29-2.44.29h-4.96c-.05.1-.13.18-.23.23l-.13.08c.41.43.79.9,1.14,1.41.35.51.66,1.04.91,1.59.03-.02.09-.03.15-.03.48-.29,1.01-.62,1.58-.98.57-.36,1.12-.72,1.64-1.08s.96-.67,1.3-.93c.39-.31.79-.44,1.19-.4.4.04.71.21.91.5.22.33.31.66.26,1.02-.05.35-.23.63-.54.83-.53.36-1.17.77-1.93,1.22-.75.46-1.51.88-2.26,1.27.6.5,1.25.99,1.97,1.48s1.43.95,2.16,1.39c.73.44,1.4.82,2.02,1.14.34.17.56.45.66.85.09.39.02.76-.22,1.11-.24.38-.57.59-1,.63-.43.04-.84-.05-1.23-.27-.94-.55-1.92-1.2-2.93-1.95s-1.93-1.54-2.75-2.37c0,.09,0,.17.01.26s.01.17.01.26c0,2-.39,3.43-1.17,4.27-.78.84-2.1,1.26-3.97,1.26ZM147.75,12.3c.17-.02.35-.03.53-.03h5.31c.08-.12.17-.23.26-.33.09-.1.15-.19.21-.26.14-.19.17-.36.1-.5-.07-.15-.23-.22-.49-.22h-4.55l-.67.67c-.22.22-.45.45-.69.67ZM148.85,16.2h3.5v-1.67h-3.5c-.38,0-.64.06-.78.17s-.22.33-.22.65.07.55.22.67c.15.12.41.18.78.18ZM155.51,16.2h3.62c.39,0,.66-.06.8-.18.14-.12.21-.34.21-.67s-.07-.54-.21-.65c-.14-.11-.4-.17-.8-.17h-3.62v1.67Z"/><path class="cls-2" d="M230.98,2.06c-1.98-3.1-6.65-2.6-7.93.85l-12.32,33.28c-.5,1.35-.31,2.86.5,4.06l10.91,15.96c.53.78,1.28,1.35,2.13,1.66l15.53-41.96-8.82-13.85Z"/><path class="cls-4" d="M255.51,11.14l-15.71,4.77-15.53,41.96c.85.31,1.79.37,2.7.12l18.67-5.02c1.39-.37,2.52-1.4,3.02-2.75l12.32-33.28c1.28-3.45-1.95-6.87-5.47-5.8Z"/></g></svg>