<?xml version="1.0" encoding="UTF-8"?><svg id="_レイヤー_2" xmlns="http://www.w3.org/2000/svg" viewBox="0 0 66.5 63.34"><defs><style>.cls-1{fill:#ff9c00;stroke-width:0px;}</style></defs><g id="_レイヤー_2-2"><path class="cls-1" d="M66.5,21.18l-4.73.66C57.63,9.17,45.73,0,31.67,0,14.18,0,0,14.18,0,31.67c0,17.49,14.18,31.67,31.67,31.67.93,0,1.86-.04,2.78-.12l-.64-7.35h0c-.7.06-1.41.09-2.14.09-6.72,0-12.77-2.71-17.18-7.12-4.4-4.41-7.11-10.46-7.12-17.18,0-6.72,2.71-12.77,7.12-17.18,4.41-4.4,10.46-7.11,17.18-7.12,6.72,0,12.77,2.71,17.18,7.12,2.37,2.37,4.23,5.23,5.46,8.4l-4.04.57,10.42,15.23,2.33-7.02h.32c0-.28-.03-.56-.04-.84l3.2-9.64Z"/><path class="cls-1" d="M51.82,45.25c-.4.59-.82,1.16-1.27,1.72l5.73,4.64c.58-.72,1.13-1.46,1.65-2.23l-6.11-4.13h0Z"/><path class="cls-1" d="M41.33,53.97c-1.18.51-2.41.93-3.67,1.25l1.81,7.15c1.66-.42,3.26-.97,4.8-1.64l-2.94-6.76h0Z"/><path class="cls-1" d="M44.76,52.14l3.98,6.21c1.43-.91,2.78-1.94,4.03-3.07l-4.92-5.5c-.97.86-2,1.65-3.1,2.35Z"/><path class="cls-1" d="M28.03,31.2c1.17-1.33,1.88-2.71,1.88-4.48,0-2.99-2.15-5.27-5.68-5.27s-5.62,2.23-5.81,4.78c-.03.16.06.3.22.33l2.99.49c.19.03.3-.05.3-.22.16-1.41.93-2.17,2.17-2.17s2.01.9,2.01,2.12c0,.95-.38,1.74-1.09,2.55l-6.49,7.71c-.11.14-.14.22-.14.38v2.53c0,.16.11.27.27.27h10.97c.16,0,.27-.11.27-.27v-2.69c0-.16-.11-.27-.27-.27h-6.46v-.05l4.86-5.73Z"/><path class="cls-1" d="M46.11,37.53c.16,0,.27-.11.27-.27v-2.74c0-.16-.11-.27-.27-.27h-1.22l-.16-.16v-3.99c0-.16-.11-.27-.27-.27h-3.15c-.16,0-.27.11-.27.27v3.99l-.16.16h-3.39v-.08l5.54-12.14c.05-.16,0-.27-.19-.27h-3.45c-.19,0-.3.05-.38.22l-5.54,12.19-.05.33v2.77c0,.16.11.27.27.27h7.2l.16.16v2.25c0,.16.11.27.27.27h3.15c.16,0,.27-.11.27-.27v-2.25l.16-.16h1.22Z"/></g></svg>