<?xml version="1.0" encoding="UTF-8"?><svg id="_レイヤー_2" xmlns="http://www.w3.org/2000/svg" viewBox="0 0 63.98 72.68"><defs><style>.cls-1{fill:#ff9c00;stroke-width:0px;}</style></defs><g id="_レイヤー_2-2"><path class="cls-1" d="M61.75,71.93c-1.65,1.11-5.14,1.26-6.93-1.41l-9.65-14.3h-14.98c-2.67,0-5.04-2.42-5.82-4.46l-3.93-10.42-5.57,12.36c-.97,2.18-3.2,2.67-4.94,1.89-1.89-.82-2.76-3.05-1.89-4.94l9.11-20.4c1.16-2.47,2.28-3.97,4.46-4.8,3.2-1.21,6.35.39,7.56,3.64l6.45,17.06h12.21c1.65,0,3.2.82,4.17,2.18l11.15,16.53c1.5,2.47.92,5.57-1.41,7.08h0ZM18.08,19.77c4.99,0,9.06-4.02,9.06-9.06S23.12,1.65,18.08,1.65s-9.06,4.02-9.06,9.06,4.07,9.06,9.06,9.06ZM39.99,58.99H2.08c-1.16,0-2.08.92-2.08,2.08s.92,2.08,2.08,2.08h37.9c1.16,0,2.08-.92,2.08-2.08s-.92-2.08-2.08-2.08ZM45.27,36.98s7.17-11.92,4.85-17.5c-2.81-6.74.05-12.8.05-12.8,0,0-6.93,6.69-4.75,15.99,1.7,6.06-.15,14.3-.15,14.3h0ZM53.61,30.29s7.17-11.92,4.85-17.5c-2.86-6.74.05-12.8.05-12.8,0,0-6.93,6.69-4.75,15.99,1.7,6.11-.15,14.3-.15,14.3Z"/></g></svg>