<?xml version="1.0" encoding="UTF-8"?><svg id="_レイヤー_2" xmlns="http://www.w3.org/2000/svg" viewBox="0 0 95.05 79.81"><defs><style>.cls-1{fill:none;stroke:#ff9c00;stroke-linecap:round;stroke-linejoin:round;stroke-width:3px;}</style></defs><g id="_レイヤー_2-2"><path class="cls-1" d="M17.68,50.85s-7.44-1.31-8.09,8.22c-.65-9.53-8.09-8.22-8.09-8.22v-.12s7.44,1.31,8.09-8.22c.65,9.53,8.09,8.22,8.09,8.22"/><path class="cls-1" d="M93.55,58.9s-6.88-1.21-7.48,7.6c-.6-8.81-7.48-7.6-7.48-7.6v-.11s6.88,1.21,7.48-7.6c.6,8.81,7.48,7.6,7.48,7.6"/><path class="cls-1" d="M22.14,47.46C2.38,24.37,33.8,1.5,33.8,1.5"/><path class="cls-1" d="M61.65,1.5s30.58,22.25,12.43,45.03"/><path class="cls-1" d="M25.71,44.5c-.63-2.73-.99-5.13-1.19-6.88"/><path class="cls-1" d="M60.43,63.64c-3.19,3.42-7.34,6.12-12.71,7.31-5.36-1.19-9.5-3.89-12.7-7.31"/><path class="cls-1" d="M70.99,36.97c-.18,1.78-.54,4.45-1.26,7.53"/><path class="cls-1" d="M22.64,40.17s9.17-12.49,16.08-21.66c6.91-9.17,17.1-6.85,17.1-6.85"/><path class="cls-1" d="M38.72,18.52s10.08-4.09,22.99,9.39c6.17,6.44,10.02,9.82,12.35,11.59"/><path class="cls-1" d="M45.49,51.53s2.15,2.37,4.47,0"/><path class="cls-1" d="M52.1,59.93s-3.36,3.56-8.75,0"/><line class="cls-1" x1="38.71" y1="78.31" x2="38.71" y2="66.9"/><line class="cls-1" x1="56.75" y1="78.31" x2="56.75" y2="66.9"/><path class="cls-1" d="M26.44,78.31v-4.73l-3.81-4.06c-1.78-1.9-2.66-4.46-2.4-7.05.36-3.68,1.65-9.06,5.69-13.89.78-.94,2.18-1.07,3.12-.29,1.35,1.13,2.98,3.04,2.99,5.68.01,4.5-1.81,10.85,1.06,15.33v7.93"/><path class="cls-1" d="M69.01,78.31v-4.73l3.81-4.06c1.78-1.9,2.66-4.46,2.4-7.05-.36-3.68-1.65-9.06-5.69-13.89-.78-.94-2.18-1.07-3.12-.29-1.35,1.13-2.98,3.04-2.99,5.68-.01,4.5,1.81,10.85-1.06,15.33v7.93"/></g></svg>