<?xml version="1.0" encoding="UTF-8"?><svg id="_レイヤー_2" xmlns="http://www.w3.org/2000/svg" viewBox="0 0 32 32"><defs><style>.cls-1{fill:#898989;}.cls-1,.cls-2,.cls-3{stroke-width:0px;}.cls-2{fill:none;}.cls-3{fill:#f7b52c;}</style></defs><g id="_レイヤー_1-2"><path class="cls-1" d="M13.49,2.69h8.7C20.65,1.04,18.32,0,14.84,0H4.77C2.55,0,.99.93.99,3.9v18.19c0,2.97,1.56,3.9,3.79,3.9h.73c-2.32-2.33-3.04-6.01-3.04-10.3,0-7.43,2.12-12.99,11.03-12.99Z"/><path class="cls-3" d="M26.49,15.96v8.82c0,2.97-1.56,3.9-3.79,3.9h-9.21c-1.74,0-3.22-.21-4.47-.61,1.62,2.45,4.41,3.93,9,3.93h9.21c2.23,0,3.79-.93,3.79-3.9v-12.14h-4.53Z"/><path class="cls-3" d="M15.79,24.78h3.94c.41,0,.73-.03.99-.1.22-.13.42-.28.62-.43.18-.29.25-.71.25-1.33v-3.82h-3.65v-3.21h7.03c.09-.96.12-1.93.12-2.9,0-2.19-.17-4.42-.76-6.4h-8.53c-6.31,0-8.28,2.04-8.28,9.1s1.97,9.1,8.28,9.1Z"/><rect class="cls-2" width="32" height="32"/></g></svg>